<?xml version="1.0" encoding="utf-8"?>
<svg viewBox="0 0 500 500" xmlns="http://www.w3.org/2000/svg">
  <path d="M 479.361 310.493 L 436.761 285.893 C 441.061 262.693 441.061 238.893 436.761 215.693 L 479.361 191.093 C 484.261 188.293 486.461 182.493 484.861 177.093 C 473.761 141.493 454.861 109.293 430.161 82.493 C 426.361 78.393 420.161 77.393 415.361 80.193 L 372.761 104.793 C 354.861 89.393 334.261 77.493 311.961 69.693 L 311.961 20.593 C 311.961 14.993 308.061 10.093 302.561 8.893 C 265.861 0.693 228.261 1.093 193.361 8.893 C 187.861 10.093 183.961 14.993 183.961 20.593 L 183.961 69.793 C 161.761 77.693 141.161 89.593 123.161 104.893 L 80.661 80.293 C 75.761 77.493 69.661 78.393 65.861 82.593 C 41.161 109.293 22.261 141.493 11.161 177.193 C 9.461 182.593 11.761 188.393 16.661 191.193 L 59.261 215.793 C 54.961 238.993 54.961 262.793 59.261 285.993 L 16.661 310.593 C 11.761 313.393 9.561 319.193 11.161 324.593 C 22.261 360.193 41.161 392.393 65.861 419.193 C 69.661 423.293 75.861 424.293 80.661 421.493 L 123.261 396.893 C 141.161 412.293 161.761 424.193 184.061 431.993 L 184.061 481.193 C 184.061 486.793 187.961 491.693 193.461 492.893 C 230.161 501.093 267.761 500.693 302.661 492.893 C 308.161 491.693 312.061 486.793 312.061 481.193 L 312.061 431.993 C 334.261 424.093 354.861 412.193 372.861 396.893 L 415.461 421.493 C 420.361 424.293 426.461 423.393 430.261 419.193 C 454.961 392.493 473.861 360.293 484.961 324.593 C 486.461 319.093 484.261 313.293 479.361 310.493 Z M 247.961 330.793 C 203.861 330.793 167.961 294.893 167.961 250.793 C 167.961 206.693 203.861 170.793 247.961 170.793 C 292.061 170.793 327.961 206.693 327.961 250.793 C 327.961 294.893 292.061 330.793 247.961 330.793 Z" style="fill: rgb(255, 203, 1); pointer-events: none;"/>
</svg>