<svg xmlns="http://www.w3.org/2000/svg" width="61" height="62" viewBox="0 0 61 62" fill="none">
<path d="M30.5 61.2134C47.1376 61.2134 60.625 47.6141 60.625 30.8384C60.625 14.0628 47.1376 0.463409 30.5 0.463409C13.8624 0.463409 0.375 14.0628 0.375 30.8384C0.375 47.6141 13.8624 61.2134 30.5 61.2134Z" fill="#2A80B9"/>
<path opacity="0.1" d="M60.6208 31.1771L41.1197 11.5141L38.6048 14.0498L34.5955 10.0072L30.7552 13.8794L25.208 8.28619L18.7013 14.8466L28.2578 24.4824L22.8329 29.9524L29.2995 36.4727L16.9423 48.9325L29.0881 61.1791C29.5559 61.201 30.0261 61.2134 30.4994 61.2134C47.0251 61.2134 60.4406 47.7962 60.6208 31.1771Z" fill="black"/>
<path d="M16.206 16.1764V47.1683C16.206 48.5246 17.2962 49.6235 18.6413 49.6235H38.9335C40.2786 49.6235 41.3688 48.5243 41.3688 47.1683V16.1764H16.206Z" fill="white"/>
<path d="M17.013 14.3551V45.9181C17.013 47.1871 18.0337 48.2159 19.292 48.2159H38.2828C39.5414 48.2159 40.5614 47.1871 40.5614 45.9181V14.3551H17.013Z" fill="#FFAA00"/>
<path opacity="0.2" d="M25.7159 43.2517C25.7159 42.8499 25.3929 42.524 24.9944 42.524C24.5955 42.524 24.2726 42.8496 24.2726 43.2517C24.2726 43.6536 24.5955 43.9792 24.9944 43.9792C25.3929 43.9792 25.7159 43.6536 25.7159 43.2517Z" fill="#F6F8FB"/>
<path opacity="0.2" d="M30.1888 35.1264C30.1888 34.7246 29.8659 34.3987 29.4667 34.3987C29.0685 34.3987 28.7452 34.7243 28.7452 35.1264C28.7452 35.5283 29.0682 35.8539 29.4667 35.8539C29.8659 35.8539 30.1888 35.5283 30.1888 35.1264Z" fill="#F6F8FB"/>
<path opacity="0.2" d="M33.9617 40.5873C33.9617 40.1854 33.6387 39.8595 33.2399 39.8595C32.8416 39.8595 32.5184 40.1851 32.5184 40.5873C32.5184 40.9891 32.8413 41.3147 33.2399 41.3147C33.6387 41.315 33.9617 40.9894 33.9617 40.5873Z" fill="#F6F8FB"/>
<path opacity="0.2" d="M23.0842 24.2622C23.0842 23.8603 22.7612 23.5344 22.3627 23.5344C21.9638 23.5344 21.6409 23.86 21.6409 24.2622C21.6409 24.6641 21.9638 24.99 22.3627 24.99C22.7609 24.99 23.0842 24.6644 23.0842 24.2622Z" fill="#F6F8FB"/>
<path opacity="0.2" d="M22.0433 36.7591C22.0433 36.3572 21.7204 36.0313 21.3215 36.0313C20.9233 36.0313 20.5997 36.3569 20.5997 36.7591C20.5997 37.161 20.923 37.4866 21.3215 37.4866C21.7201 37.4866 22.0433 37.161 22.0433 36.7591Z" fill="#F6F8FB"/>
<path opacity="0.2" d="M28.193 26.4316C28.193 26.0297 27.8701 25.7038 27.471 25.7038C27.0727 25.7038 26.7495 26.0294 26.7495 26.4316C26.7495 26.8334 27.0724 27.1591 27.471 27.1591C27.8701 27.1591 28.193 26.8334 28.193 26.4316Z" fill="#F6F8FB"/>
<path opacity="0.2" d="M32.2882 23.0524C32.2882 22.7787 32.0683 22.5569 31.7963 22.5569C31.5252 22.5569 31.305 22.7784 31.305 23.0524C31.305 23.326 31.5249 23.5478 31.7963 23.5478C32.0683 23.5478 32.2882 23.326 32.2882 23.0524Z" fill="#F6F8FB"/>
<path opacity="0.2" d="M22.5347 29.9815C22.5347 29.7079 22.3148 29.4861 22.0433 29.4861C21.7716 29.4861 21.5517 29.7076 21.5517 29.9815C21.5517 30.2552 21.7713 30.4769 22.0433 30.4769C22.3145 30.4769 22.5347 30.2555 22.5347 29.9815Z" fill="#F6F8FB"/>
<path opacity="0.2" d="M35.4149 28.9351C35.4149 28.6614 35.195 28.4397 34.9236 28.4397C34.6519 28.4397 34.4316 28.6611 34.4316 28.9351C34.4316 29.2088 34.6516 29.4305 34.9236 29.4305C35.195 29.4305 35.4149 29.2091 35.4149 28.9351Z" fill="#F6F8FB"/>
<path opacity="0.2" d="M32.2882 43.2518C32.2882 42.9781 32.0683 42.7563 31.7963 42.7563C31.5252 42.7563 31.305 42.9778 31.305 43.2518C31.305 43.5254 31.5249 43.7472 31.7963 43.7472C32.0683 43.7472 32.2882 43.5254 32.2882 43.2518Z" fill="#F6F8FB"/>
<path opacity="0.2" d="M35.5691 15.1688C35.5691 14.8089 35.2802 14.5179 34.9239 14.5179C34.5666 14.5179 34.2783 14.8089 34.2783 15.1688C34.2783 15.5285 34.5666 15.8195 34.9239 15.8195C35.2802 15.8192 35.5691 15.5282 35.5691 15.1688Z" fill="#F6F8FB"/>
<path opacity="0.2" d="M26.5714 16.7171C26.5714 16.3571 26.2825 16.0661 25.9259 16.0661C25.5689 16.0661 25.2803 16.3571 25.2803 16.7171C25.2803 17.0767 25.5689 17.3677 25.9259 17.3677C26.2825 17.3674 26.5714 17.0764 26.5714 16.7171Z" fill="#F6F8FB"/>
<path opacity="0.2" d="M25.9258 36.7591C25.9258 36.5058 25.7222 36.3008 25.4709 36.3008C25.22 36.3008 25.0167 36.5058 25.0167 36.7591C25.0167 37.0124 25.22 37.2175 25.4709 37.2175C25.7225 37.2175 25.9258 37.0124 25.9258 36.7591Z" fill="#F6F8FB"/>
<path opacity="0.2" d="M30.3214 29.9815C30.3214 30.1179 30.2123 30.2285 30.0771 30.2285C29.9421 30.2285 29.8322 30.1182 29.8322 29.9815C29.8322 29.8449 29.9418 29.7346 30.0771 29.7346C30.2123 29.7349 30.3214 29.8452 30.3214 29.9815Z" fill="#F6F8FB"/>
<path opacity="0.2" d="M27.6104 31.2855C27.7457 31.2855 27.8553 31.175 27.8553 31.0386C27.8553 30.9022 27.7457 30.7916 27.6104 30.7916C27.4752 30.7916 27.3655 30.9022 27.3655 31.0386C27.3655 31.175 27.4752 31.2855 27.6104 31.2855Z" fill="#F6F8FB"/>
<path opacity="0.2" d="M32.995 16.3131C33.1302 16.3131 33.2399 16.2025 33.2399 16.0661C33.2399 15.9297 33.1302 15.8192 32.995 15.8192C32.8597 15.8192 32.7501 15.9297 32.7501 16.0661C32.7501 16.2025 32.8597 16.3131 32.995 16.3131Z" fill="#F6F8FB"/>
<path opacity="0.2" d="M25.0914 16.9318H18.8037V44.8981C18.8037 45.9743 19.6689 46.8466 20.7362 46.8466H25.0914V16.9318Z" fill="#F6F8FB"/>
<path opacity="0.2" d="M38.6494 16.3128H31.5095V46.8466H36.8389C37.6703 46.8466 38.3768 46.3163 38.6494 45.5736V16.3128Z" fill="#F6F8FB"/>
<path d="M41.2848 44.1253L41.0947 39.8595C45.7746 37.691 46.8115 36.3852 46.8115 34.7668V25.2737C46.8115 25.0222 46.8115 24.7847 46.112 24.7847H40.4871V20.8563H46.112C48.8178 20.8563 50.7076 22.6727 50.7076 25.2737V34.7668C50.7073 38.2195 47.8014 41.1058 41.2848 44.1253Z" fill="white"/>
<path d="M24.1921 14.2187C24.1921 11.5102 22.0144 9.31406 19.3278 9.31406C16.6416 9.31406 14.4636 11.5099 14.4636 14.2187C14.4636 16.9272 16.6416 19.1234 19.3278 19.1234C22.0144 19.1234 24.1921 16.9272 24.1921 14.2187Z" fill="#F6F8FB"/>
<path d="M30.3497 14.2187C30.3497 11.9713 28.5428 10.1491 26.3135 10.1491C24.0846 10.1491 22.2774 11.9713 22.2774 14.2187C22.2774 16.4662 24.0846 18.2884 26.3135 18.2884C28.5428 18.2887 30.3497 16.4665 30.3497 14.2187Z" fill="#F6F8FB"/>
<path d="M26.3135 10.851C26.3135 8.92982 24.769 7.3725 22.8636 7.3725C20.9588 7.3725 19.4143 8.92982 19.4143 10.851C19.4143 12.7723 20.9588 14.3296 22.8636 14.3296C24.7693 14.3296 26.3135 12.7723 26.3135 10.851Z" fill="#F6F8FB"/>
<path d="M35.9906 13.1231C35.9906 10.7891 34.1138 8.89673 31.799 8.89673C29.4842 8.89673 27.6077 10.7888 27.6077 13.1231C27.6077 15.4574 29.4842 17.3492 31.799 17.3492C34.1135 17.3492 35.9906 15.4574 35.9906 13.1231Z" fill="#F6F8FB"/>
<path d="M40.5362 14.2184C40.5362 12.3333 39.0206 10.8049 37.1507 10.8049C35.2812 10.8049 33.7653 12.333 33.7653 14.2184C33.7653 16.1038 35.2812 17.6323 37.1507 17.6323C39.0206 17.6326 40.5362 16.1038 40.5362 14.2184Z" fill="#F6F8FB"/>
<path d="M41.9412 13.4363C41.9412 12.0533 40.8293 10.9319 39.4571 10.9319C38.0855 10.9319 36.9736 12.0533 36.9736 13.4363C36.9736 14.8192 38.0855 15.9407 39.4571 15.9407C40.8293 15.9407 41.9412 14.8192 41.9412 13.4363Z" fill="#F6F8FB"/>
<path d="M44.425 16.5667C44.425 15.068 43.2206 13.8533 41.7342 13.8533C40.2478 13.8533 39.0432 15.068 39.0432 16.5667C39.0432 18.0651 40.2478 19.2798 41.7342 19.2798C43.2206 19.2798 44.425 18.0651 44.425 16.5667Z" fill="#F6F8FB"/>
<path d="M39.3239 19.1231C39.3239 17.9126 38.3512 16.9318 37.1507 16.9318C35.9505 16.9318 34.9772 17.9126 34.9772 19.1231C34.9772 20.3335 35.9502 21.3146 37.1507 21.3146C38.3509 21.3146 39.3239 20.3335 39.3239 19.1231Z" fill="#F6F8FB"/>
<path d="M40.1337 22.5646C40.1337 21.4674 39.2516 20.578 38.1635 20.578C37.0754 20.578 36.1933 21.4674 36.1933 22.5646C36.1933 23.6617 37.0754 24.5514 38.1635 24.5514C39.2519 24.5517 40.1337 23.662 40.1337 22.5646Z" fill="#F6F8FB"/>
</svg>