<svg width="63" height="47" viewBox="0 0 63 47" fill="none" xmlns="http://www.w3.org/2000/svg">
<path d="M62.7708 43.113C62.7708 44.7338 61.4722 46.0473 59.87 46.0473H3.30368C1.70144 46.0473 0.402893 44.7338 0.402893 43.113V42.9295C0.402893 41.3092 1.70144 39.9952 3.30368 39.9952H59.87C61.4722 39.9952 62.7708 41.3092 62.7708 42.9295V43.113Z" fill="#00C1DE"/>
<path d="M56.6788 38.1035C56.6788 39.7242 55.3802 41.0377 53.778 41.0377H27.0903C25.4881 41.0377 24.1896 39.7242 24.1896 38.1035V24.6403C24.1896 23.02 25.4881 21.7061 27.0903 21.7061H53.778C55.3802 21.7061 56.6788 23.02 56.6788 24.6403V38.1035Z" fill="#FFE461"/>
<path d="M46.2144 25.6638C48.9593 27.4442 51.1741 28.9046 49.7384 31.1694C45.9186 35.1928 29.6654 28.1342 26.9199 26.3536L23.1352 23.899C20.5261 22.2054 19.3811 18.9549 20.5068 16.6918L4.93911 6.59275C3.44973 5.62672 3.01667 3.62056 3.97146 2.11356C4.92711 0.606347 6.90973 0.167419 8.40038 1.13388L46.2144 25.6638Z" fill="#00C1DE"/>
<path d="M35.7929 38.1035C35.7929 39.7242 34.6796 41.0377 33.3063 41.0377H10.4316C9.05811 41.0377 7.94482 39.7242 7.94482 38.1035V24.6403C7.94482 23.02 9.05811 21.7061 10.4316 21.7061H33.3063C34.6798 21.7061 35.7929 23.02 35.7929 24.6403V38.1035Z" fill="#FFF292"/>
</svg>
