<svg xmlns="http://www.w3.org/2000/svg" width="52" height="61" viewBox="0 0 52 61" fill="none">
<path d="M44.8771 1.50103C44.1901 0.601027 42.8641 0.464028 41.9141 1.09603C41.7161 1.22703 41.5631 1.38203 41.4361 1.55003C41.3941 1.51503 41.3531 1.47803 41.3081 1.44503C40.7031 0.994027 39.9391 0.823029 39.1961 0.969029C38.5541 1.09503 37.9961 1.47003 37.6761 2.04903C37.5231 2.32603 37.4521 2.63603 37.4441 2.94803C36.6061 3.15003 35.8581 3.66403 35.4141 4.51103C34.5971 6.06703 35.2611 8.09002 36.7961 8.91302C37.5431 9.31302 38.2511 9.00103 38.6371 8.46503C39.1721 8.52503 39.7231 8.50703 40.2321 8.47103C40.9211 8.42303 41.5661 8.29003 42.1681 8.03703C42.4701 8.30303 42.8961 8.42403 43.4091 8.25903C45.0471 7.73403 46.1611 3.18303 44.8771 1.50103Z" fill="#BD1E2C"/>
<path d="M46.2891 7.08704C46.2891 7.08704 50.3231 7.18503 51.9871 8.84903C50.1271 10.219 46.7011 11.981 46.7011 11.981L46.2891 7.08704Z" fill="#49151A"/>
<path d="M51.882 8.75103C50.16 7.18203 46.29 7.08704 46.29 7.08704L46.526 9.89103L51.882 8.75103Z" fill="#672122"/>
<path d="M15.142 35.807C16.415 36.45 17.792 34.862 17.082 33.632C16.304 32.286 15.059 31.387 14.031 30.255C13.107 29.238 12.337 27.981 11.635 26.693C10.11 23.895 8.75604 21.116 7.95104 18.03C7.87504 17.738 7.70805 17.488 7.48805 17.299C7.45505 17.162 7.40204 17.027 7.32504 16.895C6.93004 16.22 5.92103 15.881 5.23603 16.347C4.55603 16.809 4.11404 17.46 4.00404 18.262C2.98704 18.553 2.10504 19.145 1.80204 20.282C1.63504 20.908 1.70304 21.61 1.97404 22.203C1.62104 22.649 1.31604 23.134 1.07104 23.643C0.734039 24.341 0.831043 25.349 1.61904 25.732C1.62804 25.736 1.63704 25.741 1.64504 25.746C1.17904 26.079 0.779037 26.476 0.603037 27.044C0.374037 27.787 0.607043 28.572 1.11904 29.136C1.14904 29.17 1.18204 29.2 1.21504 29.231C1.05904 29.571 0.958037 29.937 0.963037 30.315C0.973037 31.125 1.30404 31.822 1.78504 32.424C1.50204 33.127 1.50104 33.969 1.83904 34.72C2.40304 35.974 3.72404 36.965 4.74804 37.84C6.01104 38.919 7.34304 39.914 8.73704 40.813C10.956 43.174 12.719 44.882 12.719 44.882L19.61 39.388C19.61 39.39 17.583 38.058 15.142 35.807Z" fill="#A57C60"/>
<path d="M49.8581 12.585C49.7751 11.617 49.5301 10.759 49.1531 9.86804C48.8531 9.16104 47.8101 9.00504 47.2071 9.35804C47.0391 9.45604 46.9071 9.57604 46.8041 9.70804C46.7601 9.71504 46.7161 9.72504 46.6731 9.73704C45.9031 9.94804 45.5081 10.735 45.6801 11.486C45.8711 12.324 46.1451 13.126 46.4821 13.916C46.8901 14.873 47.9281 15.684 48.9861 15.06C49.8751 14.536 49.9371 13.509 49.8581 12.585Z" fill="#BD1E2C"/>
<path d="M15.463 35.577C16.648 36.176 17.931 34.697 17.269 33.552C16.544 32.298 15.385 31.461 14.427 30.408C13.566 29.461 12.85 28.29 12.196 27.091C10.775 24.485 9.51502 21.898 8.76602 19.024C8.69502 18.752 8.53902 18.519 8.33502 18.343C8.30402 18.216 8.25501 18.089 8.18301 17.967C7.81501 17.338 6.87502 17.023 6.23702 17.457C5.60402 17.888 5.19202 18.493 5.08902 19.24C4.14202 19.511 3.32102 20.062 3.03902 21.121C2.88402 21.704 2.94701 22.357 3.20001 22.91C2.87101 23.326 2.58801 23.777 2.35901 24.251C2.04501 24.901 2.13602 25.84 2.86902 26.197C2.87702 26.201 2.88501 26.206 2.89401 26.21C2.46001 26.52 2.08701 26.889 1.92401 27.419C1.71101 28.111 1.92702 28.842 2.40402 29.367C2.43202 29.398 2.46302 29.427 2.49402 29.456C2.34902 29.773 2.25502 30.113 2.25902 30.466C2.26802 31.22 2.57702 31.87 3.02402 32.43C2.76002 33.085 2.76002 33.869 3.07402 34.568C3.59902 35.736 4.82902 36.659 5.78302 37.474C6.95902 38.479 8.20001 39.405 9.49701 40.243C11.564 42.442 13.205 44.032 13.205 44.032L19.622 38.916C19.624 38.914 17.737 37.674 15.463 35.577Z" fill="#C19272"/>
<path d="M46.3811 17.287C46.3471 17.349 46.3121 17.408 46.2781 17.468C45.8851 18.153 45.5601 18.85 45.2961 19.56C45.2951 19.564 45.2931 19.567 45.2931 19.57C44.9351 20.533 44.6861 21.518 44.5211 22.52C44.1891 24.545 44.1991 26.638 44.3371 28.759C44.6341 33.31 45.1401 38.006 42.8191 41.921C42.5961 42.297 42.3471 42.666 42.0681 43.027C41.9311 43.205 41.7901 43.381 41.6471 43.554C41.5771 43.641 41.5041 43.728 41.4301 43.813C41.2831 43.984 41.1331 44.152 40.9811 44.316C40.9251 44.377 40.8681 44.437 40.8111 44.497C40.7681 44.543 40.7251 44.588 40.6801 44.634C40.6401 44.675 40.6011 44.715 40.5621 44.754C40.5271 44.791 40.4911 44.827 40.4551 44.862C40.3971 44.919 40.3391 44.976 40.2811 45.033C40.2711 45.044 40.2601 45.054 40.2501 45.063C40.1771 45.133 40.1041 45.202 40.0291 45.272C39.9461 45.35 39.8631 45.426 39.7801 45.501C39.7111 45.563 39.6411 45.623 39.5711 45.683C39.5521 45.701 39.5321 45.718 39.5131 45.733C39.4651 45.775 39.4171 45.815 39.3691 45.855C39.3091 45.906 39.2501 45.956 39.1891 46.005C39.1581 46.031 39.1261 46.056 39.0951 46.081C39.0301 46.135 38.9631 46.187 38.8961 46.238C38.8591 46.268 38.8221 46.297 38.7851 46.324C38.7341 46.365 38.6821 46.404 38.6301 46.442C38.5731 46.486 38.5171 46.527 38.4591 46.569C38.3671 46.636 38.2741 46.703 38.1811 46.768C38.0241 46.879 37.8631 46.987 37.6991 47.092C37.6431 47.128 37.5871 47.164 37.5301 47.199C37.5231 47.205 37.5161 47.209 37.5081 47.213C37.4461 47.252 37.3851 47.29 37.3221 47.328C37.2621 47.365 37.2021 47.401 37.1411 47.438C37.1311 47.444 37.1211 47.45 37.1121 47.455C37.0461 47.494 36.9801 47.533 36.9141 47.571C36.8851 47.588 36.8561 47.605 36.8271 47.621C36.7891 47.643 36.7511 47.664 36.7131 47.684C36.5951 47.75 36.4751 47.815 36.3541 47.877C36.2641 47.926 36.1731 47.973 36.0801 48.018C36.0101 48.054 35.9401 48.089 35.8681 48.123C35.6941 48.209 35.5161 48.292 35.3351 48.37C35.2511 48.407 35.1671 48.444 35.0831 48.48C31.1731 50.142 26.7961 50.333 22.5901 49.735C22.4831 49.72 22.3771 49.704 22.2691 49.688C22.2001 49.678 22.1311 49.667 22.0611 49.656C21.9171 49.633 21.7731 49.61 21.6291 49.585C21.4981 49.562 21.3671 49.539 21.2361 49.515C21.1051 49.491 20.9751 49.467 20.8451 49.442C20.7161 49.417 20.5861 49.391 20.4551 49.364C15.5511 48.358 12.2131 46.126 9.95508 43.396C3.77008 35.923 5.67008 24.723 5.67008 24.723C9.21008 26.956 13.9431 28.881 18.0971 27.939C19.6921 27.578 21.2961 27.213 22.7981 26.57C27.9381 24.373 30.2101 19.324 32.6131 14.637C33.9191 12.088 35.0951 9.36804 36.9721 7.17304C37.0551 7.07504 37.1421 6.98004 37.2301 6.88704C37.7791 6.08904 38.6211 5.48604 39.5161 5.12304C39.6141 5.08304 39.7121 5.04704 39.8131 5.01104C41.5321 4.19804 43.5101 3.95504 45.3871 4.45104C46.9561 4.86504 47.9431 5.62404 48.5081 6.58704C50.4081 9.83004 48.0381 14.392 46.3811 17.287Z" fill="#C19272"/>
<path d="M22.5931 34.911C22.3771 34.892 22.1611 34.875 21.9451 34.858C21.9361 34.852 21.927 34.845 21.918 34.84C21.841 34.337 21.525 33.9 21.075 33.7C21.186 33.562 21.269 33.396 21.314 33.201C21.377 32.926 21.3541 32.611 21.2551 32.324C21.3511 31.721 21.196 31.078 20.722 30.672C18.733 28.968 17.153 27.139 15.823 24.981C15.274 24.09 14.087 23.747 13.168 24.285C12.339 24.77 11.972 25.877 12.372 26.75C12.104 26.721 11.825 26.774 11.553 26.933C10.947 27.287 10.58 28.26 11.043 28.879C11.484 29.47 11.97 30.024 12.493 30.537C12.327 30.605 12.174 30.704 12.045 30.833C11.489 31.389 11.514 32.286 12.045 32.844C12.241 33.049 12.4441 33.247 12.6541 33.436C12.3371 33.981 12.426 34.69 12.872 35.162C14.036 36.394 15.6681 37.005 17.3131 37.248C18.7201 37.457 20.1451 37.56 21.5651 37.672C21.5961 37.68 21.6271 37.688 21.6581 37.697C21.8761 37.755 22.094 37.818 22.31 37.883C22.358 37.839 22.403 37.792 22.446 37.744C22.496 37.748 22.546 37.752 22.596 37.756C23.339 37.82 24.0501 37.056 24.0181 36.334C23.9781 35.507 23.389 34.98 22.5931 34.911Z" fill="#A51627"/>
<path d="M46.3831 17.355C45.9701 18.104 45.5981 18.811 45.2961 19.56C45.2951 19.564 45.2931 19.567 45.2931 19.57C45.1491 19.926 45.0211 20.292 44.9131 20.677C44.7281 21.33 44.6061 21.923 44.5211 22.52C44.1891 24.545 44.1991 26.638 44.3371 28.759C44.6341 33.31 45.1401 38.006 42.8191 41.921C42.5961 42.297 42.3471 42.666 42.0681 43.027C41.9321 43.205 41.7921 43.381 41.6471 43.554C41.5771 43.641 41.5041 43.728 41.4301 43.813C41.2841 43.984 41.1341 44.152 40.9811 44.316C40.9251 44.377 40.8681 44.437 40.8111 44.497C40.7681 44.543 40.7251 44.588 40.6801 44.634C40.6401 44.675 40.6011 44.715 40.5621 44.754C40.5271 44.791 40.4911 44.827 40.4551 44.862C40.3971 44.919 40.3391 44.976 40.2811 45.033C40.2711 45.044 40.2601 45.054 40.2501 45.063C40.1771 45.133 40.1041 45.202 40.0291 45.272C39.9461 45.35 39.8631 45.426 39.7801 45.501C39.7111 45.563 39.6411 45.623 39.5711 45.683C39.5521 45.701 39.5321 45.718 39.5131 45.733C39.4651 45.775 39.4171 45.815 39.3691 45.855C39.3091 45.906 39.2501 45.956 39.1891 46.005C39.1581 46.031 39.1261 46.056 39.0951 46.081C39.0301 46.135 38.9631 46.187 38.8961 46.238C38.8591 46.268 38.8221 46.297 38.7851 46.324C38.7341 46.365 38.6821 46.404 38.6301 46.442C38.5731 46.486 38.5171 46.527 38.4591 46.569C38.3671 46.636 38.2741 46.703 38.1811 46.768C38.0241 46.879 37.8631 46.987 37.6991 47.092C37.6431 47.128 37.5871 47.164 37.5301 47.199C37.5231 47.205 37.5161 47.209 37.5081 47.213C37.4461 47.252 37.3851 47.29 37.3221 47.328C37.2621 47.365 37.2021 47.401 37.1411 47.438C37.1311 47.444 37.1211 47.45 37.1121 47.455C37.0461 47.494 36.9801 47.533 36.9141 47.571C36.8471 47.609 36.7801 47.647 36.7131 47.684C36.5951 47.75 36.4751 47.815 36.3541 47.877C36.2641 47.926 36.1731 47.973 36.0801 48.018C36.0101 48.054 35.9401 48.089 35.8681 48.123C35.6941 48.209 35.5161 48.292 35.3351 48.37C35.2511 48.407 35.1671 48.444 35.0831 48.48C31.8181 49.876 27.7111 50.473 22.5901 49.735C22.4831 49.72 22.3771 49.704 22.2691 49.688C22.2001 49.678 22.1311 49.667 22.0611 49.656C21.9171 49.633 21.7731 49.61 21.6291 49.585C21.4981 49.562 21.3671 49.539 21.2361 49.515C21.1051 49.491 20.9751 49.467 20.8451 49.442C20.7161 49.417 20.5861 49.391 20.4551 49.364C15.5511 48.358 12.2131 46.126 9.95508 43.396C10.1301 43.468 26.9071 50.369 34.3691 43.395C38.0271 39.976 39.8931 35.505 40.7871 30.656C41.4931 26.826 40.7481 22.252 42.7691 18.75C43.5121 17.463 44.8681 16.562 46.3751 16.96C46.3771 17.067 46.3801 17.175 46.3821 17.284C46.3821 17.31 46.3821 17.332 46.3831 17.355Z" fill="#A57C60"/>
<path d="M37.257 27.109C37.155 26.898 37.039 26.694 36.908 26.498C35.205 23.951 32.005 23.054 29.316 24.538C27.029 25.8 24.577 26.596 22.118 26.728C21.569 26.585 20.896 26.365 20.457 26.18C20.02 25.996 19.384 25.666 18.899 25.374C18.344 25.039 17.902 24.723 17.486 24.375C16.88 23.868 16.01 23.781 15.416 24.375C15.364 24.427 15.317 24.485 15.274 24.546C14.687 24.139 13.895 24.126 13.357 24.664C12.827 25.194 12.759 26.212 13.357 26.734C13.451 26.816 13.546 26.896 13.64 26.976C13.196 27.055 12.769 27.333 12.558 27.694C12.118 28.447 12.453 29.216 13.083 29.697C13.198 29.785 13.314 29.87 13.43 29.956C12.902 30.486 12.833 31.504 13.432 32.024C13.715 32.271 14.007 32.499 14.306 32.715C14.021 32.913 13.8 33.202 13.726 33.525C13.538 34.349 13.976 35.047 14.748 35.326C15.027 35.427 15.308 35.522 15.589 35.614C15.223 36.24 15.39 37.29 16.114 37.617C16.146 37.631 16.178 37.645 16.21 37.66C16.332 37.886 16.511 38.081 16.745 38.213C22.525 41.478 33.34 42.614 36.688 35.253C37.742 32.935 38.438 29.553 37.257 27.109Z" fill="#BD1E2C"/>
<path d="M48.507 6.58705C47.942 5.62405 46.955 4.86505 45.386 4.45105C43.51 3.95505 41.531 4.19905 39.812 5.01105C39.711 5.04705 39.613 5.08305 39.515 5.12305C38.62 5.48605 37.7781 6.08905 37.2291 6.88705C37.1411 6.98105 37.055 7.07605 36.971 7.17305C35.164 9.28605 33.867 11.77 32.635 14.246C32.012 15.497 31.409 16.759 30.758 17.996C30.457 18.569 30.1731 19.186 29.8071 19.721C29.7181 19.851 28.747 20.8671 28.748 20.8741C28.844 21.3841 29.194 21.7871 29.704 21.9551C29.731 22.5471 30.2161 23.156 30.7661 23.2771C30.8621 23.298 30.959 23.317 31.056 23.335C31.072 23.581 31.087 23.826 31.103 24.072C31.166 25.075 32.0111 25.585 32.7981 25.427C32.8201 25.538 32.8431 25.6501 32.8651 25.7611C32.9821 26.3451 33.648 26.831 34.236 26.805C34.547 26.791 34.8341 26.6901 35.0701 26.5191C35.0771 26.5501 35.083 26.581 35.088 26.612C35.089 26.623 35.09 26.636 35.092 26.653C35.107 26.8221 35.115 26.99 35.122 27.159C35.153 27.8701 35.64 28.46 36.355 28.556C36.722 28.605 37.039 28.521 37.299 28.3461C37.341 28.4041 37.3871 28.468 37.3911 28.474C37.5161 28.652 37.644 28.825 37.78 28.995C38.012 29.285 38.263 29.4921 38.564 29.7181C38.954 30.0111 39.4661 29.982 39.8891 29.768C40.2151 30.288 40.547 30.87 41.09 31.167C41.742 31.524 42.473 31.452 43.019 31.028C43.062 31.059 43.08 31.0691 43.028 31.0211C43.614 31.4811 44.431 31.549 44.994 30.986C45.5 30.48 45.586 29.47 44.994 28.975C44.779 28.795 44.2011 24.454 44.5181 22.517C44.6831 21.515 44.931 20.5301 45.29 19.567C45.29 19.564 45.292 19.561 45.293 19.557C45.557 18.847 45.882 18.149 46.275 17.465C46.309 17.405 46.3441 17.346 46.3781 17.284C48.0381 14.392 50.4081 9.83005 48.507 6.58705Z" fill="#EDB188"/>
<path d="M45.547 7.89303C45.547 8.24603 45.2611 8.53203 44.9081 8.53203C44.5551 8.53203 44.269 8.24603 44.269 7.89303C44.269 7.54003 44.5551 7.25403 44.9081 7.25403C45.2611 7.25403 45.547 7.54003 45.547 7.89303Z" fill="#49151A"/>
<path d="M43.461 49.619C43.461 50.104 43.375 50.58 43.211 51.042C41.801 55.012 34.591 58.036 25.907 58.036C17.224 58.036 10.013 55.013 8.60303 51.042C8.43903 50.58 8.35303 50.105 8.35303 49.619C8.35303 48.086 9.20903 46.648 10.702 45.41C13.737 47.926 19.41 49.619 25.907 49.619C32.405 49.619 38.077 47.927 41.113 45.41C42.607 46.649 43.461 48.086 43.461 49.619Z" fill="#672122"/>
<path d="M43.211 51.0421C41.801 55.0121 34.591 58.0361 25.907 58.0361C17.224 58.0361 10.013 55.0131 8.60303 51.0421C12.692 52.9381 18.925 54.1491 25.907 54.1491C32.891 54.1491 39.122 52.9381 43.211 51.0421Z" fill="#49151A"/>
<path d="M32.2801 51.374C32.2411 51.374 32.2011 51.367 32.1631 51.353L18.5631 46.218C18.3921 46.153 18.3051 45.962 18.3701 45.79C18.4351 45.618 18.6261 45.532 18.7981 45.597L32.3981 50.732C32.5691 50.797 32.6561 50.988 32.5911 51.16C32.5401 51.292 32.4141 51.374 32.2801 51.374Z" fill="#49151A"/>
<path d="M13.2241 50.388C13.0761 50.388 12.9411 50.288 12.9031 50.138C12.8581 49.96 12.9651 49.78 13.1421 49.734L19.5411 48.098C19.7191 48.053 19.8991 48.16 19.9451 48.337C19.9901 48.514 19.8831 48.695 19.7061 48.741L13.3071 50.377C13.2791 50.385 13.2511 50.388 13.2241 50.388Z" fill="#49151A"/>
<path d="M25.908 51.374C25.799 51.374 25.693 51.321 25.629 51.222C25.529 51.068 25.573 50.863 25.727 50.763L33.664 45.628C33.818 45.528 34.023 45.573 34.123 45.726C34.223 45.88 34.178 46.085 34.025 46.185L26.088 51.32C26.032 51.356 25.969 51.374 25.908 51.374Z" fill="#49151A"/>
<path d="M38.1111 50.388C38.0851 50.388 38.0581 50.385 38.0311 50.378L28.1651 47.948C27.9871 47.904 27.8781 47.724 27.9221 47.546C27.9661 47.368 28.1461 47.259 28.3241 47.303L38.1901 49.733C38.3681 49.777 38.4771 49.957 38.4331 50.135C38.3951 50.287 38.2601 50.388 38.1111 50.388Z" fill="#49151A"/>
<path d="M20.968 51.945C20.902 51.945 20.835 51.925 20.777 51.884L15.119 47.897C14.969 47.791 14.933 47.584 15.039 47.435C15.145 47.285 15.352 47.249 15.501 47.355L21.159 51.343C21.309 51.448 21.345 51.656 21.239 51.805C21.175 51.896 21.073 51.945 20.968 51.945Z" fill="#49151A"/>
<path d="M36.307 49.9011C37.196 45.2761 39.405 43.5211 40.32 42.9771C40.568 42.8301 40.886 42.8331 41.131 42.9851C42.036 43.5471 44.209 45.3451 45.008 49.9861C46.027 55.9121 40.601 55.6891 40.601 55.6891C40.601 55.6891 35.172 55.8051 36.307 49.9011Z" fill="#F66654"/>
<path d="M40.7271 42.868C40.8681 42.869 41.0091 42.908 41.1311 42.984C42.0361 43.546 44.2091 45.344 45.0081 49.985C46.0271 55.911 40.6011 55.688 40.6011 55.688L40.7271 42.868Z" fill="#D4583F"/>
<path d="M42.2761 51.8231C45.8591 48.7671 48.6811 48.776 49.7351 48.923C50.0211 48.963 50.2671 49.164 50.3631 49.436C50.7191 50.44 51.2931 53.202 49.0171 57.325C46.1111 62.589 42.0131 59.0261 42.0131 59.0261C42.0131 59.0261 37.7011 55.7241 42.2761 51.8231Z" fill="#F66654"/>
<path d="M50.12 49.092C50.229 49.181 50.315 49.3 50.363 49.436C50.719 50.44 51.293 53.202 49.017 57.325C46.111 62.589 42.014 59.026 42.014 59.026L50.12 49.092Z" fill="#D4583F"/>
<path d="M40.741 57.388C40.741 57.388 39.664 51.041 31.504 50.315C34.01 51.788 36.766 52.584 38.712 57.343C40.207 60.999 40.741 57.388 40.741 57.388Z" fill="#6F811B"/>
<path d="M40.818 57.037C40.818 57.037 35.688 51.928 29.509 54.852C33.126 54.727 35.718 54.619 37.976 57.859C40.235 61.1 40.818 57.037 40.818 57.037Z" fill="#889C29"/>
</svg>