<svg xmlns="http://www.w3.org/2000/svg" width="81" height="83" viewBox="0 0 81 83" fill="none">
<path d="M40.3668 82.3774C62.6607 82.3774 80.7335 63.9366 80.7335 41.1887C80.7335 18.4408 62.6607 0 40.3668 0C18.0728 0 0 18.4408 0 41.1887C0 63.9366 18.0728 82.3774 40.3668 82.3774Z" fill="#FED495"/>
<path d="M56.8125 65.7892H22.6658C22.3788 65.7892 22.1438 65.5495 22.1438 65.2567V18.815C22.1438 18.5222 22.3788 18.2824 22.6658 18.2824H56.8125C57.0994 18.2824 57.3344 18.5222 57.3344 18.815V65.2567C57.3344 65.5495 57.0994 65.7892 56.8125 65.7892Z" fill="#8B311B"/>
<path d="M33.925 19.1953H23.4463V29.8874H33.925V19.1953Z" fill="#993420"/>
<path d="M32.7128 20.4322H24.6584V28.6505H32.7128V20.4322Z" fill="#AF3E2C"/>
<path d="M44.9783 19.1953H34.4996V29.8874H44.9783V19.1953Z" fill="#993420"/>
<path d="M43.7661 20.4322H35.7118V28.6505H43.7661V20.4322Z" fill="#AF3E2C"/>
<path d="M56.0316 19.1953H45.5529V29.8874H56.0316V19.1953Z" fill="#993420"/>
<path d="M54.8191 20.4322H46.7647V28.6505H54.8191V20.4322Z" fill="#AF3E2C"/>
<path d="M33.925 30.8586H23.4463V41.5506H33.925V30.8586Z" fill="#993420"/>
<path d="M32.7128 32.095H24.6584V40.3134H32.7128V32.095Z" fill="#AF3E2C"/>
<path d="M44.9783 30.8586H34.4996V41.5506H44.9783V30.8586Z" fill="#993420"/>
<path d="M43.7661 32.095H35.7118V40.3134H43.7661V32.095Z" fill="#AF3E2C"/>
<path d="M56.0316 30.8586H45.5529V41.5506H56.0316V30.8586Z" fill="#993420"/>
<path d="M54.8191 32.095H46.7647V40.3134H54.8191V32.095Z" fill="#AF3E2C"/>
<path d="M33.925 42.5214H23.4463V53.2135H33.925V42.5214Z" fill="#993420"/>
<path d="M32.7128 43.7583H24.6584V51.9766H32.7128V43.7583Z" fill="#AF3E2C"/>
<path d="M44.9783 42.5214H34.4996V53.2135H44.9783V42.5214Z" fill="#993420"/>
<path d="M43.7661 43.7583H35.7118V51.9766H43.7661V43.7583Z" fill="#AF3E2C"/>
<path d="M56.0316 42.5214H45.5529V53.2135H56.0316V42.5214Z" fill="#993420"/>
<path d="M54.8191 43.7583H46.7647V51.9766H54.8191V43.7583Z" fill="#AF3E2C"/>
<path d="M33.925 54.1843H23.4463V64.8763H33.925V54.1843Z" fill="#993420"/>
<path d="M32.7128 55.4211H24.6584V63.6395H32.7128V55.4211Z" fill="#AF3E2C"/>
<path d="M44.9783 54.1843H34.4996V64.8763H44.9783V54.1843Z" fill="#993420"/>
<path d="M43.7661 55.4211H35.7118V63.6395H43.7661V55.4211Z" fill="#AF3E2C"/>
<path d="M56.0316 54.1843H45.5529V64.8763H56.0316V54.1843Z" fill="#993420"/>
<path d="M54.8191 55.4211H46.7647V63.6395H54.8191V55.4211Z" fill="#AF3E2C"/>
</svg>