<svg xmlns="http://www.w3.org/2000/svg" width="53" height="46" viewBox="0 0 53 46" fill="none">
<path fill-rule="evenodd" clip-rule="evenodd" d="M7.8477 17.9101C7.50541 17.1916 7.13256 16.5327 6.87503 15.8363C6.57421 15.024 6.32068 14.1889 6.14353 13.3455C5.94201 12.3854 6.09988 11.4518 6.78591 10.6629C7.34281 10.023 7.923 9.40038 8.50973 8.78352C9.12446 8.13583 9.85087 7.56266 10.3674 6.85433C11.567 5.21038 13.2319 4.11181 14.9849 3.05592C18.5889 0.885892 22.5821 0.44551 26.6859 0.885207C28.8859 1.12064 31.0571 1.71041 32.8839 3.08776C33.9933 3.92515 35.2523 4.59419 36.4668 5.30523C38.5042 6.49797 40.5397 7.69476 42.6149 8.8272C43.959 9.56026 45.4369 10.0901 46.7373 10.8797C47.9664 11.6266 49.1675 12.4874 50.1555 13.4901C51.6083 14.9657 52.3583 16.7878 52.5904 18.8142C52.8625 21.1801 52.0335 23.2258 50.7542 25.1827C50.4028 25.7207 50.0507 26.2613 49.7462 26.8226C49.0762 28.0557 48.0017 28.9391 46.8657 29.7667C46.574 29.9791 46.2131 30.1434 45.8559 30.2376C42.441 31.138 39.0127 31.995 35.4501 32.2165C34.7819 32.2579 34.1043 32.1664 33.2902 32.1302C32.7831 32.8639 32.2015 33.6308 31.7028 34.4418C30.7381 36.0122 29.8371 37.6169 28.8768 39.1907C27.9111 40.7734 26.419 41.8906 24.8417 42.8868C22.4512 44.3966 19.766 45.213 16.9029 45.4739C16.1158 45.545 15.2988 45.4413 14.5073 45.3397C12.2353 45.0494 10 44.5826 8.05651 43.3882C5.56154 41.8526 3.66713 39.8469 2.75558 37.1243C2.58134 36.604 2.32997 36.0861 2.00696 35.6345C1.28128 34.6196 0.869162 33.5146 0.833878 32.3117C0.777861 30.3829 0.626534 28.4398 0.804772 26.5269C1.04157 23.9795 2.48712 21.9436 4.5765 20.3193C5.64193 19.49 6.75318 18.7129 7.8477 17.9101ZM33.7711 31.4676C35.1832 31.4395 36.4854 31.4709 37.7552 31.1901C39.9305 30.7081 42.0719 30.0645 44.2667 29.6901C45.8941 29.4134 47.148 28.6502 48.0464 27.511C49.2159 26.0272 50.3075 24.4443 51.123 22.7742C52.6079 19.7339 51.9353 16.7943 49.8001 14.2475C48.4487 12.6375 46.6329 11.4281 44.5894 10.5721C43.7444 10.2178 42.8812 9.857 42.1279 9.36446C39.8403 7.86719 37.4413 6.55013 34.9864 5.31065C34.2094 4.91871 33.4422 4.47156 32.7729 3.93803C30.6636 2.25614 28.1039 1.75919 25.4779 1.59422C23.8047 1.4892 22.0987 1.65622 20.4233 1.83033C18.5118 2.02918 16.868 2.89299 15.31 3.94684C15.6454 4.03593 15.9644 4.0488 16.2816 4.03423C18.9152 3.91195 21.4087 4.31371 23.7192 5.58842C24.9152 6.24763 26.1687 6.83704 27.4509 7.3367C29.2802 8.05112 31.1663 8.6402 33.0145 9.31364C33.5208 9.4986 34.0115 9.75538 34.4549 10.0498C36.6203 11.4867 38.7712 12.942 40.918 14.403C41.8718 15.0524 42.8303 15.7011 43.7386 16.4027C45.0131 17.3861 45.8767 18.5734 45.5853 20.2394C45.223 19.2001 44.8476 18.1645 43.9492 17.4101C43.2897 16.8566 42.6575 16.2387 41.8998 15.8315C39.6216 14.6032 37.6618 12.9789 35.5331 11.567C34.4728 10.8634 33.3302 10.2229 32.1368 9.74861C29.3086 8.62532 26.2877 7.93325 23.6268 6.42581C22.9422 6.03828 22.2122 5.70866 21.4723 5.42242C19.1832 4.53625 16.792 4.38822 14.3741 4.75373C12.9671 4.96578 11.6933 6.11009 11.2178 7.4573C11.7573 7.39768 12.2484 7.33231 12.742 7.28929C14.0031 7.17987 15.2635 7.06468 16.5275 6.98812C16.8494 6.96814 17.2074 7.02708 17.5042 7.14768C20.0992 8.20288 22.6931 9.26149 25.2666 10.3611C26.3197 10.8106 27.3949 11.0917 28.5436 11.2225C30.0535 11.3942 31.5435 11.6422 32.9286 12.3163C33.8613 12.7706 34.9067 13.0223 35.8463 13.4661C37.1972 14.1032 38.6617 14.6591 39.773 15.5717C40.8169 16.4281 41.9038 17.2058 43.0256 17.9508C44.0183 18.611 44.5261 19.5802 45.0902 20.5341C44.7938 20.3969 44.5155 20.2336 44.3442 20.0012C43.7084 19.1381 42.8561 18.5249 41.9314 17.9494C41.0639 17.4098 40.2913 16.7407 39.4554 16.1547C39.0524 15.8722 38.6213 15.6076 38.1645 15.4101C36.3272 14.6144 34.4455 13.903 32.6373 13.0545C31.2008 12.3807 29.6611 12.2052 28.1275 11.9295C27.1803 11.7594 26.2131 11.5735 25.3335 11.2222C22.6909 10.1697 20.089 9.0291 17.4671 7.93358C17.1655 7.80757 16.8381 7.69375 16.514 7.66598C14.5545 7.49863 12.6405 7.86346 10.7221 8.14801C10.5213 8.17816 10.2783 8.23711 10.1517 8.3655C9.18086 9.34516 8.21363 10.3292 7.2937 11.3499C7.066 11.6023 6.90814 11.9938 6.90378 12.3234C6.88014 14.1669 7.50796 15.8295 8.5421 17.3925C8.98805 17.2065 9.07317 17.069 8.90585 16.7157C8.56756 15.9996 8.31257 15.2475 8.05904 14.5003C8.00265 14.3339 8.09251 14.1239 8.1147 13.9332C8.6134 14.6049 8.90367 15.2923 9.21358 15.9725C9.43111 16.4511 9.75156 16.6832 10.2823 16.2743C10.2281 15.9135 10.1717 15.5514 10.0819 14.962C10.5631 15.3746 10.8585 15.6276 11.1076 15.8407C12.4626 15.3932 13.7394 14.9891 15.0038 14.5504C17.7741 13.5897 20.3873 14.0595 22.9637 15.211C24.2543 15.7882 25.5845 16.3031 26.9322 16.7553C29.2395 17.5294 30.9538 18.8556 31.9178 20.9914C32.1611 21.532 32.4696 22.0649 32.8475 22.5303C33.8551 23.7681 34.3938 25.1316 34.3574 26.6908C34.3505 26.9937 34.4113 27.2972 34.4527 27.7267C35.2006 27.618 35.8572 27.5221 36.5148 27.4269C36.5516 27.5093 36.5876 27.5913 36.6243 27.6742C36.2893 27.8514 35.9638 28.0465 35.6164 28.2006C35.2494 28.3629 34.6728 28.1014 34.4677 28.6688C36.1034 29.1319 37.5224 28.1238 39.084 28.1688C38.9516 28.3839 38.7959 28.5147 38.6159 28.557C37.4315 28.8385 36.2519 29.1468 35.0526 29.3524C34.3862 29.4669 34.125 29.7101 34.2072 30.3836C35.9034 30.0821 37.5635 29.9374 39.1106 29.4699C40.6434 29.0069 42.0624 28.2183 43.541 27.5689C43.5378 27.6238 43.5512 27.6742 43.5323 27.6892C40.9377 29.824 37.8109 30.6214 34.4473 30.7521C33.9646 30.7714 33.878 30.9171 33.7711 31.4676ZM22.7105 16.0206C20.4258 15.0195 18.3375 14.5751 16.0987 15.1083C15.4435 15.2638 14.7815 15.4261 14.166 15.6788C12.8154 16.233 11.4066 16.7228 10.1808 17.466C8.48426 18.4945 6.89686 19.6913 5.328 20.8901C2.86942 22.7688 1.48899 25.1356 1.70942 28.1962C1.78617 29.2559 1.67195 30.3273 1.74725 31.3873C1.81091 32.2836 1.85129 33.2342 2.20267 34.0478C2.93999 35.7541 3.76135 37.4485 4.75511 39.0352C6.35961 41.5962 8.86802 43.1551 11.8821 44.0152C12.4415 44.1747 13.0381 44.2483 13.6241 44.2977C14.8794 44.4038 16.1547 44.6243 17.3932 44.5159C19.8609 44.3001 22.1944 43.5508 24.3049 42.3269C25.7024 41.5166 27.0635 40.6314 27.8667 39.2073C28.7317 37.6741 29.6123 36.1491 30.4933 34.6237C30.8942 33.9306 31.2474 33.2037 31.7366 32.5668C33.4066 30.3893 33.5303 27.9422 33.1851 25.4358C33.0912 24.7606 32.682 24.1069 32.3419 23.4795C31.9076 22.678 31.374 21.9223 30.9222 21.1282C30.091 19.6669 29.0529 18.4308 27.3192 17.8037C26.5416 17.5226 25.8333 17.4707 25.1811 17.9762C24.5697 18.4501 23.9586 18.9382 23.4326 19.4904C22.7051 20.2556 22.0529 21.0828 21.377 21.8894C19.8867 23.6695 18.7191 25.6231 17.7286 27.6803C16.9545 29.2887 16.3922 30.9767 15.1849 32.4151C14.11 33.6948 13.5222 35.2318 13.4134 36.8954C13.396 37.1664 13.2396 37.4296 13.105 37.8215C12.8016 37.3662 12.6652 37.0099 12.3997 36.789C11.4499 36.0024 11.0487 34.9719 10.9279 33.8629C10.7977 32.663 10.5682 31.4293 11.3379 30.2979C12.3102 28.8714 13.257 27.43 14.2061 25.9896C14.3363 25.7911 14.4654 25.572 14.5134 25.3474C14.7862 24.0818 15.5792 23.0432 16.1918 21.926C16.6126 21.1577 16.8574 20.2526 17.4511 19.632C18.8508 18.1669 20.3458 16.7536 22.7105 16.0206ZM12.6521 36.0207C13.1512 34.9303 13.5637 33.9103 14.0773 32.936C14.8186 31.5326 15.8942 30.3189 16.482 28.8057C17.6955 25.6783 19.5241 22.842 21.7659 20.2482C22.7451 19.1144 23.7239 17.9653 25.3026 17.4884C25.3463 17.4745 25.3528 17.3546 25.3761 17.2844C24.0589 16.2787 22.6774 16.5114 21.0769 17.5199C20.2778 18.0246 19.5896 18.6814 18.8504 19.2678C18.0851 19.8755 17.7395 20.7021 17.3238 21.5317C16.5941 22.9856 15.5574 24.3037 15.1467 25.9009C15.0903 26.119 14.8943 26.3054 14.7608 26.5062C13.7859 27.9764 12.7976 29.4395 11.845 30.9228C11.6565 31.2162 11.5059 31.5885 11.5125 31.9215C11.5307 32.9025 11.578 33.89 11.734 34.8581C11.8082 35.3158 11.957 35.8784 12.6521 36.0207Z" fill="black"/>
<path fill-rule="evenodd" clip-rule="evenodd" d="M33.7711 31.4675C33.878 30.9171 33.9646 30.7714 34.448 30.7528C37.8116 30.622 40.9384 29.8246 43.533 27.6898C43.5523 27.6749 43.5388 27.6244 43.5418 27.5695C42.0635 28.2189 40.6441 29.0075 39.1113 29.4706C37.5643 29.9381 35.9041 30.0831 34.2079 30.3842C34.1257 29.7108 34.3869 29.4676 35.0533 29.3531C36.2526 29.1478 37.4322 28.8392 38.6166 28.5577C38.7966 28.515 38.9523 28.3842 39.0847 28.1695C37.5228 28.1241 36.1042 29.1325 34.4684 28.6695C34.6739 28.1021 35.2501 28.3636 35.6171 28.2013C35.9641 28.0472 36.2901 27.852 36.6251 27.6749C36.5887 27.5919 36.5523 27.5099 36.5156 27.4276C35.8579 27.5225 35.2013 27.6183 34.4535 27.7274C34.412 27.2982 34.3516 26.9944 34.3582 26.6915C34.3946 25.1319 33.8558 23.7688 32.8483 22.531C32.4703 22.0655 32.1618 21.5327 31.9185 20.992C30.9546 18.8562 29.2402 17.53 26.9329 16.756C25.5853 16.3034 24.255 15.7888 22.9644 15.2116C20.388 14.0602 17.7748 13.5903 15.0045 14.551C13.7404 14.9897 12.4633 15.3935 11.1084 15.8413C10.8592 15.6283 10.5638 15.3752 10.0826 14.9626C10.1724 15.552 10.2284 15.9142 10.283 16.2749C9.7523 16.6838 9.43148 16.4521 9.21432 15.9731C8.9044 15.2929 8.6145 14.6059 8.11543 13.9338C8.09288 14.1246 8.00303 14.3346 8.05977 14.5009C8.31331 15.2482 8.5683 16.0002 8.90658 16.7163C9.07391 17.0696 8.98879 17.2072 8.54283 17.3931C7.50869 15.8302 6.88087 14.1679 6.90451 12.3241C6.90888 11.9945 7.06673 11.6029 7.29444 11.3505C8.214 10.3295 9.18157 9.34546 10.1524 8.36614C10.2794 8.23775 10.5224 8.17882 10.7228 8.14867C12.6408 7.86412 14.5553 7.49927 16.5148 7.66662C16.8389 7.69439 17.1663 7.80823 17.4678 7.93424C20.0897 9.02976 22.6916 10.1707 25.3343 11.2228C26.2138 11.5741 27.181 11.7601 28.1282 11.9301C29.6622 12.2062 31.2016 12.3814 32.638 13.0551C34.4466 13.9037 36.3279 14.6154 38.1652 15.4108C38.6221 15.6083 39.0527 15.8728 39.4561 16.1554C40.292 16.7411 41.0646 17.4104 41.9322 17.9501C42.8568 18.5253 43.7091 19.1387 44.3449 20.0019C44.5162 20.2346 44.7945 20.3975 45.091 20.5347C44.5268 19.5808 44.0194 18.6116 43.0263 17.9514C41.9045 17.2065 40.8177 16.4287 39.7737 15.5724C38.6624 14.6601 37.198 14.1039 35.847 13.4667C34.9074 13.0229 33.862 12.7712 32.9294 12.317C31.5442 11.6432 30.0546 11.3949 28.5444 11.2232C27.3956 11.0924 26.3204 10.8113 25.2673 10.3617C22.6938 9.26215 20.0999 8.20355 17.5049 7.14834C17.2084 7.02774 16.8502 6.96914 16.5282 6.98878C15.2638 7.06534 14.0038 7.18017 12.7427 7.28993C12.2491 7.33295 11.7584 7.39834 11.2186 7.45796C11.694 6.11041 12.9679 4.96644 14.3748 4.75439C16.7923 4.38888 19.184 4.53657 21.4731 5.42308C22.2129 5.70932 22.943 6.03894 23.6276 6.42647C26.2884 7.93357 29.3093 8.62562 32.1375 9.74925C33.3309 10.2235 34.4735 10.8641 35.5338 11.5677C37.6625 12.9796 39.6224 14.6039 41.9005 15.8322C42.6582 16.2394 43.2904 16.8572 43.9499 17.4108C44.8484 18.1652 45.2238 19.2004 45.5861 20.24C45.8774 18.574 45.0139 17.3867 43.7393 16.4033C42.831 15.7018 41.8725 15.0531 40.9188 14.4037C38.7719 12.9426 36.6211 11.4877 34.4557 10.0504C34.0123 9.75604 33.5216 9.49926 33.0152 9.3143C31.167 8.64087 29.281 8.05178 27.4517 7.33736C26.1698 6.83736 24.9159 6.24827 23.7199 5.58906C21.4094 4.31435 18.9159 3.91261 16.2823 4.03489C15.9651 4.04946 15.6461 4.03659 15.3108 3.9475C16.8683 2.89365 18.5125 2.02982 20.424 1.83097C22.0994 1.65652 23.8058 1.48987 25.4787 1.59488C28.1046 1.75985 30.6643 2.2568 32.7737 3.93869C33.443 4.47222 34.2101 4.91903 34.9871 5.31131C37.4421 6.55079 39.841 7.86785 42.1286 9.36512C42.8816 9.85766 43.7447 10.2184 44.5901 10.5728C46.6336 11.4284 48.4495 12.6381 49.8008 14.2482C51.936 16.7949 52.6086 19.7343 51.1238 22.7749C50.3083 24.4453 49.2166 26.0282 48.0472 27.5116C47.1487 28.6505 45.8949 29.4137 44.2675 29.6908C42.0726 30.0648 39.9312 30.7087 37.756 31.1908C36.4854 31.4706 35.1832 31.4394 33.7711 31.4675ZM13.3738 6.40918C13.5098 6.43561 13.6375 6.49286 13.7532 6.47795C15.1111 6.30079 16.4373 6.26353 17.685 6.95932C17.9054 7.08195 18.2739 6.97659 18.7595 6.97659C16.8927 5.60262 14.9059 5.43596 13.3738 6.40918ZM30.8574 10.3129C30.8662 10.2266 30.8749 10.1398 30.8833 10.0531C29.7807 9.816 28.6775 9.57784 27.5746 9.34004C28.5207 10.2154 29.6985 10.2303 30.8574 10.3129ZM24.6046 8.69134C24.2005 8.16425 24.2005 8.16424 23.5966 8.30347C23.8272 8.70387 24.1044 8.88883 24.6046 8.69134ZM30.5457 14.904C31.3012 14.7208 31.3012 14.7208 31.3805 14.0544C31.0488 14.3918 30.7974 14.6479 30.5457 14.904ZM21.2108 6.85092C21.1544 6.94983 21.0984 7.04841 21.0417 7.14664C21.3268 7.23472 21.6127 7.3228 21.8986 7.4102C21.9317 7.32246 21.9656 7.23438 21.999 7.14664C21.7364 7.04841 21.4738 6.94983 21.2108 6.85092Z" fill="#844D42"/>
<path fill-rule="evenodd" clip-rule="evenodd" d="M22.7106 16.0205C20.3458 16.7536 18.8508 18.1669 17.4504 19.6316C16.8567 20.2519 16.6119 21.1573 16.191 21.9256C15.5781 23.0428 14.7855 24.0811 14.5127 25.347C14.4647 25.5716 14.3359 25.7908 14.2053 25.9893C13.2567 27.4296 12.3095 28.871 11.3372 30.2975C10.5675 31.4293 10.797 32.6627 10.9272 33.8625C11.048 34.9712 11.4488 36.0017 12.399 36.7886C12.6645 37.0092 12.8009 37.3659 13.1043 37.8211C13.2388 37.4292 13.3953 37.1657 13.4127 36.895C13.5215 35.2317 14.1093 33.6948 15.1842 32.4147C16.3915 30.9767 16.9538 29.2884 17.7279 27.68C18.7188 25.6227 19.8864 23.6692 21.3763 21.8891C22.0522 21.0825 22.7044 20.2553 23.4319 19.49C23.9575 18.9379 24.5689 18.4501 25.1804 17.9758C25.8326 17.4704 26.5408 17.5222 27.3185 17.8034C29.0525 18.4304 30.0903 19.6665 30.9215 21.1279C31.3733 21.9222 31.9069 22.6777 32.3412 23.4791C32.6817 24.1068 33.0909 24.7603 33.1844 25.4354C33.5292 27.9415 33.4055 30.389 31.7359 32.5664C31.2467 33.2033 30.8935 33.9303 30.4926 34.6233C29.6116 36.1487 28.731 37.6738 27.866 39.207C27.0628 40.6311 25.7017 41.5162 24.3041 42.3265C22.1937 43.5504 19.8602 44.2997 17.3925 44.5155C16.1539 44.6239 14.8786 44.4034 13.6233 44.2974C13.0373 44.2479 12.4408 44.1744 11.8813 44.0148C8.8673 43.1548 6.35889 41.5958 4.75439 39.0349C3.76099 37.4482 2.93963 35.7537 2.20195 34.0475C1.85057 33.2338 1.81018 32.2832 1.74653 31.3869C1.67123 30.327 1.78547 29.2555 1.70872 28.1959C1.48865 25.1353 2.86908 22.7684 5.3273 20.8897C6.89616 19.6909 8.48356 18.4941 10.1801 17.4656C11.4059 16.7224 12.8147 16.2323 14.1653 15.6784C14.7804 15.426 15.4428 15.2634 16.0979 15.108C18.3375 14.5751 20.4258 15.0195 22.7106 16.0205ZM29.4861 32.6305C29.4137 32.5678 29.3406 32.5055 29.2668 32.4425C28.7095 32.7873 28.0569 33.0492 27.6103 33.4906C26.0392 35.0464 24.0437 35.4404 21.8779 35.5752C20.7529 35.645 19.6408 35.934 18.531 36.1565C18.2819 36.207 18.0647 36.397 17.5791 36.6599C18.0713 36.6955 18.2666 36.7412 18.4525 36.7185C20.249 36.4987 22.058 36.333 23.8338 36.0112C24.7625 35.8432 25.7002 35.4993 26.5106 35.0441C27.4775 34.5007 28.3189 33.7592 29.1984 33.0871C29.3363 32.9824 29.393 32.7846 29.4861 32.6305ZM2.75157 27.7098C2.6519 27.7745 2.55188 27.8399 2.45185 27.9046C3.01384 29.328 3.76752 30.623 5.28072 31.4357C6.15227 31.9039 7.00345 32.4042 7.87609 32.872C7.98448 32.9306 8.16054 32.8798 8.37151 32.8798C8.06451 32.0245 7.46686 31.5963 6.69681 31.2856C5.18506 30.6759 3.91957 29.8033 3.25173 28.3239C3.14806 28.0946 2.92144 27.913 2.75157 27.7098ZM27.531 35.5061C26.7747 35.2815 26.2673 35.7686 25.6616 35.9838C24.9934 36.2209 24.303 36.4058 23.6428 36.6599C23.0776 36.8781 22.3286 36.5491 21.731 37.2527C24.0248 37.3367 25.9381 36.8984 27.531 35.5061ZM27.5913 31.3229C29.3679 30.5106 30.1063 29.0749 30.4788 27.3917C29.5261 28.6881 28.5738 29.9848 27.5913 31.3229ZM2.61043 30.7701C2.8356 32.0366 4.52924 33.2114 6.08609 33.0973C4.90899 32.3097 3.78062 31.5536 2.61043 30.7701ZM24.2208 37.854C25.3787 38.357 25.4281 38.3499 25.9988 37.6684C25.4158 37.4065 24.9098 37.5061 24.2208 37.854ZM4.32297 34.018C4.07089 33.7819 3.81847 33.5461 3.43944 33.1914C3.28048 33.9902 3.57619 34.1955 4.32297 34.018Z" fill="#995C42"/>
<path fill-rule="evenodd" clip-rule="evenodd" d="M12.6521 36.0207C11.957 35.8784 11.8082 35.3158 11.7344 34.8581C11.578 33.8903 11.5307 32.9025 11.5128 31.9215C11.5063 31.5885 11.6572 31.2162 11.8453 30.9229C12.7976 29.4395 13.7863 27.9764 14.7611 26.5062C14.8943 26.3054 15.0903 26.119 15.1471 25.9009C15.5581 24.3033 16.5944 22.9856 17.3241 21.5317C17.7402 20.7024 18.0858 19.8755 18.8508 19.2678C19.5899 18.6811 20.2781 18.0246 21.0773 17.5199C22.6778 16.5114 24.0593 16.2787 25.3765 17.2844C25.3532 17.3546 25.3466 17.4741 25.303 17.4884C23.7243 17.9653 22.7458 19.1147 21.7662 20.2482C19.5245 22.8416 17.6959 25.678 16.4824 28.8057C15.8946 30.3192 14.819 31.5329 14.0777 32.936C13.5637 33.9103 13.1515 34.9303 12.6521 36.0207ZM22.2904 18.9609C20.7496 19.4999 19.6012 20.2305 19.0938 21.617C19.0421 21.7593 18.8755 21.8613 18.802 22.0002C18.3379 22.8806 17.8748 23.7614 17.4398 24.6536C17.3812 24.7735 17.4776 24.9595 17.5122 25.1753C17.6879 25.053 17.7653 25.0191 17.813 24.9626C17.8912 24.8708 17.956 24.7681 18.0163 24.6651C19.1483 22.7156 19.9839 20.5696 22.1274 19.2885C22.1849 19.2536 22.198 19.1523 22.2904 18.9609ZM14.4163 29.2816C14.4963 29.3273 14.5745 29.3738 14.6538 29.4202C15.4508 28.7488 15.4737 28.7027 15.3097 27.8704C14.9667 28.4131 14.6917 28.848 14.4163 29.2816Z" fill="#754639"/>
<path fill-rule="evenodd" clip-rule="evenodd" d="M13.3738 6.40919C14.9059 5.43596 16.8927 5.60262 18.7595 6.97659C18.2739 6.97659 17.9054 7.08229 17.6849 6.95933C16.4373 6.26354 15.1114 6.30113 13.7532 6.47796C13.6371 6.49286 13.5098 6.43561 13.3738 6.40919Z" fill="black"/>
<path fill-rule="evenodd" clip-rule="evenodd" d="M30.8574 10.3129C29.6982 10.2303 28.5207 10.2154 27.575 9.34003C28.6775 9.57783 29.7807 9.81598 30.8836 10.0531C30.8749 10.1398 30.8665 10.2265 30.8574 10.3129Z" fill="black"/>
<path fill-rule="evenodd" clip-rule="evenodd" d="M24.6046 8.69135C24.1044 8.88884 23.8272 8.70388 23.5966 8.30347C24.2004 8.16459 24.2004 8.16459 24.6046 8.69135Z" fill="black"/>
<path fill-rule="evenodd" clip-rule="evenodd" d="M30.5457 14.904C30.7974 14.6479 31.0488 14.3918 31.3805 14.0544C31.3012 14.7208 31.3012 14.7208 30.5457 14.904Z" fill="black"/>
<path fill-rule="evenodd" clip-rule="evenodd" d="M21.2108 6.85095C21.4741 6.94987 21.7364 7.04844 21.9994 7.14668C21.9656 7.23475 21.9321 7.32283 21.899 7.41023C21.6131 7.32249 21.3272 7.23441 21.042 7.14668C21.0984 7.04844 21.1544 6.94987 21.2108 6.85095Z" fill="black"/>
<path fill-rule="evenodd" clip-rule="evenodd" d="M29.4861 32.6305C29.393 32.7846 29.3362 32.9825 29.1987 33.0872C28.3192 33.7592 27.4782 34.5011 26.511 35.0441C25.7002 35.4997 24.7624 35.8432 23.8342 36.0112C22.0583 36.333 20.2494 36.4987 18.4528 36.7185C18.2666 36.7412 18.0713 36.6959 17.5795 36.6599C18.0651 36.3971 18.2826 36.207 18.5314 36.1566C19.6412 35.934 20.7532 35.645 21.8783 35.5753C24.044 35.4404 26.0396 35.0465 27.6106 33.4906C28.0569 33.0492 28.7095 32.7874 29.2671 32.4425C29.3402 32.5055 29.4137 32.5682 29.4861 32.6305Z" fill="black"/>
<path fill-rule="evenodd" clip-rule="evenodd" d="M2.75156 27.7098C2.92144 27.913 3.14805 28.0946 3.25172 28.3239C3.91957 29.8032 5.18469 30.6759 6.6968 31.2856C7.46686 31.5962 8.06486 32.0248 8.37151 32.8798C8.16053 32.8798 7.98411 32.9303 7.87608 32.872C7.00381 32.4042 6.15263 31.9038 5.28072 31.4357C3.76752 30.6234 3.01384 29.328 2.45184 27.9046C2.55187 27.8395 2.65153 27.7745 2.75156 27.7098Z" fill="black"/>
<path fill-rule="evenodd" clip-rule="evenodd" d="M27.5309 35.5061C25.9381 36.898 24.0248 37.3364 21.7313 37.2527C22.329 36.5491 23.0779 36.8781 23.6432 36.6599C24.303 36.4058 24.9938 36.2209 25.662 35.9837C26.2673 35.769 26.7747 35.2815 27.5309 35.5061Z" fill="black"/>
<path fill-rule="evenodd" clip-rule="evenodd" d="M27.5913 31.3229C28.5738 29.9849 29.5261 28.6881 30.4788 27.3917C30.1063 29.075 29.3679 30.5103 27.5913 31.3229Z" fill="black"/>
<path fill-rule="evenodd" clip-rule="evenodd" d="M2.61041 30.7701C3.7806 31.5539 4.90897 32.3097 6.08606 33.0973C4.52921 33.2115 2.83557 32.0367 2.61041 30.7701Z" fill="black"/>
<path fill-rule="evenodd" clip-rule="evenodd" d="M24.2208 37.854C24.9094 37.5061 25.4157 37.4065 25.9988 37.6684C25.4285 38.3499 25.379 38.357 24.2208 37.854Z" fill="black"/>
<path fill-rule="evenodd" clip-rule="evenodd" d="M4.323 34.018C3.57622 34.1955 3.28051 33.9902 3.43947 33.1915C3.81849 33.5461 4.07092 33.7819 4.323 34.018Z" fill="black"/>
<path fill-rule="evenodd" clip-rule="evenodd" d="M22.2904 18.9609C22.198 19.1523 22.1849 19.2536 22.1274 19.2885C19.9838 20.5696 19.1483 22.7156 18.0163 24.6651C17.9559 24.7681 17.8912 24.8707 17.813 24.9625C17.7653 25.0191 17.6879 25.053 17.5122 25.1753C17.4773 24.9595 17.3812 24.7735 17.4398 24.6536C17.8748 23.7613 18.3379 22.8806 18.802 22.0002C18.8755 21.8613 19.0417 21.7593 19.0937 21.617C19.6012 20.2305 20.7492 19.4995 22.2904 18.9609Z" fill="black"/>
<path fill-rule="evenodd" clip-rule="evenodd" d="M14.4163 29.2816C14.6917 28.848 14.9667 28.413 15.3097 27.8704C15.4737 28.7027 15.4512 28.7491 14.6538 29.4201C14.5745 29.3737 14.4963 29.3273 14.4163 29.2816Z" fill="black"/>
</svg>