<svg xmlns="http://www.w3.org/2000/svg" width="91" height="104" viewBox="0 0 91 104" fill="none">
<path d="M45.5001 0.58139C39.3823 0.58139 33.4483 1.79248 27.8632 4.18088C22.4678 6.48836 17.6216 9.79192 13.4599 13.9999C9.298 18.2079 6.03061 23.1077 3.74856 28.563C1.38631 34.2101 0.188477 40.2097 0.188477 46.3953C0.188477 52.5398 1.3709 58.5024 3.70281 64.1176C5.95556 69.542 9.18319 74.4226 13.2963 78.6237C17.4648 82.8814 22.3295 86.2253 27.7551 88.5626C33.3713 90.9818 39.3416 92.2085 45.5001 92.2085C51.6586 92.2085 57.6289 90.9818 63.2452 88.5626C68.6707 86.2255 73.5354 82.8815 77.704 78.6237C81.817 74.4226 85.0447 69.542 87.2974 64.1176C89.6293 58.5024 90.8117 52.5396 90.8117 46.3953C90.8117 40.2097 89.6139 34.2101 87.2517 28.563C84.9696 23.1077 81.7022 18.2081 77.5403 13.9999C73.3784 9.79192 68.5324 6.48836 63.137 4.18088C57.5519 1.79248 51.618 0.58139 45.5001 0.58139Z" fill="#2859E5"/>
<path d="M60.3373 56.7575C55.8764 53.9507 51.4483 52.7547 51.4483 52.7547C51.2924 52.2638 51.1171 50.6395 51.025 48.9767C51.59 48.3833 52.1499 47.7642 52.7404 47.1774C53.8645 46.0604 53.991 44.4638 54.3923 42.4044C55.1297 42.6163 55.3631 42.2615 55.5588 41.9597C55.6923 41.7533 55.7447 41.5061 55.7946 41.2645C55.9744 40.3967 56.1536 39.5286 56.333 38.6608C56.4679 38.0088 56.6035 37.341 56.5119 36.6813C56.4682 36.3694 56.3586 36.0426 56.1051 35.859C55.8518 35.6758 55.4286 35.72 55.3018 36.0078C55.3018 36.0078 55.7125 31.9228 55.7125 32.2668C56.0556 31.8816 56.327 31.0429 56.2134 30.3945C56.1001 29.7467 55.8962 29.116 55.7946 28.4663C55.6834 27.7528 55.6951 27.0164 55.4925 26.3236C55.2067 25.3469 54.5236 24.5464 53.8286 23.8097C53.3361 23.2879 52.8269 22.7807 52.2714 22.3285C51.1589 21.4245 49.8329 20.7441 48.4142 20.5835C47.9588 20.5322 47.4996 20.5344 47.0417 20.5367C46.5281 20.5393 46.0142 20.5419 45.5001 20.5445C44.9862 20.5419 44.4721 20.5393 43.9585 20.5367C43.5006 20.5344 43.0414 20.5322 42.5861 20.5835C41.1674 20.7441 39.8413 21.4245 38.7288 22.3285C38.1733 22.7807 37.6642 23.2879 37.1717 23.8097C36.4766 24.5464 35.7934 25.3469 35.5077 26.3236C35.305 27.0164 35.3167 27.7528 35.2056 28.4663C35.1038 29.116 34.9001 29.7467 34.7868 30.3945C34.673 31.0429 34.9446 31.8816 35.2877 32.2668C35.2877 31.9228 35.6985 36.0078 35.6985 36.0078C35.5716 35.72 35.1484 35.6757 34.8951 35.859C34.6418 36.0425 34.532 36.3694 34.4883 36.6813C34.3968 37.341 34.5323 38.0088 34.6672 38.6608C34.8466 39.5286 35.0259 40.3967 35.2056 41.2645C35.2555 41.5059 35.3081 41.7533 35.4414 41.9597C35.6371 42.2615 35.8705 42.6165 36.6079 42.4044C37.0092 44.4638 37.1357 46.0604 38.2598 47.1774C38.8504 47.7641 39.4102 48.3833 39.9752 48.9767C39.8833 50.6397 39.708 52.2638 39.5521 52.7547C39.5521 52.7547 35.124 53.9505 30.6631 56.7575C28.2424 58.2806 27.1831 61.6436 26.816 65.0222C26.5965 67.0429 27.7237 68.966 29.5845 69.7356C32.3836 70.8931 37.3979 72.2543 45.5003 72.2543C53.6027 72.2543 58.617 70.8933 61.416 69.7356C63.2769 68.9661 64.4039 67.0429 64.1846 65.0222C63.8172 61.6436 62.758 58.2806 60.3373 56.7575Z" fill="white"/>
<path d="M29.6276 55.0751C32.3737 53.3468 35.0908 52.2019 36.8968 51.5427C34.647 50.5109 32.9405 50.0497 32.9405 50.0497C32.8132 49.6489 32.6696 48.3214 32.5946 46.962C33.0566 46.4771 33.5143 45.9708 33.9968 45.4912C34.3966 45.0944 34.6417 44.6234 34.8185 44.0795C34.2532 43.7402 33.941 43.2591 33.8023 43.0462C33.4634 42.5215 33.353 41.9886 33.2874 41.6701C33.1296 40.9083 32.9719 40.146 32.8146 39.384L32.749 39.0658C32.5966 38.3302 32.4074 37.4148 32.5476 36.4058C32.6912 35.3828 33.1458 34.7631 33.5633 34.3996C33.505 33.8389 33.4516 33.3439 33.4144 33.0111C32.9121 32.1472 32.6873 31.0162 32.8573 30.0483C32.9215 29.6803 33.0038 29.3419 33.0836 29.015C33.1587 28.7078 33.2291 28.4181 33.2697 28.1565C33.3006 27.9604 33.3211 27.7355 33.3432 27.4976C33.3907 26.9775 33.4452 26.3875 33.6284 25.7613C33.6724 25.6103 33.7225 25.4632 33.7778 25.3195C33.7235 25.2729 33.6685 25.2268 33.6132 25.1818C32.7037 24.4432 31.62 23.8868 30.4609 23.7557C30.0885 23.7136 29.7132 23.7155 29.339 23.7176C28.9191 23.7195 28.4993 23.7215 28.0788 23.7234C27.6589 23.7215 27.2386 23.7195 26.8191 23.7176C26.4448 23.7157 26.0696 23.7136 25.6972 23.7557C24.5376 23.887 23.4542 24.4432 22.5449 25.1818C22.0908 25.5519 21.6742 25.966 21.2721 26.3925C20.7036 26.9944 20.1457 27.6492 19.9119 28.4469C19.7464 29.0136 19.7562 29.6155 19.665 30.1985C19.5817 30.7296 19.4152 31.2452 19.3224 31.7749C19.2294 32.3043 19.4518 32.9905 19.732 33.3051C19.732 33.0237 20.0675 36.3625 20.0675 36.3625C19.9642 36.1272 19.6182 36.091 19.411 36.2412C19.2039 36.3907 19.1141 36.6582 19.0784 36.9129C19.0039 37.4519 19.1148 37.9977 19.2249 38.5308C19.3715 39.2401 19.518 39.9495 19.6648 40.6593C19.7054 40.8565 19.7486 41.0582 19.8574 41.2269C20.0177 41.4736 20.2082 41.7639 20.8114 41.5906C21.1392 43.2738 21.2426 44.5792 22.1613 45.4916C22.6438 45.9711 23.1015 46.4774 23.5635 46.9624C23.4886 48.3216 23.345 49.6493 23.2175 50.05C23.2175 50.05 19.5983 51.0279 15.9522 53.3219C13.9738 54.5668 13.1081 57.315 12.8082 60.0766C12.6288 61.7282 13.5501 63.3 15.0707 63.9286C16.959 64.7098 20.0814 65.6038 24.8378 65.8921C24.8183 65.5335 24.828 65.1703 24.8676 64.8063C25.0921 62.7407 25.5291 60.9275 26.1664 59.4167C26.9917 57.462 28.1557 56.001 29.6276 55.0751Z" fill="white"/>
<path d="M78.192 60.0765C77.8921 57.3149 77.0263 54.5666 75.0479 53.3217C71.4018 51.0278 67.7826 50.0499 67.7826 50.0499C67.6553 49.6491 67.5117 48.3216 67.4368 46.9622C67.8988 46.4773 68.3564 45.971 68.8391 45.4914C69.7578 44.579 69.8611 43.2737 70.1889 41.5904C70.7921 41.7639 70.9827 41.4735 71.1429 41.2268C71.2517 41.0578 71.2947 40.8562 71.3355 40.6592C71.4826 39.9493 71.6291 39.24 71.7756 38.5307C71.8858 37.9977 71.9965 37.4518 71.9221 36.9128C71.8863 36.6581 71.7967 36.3907 71.5895 36.241C71.3823 36.091 71.0363 36.127 70.933 36.3623C70.933 36.3623 71.2685 33.0236 71.2685 33.305C71.5487 32.9905 71.7711 32.3044 71.6781 31.7747C71.5855 31.2452 71.419 30.7294 71.3355 30.1984C71.2444 29.6154 71.2541 29.0135 71.0886 28.4467C70.8548 27.6492 70.2969 26.9943 69.7285 26.3924C69.3263 25.9658 68.9099 25.5517 68.4556 25.1816C67.5463 24.443 66.463 23.8867 65.3033 23.7555C64.931 23.7134 64.5557 23.7153 64.1814 23.7174C63.7621 23.7193 63.3416 23.7214 62.9217 23.7233C62.5014 23.7214 62.0815 23.7193 61.6615 23.7174C61.2873 23.7155 60.912 23.7134 60.5396 23.7555C59.3803 23.8869 58.2966 24.443 57.3874 25.1816C57.332 25.2267 57.2772 25.2728 57.2227 25.3194C57.278 25.463 57.3281 25.6101 57.3721 25.7612C57.5553 26.3874 57.6098 26.9773 57.6573 27.4974C57.6794 27.7351 57.7 27.96 57.7308 28.1577C57.7714 28.4178 57.842 28.7077 57.9169 29.0147C57.9967 29.3416 58.079 29.68 58.1433 30.049C58.3133 31.0165 58.0884 32.1469 57.5867 33.0108C57.549 33.3436 57.4955 33.8384 57.4373 34.3993C57.8552 34.7638 58.3093 35.383 58.4524 36.4025C58.5931 37.415 58.4039 38.3305 58.2516 39.0655L58.1859 39.3836C58.0286 40.1455 57.871 40.9078 57.7131 41.6703C57.6475 41.9884 57.5373 42.5214 57.1997 43.0429C57.0851 43.2198 56.8748 43.5441 56.5251 43.8345C56.4159 43.9251 56.3011 44.0059 56.1811 44.0767C56.358 44.6222 56.6034 45.0938 57.0037 45.4911C57.4863 45.9706 57.944 46.4769 58.406 46.9619C58.3311 48.3211 58.1875 49.6488 58.0602 50.0495C58.0602 50.0495 56.3537 50.5108 54.1039 51.5425C55.9099 52.2018 58.627 53.3467 61.3731 55.075C62.845 56.0009 64.009 57.4616 64.834 59.4164C65.4715 60.9272 65.9084 62.7402 66.1327 64.8055C66.1725 65.1695 66.1823 65.5326 66.1626 65.8918C70.9189 65.6035 74.0414 64.7093 75.9296 63.9282C77.4501 63.2998 78.3712 61.728 78.192 60.0765Z" fill="white"/>
<path d="M45.5001 103.685C58.875 103.685 69.7174 102.682 69.7174 101.445C69.7174 100.208 58.875 99.2046 45.5001 99.2046C32.1253 99.2046 21.2828 100.208 21.2828 101.445C21.2828 102.682 32.1253 103.685 45.5001 103.685Z" fill="#D8D8D8"/>
</svg>