<svg xmlns="http://www.w3.org/2000/svg" width="93" height="68" viewBox="0 0 93 68" fill="none">
<path d="M59.926 42.676L60.234 54.646L54.999 67.243H59.584L68.361 52.065L61.68 46.226L59.926 42.676Z" fill="#A57C60"/>
<path d="M57.975 54.118C54.235 54.118 51.203 51.086 51.203 47.346V41.228H64.747V47.346C64.747 51.086 61.715 54.118 57.975 54.118Z" fill="#E2A8B9"/>
<path d="M64.176 53.7381C64.904 53.2441 65.093 52.2541 64.599 51.5261L62.56 48.5231L59.926 50.3121L61.965 53.3151C62.459 54.0431 63.449 54.2321 64.176 53.7381Z" fill="#E2A8B9"/>
<path d="M57.7619 56.736C56.8829 56.736 56.1699 56.023 56.1699 55.144V51.514H59.3539V55.144C59.3539 56.023 58.6419 56.736 57.7619 56.736Z" fill="#E2A8B9"/>
<path d="M51.453 53.7381C50.725 53.2441 50.536 52.2541 51.03 51.5261L53.069 48.5231L55.703 50.3121L53.664 53.3151C53.17 54.0431 52.18 54.2321 51.453 53.7381Z" fill="#E2A8B9"/>
<path d="M86.995 41.288C86.259 41.288 85.531 41.082 84.935 40.659C83.493 39.636 83.146 37.89 82.811 36.201C82.7 35.644 82.586 35.068 82.434 34.543C81.434 31.089 78.344 28.682 74.994 26.32C74.801 26.184 74.755 25.918 74.891 25.725C75.027 25.532 75.293 25.486 75.485 25.622C78.964 28.075 82.176 30.585 83.253 34.305C83.415 34.865 83.533 35.46 83.647 36.035C83.963 37.63 84.262 39.136 85.428 39.963C86.459 40.695 88.081 40.555 89.042 39.651C89.981 38.769 90.298 37.215 89.796 35.958C89.709 35.739 89.815 35.491 90.034 35.404C90.253 35.317 90.501 35.423 90.588 35.642C91.225 37.237 90.829 39.142 89.626 40.273C88.914 40.942 87.948 41.288 86.995 41.288Z" fill="#49151A"/>
<path d="M77.925 30.623V67.242H73.339L71.811 55.981C71.811 55.981 63.087 54.256 58.589 44.472H34.114L24.78 12.714L39.947 14.874L68.215 18.899C71.551 19.41 74.525 21.357 76.218 24.277C76.508 24.776 76.764 25.297 76.983 25.833C77.595 27.329 77.925 28.951 77.925 30.623Z" fill="#C19272"/>
<path d="M25.805 12.714V43.872H24.112C23.373 43.872 22.665 43.998 22.008 44.231C20.986 44.592 20.086 45.208 19.386 46.003C18.397 47.117 17.799 48.581 17.799 50.185V67.242H13.08L12.75 65.023L11.236 54.856L9.27397 41.667L7.88696 32.345C7.88696 25.427 10.032 21.81 13.84 17.082C13.96 16.932 14.084 16.781 14.207 16.628C15.007 15.644 15.862 14.787 16.761 14.128C17.968 13.243 19.257 12.713 20.6 12.713H25.805V12.714Z" fill="#C19272"/>
<path d="M17.798 67.243H13.079L12.749 65.023H17.798V67.243Z" fill="#49151A"/>
<path d="M25.805 13.107C25.042 12.853 24.244 12.714 23.413 12.714H13.84V34.855C13.84 39.579 17.308 43.709 22.003 44.23C22.005 44.23 22.007 44.23 22.007 44.23C22.778 44.503 23.481 44.923 24.082 45.454C25.391 46.611 26.216 48.301 26.216 50.185V67.242L31.358 65.023C31.358 65.023 35.65 40.588 36.126 32.345C36.461 26.554 32.494 15.342 25.805 13.107Z" fill="#EDB188"/>
<path d="M26.215 67.243H30.934L31.358 65.023H26.215V67.243Z" fill="#49151A"/>
<path d="M73.34 67.243L72.958 64.424H77.926V67.243H73.34Z" fill="#262626"/>
<path d="M16.8191 40.81C17.1808 40.81 17.4741 40.5167 17.4741 40.155C17.4741 39.7933 17.1808 39.5 16.8191 39.5C16.4573 39.5 16.1641 39.7933 16.1641 40.155C16.1641 40.5167 16.4573 40.81 16.8191 40.81Z" fill="#F97306"/>
<path d="M16.8191 34.387L15.5321 35.213C14.8461 35.654 14.3401 36.325 14.1051 37.106L13.4031 39.445H16.8181V34.387H16.8191Z" fill="#FFC239"/>
<path d="M16.819 39.4449H13.4041V40.1549H16.819V39.4449Z" fill="#FCAB16"/>
<path d="M16.8191 34.387L18.1061 35.213C18.7921 35.654 19.2981 36.325 19.5331 37.106L20.2351 39.445H16.8201V34.387H16.8191Z" fill="#FCAB16"/>
<path d="M16.8202 40.1549H20.2352V39.4449H16.8202V40.1549Z" fill="#FC8A03"/>
<path d="M54.999 67.243L56.17 64.424H61.214L59.584 67.243H54.999Z" fill="#262626"/>
<path d="M90.458 37.385C90.458 37.385 86.725 35.698 88.89 32.769C90.046 31.205 88.562 29.33 88.562 29.33C88.562 29.33 95.847 32.83 90.458 37.385Z" fill="#49151A"/>
<path d="M16.862 34.757C16.731 34.757 16.625 34.651 16.625 34.52V32.213C16.625 32.082 16.731 31.976 16.862 31.976C16.993 31.976 17.099 32.082 17.099 32.213V34.52C17.099 34.651 16.993 34.757 16.862 34.757Z" fill="#49151A"/>
<path d="M16.819 33.49C14.44 33.49 12.448 30.528 10.69 27.914C10.156 27.12 9.652 26.37 9.177 25.766C9.032 25.581 9.06399 25.312 9.24899 25.167C9.43399 25.022 9.703 25.054 9.848 25.239C10.342 25.868 10.855 26.631 11.397 27.438C12.955 29.754 14.893 32.637 16.818 32.637C18.923 32.637 20.554 29.92 22.132 27.292C22.442 26.776 22.762 26.243 23.082 25.736C23.208 25.537 23.471 25.477 23.671 25.603C23.87 25.729 23.93 25.992 23.804 26.192C23.489 26.691 23.171 27.22 22.864 27.732C21.165 30.562 19.407 33.49 16.819 33.49Z" fill="#49151A"/>
<path d="M10.99 6.90199C10.99 6.90199 7.22003 5.793 6.77703 0.25C5.11403 0.915 5.18204 7.678 7.58704 9.452C9.99204 11.226 10.99 6.90199 10.99 6.90199Z" fill="#FFC239"/>
<path d="M22.639 6.90199C22.639 6.90199 26.409 5.793 26.852 0.25C28.515 0.915 28.447 7.678 26.042 9.452C23.637 11.226 22.639 6.90199 22.639 6.90199Z" fill="#FCAB16"/>
<path d="M9.349 24.814L6.368 12.063C5.625 8.884 8.038 5.841 11.303 5.841H16.889V24.814H9.349Z" fill="#EDB188"/>
<path d="M12.149 29.882H16.889V21.122H12.149C10.113 21.122 8.46301 22.772 8.46301 24.808C8.46301 26.844 10.114 29.882 12.149 29.882Z" fill="#EFC7D2"/>
<path d="M24.429 24.814L27.41 12.063C28.153 8.884 25.74 5.841 22.475 5.841H16.889V24.814H24.429Z" fill="#C19272"/>
<path d="M21.628 29.882H16.889V21.122H21.628C23.664 21.122 25.314 22.772 25.314 24.808C25.315 26.844 23.664 29.882 21.628 29.882Z" fill="#E2A8B9"/>
<path d="M10.514 5.94202H0.119019C0.119019 5.94202 1.93302 11.965 7.14102 9.88002C9.62702 8.88402 10.514 5.94202 10.514 5.94202Z" fill="#49151A"/>
<path d="M23.178 5.94202H33.573C33.573 5.94202 31.759 11.965 26.551 9.88002C24.065 8.88402 23.178 5.94202 23.178 5.94202Z" fill="#49151A"/>
<path d="M24.084 14.128C23.843 14.664 23.381 15.098 22.774 15.285C22.167 15.47 21.543 15.366 21.042 15.056C21.17 14.774 21.357 14.5199 21.596 14.3169C21.809 14.1319 22.065 13.988 22.352 13.9C22.514 13.851 22.678 13.821 22.841 13.812C23.285 13.784 23.718 13.9 24.084 14.128Z" fill="#262626"/>
<path d="M13.0821 15.056C12.5811 15.366 11.9561 15.47 11.3491 15.285C10.7421 15.099 10.2811 14.665 10.0391 14.128C10.3161 13.956 10.6301 13.848 10.9601 13.818C11.2261 13.793 11.5001 13.818 11.7721 13.901C11.9381 13.952 12.0931 14.021 12.2351 14.106C12.6151 14.33 12.9071 14.666 13.0821 15.056Z" fill="#262626"/>
<path d="M76.217 24.278C74.524 21.359 71.55 19.411 68.214 18.9L39.946 14.875C40.355 15.097 40.758 15.354 41.02 15.792C41.339 16.324 41.399 16.969 41.426 17.589C41.5 19.385 41.359 21.224 41.885 22.944C42.757 25.794 45.178 27.307 47.887 28.111C51.148 29.079 53.45 27.662 56.313 26.283C56.581 26.154 56.859 26.022 57.156 26.017C57.815 26.005 58.306 26.585 58.745 27.075C61.964 30.669 67.136 31.263 71.468 29.468C73.534 28.612 75.342 27.322 76.981 25.833C76.763 25.297 76.508 24.777 76.217 24.278Z" fill="#49151A"/>
<path d="M40.5231 15.159C40.5581 15.195 40.5831 15.22 40.6001 15.236C40.5751 15.211 40.5511 15.187 40.5261 15.161C40.5261 15.161 40.5251 15.159 40.5231 15.159Z" fill="#49151A"/>
<path d="M14.787 51.138C14.661 50.719 14.4159 50.333 14.1109 50.021C14.0719 49.981 13.993 49.892 13.906 49.805C13.951 49.657 14.002 49.509 14.044 49.363C14.252 48.673 14.405 47.939 14.403 47.216C14.402 45.708 13.7589 44.237 12.5099 43.36C11.9799 42.987 11.345 42.752 10.724 42.572C10.589 42.52 10.524 42.498 10.526 42.502C10.436 42.459 10.345 42.417 10.257 42.369C10.035 42.249 9.81895 42.115 9.61395 41.967C9.61395 41.958 9.40195 41.778 9.27295 41.668L11.235 54.857C12.291 54.742 13.382 54.29 14.065 53.656C14.749 53.023 15.058 52.042 14.787 51.138ZM10.974 52.572C11.018 52.609 11.064 52.647 11.11 52.681C11.46 52.946 11.148 52.935 10.974 52.572Z" fill="#49151A"/>
<path d="M77.925 43.9V51.453C76.647 52.161 75.072 52.1861 73.902 50.9461C73.21 50.2131 73.028 49.2911 72.864 48.3421C72.851 48.2681 72.835 48.194 72.817 48.121C72.568 48.102 72.322 48.0191 72.092 47.9331C70.744 47.4341 69.793 46.117 69.801 44.666C69.809 43.083 70.898 41.891 72.318 41.37C72.346 41.359 72.374 41.354 72.4 41.346C72.564 41.044 72.805 40.787 73.124 40.629C73.844 40.268 74.491 40.134 75.264 40.382C75.954 40.603 76.526 41.1031 76.916 41.7041C77.274 42.2561 77.43 42.863 77.487 43.512C77.494 43.581 77.495 43.65 77.499 43.72C77.596 43.755 77.695 43.7921 77.795 43.8381C77.84 43.8571 77.883 43.877 77.925 43.9Z" fill="#49151A"/>
</svg>