<svg xmlns="http://www.w3.org/2000/svg" width="47" height="63" viewBox="0 0 47 63" fill="none">
<path d="M39.9321 58.9039C39.9475 58.8531 39.9578 58.8018 39.9639 58.75C39.9794 58.6992 39.9901 58.6479 39.9958 58.5961C40.0112 58.5453 40.0215 58.4941 40.0277 58.4423C40.0431 58.3915 40.0534 58.3402 40.0595 58.2889C40.075 58.2381 40.0852 58.1863 40.0914 58.135C40.1068 58.0842 40.1171 58.0329 40.1233 57.9811C40.1387 57.9303 40.149 57.879 40.1551 57.8272C40.1706 57.7764 40.1808 57.7251 40.187 57.6733C40.2024 57.6226 40.2127 57.5708 40.2189 57.5195C40.2343 57.4687 40.2446 57.4174 40.2507 57.3656C40.2662 57.3148 40.2765 57.2635 40.2826 57.2117C40.298 57.1609 40.3083 57.1096 40.3145 57.0578C40.3299 57.007 40.3402 56.9557 40.3464 56.9039C40.3618 56.8532 40.3721 56.8018 40.3782 56.7501C40.3936 56.6993 40.4039 56.648 40.4101 56.5962C40.4255 56.5454 40.4358 56.4941 40.442 56.4423C40.4574 56.3915 40.4676 56.3402 40.4738 56.2884C40.4892 56.2376 40.4995 56.1863 40.5057 56.1345C40.5211 56.0837 40.5314 56.0324 40.5376 55.9807C40.553 55.9299 40.5633 55.8786 40.5694 55.8268C40.5848 55.776 40.5951 55.7242 40.6013 55.6729C40.6167 55.6221 40.627 55.5708 40.6332 55.519C40.6486 55.4682 40.6589 55.4169 40.665 55.3651C40.6804 55.3143 40.6907 55.2625 40.6969 55.2112C40.7123 55.1604 40.7226 55.1092 40.7288 55.0579C40.7442 55.0071 40.7545 54.9558 40.7606 54.904C40.7761 54.8527 40.7863 54.8014 40.793 54.7501C40.8084 54.6993 40.8187 54.648 40.8249 54.5962C40.8403 54.5454 40.8506 54.4941 40.8568 54.4423C40.8722 54.3915 40.8824 54.3402 40.8886 54.2884C40.904 54.2376 40.9143 54.1864 40.9205 54.1346C40.9359 54.0838 40.9462 54.0325 40.9523 53.9807C40.9678 53.9299 40.9781 53.8786 40.9842 53.8268C40.9996 53.776 41.0099 53.7247 41.0161 53.6729C41.0315 53.6221 41.0418 53.5708 41.048 53.519C41.0634 53.4682 41.0737 53.4169 41.0798 53.3652C41.0952 53.3144 41.1055 53.2631 41.1117 53.2118C41.1271 53.161 41.1374 53.1092 41.1441 53.0579C41.1595 53.0071 41.1698 52.9558 41.176 52.904C41.1914 52.8532 41.2016 52.8019 41.2078 52.7501C41.2232 52.6993 41.2335 52.648 41.2397 52.5962C41.2551 52.5454 41.2654 52.4942 41.2715 52.4424C41.287 52.3916 41.2967 52.3403 41.3034 52.2885C41.3188 52.2377 41.3291 52.1864 41.3353 52.1346C41.3507 52.0838 41.3605 52.0325 41.3672 51.9807C41.3826 51.9299 41.3923 51.8786 41.399 51.8268C41.4144 51.776 41.4247 51.7247 41.4309 51.6729C41.4463 51.6221 41.4566 51.5709 41.4628 51.5191C41.4782 51.4683 41.4879 51.417 41.4946 51.3652C41.5101 51.3144 41.5198 51.2631 41.5265 51.2113C41.5419 51.1605 41.5517 51.1092 41.5584 51.0574C41.5738 51.0066 41.5836 50.9553 41.5902 50.9035C41.6057 50.8527 41.6154 50.8015 41.6221 50.7497C41.6375 50.6989 41.6473 50.6476 41.654 50.5958C41.6694 50.545 41.6791 50.4937 41.6858 50.4419C41.7012 50.3911 41.711 50.3398 41.7177 50.288C41.7331 50.2372 41.7429 50.1859 41.7496 50.1341C41.7645 50.0833 41.7748 50.032 41.7814 49.9802C41.7969 49.9295 41.8066 49.8782 41.8133 49.8264C41.8287 49.7751 41.8385 49.7243 41.8452 49.6725C41.8606 49.6217 41.8704 49.5704 41.877 49.5186C41.8925 49.4678 41.9022 49.4165 41.9089 49.3647C41.9243 49.3134 41.9341 49.2621 41.9408 49.2108C41.9562 49.16 41.966 49.1087 41.9726 49.057C41.9876 49.0062 41.9978 48.9549 42.0045 48.9031C42.0199 48.8523 42.0297 48.801 42.0364 48.7492C42.0513 48.6984 42.0616 48.6471 42.0683 48.5953C42.0837 48.5445 42.0934 48.4932 42.1001 48.4414C42.115 48.3906 42.1253 48.3393 42.132 48.2876C42.1469 48.2368 42.1572 48.1855 42.1639 48.1337C42.1788 48.0829 42.189 48.0316 42.1957 47.9803C42.2106 47.929 42.2209 47.8777 42.2281 47.8264C42.243 47.7756 42.2533 47.7243 42.26 47.6725C42.2749 47.6217 42.2852 47.5704 42.2918 47.5186C42.3073 47.4678 42.317 47.4165 42.3237 47.3647C42.3386 47.3139 42.3489 47.2627 42.3556 47.2109C42.3705 47.1601 42.3808 47.1088 42.3874 47.057C42.4024 47.0062 42.4126 46.9549 42.4193 46.9031C42.4342 46.8518 42.4445 46.8005 42.4512 46.7492C42.4661 46.6984 42.4764 46.6471 42.4831 46.5953C42.498 46.5445 42.5082 46.4933 42.5149 46.4415C42.5298 46.3907 42.5401 46.3394 42.5468 46.2876C42.5617 46.2368 42.572 46.1855 42.5786 46.1337C42.5936 46.0824 42.6038 46.0316 42.6105 45.9798C42.6254 45.929 42.6357 45.8777 42.6424 45.8259C42.6573 45.7751 42.6676 45.7238 42.6743 45.6725C42.6892 45.6218 42.6994 45.5705 42.7061 45.5187C42.721 45.4674 42.7313 45.4166 42.738 45.3648C42.7529 45.314 42.7632 45.2627 42.7699 45.2109C42.7848 45.1601 42.7951 45.1088 42.8017 45.057C42.8166 45.0057 42.8269 44.9544 42.8336 44.9031C42.8485 44.8523 42.8588 44.801 42.8655 44.7493C42.8804 44.6985 42.8907 44.6472 42.8973 44.5959C42.9122 44.5446 42.9225 44.4933 42.9292 44.442C42.9441 44.3912 42.9544 44.3399 42.9611 44.2881C42.976 44.2373 42.9862 44.186 42.9929 44.1342C43.0078 44.0834 43.0181 44.0321 43.0248 43.9803C43.0397 43.9295 43.05 43.8783 43.0567 43.8265C43.0716 43.7757 43.0819 43.7244 43.0885 43.6726C43.1034 43.6213 43.1137 43.57 43.1204 43.5187C43.1353 43.4679 43.1456 43.4166 43.1523 43.3648C43.1672 43.314 43.1775 43.2627 43.1841 43.2109C43.199 43.1601 43.2093 43.1088 43.216 43.0571C43.2309 43.0063 43.2412 42.955 43.2479 42.9037C43.2628 42.8529 43.2731 42.8011 43.2797 42.7498C43.2947 42.6985 43.3049 42.6472 43.3116 42.5959C43.3265 42.5451 43.3363 42.4938 43.3435 42.442C43.3584 42.3912 43.3687 42.3399 43.3754 42.2881C43.3903 42.2373 43.4 42.1855 43.4072 42.1343C43.4221 42.0835 43.4319 42.0322 43.4391 41.9804C43.454 41.9296 43.4638 41.8783 43.471 41.8265C43.4859 41.7757 43.4956 41.7239 43.5028 41.6726C43.5177 41.6218 43.5275 41.5705 43.5347 41.5187C43.5496 41.4679 43.5594 41.4166 43.5666 41.3648C43.5815 41.314 43.5912 41.2628 43.5984 41.211C43.6133 41.1602 43.6231 41.1089 43.6303 41.0571C43.6452 41.0058 43.655 40.955 43.6622 40.9032C43.6771 40.8524 43.6868 40.8011 43.694 40.7493C43.7089 40.6985 43.7187 40.6472 43.7259 40.5954C43.7408 40.5446 43.7506 40.4933 43.7578 40.4416C43.7727 40.3903 43.7824 40.339 43.7896 40.2877C43.8045 40.2369 43.8143 40.1856 43.8215 40.1338C43.8364 40.083 43.8462 40.0317 43.8534 39.9799C43.8683 39.9291 43.878 39.8778 43.8852 39.826C43.9002 39.7752 43.9099 39.7239 43.9171 39.6721C43.932 39.6213 43.9418 39.5701 43.949 39.5188C43.9639 39.4675 43.9736 39.4162 43.9808 39.3649C43.9957 39.3141 44.0055 39.2628 44.0127 39.211C44.0276 39.1602 44.0374 39.1089 44.0446 39.0571C44.0595 39.0063 44.0692 38.955 44.0764 38.9032C44.0913 38.8524 44.1011 38.8011 44.1083 38.7493C44.1232 38.6986 44.133 38.6468 44.1402 38.5955C44.1551 38.5447 44.1649 38.4934 44.172 38.4416C44.187 38.3908 44.1967 38.3395 44.2039 38.2882C44.2188 38.2374 44.2286 38.1861 44.2358 38.1343C44.2507 38.0835 44.2605 38.0317 44.2677 37.9804C44.2826 37.9296 44.2923 37.8783 44.2995 37.8271C44.3144 37.7758 44.3242 37.7245 44.3314 37.6732C44.3463 37.6224 44.3561 37.5706 44.3633 37.5193C44.3782 37.4685 44.3879 37.4172 44.3951 37.3654C44.41 37.3146 44.4198 37.2633 44.427 37.2115C44.4419 37.1602 44.4517 37.1089 44.4589 37.0576C44.4738 37.0068 44.4835 36.9556 44.4907 36.9038C44.5056 36.853 44.5154 36.8017 44.5226 36.7499C44.5375 36.6986 44.5473 36.6478 44.5545 36.596C44.5694 36.5452 44.5791 36.4939 44.5863 36.4421C44.6012 36.3913 44.611 36.34 44.6182 36.2882C44.6331 36.2369 44.6429 36.1861 44.6501 36.1344C44.665 36.0831 44.6747 36.0323 44.6819 35.9805C44.6968 35.9297 44.7066 35.8784 44.7138 35.8266C44.7287 35.7753 44.7385 35.724 44.7457 35.6727C44.7606 35.6219 44.7703 35.5706 44.7775 35.5188C44.7925 35.4675 44.8022 35.4167 44.8094 35.3649C44.8243 35.3142 44.8341 35.2629 44.8413 35.2111C44.8562 35.1603 44.866 35.109 44.8732 35.0572C44.8881 35.0064 44.8978 34.9551 44.905 34.9033C44.9199 34.852 44.9297 34.8007 44.9369 34.7494C44.9518 34.6986 44.9616 34.6473 44.9688 34.5955C44.9837 34.5447 44.9934 34.4934 45.0006 34.4421C45.0155 34.3909 45.0253 34.3396 45.033 34.2883C45.0479 34.2375 45.0577 34.1862 45.0649 34.1344C45.0798 34.0836 45.0895 34.0318 45.0967 33.9805C45.1116 33.9297 45.1214 33.8779 45.1286 33.8266C45.1435 33.7758 45.1533 33.7245 45.1605 33.6727C45.1754 33.6219 45.1852 33.5707 45.1923 33.5189C45.2073 33.4676 45.217 33.4163 45.2242 33.365C45.2386 33.3142 45.2489 33.2629 45.2561 33.2111C45.271 33.1603 45.2808 33.109 45.288 33.0572C45.3029 33.0059 45.3126 32.9551 45.3198 32.9033C45.3347 32.852 45.3445 32.8012 45.3517 32.7494C45.3661 32.6986 45.3763 32.6474 45.3835 32.5956C45.3979 32.5448 45.4082 32.4935 45.4154 32.4417C45.4303 32.3909 45.4401 32.3396 45.4473 32.2878C45.4617 32.237 45.472 32.1857 45.4792 32.1339C45.4935 32.0826 45.5038 32.0313 45.511 31.98C45.5254 31.9287 45.5357 31.8775 45.5429 31.8262C45.5573 31.7754 45.5676 31.7241 45.5748 31.6723C45.5891 31.621 45.5994 31.5702 45.6066 31.5184C45.621 31.4671 45.6313 31.4158 45.6385 31.3645C45.6529 31.3137 45.6627 31.2624 45.6704 31.2106C45.6848 31.1598 45.695 31.1085 45.7022 31.0572C45.7166 31.0059 45.7269 30.9547 45.7341 30.9034C45.7485 30.8526 45.7588 30.8013 45.766 30.7495C45.7804 30.6982 45.7901 30.6474 45.7978 30.5956C45.8122 30.5448 45.8225 30.4935 45.8297 30.4417C45.8441 30.3909 45.8539 30.3396 45.8616 30.2878C45.876 30.237 45.8857 30.1857 45.8934 30.1339C45.9078 30.0832 45.9176 30.0314 45.9253 29.9801C45.9397 29.9293 45.9495 29.878 45.9572 29.8262C45.9716 29.7754 45.9818 29.7241 45.989 29.6723C46.0034 29.6215 46.0132 29.5697 46.0209 29.5184C46.0353 29.4676 46.0451 29.4163 46.0528 29.365C46.0672 29.3137 46.0775 29.2624 46.0846 29.2112C46.099 29.1599 46.1093 29.1086 46.1165 29.0573C46.1309 29.0065 46.1407 28.9552 46.1484 28.9034C46.1628 28.8526 46.1725 28.8008 46.1803 28.7495C46.1946 28.6982 46.2049 28.6469 46.2121 28.5956C46.2265 28.5443 46.2363 28.4935 46.244 28.4417C46.2584 28.3905 46.2682 28.3392 46.2759 28.2879C46.3062 28.1803 46.3272 28.0727 46.3272 27.9632C46.3272 25.1679 36.1547 22.9015 23.6059 22.9015C11.0571 22.9015 0.884521 25.1679 0.884521 27.9632C0.884521 28.0722 0.905583 28.1803 0.935909 28.2879C0.943619 28.3392 0.953391 28.3905 0.967783 28.4417C0.975493 28.493 0.985265 28.5443 0.999657 28.5956C1.00737 28.6469 1.01712 28.6982 1.03152 28.7495C1.03923 28.8008 1.049 28.8521 1.06339 28.9034C1.0711 28.9547 1.08086 29.006 1.09525 29.0573C1.10296 29.1086 1.11273 29.1599 1.12712 29.2112C1.13483 29.2624 1.1446 29.3137 1.159 29.365C1.16671 29.4163 1.17646 29.4676 1.19085 29.5189C1.19856 29.5702 1.20834 29.6215 1.22273 29.6728C1.23044 29.7241 1.2402 29.7754 1.2551 29.8267C1.26281 29.878 1.27259 29.9293 1.28698 29.9801C1.29469 30.0314 1.30444 30.0827 1.31884 30.1339C1.32655 30.1852 1.33632 30.2365 1.35071 30.2878C1.35842 30.3391 1.36819 30.3904 1.38258 30.4417C1.39029 30.493 1.40005 30.5443 1.41444 30.5956C1.42215 30.6469 1.43192 30.6982 1.44632 30.7495C1.45403 30.8008 1.4638 30.8521 1.47819 30.9034C1.4859 30.9547 1.49566 31.0059 1.51005 31.0572C1.51776 31.1085 1.52753 31.1598 1.54192 31.2111C1.54963 31.2624 1.55939 31.3137 1.57378 31.365C1.58149 31.4168 1.59127 31.4681 1.60617 31.5189C1.61388 31.5702 1.62364 31.6215 1.63803 31.6723C1.64574 31.7236 1.65551 31.7749 1.66991 31.8262C1.67762 31.8775 1.68739 31.9287 1.70178 31.98C1.70949 32.0313 1.71925 32.0826 1.73364 32.1339C1.74135 32.1852 1.75112 32.2365 1.76551 32.2878C1.77271 32.3391 1.78298 32.3904 1.79737 32.4417C1.80508 32.493 1.81485 32.5443 1.82924 32.5956C1.83695 32.6469 1.84673 32.6981 1.86112 32.7494C1.86883 32.8007 1.87858 32.852 1.89298 32.9033C1.90017 32.9546 1.91046 33.0059 1.92485 33.0572C1.93256 33.1085 1.94233 33.1598 1.95672 33.2111C1.96392 33.2624 1.97419 33.3137 1.98858 33.3645C1.99578 33.4158 2.00607 33.4671 2.02046 33.5184C2.02765 33.5697 2.03792 33.6209 2.05232 33.6722C2.05951 33.7235 2.0698 33.7748 2.08419 33.8261C2.0919 33.8774 2.10167 33.9287 2.11606 33.98C2.12326 34.0313 2.13353 34.0826 2.14792 34.1339C2.15563 34.1852 2.1654 34.2365 2.1798 34.2878C2.18699 34.3391 2.19726 34.3909 2.21165 34.4417C2.21885 34.4929 2.22914 34.5442 2.24353 34.5955C2.25072 34.6468 2.26101 34.6981 2.2754 34.7494C2.2826 34.8007 2.29287 34.852 2.30726 34.9033C2.31446 34.9546 2.32474 35.0059 2.33913 35.0572C2.34633 35.1085 2.35662 35.1598 2.37101 35.2106C2.3782 35.2619 2.38847 35.3132 2.40287 35.3644C2.41006 35.4157 2.42035 35.467 2.43474 35.5183C2.44194 35.5696 2.45221 35.6209 2.4666 35.6722C2.4738 35.7235 2.48408 35.7748 2.49847 35.8261C2.50567 35.8774 2.51596 35.9287 2.53035 35.98C2.53754 36.0313 2.54781 36.0826 2.56221 36.1339C2.5694 36.1856 2.57969 36.2364 2.59408 36.2877C2.60128 36.339 2.61156 36.3903 2.62595 36.4416C2.63315 36.4929 2.64342 36.5442 2.65781 36.5955C2.66501 36.6473 2.67529 36.6986 2.68969 36.7494C2.69688 36.8007 2.70715 36.852 2.72154 36.9028C2.72874 36.9541 2.73851 37.0054 2.75342 37.0566C2.76061 37.1079 2.7709 37.1592 2.78529 37.2105C2.79249 37.2618 2.80276 37.3131 2.81715 37.3644C2.82435 37.4157 2.83463 37.467 2.84902 37.5183C2.85622 37.5696 2.86649 37.6209 2.88088 37.6722C2.88808 37.7235 2.89837 37.7748 2.91276 37.8261C2.91995 37.8773 2.93024 37.9287 2.94463 37.9794C2.95183 38.0307 2.96158 38.082 2.97649 38.1333C2.98369 38.1846 2.99397 38.2359 3.00836 38.2872C3.01556 38.3385 3.02585 38.3898 3.04024 38.4411C3.04743 38.4924 3.0577 38.5437 3.0721 38.595C3.07929 38.6463 3.08906 38.6976 3.10397 38.7489C3.11117 38.8001 3.12144 38.8514 3.13583 38.9027C3.14302 38.954 3.15331 39.0053 3.1677 39.0566C3.1749 39.1079 3.18518 39.1592 3.19958 39.2105C3.20677 39.2618 3.21704 39.3131 3.23143 39.3644C3.23863 39.4157 3.2484 39.467 3.26331 39.5183C3.2705 39.5696 3.28026 39.6208 3.29517 39.6721C3.30236 39.7234 3.31214 39.7747 3.32704 39.826C3.33424 39.8773 3.34401 39.9286 3.35892 39.9799C3.36611 40.0312 3.37587 40.083 3.39077 40.1338C3.39797 40.1851 3.40774 40.2364 3.42265 40.2872C3.42984 40.339 3.43962 40.3898 3.45452 40.4411C3.46172 40.4924 3.47147 40.5436 3.48638 40.5949C3.49358 40.6462 3.50335 40.6975 3.51825 40.7488C3.52545 40.8001 3.53521 40.8514 3.55011 40.9027C3.55731 40.954 3.56708 41.0053 3.58199 41.0566C3.58918 41.1079 3.59895 41.1592 3.61386 41.2105C3.62106 41.2618 3.63081 41.3131 3.64572 41.3644C3.65291 41.4156 3.66269 41.4669 3.67759 41.5182C3.68479 41.5695 3.69454 41.6208 3.70945 41.6721C3.71665 41.7239 3.72642 41.7752 3.74132 41.826C3.74852 41.8773 3.75829 41.9286 3.7732 41.9794C3.78039 42.0307 3.79015 42.082 3.80506 42.1333C3.81225 42.1851 3.82203 42.2363 3.83693 42.2871C3.84413 42.3384 3.8539 42.3897 3.86881 42.441C3.876 42.4923 3.88576 42.5436 3.90066 42.5949C3.90786 42.6462 3.91763 42.6975 3.93254 42.7488C3.93973 42.8001 3.94949 42.8514 3.9644 42.9027C3.97159 42.954 3.98136 43.0053 3.99627 43.0561C4.00347 43.1078 4.01324 43.1591 4.02814 43.2099C4.03534 43.2612 4.0451 43.3125 4.06 43.3638C4.0672 43.4151 4.07697 43.4664 4.09188 43.5177C4.09907 43.569 4.10883 43.6203 4.12373 43.6716C4.13093 43.7229 4.1407 43.7742 4.15561 43.8255C4.1628 43.8768 4.17258 43.9281 4.18748 43.9793C4.19468 44.0306 4.20444 44.0819 4.21934 44.1332C4.22602 44.1845 4.23631 44.2358 4.25122 44.2871C4.25841 44.3384 4.26818 44.3897 4.28309 44.441C4.29029 44.4923 4.30004 44.5436 4.31495 44.5949C4.32214 44.6462 4.33192 44.6975 4.34682 44.7488C4.3535 44.8 4.36377 44.8513 4.37868 44.9026C4.38536 44.9539 4.39565 45.0052 4.41055 45.0565C4.41775 45.1078 4.42751 45.1591 4.44293 45.2104C4.44961 45.2617 4.4599 45.313 4.4748 45.3638C4.48149 45.4151 4.49177 45.4664 4.50668 45.5177C4.51336 45.569 4.52363 45.6203 4.53854 45.6715C4.54522 45.7228 4.5555 45.7741 4.57041 45.8249C4.57709 45.8767 4.58736 45.928 4.60227 45.9788C4.60895 46.0301 4.61924 46.0814 4.63414 46.1327C4.64082 46.184 4.65111 46.2353 4.66602 46.2861C4.6727 46.3374 4.68297 46.3887 4.69788 46.44C4.70456 46.4913 4.71484 46.5426 4.72975 46.5939C4.73643 46.6451 4.74672 46.6964 4.76162 46.7477C4.76831 46.799 4.77858 46.8508 4.79348 46.9016C4.80016 46.9529 4.81045 47.0042 4.82536 47.0555C4.83204 47.1068 4.84231 47.1581 4.85721 47.2094C4.8639 47.2607 4.87418 47.312 4.88909 47.3633C4.89577 47.4145 4.90606 47.4658 4.92096 47.5171C4.92764 47.5684 4.93791 47.6197 4.95282 47.671C4.9595 47.7228 4.96979 47.7741 4.98469 47.8249C4.99138 47.8762 5.00165 47.9275 5.01655 47.9788C5.02323 48.0301 5.03352 48.0814 5.04843 48.1327C5.05511 48.184 5.06539 48.2353 5.0803 48.2865C5.08698 48.3378 5.09725 48.3896 5.11216 48.4404C5.11884 48.4922 5.12913 48.5435 5.14403 48.5943C5.15071 48.6456 5.161 48.6969 5.17591 48.7477C5.18259 48.7995 5.19286 48.8503 5.20777 48.9016C5.21445 48.9529 5.22473 49.0042 5.23964 49.0555C5.24632 49.1068 5.25659 49.158 5.2715 49.2093C5.27818 49.2606 5.28847 49.3119 5.30337 49.3632C5.31005 49.4145 5.32034 49.4658 5.33525 49.5171C5.34193 49.5684 5.3522 49.6197 5.3671 49.671C5.37379 49.7223 5.38407 49.7736 5.39898 49.8249C5.40566 49.8762 5.41593 49.9275 5.43084 49.9788C5.43752 50.0301 5.4478 50.0813 5.46271 50.1326C5.46939 50.1839 5.47968 50.2352 5.49458 50.2865C5.50127 50.3378 5.51154 50.3891 5.52644 50.4404C5.53312 50.4917 5.54341 50.543 5.55832 50.5943C5.565 50.6456 5.57528 50.6969 5.59019 50.7482C5.59687 50.7995 5.60714 50.8508 5.62205 50.9021C5.62873 50.9533 5.63902 51.0046 5.65392 51.0559C5.66061 51.1072 5.67088 51.159 5.68578 51.2098C5.69246 51.2611 5.70275 51.3124 5.71766 51.3637C5.72434 51.415 5.73462 51.4663 5.74953 51.5176C5.75621 51.5694 5.76648 51.6207 5.78139 51.6715C5.78807 51.7227 5.79836 51.774 5.81326 51.8253C5.81994 51.8766 5.8297 51.9279 5.84512 51.9792C5.8518 52.0305 5.86209 52.0818 5.87699 52.1331C5.88368 52.1844 5.89396 52.2357 5.90887 52.287C5.91555 52.3383 5.92582 52.3896 5.94073 52.4409C5.94741 52.4927 5.95769 52.544 5.9726 52.5947C5.97928 52.6465 5.98957 52.6973 6.00447 52.7486C6.01116 52.7999 6.02143 52.8512 6.03633 52.9025C6.04302 52.9538 6.05279 53.0051 6.06821 53.0564C6.07489 53.1077 6.08516 53.159 6.10007 53.2103C6.10675 53.2616 6.11652 53.3129 6.13194 53.3642C6.13862 53.4155 6.14839 53.4667 6.16381 53.518C6.1705 53.5698 6.18025 53.6206 6.19567 53.6719C6.20235 53.7232 6.21264 53.7745 6.22755 53.8258C6.23371 53.8771 6.24398 53.9284 6.2594 53.9797C6.26557 54.031 6.27586 54.0823 6.29128 54.1336C6.29796 54.1849 6.30773 54.2361 6.32315 54.2874C6.32932 54.3392 6.33959 54.39 6.35501 54.4413C6.36169 54.4926 6.37146 54.5439 6.38688 54.5952C6.39357 54.6465 6.40334 54.6978 6.41876 54.7491C6.42493 54.8004 6.4352 54.8517 6.45062 54.903C6.45678 54.9543 6.46707 55.0056 6.48249 55.0569C6.48866 55.1082 6.49893 55.1595 6.51435 55.2102C6.52052 55.262 6.5308 55.3133 6.54622 55.3641C6.55239 55.4154 6.56268 55.4667 6.5781 55.518C6.58427 55.5693 6.59454 55.6206 6.60996 55.6719C6.61612 55.7232 6.62641 55.775 6.64183 55.8258C6.648 55.8776 6.65828 55.9284 6.6737 55.9797C6.67987 56.0309 6.69014 56.0822 6.70556 56.1335C6.71173 56.1848 6.72202 56.2361 6.73744 56.2874C6.7436 56.3387 6.75387 56.39 6.76929 56.4413C6.77546 56.4926 6.78575 56.5439 6.80117 56.5952C6.80734 56.6465 6.81762 56.6978 6.83304 56.7491C6.83921 56.8004 6.84948 56.8517 6.8649 56.9029C6.87107 56.9547 6.88135 57.006 6.89677 57.0568C6.90294 57.1086 6.91321 57.1594 6.92863 57.2107C6.9348 57.262 6.94509 57.3133 6.96051 57.3646C6.96668 57.4159 6.97696 57.4672 6.99238 57.5185C6.99855 57.5703 7.00882 57.6216 7.02424 57.6724C7.03041 57.7237 7.04069 57.7749 7.05611 57.8262C7.06228 57.8775 7.07257 57.9288 7.08799 57.9801C7.09416 58.0314 7.10443 58.0827 7.11985 58.134C7.12601 58.1853 7.1363 58.2366 7.15172 58.2879C7.15789 58.3392 7.16816 58.3905 7.18358 58.4418C7.18975 58.4931 7.20003 58.5443 7.21545 58.5956C7.22162 58.6474 7.23189 58.6987 7.24783 58.7495C7.254 58.8008 7.26428 58.8521 7.2797 58.9029C7.28587 58.9547 7.29616 59.0055 7.31158 59.0568C7.54288 61.0144 14.7332 62.5856 23.5766 62.5856C32.42 62.5856 39.6108 61.0144 39.8421 59.0568C39.9161 59.0065 39.9264 58.9552 39.9321 58.9039Z" fill="#A6DBF0"/>
<path d="M23.6352 34.7136C15.5243 34.7136 8.4105 33.7813 4.3905 32.3789C4.39461 32.3989 4.39718 32.4188 4.40335 32.4387C4.41003 32.4825 4.41826 32.5258 4.43111 32.5692C4.4378 32.613 4.44601 32.6563 4.45886 32.7001C4.46554 32.744 4.47378 32.7878 4.48663 32.8311C4.49331 32.8749 4.50153 32.9183 4.51438 32.9616C4.52106 33.0054 4.52929 33.0492 4.54214 33.0926C4.54882 33.1364 4.55704 33.1797 4.56989 33.2235C4.57657 33.2674 4.5848 33.3107 4.59765 33.354C4.60433 33.3978 4.61255 33.4417 4.6254 33.485C4.63208 33.5288 4.6403 33.5721 4.65315 33.6155C4.65983 33.6593 4.66806 33.7026 4.68091 33.7459C4.6876 33.7898 4.69581 33.8336 4.70866 33.8769C4.71534 33.9207 4.72358 33.9646 4.73643 34.0079C4.74311 34.0517 4.75133 34.095 4.76418 34.1384C4.77086 34.1822 4.77909 34.2255 4.79194 34.2693C4.79862 34.3132 4.80684 34.357 4.81969 34.4003C4.82637 34.4441 4.8346 34.4875 4.84745 34.5308C4.85413 34.5746 4.86235 34.6179 4.8752 34.6618C4.88188 34.7056 4.89012 34.7489 4.90297 34.7922C4.90965 34.8361 4.91786 34.8799 4.93071 34.9232C4.9374 34.967 4.94563 35.0104 4.95848 35.0537C4.96516 35.0975 4.97338 35.1413 4.98623 35.1847C4.99291 35.2285 5.00114 35.2718 5.01399 35.3156C5.02067 35.3595 5.02889 35.4028 5.04174 35.4461C5.04842 35.4899 5.05665 35.5333 5.0695 35.5771C5.07619 35.6209 5.0844 35.6642 5.09725 35.7081C5.10342 35.7519 5.11217 35.7952 5.12502 35.8385C5.1317 35.8824 5.13992 35.9262 5.15277 35.9695C5.15893 36.0133 5.16766 36.0567 5.18051 36.1C5.18668 36.1438 5.19543 36.1871 5.20828 36.2305C5.21496 36.2743 5.22318 36.3181 5.23603 36.3614C5.2422 36.4053 5.25094 36.4491 5.26379 36.4924C5.26996 36.5362 5.27869 36.5796 5.29154 36.6229C5.29771 36.6667 5.30645 36.71 5.3193 36.7539C5.32547 36.7977 5.3342 36.8415 5.34705 36.8848C5.35322 36.9287 5.36197 36.972 5.37482 37.0153C5.38099 37.0591 5.38972 37.103 5.40257 37.1463C5.40873 37.1901 5.41748 37.2334 5.43033 37.2773C5.4365 37.3211 5.44523 37.3644 5.45808 37.4077C5.46425 37.4516 5.47299 37.4954 5.48584 37.5387C5.49201 37.5825 5.50074 37.6259 5.51359 37.6692C5.51976 37.713 5.52851 37.7563 5.54136 37.7997C5.54752 37.8435 5.55625 37.8873 5.5691 37.9306C5.57527 37.9745 5.58402 38.0178 5.59687 38.0611C5.60304 38.1049 5.61177 38.1483 5.62462 38.1916C5.63079 38.2354 5.63952 38.2792 5.65237 38.3226C5.65853 38.3664 5.66728 38.4097 5.68013 38.4535C5.6863 38.4974 5.69503 38.5407 5.70788 38.584C5.71405 38.6278 5.72279 38.6717 5.73564 38.715C5.74181 38.7588 5.75054 38.8021 5.76339 38.846C5.76956 38.8898 5.77831 38.9331 5.79116 38.9764C5.79732 39.0203 5.80605 39.0641 5.8189 39.1074C5.82507 39.1512 5.83382 39.1946 5.84667 39.2384C5.85284 39.2822 5.86157 39.326 5.87442 39.3694C5.88059 39.4132 5.88933 39.4565 5.90218 39.4998C5.90835 39.5437 5.91708 39.5875 5.92993 39.6308C5.9361 39.6746 5.94484 39.718 5.95769 39.7613C5.96386 39.8051 5.97259 39.8489 5.98544 39.8923C5.99161 39.9361 6.00036 39.9794 6.01321 40.0227C6.01938 40.0666 6.02811 40.1099 6.04096 40.1537C6.04712 40.1975 6.05587 40.2414 6.06872 40.2847C6.07489 40.3285 6.08362 40.3718 6.09647 40.4157C6.10264 40.4595 6.11138 40.5028 6.12423 40.5461C6.1304 40.59 6.13913 40.6338 6.15198 40.6771C6.15815 40.7209 6.16688 40.7648 6.17973 40.8081C6.1859 40.8519 6.19464 40.8952 6.20749 40.9386C6.21366 40.9824 6.22239 41.0257 6.23524 41.0695C6.24141 41.1134 6.25016 41.1567 6.26301 41.2005C6.26918 41.2443 6.27791 41.2877 6.29076 41.331C6.29692 41.3748 6.30567 41.4181 6.31852 41.462C6.32469 41.5058 6.33342 41.5496 6.34627 41.5929C6.35244 41.6368 6.36118 41.6801 6.37403 41.7234C6.3802 41.7672 6.38893 41.8111 6.40178 41.8544C6.40795 41.8982 6.4167 41.942 6.42955 41.9854C6.43571 42.0292 6.44444 42.0725 6.45729 42.1158C6.46346 42.1597 6.47221 42.2035 6.48506 42.2468C6.49123 42.2906 6.49996 42.334 6.51281 42.3773C6.51898 42.4211 6.52772 42.4644 6.54057 42.5078C6.54674 42.5516 6.55547 42.5954 6.56832 42.6387C6.57449 42.6826 6.58323 42.7259 6.59608 42.7697C6.60225 42.8135 6.61098 42.8569 6.62383 42.9002C6.63 42.944 6.63873 42.9878 6.65158 43.0312C6.65775 43.075 6.6665 43.1183 6.67935 43.1621C6.68551 43.206 6.69425 43.2493 6.7071 43.2926C6.71326 43.3364 6.72201 43.3803 6.73486 43.4236C6.74103 43.4674 6.74976 43.5112 6.76261 43.5546C6.76878 43.5984 6.77752 43.6422 6.79037 43.6855C6.79654 43.7294 6.80527 43.7727 6.81812 43.8165C6.82429 43.8603 6.83304 43.9037 6.84589 43.9475C6.85205 43.9913 6.86078 44.0346 6.87363 44.0779C6.8798 44.1218 6.88855 44.1656 6.9014 44.2089C6.90757 44.2528 6.9163 44.2966 6.92915 44.3399C6.93531 44.3837 6.94406 44.4271 6.95691 44.4704C6.96308 44.5142 6.97181 44.558 6.98466 44.6014C6.99083 44.6452 6.99957 44.6885 7.01242 44.7318C7.01859 44.7756 7.02732 44.8195 7.04017 44.8628C7.04634 44.9066 7.05509 44.9504 7.06794 44.9938C7.0741 45.0376 7.08284 45.0814 7.09569 45.1247C7.10185 45.1686 7.1106 45.2119 7.12345 45.2552C7.12962 45.299 7.13835 45.3429 7.1512 45.3862C7.15737 45.43 7.1661 45.4738 7.17895 45.5172C7.18511 45.561 7.19335 45.6043 7.20671 45.6476C7.21288 45.6915 7.2211 45.7353 7.23446 45.7786C7.24011 45.8224 7.24937 45.8658 7.26222 45.9091C7.26788 45.9529 7.27661 45.9962 7.28997 46.0396C7.29614 46.0834 7.30489 46.1272 7.31774 46.1706C7.32339 46.2144 7.33264 46.2582 7.34549 46.3015C7.35114 46.3453 7.35989 46.3887 7.37325 46.432C7.3789 46.4758 7.38763 46.5196 7.401 46.563C7.40717 46.6068 7.4154 46.6501 7.42876 46.6934C7.43442 46.7373 7.44315 46.7806 7.45651 46.8244C7.46217 46.8682 7.47143 46.9121 7.48428 46.9554C7.49044 46.9992 7.49917 47.043 7.51202 47.0864C7.51768 47.1302 7.52642 47.1735 7.53979 47.2168C7.54596 47.2607 7.55417 47.3045 7.56754 47.3478C7.57319 47.3916 7.58194 47.435 7.5953 47.4783C7.60096 47.5221 7.6102 47.5659 7.62305 47.6093C7.6287 47.6531 7.63743 47.6964 7.6508 47.7403C7.65645 47.7841 7.6652 47.8279 7.67856 47.8712C7.68422 47.915 7.69295 47.9589 7.70631 48.0022C7.71197 48.046 7.72071 48.0893 7.73408 48.1327C7.73973 48.1765 7.74846 48.2203 7.76182 48.2636C7.76748 48.3075 7.77622 48.3513 7.78959 48.3946C7.79524 48.4384 7.80397 48.4818 7.81734 48.5251C7.82299 48.5689 7.83174 48.6127 7.8451 48.6561C7.85076 48.6999 7.85949 48.7432 7.87285 48.787C7.8785 48.8309 7.88725 48.8742 7.90061 48.9175C7.90627 48.9613 7.915 49.0052 7.92836 49.0485C7.93402 49.0923 7.94276 49.1361 7.95613 49.1795C7.96178 49.2233 7.97051 49.2666 7.98388 49.3104C7.98953 49.3543 7.99828 49.3981 8.01164 49.4414C8.01729 49.4852 8.02602 49.5286 8.03939 49.5719C8.04504 49.6157 8.05379 49.659 8.06715 49.7024C8.07281 49.7462 8.08154 49.79 8.0949 49.8333C8.10056 49.8772 8.10929 49.921 8.12265 49.9643C8.1283 50.0081 8.13705 50.0515 8.15041 50.0953C8.15607 50.1391 8.1648 50.1829 8.17816 50.2263C8.18382 50.2701 8.19256 50.3139 8.20593 50.3572C8.21158 50.4011 8.22031 50.4444 8.23368 50.4877C8.23933 50.5315 8.24808 50.5754 8.26144 50.6187C8.26709 50.6625 8.27582 50.7058 8.28919 50.7492C8.29484 50.793 8.30359 50.8368 8.31695 50.8801C8.32261 50.924 8.33134 50.9673 8.3447 51.0106C8.35036 51.0544 8.3591 51.0978 8.37247 51.1416C8.37812 51.1854 8.38685 51.2292 8.40021 51.2726C8.40587 51.3164 8.41461 51.3602 8.42798 51.4035C8.43363 51.4474 8.44236 51.4912 8.45573 51.5345C8.46138 51.5783 8.47013 51.6217 8.48349 51.665C8.48915 51.7088 8.49788 51.7526 8.51124 51.796C8.51689 51.8398 8.52564 51.8836 8.539 51.9269C8.54466 51.9708 8.55339 52.0141 8.56675 52.0574C8.57241 52.1012 8.58115 52.145 8.59452 52.1884C8.60017 52.2322 8.6089 52.276 8.62227 52.3193C8.62792 52.3632 8.63665 52.4065 8.65001 52.4498C8.65567 52.4937 8.66441 52.5375 8.67778 52.5808C8.68343 52.6246 8.69216 52.6684 8.70553 52.7118C8.71118 52.7556 8.71993 52.7994 8.73329 52.8427C8.73895 52.8866 8.74768 52.9304 8.76104 52.9737C8.76669 53.0175 8.77544 53.0614 8.7888 53.1047C8.79446 53.1485 8.80319 53.1919 8.81655 53.2352C8.82221 53.279 8.83095 53.3228 8.84432 53.3662C8.84997 53.41 8.8587 53.4538 8.87207 53.4971C8.87772 53.541 8.88647 53.5843 8.89983 53.6276C8.90548 53.6714 8.91421 53.7152 8.92758 53.7586C8.93323 53.8024 8.94198 53.8457 8.95534 53.889C8.961 53.9329 8.96973 53.9762 8.98309 54.0195C8.98875 54.0633 8.99749 54.1072 9.01086 54.1505C9.01651 54.1943 9.02524 54.2376 9.0386 54.2815C9.04426 54.3253 9.053 54.3686 9.06637 54.4124C9.07202 54.4563 9.08075 54.5001 9.09412 54.5434C9.09926 54.5872 9.1085 54.6311 9.12187 54.6744C9.12752 54.7182 9.13627 54.762 9.14963 54.8049C9.15477 54.8487 9.16401 54.8925 9.17738 54.9358C9.18252 54.9797 9.19178 55.023 9.20514 55.0668C9.21028 55.1106 9.21953 55.1545 9.23289 55.1978C9.23803 55.2416 9.24729 55.2849 9.26066 55.3283C9.2658 55.3721 9.27504 55.4159 9.2884 55.4592C9.29354 55.5031 9.3028 55.5464 9.31617 55.5897C9.32131 55.6335 9.33055 55.6774 9.34392 55.7207C9.34906 55.7645 9.35832 55.8083 9.37168 55.8512C9.37682 55.895 9.38607 55.9383 9.39943 55.9821C9.40457 56.026 9.41383 56.0698 9.42719 56.1131C9.43233 56.1569 9.44158 56.2008 9.45494 56.2441C9.46008 56.2879 9.46934 56.3312 9.48271 56.3746C9.48785 56.4184 9.49709 56.4622 9.51046 56.5055C9.5156 56.5494 9.52486 56.5932 9.53822 56.6365C9.54336 56.6803 9.55261 56.7237 9.56597 56.767C9.57111 56.8108 9.58037 56.8546 9.59373 56.898C9.79317 58.5628 16.0079 59.8994 23.6506 59.8994C31.2933 59.8994 37.508 58.5628 37.7075 56.898C37.7208 56.8546 37.7301 56.8108 37.7352 56.767C37.7486 56.7237 37.7578 56.6803 37.763 56.6365C37.7763 56.5932 37.7856 56.5494 37.7907 56.5055C37.8041 56.4622 37.8134 56.4184 37.8185 56.3746C37.8319 56.3312 37.8406 56.2879 37.8462 56.2441C37.8596 56.2008 37.8689 56.1569 37.874 56.1131C37.8874 56.0698 37.8961 56.026 37.9018 55.9821C37.9151 55.9388 37.9239 55.8955 37.9295 55.8512C37.9429 55.8078 37.9521 55.7645 37.9573 55.7207C37.9706 55.6774 37.9799 55.6335 37.985 55.5897C37.9984 55.5464 38.0071 55.5031 38.0128 55.4592C38.0261 55.4159 38.0349 55.3721 38.0405 55.3283C38.0539 55.2849 38.0626 55.2411 38.0683 55.1973C38.0817 55.154 38.0904 55.1106 38.0961 55.0668C38.1094 55.0235 38.1182 54.9797 38.1238 54.9358C38.1372 54.8925 38.1459 54.8487 38.1516 54.8049C38.1649 54.7615 38.1737 54.7177 38.1793 54.6739C38.1927 54.6306 38.2014 54.5867 38.2071 54.5429C38.2204 54.4996 38.2292 54.4558 38.2348 54.4119C38.2482 54.3686 38.2569 54.3248 38.2626 54.281C38.2759 54.2376 38.2847 54.1938 38.2903 54.15C38.3037 54.1067 38.3124 54.0628 38.3181 54.019C38.3315 53.9757 38.3402 53.9324 38.3459 53.8885C38.3592 53.8452 38.368 53.8014 38.3736 53.7576C38.387 53.7142 38.3957 53.6704 38.4014 53.6266C38.4147 53.5833 38.4235 53.5399 38.4291 53.4961C38.4425 53.4528 38.4512 53.4095 38.4569 53.3657C38.4702 53.3223 38.479 53.2785 38.4846 53.2347C38.498 53.1914 38.5067 53.1475 38.5124 53.1042C38.5258 53.0609 38.5345 53.0176 38.5401 52.9732C38.5535 52.9299 38.5623 52.8861 38.5679 52.8423C38.5813 52.7989 38.59 52.7551 38.5957 52.7113C38.609 52.668 38.6178 52.6246 38.6234 52.5803C38.6368 52.537 38.6455 52.4932 38.6512 52.4493C38.6645 52.406 38.6733 52.3622 38.6789 52.3184C38.6923 52.275 38.701 52.2312 38.7067 52.1874C38.72 52.1441 38.7288 52.1002 38.7344 52.0564C38.7478 52.0131 38.7565 51.9698 38.7622 51.9259C38.7756 51.8826 38.7843 51.8388 38.7899 51.795C38.8033 51.7516 38.8121 51.7078 38.8177 51.664C38.8311 51.6207 38.8398 51.5773 38.8455 51.5335C38.8588 51.4902 38.8676 51.4464 38.8732 51.4025C38.8866 51.3592 38.8953 51.3154 38.901 51.2716C38.9143 51.2282 38.9231 51.1844 38.9287 51.1406C38.9421 51.0973 38.9508 51.0534 38.9565 51.0096C38.9698 50.9663 38.9786 50.9225 38.9842 50.8786C38.9976 50.8353 39.0063 50.7915 39.012 50.7477C39.0254 50.7043 39.0341 50.6605 39.0398 50.6172C39.0531 50.5739 39.0619 50.53 39.0675 50.4862C39.0809 50.4429 39.0896 50.3991 39.0953 50.3552C39.1086 50.3119 39.1174 50.2681 39.123 50.2243C39.1364 50.1809 39.1451 50.1371 39.1508 50.0933C39.1642 50.05 39.1729 50.0066 39.1785 49.9623C39.1919 49.919 39.2006 49.8752 39.2063 49.8313C39.2197 49.788 39.2284 49.7442 39.234 49.7004C39.2474 49.657 39.2561 49.6137 39.2618 49.5699C39.2752 49.5266 39.2839 49.4827 39.2896 49.4389C39.3024 49.3956 39.3117 49.3518 39.3173 49.3079C39.3307 49.2646 39.3394 49.2208 39.3451 49.177C39.3584 49.1336 39.3672 49.0898 39.3728 49.046C39.3862 49.0027 39.3949 48.9593 39.4006 48.9155C39.414 48.8722 39.4227 48.8284 39.4283 48.7845C39.4412 48.7412 39.4504 48.6974 39.4561 48.6536C39.4695 48.6102 39.4782 48.5664 39.4838 48.5226C39.4967 48.4793 39.5054 48.4355 39.5116 48.3921C39.5245 48.3488 39.5337 48.305 39.5394 48.2612C39.5527 48.2178 39.5615 48.174 39.5671 48.1302C39.58 48.0869 39.5887 48.043 39.5949 47.9997C39.6077 47.9564 39.6165 47.9126 39.6226 47.8687C39.6355 47.8254 39.6447 47.7816 39.6504 47.7378C39.6632 47.6944 39.672 47.6506 39.6782 47.6068C39.691 47.5635 39.6997 47.5201 39.7059 47.4763C39.7193 47.433 39.728 47.3892 39.7336 47.3453C39.7465 47.302 39.7552 47.2582 39.7614 47.2144C39.7743 47.171 39.783 47.1277 39.7892 47.0839C39.8025 47.0405 39.8113 46.9967 39.8169 46.9529C39.8298 46.9096 39.8385 46.8657 39.8447 46.8219C39.8575 46.7786 39.8663 46.7348 39.8724 46.691C39.8853 46.6476 39.894 46.6038 39.9002 46.5605C39.913 46.5172 39.9218 46.4733 39.928 46.4295C39.9408 46.3862 39.9495 46.3424 39.9557 46.299C39.9686 46.2557 39.9773 46.2119 39.9835 46.1681C39.9963 46.1247 40.005 46.0809 40.0112 46.0371C40.0241 45.9938 40.0328 45.9499 40.039 45.9061C40.0518 45.8628 40.0606 45.819 40.0667 45.7756C40.0796 45.7323 40.0883 45.6885 40.0945 45.6447C40.1073 45.6013 40.1161 45.558 40.1222 45.5142C40.1351 45.4709 40.1438 45.427 40.15 45.3832C40.1629 45.3399 40.1716 45.2961 40.1778 45.2522C40.1906 45.2089 40.1993 45.1651 40.2055 45.1213C40.2184 45.0779 40.2271 45.0341 40.2333 44.9903C40.2461 44.947 40.2548 44.9031 40.261 44.8593C40.2739 44.816 40.2826 44.7722 40.2888 44.7283C40.3016 44.685 40.3104 44.6417 40.3165 44.5979C40.3294 44.5545 40.3381 44.5107 40.3443 44.4669C40.3571 44.4236 40.3659 44.3802 40.372 44.3364C40.3849 44.2931 40.3936 44.2493 40.3998 44.2054C40.4127 44.1621 40.4214 44.1183 40.4276 44.0745C40.4404 44.0311 40.4491 43.9873 40.4553 43.944C40.4682 43.9007 40.4769 43.8568 40.4831 43.813C40.4959 43.7697 40.5047 43.7259 40.5108 43.682C40.5237 43.6387 40.5324 43.5949 40.5386 43.5516C40.5514 43.5082 40.5602 43.4644 40.5663 43.4206C40.5792 43.3773 40.5879 43.3334 40.5941 43.2896C40.6069 43.2463 40.6157 43.203 40.6219 43.1591C40.6347 43.1158 40.6434 43.072 40.6496 43.0282C40.6625 42.9848 40.6712 42.941 40.6774 42.8972C40.6902 42.8539 40.6989 42.81 40.7051 42.7667C40.718 42.7234 40.7267 42.6796 40.7329 42.6357C40.7457 42.5924 40.7545 42.5486 40.7606 42.5048C40.7735 42.4614 40.7822 42.4181 40.7884 42.3743C40.8012 42.331 40.81 42.2871 40.8161 42.2433C40.829 42.2 40.8377 42.1562 40.8439 42.1123C40.8567 42.069 40.8655 42.0257 40.8717 41.9819C40.8845 41.9385 40.8932 41.8947 40.8994 41.8509C40.9123 41.8076 40.921 41.7637 40.9272 41.7204C40.94 41.6771 40.9487 41.6333 40.9549 41.5894C40.9678 41.5461 40.9765 41.5023 40.9827 41.4585C40.9955 41.4151 41.0043 41.3713 41.0104 41.3275C41.0233 41.2842 41.032 41.2404 41.0382 41.197C41.051 41.1537 41.0598 41.1099 41.0659 41.0661C41.0788 41.0227 41.0875 40.9789 41.0937 40.9351C41.1066 40.8917 41.1153 40.8479 41.1215 40.8046C41.1343 40.7613 41.1431 40.7174 41.1492 40.6736C41.1621 40.6303 41.1708 40.5865 41.177 40.5426C41.1898 40.4993 41.1986 40.456 41.2047 40.4122C41.2176 40.3688 41.2263 40.325 41.2325 40.2817C41.2453 40.2384 41.2541 40.1945 41.2602 40.1507C41.2731 40.1074 41.2818 40.0636 41.288 40.0197C41.3008 39.9764 41.3096 39.9326 41.3157 39.8893C41.3286 39.8459 41.3373 39.8021 41.3435 39.7583C41.3564 39.715 41.3651 39.6716 41.3713 39.6278C41.3841 39.5845 41.3929 39.5407 41.399 39.4969C41.4119 39.4535 41.4206 39.4097 41.4268 39.3659C41.4396 39.3226 41.4484 39.2787 41.4545 39.2354C41.4674 39.1921 41.4761 39.1482 41.4823 39.1044C41.4951 39.0611 41.5039 39.0173 41.51 38.9734C41.5229 38.9301 41.5316 38.8868 41.5378 38.843C41.5506 38.7996 41.5594 38.7558 41.5656 38.712C41.5784 38.6687 41.5871 38.6249 41.5933 38.581C41.6062 38.5377 41.6149 38.4939 41.6211 38.4506C41.6339 38.4072 41.6427 38.3634 41.6488 38.3196C41.6617 38.2763 41.6704 38.2324 41.6766 38.1886C41.6894 38.1453 41.6982 38.1015 41.7043 38.0581C41.7172 38.0148 41.7259 37.971 41.7321 37.9272C41.7449 37.8838 41.7537 37.84 41.7598 37.7962C41.7727 37.7529 41.7809 37.709 41.7876 37.6657C41.8004 37.6224 41.8092 37.5786 41.8154 37.5352C41.8282 37.4919 41.8369 37.4481 41.8431 37.4043C41.856 37.3609 41.8647 37.3171 41.8709 37.2733C41.8837 37.2299 41.8925 37.1861 41.8986 37.1423C41.9115 37.099 41.9202 37.0552 41.9264 37.0113C41.9392 36.968 41.9475 36.9242 41.9541 36.8809C41.967 36.8375 41.9752 36.7937 41.9819 36.7499C41.9947 36.7066 42.003 36.6627 42.0096 36.6189C42.0225 36.5756 42.0307 36.5318 42.0374 36.4884C42.0503 36.4451 42.0585 36.4013 42.0652 36.3575C42.078 36.3141 42.0862 36.2703 42.0929 36.2265C42.1058 36.1832 42.114 36.1393 42.1207 36.096C42.1335 36.0527 42.1418 36.0094 42.1484 35.9655C42.1613 35.9222 42.17 35.8784 42.1762 35.8346C42.189 35.7912 42.1973 35.7474 42.2039 35.7041C42.2168 35.6608 42.225 35.6169 42.2317 35.5731C42.2445 35.5298 42.2528 35.486 42.2594 35.4421C42.2723 35.3988 42.2805 35.355 42.2872 35.3117C42.3001 35.2683 42.3083 35.2245 42.315 35.1807C42.3278 35.1374 42.336 35.0935 42.3427 35.0497C42.3556 35.0064 42.3638 34.9626 42.3705 34.9192C42.3833 34.8759 42.3916 34.8321 42.3982 34.7883C42.4111 34.7449 42.4193 34.7011 42.426 34.6578C42.4388 34.6145 42.4471 34.5706 42.4537 34.5268C42.4666 34.4835 42.4748 34.4397 42.4815 34.3963C42.4943 34.353 42.5026 34.3092 42.5093 34.2654C42.5221 34.222 42.5303 34.1782 42.537 34.1344C42.5499 34.0911 42.5581 34.0477 42.5648 34.0039C42.5776 33.9606 42.5858 33.9168 42.5925 33.8729C42.6054 33.8296 42.6136 33.7858 42.6203 33.742C42.6331 33.6986 42.6414 33.6548 42.648 33.6115C42.6609 33.5682 42.6691 33.5243 42.6758 33.481C42.6887 33.4377 42.6969 33.3939 42.7035 33.35C42.7164 33.3067 42.7246 33.2634 42.7313 33.2196C42.7441 33.1762 42.7524 33.1329 42.7591 33.0891C42.7719 33.0458 42.7801 33.0019 42.7868 32.9581C42.7997 32.9148 42.8079 32.871 42.8146 32.8276C42.8274 32.7843 42.8356 32.7405 42.8423 32.6967C42.8547 32.6533 42.8634 32.6095 42.8701 32.5657C42.8829 32.5224 42.8912 32.4785 42.8978 32.4352C42.9035 32.4153 42.9061 32.3954 42.9102 32.3755C38.8599 33.7813 31.7461 34.7136 23.6352 34.7136Z" fill="#D1A167"/>
<path d="M23.6353 33.0448C36.184 33.0448 46.3567 30.7786 46.3567 27.9831C46.3567 25.1876 36.184 22.9214 23.6353 22.9214C11.0867 22.9214 0.91394 25.1876 0.91394 27.9831C0.91394 30.7786 11.0867 33.0448 23.6353 33.0448Z" fill="#5790A8"/>
<path d="M38.1347 54.8004C38.148 54.7571 38.1568 54.7132 38.1624 54.6694C38.1758 54.6261 38.1845 54.5823 38.1902 54.5384C38.2035 54.4951 38.2123 54.4513 38.2179 54.4075C38.2313 54.3641 38.24 54.3208 38.2457 54.2765C38.2591 54.2332 38.2678 54.1893 38.2735 54.1455C38.2868 54.1022 38.2956 54.0584 38.3012 54.0146C38.3146 53.9712 38.3233 53.9279 38.329 53.8841C38.3423 53.8407 38.3511 53.7969 38.3567 53.7531C38.3701 53.7098 38.3788 53.6659 38.3845 53.6221C38.3978 53.5788 38.4066 53.535 38.4122 53.4911C38.4256 53.4478 38.4343 53.4045 38.44 53.3607C38.4533 53.3173 38.4621 53.2735 38.4677 53.2297C38.4811 53.1864 38.4898 53.1425 38.4955 53.0992C38.5089 53.0559 38.5176 53.0121 38.5233 52.9682C38.5366 52.9249 38.5454 52.8811 38.551 52.8373C38.5644 52.7939 38.5731 52.7501 38.5788 52.7063C38.5829 52.6933 38.5839 52.6804 38.587 52.667C34.7166 48.7557 29.4476 46.3449 23.6363 46.3449C17.825 46.3449 12.556 48.7557 8.68555 52.667C8.68863 52.6799 8.68967 52.6933 8.69378 52.7063C8.69944 52.7501 8.70817 52.7939 8.72153 52.8373C8.72718 52.8811 8.73593 52.9249 8.74929 52.9682C8.75495 53.0121 8.76368 53.0559 8.77704 53.0992C8.7827 53.143 8.79144 53.1864 8.80481 53.2297C8.81046 53.2735 8.81919 53.3173 8.83256 53.3607C8.83821 53.4045 8.84696 53.4483 8.86032 53.4916C8.86597 53.5355 8.87471 53.5788 8.88807 53.6226C8.89372 53.6664 8.90247 53.7103 8.91583 53.7536C8.92149 53.7974 8.93022 53.8407 8.94358 53.8841C8.94924 53.9279 8.95797 53.9712 8.97133 54.0146C8.97698 54.0584 8.98573 54.1022 8.9991 54.1455C9.00475 54.1893 9.01348 54.2332 9.02684 54.2765C9.0325 54.3203 9.04124 54.3641 9.05461 54.4075C9.06026 54.4513 9.06899 54.4951 9.08236 54.5384C9.0875 54.5823 9.09676 54.6261 9.11012 54.6694C9.11577 54.7132 9.12451 54.7571 9.13787 54.7999C9.14301 54.8437 9.15227 54.8875 9.16563 54.9309C9.17077 54.9747 9.18002 55.0185 9.19338 55.0618C9.19852 55.1057 9.20778 55.1495 9.22115 55.1928C9.22629 55.2366 9.23553 55.28 9.2489 55.3233C9.25404 55.3671 9.2633 55.4109 9.27666 55.4543C9.2818 55.4981 9.29104 55.5414 9.30441 55.5847C9.30955 55.6286 9.31881 55.6724 9.33217 55.7157C9.33731 55.7595 9.34656 55.8034 9.35992 55.8462C9.36506 55.89 9.37432 55.9338 9.38769 55.9772C9.39283 56.021 9.40207 56.0648 9.41543 56.1081C9.42057 56.152 9.42982 56.1958 9.44318 56.2391C9.44832 56.2829 9.45758 56.3268 9.47095 56.3696C9.47609 56.4134 9.48533 56.4572 9.4987 56.5006C9.50384 56.5444 9.5131 56.5882 9.52646 56.6315C9.5316 56.6754 9.54033 56.7187 9.55421 56.762C9.55935 56.8058 9.56861 56.8497 9.58197 56.893C9.7814 58.5578 15.9962 59.8944 23.6388 59.8944C31.2815 59.8944 37.4963 58.5578 37.6957 56.893C37.7091 56.8497 37.7183 56.8058 37.7235 56.762C37.7368 56.7187 37.7461 56.6754 37.7512 56.6315C37.7646 56.5882 37.7738 56.5444 37.779 56.5006C37.7923 56.4572 37.8016 56.4134 37.8067 56.3696C37.8201 56.3263 37.8294 56.2829 37.8345 56.2391C37.8479 56.1958 37.8571 56.152 37.8622 56.1081C37.8756 56.0648 37.8844 56.021 37.89 55.9772C37.9034 55.9338 37.9121 55.8905 37.9178 55.8462C37.9311 55.8029 37.9404 55.7595 37.9455 55.7157C37.9589 55.6724 37.9676 55.6286 37.9733 55.5847C37.9866 55.5414 37.9954 55.4981 38.001 55.4543C38.0144 55.4109 38.0231 55.3671 38.0288 55.3233C38.0421 55.28 38.0509 55.2361 38.0565 55.1923C38.0699 55.149 38.0786 55.1057 38.0843 55.0618C38.0977 55.0185 38.1064 54.9747 38.112 54.9309C38.1208 54.8875 38.1295 54.8442 38.1347 54.8004Z" fill="#B4854B"/>
<g opacity="0.15">
<path d="M17.422 34.5233L18.2891 59.6634C19.1727 59.743 20.1025 59.8033 21.0658 59.8421V34.6807C19.8178 34.6498 18.6011 34.5965 17.422 34.5233Z" fill="white"/>
<path d="M9.22778 33.5836L11.089 58.2042C11.7382 58.4846 12.5785 58.7401 13.5701 58.9627L11.6806 33.9676C10.8243 33.8515 10.0039 33.723 9.22778 33.5836Z" fill="white"/>
<path d="M26.5825 34.6702V59.8257C27.5494 59.7804 28.4787 59.7132 29.3607 59.627L30.2273 34.4994C29.0502 34.5776 27.8321 34.6344 26.5825 34.6702Z" fill="white"/>
<path d="M35.9722 33.9138L34.0858 58.8725C35.1169 58.6215 35.9614 58.3332 36.5741 58.018L38.4265 33.5114C37.6514 33.6573 36.8321 33.7918 35.9722 33.9138Z" fill="white"/>
</g>
<path d="M40.9513 18.5007C40.9513 18.5007 41.7028 15.7801 39.781 13.314C37.1035 9.8783 33.2115 10.5113 33.2115 10.5113C35.3163 3.62939 24.3214 0.611019 24.3214 0.611019C24.639 3.99144 20.1405 3.02582 16.139 5.92318C12.1375 8.82104 14.1591 11.5979 14.1591 11.5979C14.1591 11.5979 10.6701 11.3564 8.39406 14.2472C6.11858 17.1381 6.47941 20.0206 6.47941 20.0206C-0.654911 23.8552 2.65114 29.9263 2.65114 29.9263C6.07181 31.7569 14.1771 33.0448 23.6347 33.0448C33.2886 33.0448 41.5306 31.7027 44.8223 29.8112C47.509 20.9897 40.9513 18.5007 40.9513 18.5007Z" fill="#FFE1AD"/>
<path d="M8.07536 29.0478C3.55318 26.4363 6.4799 20.0206 6.4799 20.0206C-0.654423 23.8552 2.65163 29.9263 2.65163 29.9263C6.0723 31.7569 14.1776 33.0448 23.6352 33.0448C33.2891 33.0448 41.5311 31.7027 44.8227 29.8112C47.5089 20.9897 40.9518 18.5007 40.9518 18.5007C49.5562 31.4885 14.2069 32.5886 8.07536 29.0478Z" fill="#EBBA67"/>
<path d="M7.7002 19.1481C7.7002 19.1481 7.98599 12.9256 14.6335 12.8165C14.6335 12.8165 9.75722 15.2677 7.7002 19.1481Z" fill="white"/>
<path d="M14.9913 11.3912C14.9913 11.3912 13.5361 7.72047 17.6949 6.33553C21.8537 4.95059 25.499 3.91176 24.856 1.21061C24.856 1.21061 28.3239 2.87293 27.8408 5.91969C27.3571 8.96745 18.4222 6.68213 14.9913 11.3912Z" fill="white"/>
<path d="M24.3219 0.611019C24.3219 0.611019 29.8592 2.38788 31.3601 6.30116C32.861 10.214 27.1479 12.0147 24.3219 12.0147C24.3219 12.0147 29.4881 13.0944 33.212 10.5113C35.3164 3.62939 24.3219 0.611019 24.3219 0.611019Z" fill="#EBBA67"/>
<path d="M36.0061 21.2949C38.1752 20.7083 39.7747 19.6695 40.9585 18.4723C41.0289 18.1874 41.5922 15.6387 39.7809 13.3145C37.1035 9.87879 33.2115 10.5118 33.2115 10.5118C33.2115 10.5118 37.0069 10.9072 38.0076 14.9928C39.0084 19.0788 33.4654 21.2949 21.0831 20.9488C21.0831 20.9488 28.072 23.4418 36.0061 21.2949Z" fill="#EBBA67"/>
</svg>