<svg xmlns="http://www.w3.org/2000/svg" width="67" height="67" viewBox="0 0 67 67" fill="none">
<path d="M67 33.9853C67 38.4411 66.1157 42.765 64.3699 46.8367C62.6854 50.7687 60.274 54.2989 57.2031 57.3298C54.1323 60.3607 50.5553 62.7405 46.5714 64.4041C42.4448 66.1262 38.0638 67 33.5501 67C29.0354 67 24.6543 66.1262 20.5288 64.4041C16.5448 62.7405 12.968 60.3607 9.89703 57.3298C6.8261 54.2989 4.41479 50.7687 2.72929 46.8367C0.984398 42.765 0.0990601 38.4411 0.0990601 33.9853C0.0990601 29.5303 0.984398 25.2065 2.72929 21.1338C4.41479 17.2018 6.8261 13.6716 9.89703 10.6407C12.9679 7.60982 16.5448 5.22996 20.5288 3.56746C24.6543 1.84438 29.0354 0.971527 33.5501 0.971527C38.0639 0.971527 42.4448 1.8443 46.5714 3.56746C50.5553 5.22996 54.1323 7.6099 57.2031 10.6407C60.2741 13.6716 62.6854 17.2018 64.3699 21.1338C66.1157 25.2064 67 29.5303 67 33.9853Z" fill="#D33535"/>
<path d="M40.6693 33.9863L50.1229 43.3165L43.0033 50.3431L33.5498 41.0129L24.0962 50.3431L16.9767 43.3165L26.4303 33.9863L16.9767 24.6551L24.0962 17.6284L33.5498 26.9587L43.0033 17.6284L50.1229 24.6551L40.6693 33.9863Z" fill="white"/>
</svg>
