<svg xmlns="http://www.w3.org/2000/svg" width="87" height="76" viewBox="0 0 87 76" fill="none">
<ellipse cx="59.5" cy="36" rx="25.5" ry="34" fill="white"/>
<ellipse cx="14" cy="52.5" rx="11" ry="15.5" fill="white"/>
<ellipse cx="69" cy="40.5" rx="16" ry="23.5" fill="white"/>
<ellipse cx="58.5" cy="44.5" rx="17.5" ry="16.5" fill="#FC9610"/>
<ellipse cx="27.5" cy="41.5" rx="25.5" ry="33.5" fill="white"/>
<ellipse cx="39" cy="47.5" rx="16" ry="23.5" fill="white"/>
<ellipse cx="28.5" cy="49.5" rx="17.5" ry="16.5" fill="#FC9610"/>
<path d="M58.6916 70.2544C55.6246 70.2526 52.5761 69.7963 49.6531 68.9013C48.7673 68.6312 47.8994 68.3236 47.0737 67.9871C46.8807 67.9084 46.7102 67.7861 46.5767 67.6304C46.4431 67.4748 46.3504 67.2905 46.3065 67.093C46.2625 66.8956 46.2686 66.6908 46.3241 66.4961C46.3797 66.3013 46.4831 66.1224 46.6256 65.9743C48.4883 64.0128 49.9893 61.7588 51.0638 59.3097C54.8768 50.7967 53.5977 41.4551 53.5843 41.3618C53.0277 37.3673 52.1002 33.429 50.8131 29.5943C48.3601 22.4453 44.7281 16.8106 40.0178 12.8465C39.774 12.6413 39.6181 12.3562 39.5803 12.0464C39.5425 11.7367 39.6255 11.4245 39.8132 11.1704C42.3632 7.71941 45.3733 4.91236 48.76 2.82714C51.7185 0.981821 55.1674 4.18181e-05 58.6914 1.33588e-09C62.2155 -4.18154e-05 65.6644 0.981656 68.623 2.8269C80.6692 10.2433 85.0744 24.6824 86.6487 35.4895C86.6879 35.7598 87.5811 42.1652 85.7513 49.4944C83.2925 59.3427 77.061 66.0535 67.7301 68.9013C64.8071 69.7962 61.7585 70.2526 58.6916 70.2544ZM49.7765 66.2931C49.996 66.366 50.2172 66.4364 50.44 66.5044C55.8082 68.1514 61.5746 68.1514 66.9427 66.5044C71.6378 65.0715 75.4525 62.5889 78.2809 59.1257C80.5583 56.337 82.2185 52.8987 83.2152 48.9063C84.9306 42.0355 84.0743 35.899 84.0654 35.8378C82.5674 25.5549 78.4285 11.847 67.2191 4.94578C64.6787 3.3614 61.7173 2.5185 58.6914 2.51854C55.6655 2.51858 52.7041 3.36157 50.1638 4.94602C47.2571 6.76407 44.7051 9.06094 42.6244 11.7315C47.2577 15.9364 50.8428 21.6737 53.2895 28.8045C54.6261 32.7833 55.5894 36.8697 56.1678 41.0145C56.2271 41.424 57.569 51.1293 53.4588 60.3058C52.5104 62.4492 51.2722 64.4624 49.7765 66.2931Z" fill="black"/>
<path d="M58.6916 62.2658C56.32 62.2697 53.9702 61.8306 51.772 60.9728C51.6109 60.91 51.4645 60.8167 51.3413 60.6986C51.2181 60.5804 51.1207 60.4397 51.0547 60.2847C50.9888 60.1298 50.9556 59.9636 50.9572 59.7961C50.9588 59.6286 50.9951 59.4632 51.064 59.3094C54.8877 50.7725 53.5979 41.4558 53.5845 41.3626C53.0278 37.3678 52.1003 33.4293 50.8131 29.5943C50.7099 29.2939 50.728 28.9671 50.8638 28.679C50.9996 28.391 51.2432 28.1629 51.5458 28.0402C54.0681 27.0208 56.7937 26.5537 59.526 26.6729C62.2583 26.7921 64.929 27.4945 67.3454 28.7295C69.7618 29.9644 71.8635 31.701 73.4989 33.8139C75.1342 35.9269 76.2624 38.3634 76.802 40.9477C77.3415 43.5319 77.279 46.1994 76.6189 48.7576C75.9588 51.3157 74.7176 53.7006 72.9849 55.7402C71.2522 57.7799 69.0712 59.4232 66.5994 60.5517C64.1276 61.6802 61.4267 62.2657 58.6916 62.2658ZM53.9807 59.0662C56.3677 59.7791 58.8956 59.9384 61.3586 59.5312C63.8215 59.124 66.1498 58.1618 68.1538 56.7229C70.1578 55.284 71.7807 53.4092 72.8904 51.2512C74 49.0932 74.565 46.7131 74.5394 44.3048C74.5137 41.8964 73.8981 39.528 72.7426 37.3925C71.5872 35.2569 69.9247 33.4146 67.8904 32.0157C65.8562 30.6168 63.5079 29.7009 61.0368 29.3426C58.5656 28.9842 56.0416 29.1936 53.6704 29.9536C54.8053 33.571 55.6405 37.2696 56.1679 41.0145C56.2245 41.4056 57.4514 50.2754 53.9807 59.0662Z" fill="black"/>
<path d="M69.4359 44.7051C69.0899 44.7051 68.7582 44.5726 68.5136 44.3369C68.269 44.1011 68.1316 43.7814 68.1316 43.448C68.1293 41.3046 67.245 39.2497 65.6726 37.734C64.1002 36.2182 61.9683 35.3655 59.7444 35.3629C59.3985 35.3629 59.0667 35.2305 58.8221 34.9947C58.5775 34.759 58.4401 34.4392 58.4401 34.1058C58.4401 33.7724 58.5775 33.4527 58.8221 33.217C59.0667 32.9812 59.3985 32.8488 59.7444 32.8488C62.6598 32.8522 65.4549 33.97 67.5162 35.9571C69.5776 37.9441 70.7371 40.6381 70.7401 43.448C70.7401 43.7814 70.6027 44.1011 70.3581 44.3369C70.1135 44.5726 69.7818 44.7051 69.4359 44.7051Z" fill="black"/>
<path d="M28.2098 75.7786C25.1431 75.7768 22.095 75.3204 19.1722 74.4255C9.84091 71.5784 3.60891 64.8679 1.14986 55.0195C-0.680218 47.69 0.212967 41.2845 0.2519 41.0154C1.82699 30.2052 6.23295 15.7645 18.2792 8.35225C21.2375 6.50713 24.6861 5.52548 28.2099 5.52548C31.7336 5.52548 35.1822 6.50713 38.1406 8.35225C50.1867 15.7646 54.5927 30.2053 56.1676 41.0142L56.1678 41.0155C56.2067 41.2845 57.0999 47.6901 55.2698 55.0196C52.8109 64.8679 46.5789 71.5785 37.2476 74.4256C34.3248 75.3205 31.2766 75.7768 28.2098 75.7786ZM28.2098 8.04397C25.1852 8.05036 22.2258 8.89278 19.6829 10.4713C8.47352 17.3687 4.33406 31.0778 2.83531 41.3638C2.36274 45.7597 2.65639 50.2008 3.70412 54.5034C5.98142 63.5361 11.4505 69.4325 19.9595 72.0286C25.327 73.6755 31.0927 73.6755 36.4602 72.0286C44.9691 69.4324 50.4383 63.5361 52.7156 54.5034C53.7632 50.2005 54.0568 45.759 53.5842 41.3628C52.0853 31.077 47.9454 17.3682 36.7367 10.4713C34.1938 8.89279 31.2345 8.05037 28.2098 8.04397Z" fill="black"/>
<path d="M28.2098 67.7909C24.5563 67.7909 20.9848 66.7467 17.9469 64.7904C14.9091 62.8341 12.5414 60.0535 11.1433 56.8002C9.7451 53.547 9.37927 49.9672 10.092 46.5135C10.8048 43.0599 12.5642 39.8876 15.1476 37.3976C17.7311 34.9077 21.0226 33.212 24.606 32.5251C28.1893 31.8381 31.9036 32.1907 35.2791 33.5382C38.6545 34.8857 41.5396 37.1677 43.5694 40.0956C45.5992 43.0234 46.6826 46.4656 46.6826 49.9869C46.6771 54.7072 44.729 59.2326 41.2659 62.5703C37.8028 65.9081 33.1074 67.7856 28.2098 67.7909ZM28.2098 34.6971C25.0722 34.6971 22.005 35.5938 19.3962 37.2739C16.7873 38.9539 14.754 41.3419 13.5532 44.1358C12.3525 46.9296 12.0384 50.0039 12.6505 52.9698C13.2626 55.9358 14.7735 58.6602 16.9922 60.7985C19.2108 62.9368 22.0375 64.393 25.1149 64.983C28.1922 65.5729 31.382 65.2702 34.2808 64.1129C37.1796 62.9557 39.6573 60.9959 41.4004 58.4815C43.1436 55.9671 44.074 53.011 44.074 49.9869C44.0693 45.9332 42.3964 42.0468 39.4223 39.1804C36.4482 36.314 32.4158 34.7016 28.2098 34.6971Z" fill="black"/>
<path d="M38.954 50.2299C38.6081 50.2299 38.2763 50.0975 38.0317 49.8618C37.7871 49.626 37.6497 49.3063 37.6497 48.9729C37.6474 46.8295 36.7631 44.7746 35.1907 43.2589C33.6183 41.7431 31.4864 40.8904 29.2625 40.8878C28.9166 40.8878 28.5848 40.7554 28.3402 40.5196C28.0956 40.2839 27.9582 39.9641 27.9582 39.6307C27.9582 39.2974 28.0956 38.9776 28.3402 38.7419C28.5848 38.5061 28.9166 38.3737 29.2625 38.3737C32.178 38.3771 34.973 39.4949 37.0344 41.482C39.0957 43.469 40.2552 46.163 40.2582 48.9729C40.2582 49.3063 40.1208 49.626 39.8762 49.8618C39.6316 50.0975 39.2999 50.2299 38.954 50.2299Z" fill="black"/>
</svg>