<svg xmlns="http://www.w3.org/2000/svg" width="76" height="69" viewBox="0 0 76 69" fill="none">
<path d="M38.0201 21.678H13.7371V50.25H38.0201V21.678Z" fill="#BD1E2C"/>
<path d="M62.302 21.678H38.02V50.25H62.302V21.678Z" fill="#8C231F"/>
<path d="M38.019 26.311H23.356V50.25H38.019V26.311Z" fill="#8C231F"/>
<path d="M52.683 26.311H38.02V50.25H52.683V26.311Z" fill="#771818"/>
<path d="M53.631 50.251H51.735V27.259H24.304V50.251H22.408V25.363H53.631V50.251Z" fill="white"/>
<path d="M24.718 26.9504L23.9032 27.4349L37.6073 50.4807L38.4221 49.9962L24.718 26.9504Z" fill="white"/>
<path d="M37.606 26.9394L23.9045 49.9879L24.7194 50.4723L38.4209 27.4239L37.606 26.9394Z" fill="white"/>
<path d="M16.7391 21.678H13.7371V50.25H16.7391V21.678Z" fill="#8C231F"/>
<path d="M62.166 21.678H59.1641V50.25H62.166V21.678Z" fill="#771818"/>
<path d="M38.4205 26.9514L37.6057 27.4359L51.3098 50.4817L52.1246 49.9972L38.4205 26.9514Z" fill="white"/>
<path d="M51.3097 26.9396L37.6083 49.988L38.4232 50.4725L52.1246 27.424L51.3097 26.9396Z" fill="white"/>
<path d="M72.4339 62.996H3.92993C4.26393 61.985 4.59894 61.007 4.94594 60.071C7.28394 53.757 10.1279 49.322 16.4309 49.322H59.9319C66.2349 49.322 69.0789 53.757 71.4169 60.072C71.7639 61.008 72.0999 61.986 72.4339 62.996Z" fill="#889C29"/>
<path d="M6.90796 21.678L17.799 8.86301L38.0199 1.672V21.678H6.90796Z" fill="#8C231F"/>
<path d="M69.132 21.678L58.24 8.86301L38.02 1.672V21.678H69.132Z" fill="#771818"/>
<path d="M69.1319 23.101C68.7289 23.101 68.329 22.931 68.048 22.6L57.4039 10.076L38.0199 3.18198L18.6359 10.076L7.99095 22.6C7.48195 23.198 6.58494 23.271 5.98594 22.763C5.38794 22.254 5.31495 21.357 5.82295 20.758L16.962 7.65196L38.019 0.162964L59.0759 7.65196L70.215 20.758C70.724 21.356 70.651 22.254 70.052 22.763C69.785 22.99 69.4579 23.101 69.1319 23.101Z" fill="#49151A"/>
<path d="M38.0199 9.349H31.8149V16.937H38.0199V9.349Z" fill="#BD1E2C"/>
<path d="M44.224 9.349H38.02V16.937H44.224V9.349Z" fill="#8C231F"/>
<path d="M44.6981 17.411H31.3411V8.875H44.6981V17.411ZM32.2891 16.463H43.7501V9.823H32.2891V16.463Z" fill="white"/>
<path d="M38.494 26.311H37.546V47.954H38.494V26.311Z" fill="white"/>
<path d="M72.4339 62.996H3.92993C4.26393 61.985 4.59894 61.007 4.94594 60.071C7.04594 57.54 9.76993 56.037 13.6649 56.037H62.6989C66.5959 56.037 69.3169 57.54 71.4179 60.072C71.7639 61.008 72.0999 61.986 72.4339 62.996Z" fill="#6F811B"/>
<path d="M32.059 8.95323L31.5645 9.76196L43.9728 17.3501L44.4674 16.5414L32.059 8.95323Z" fill="white"/>
<path d="M43.9958 8.94008L31.5861 16.5282L32.0806 17.337L44.4904 9.74891L43.9958 8.94008Z" fill="white"/>
<path d="M8.61398 44.775L6.00299 41.077L3.39099 44.775V63.098H8.61398V44.775Z" fill="#FFC239"/>
<path d="M6.00293 41.077V63.098H8.61392V44.775L6.00293 41.077Z" fill="#FCAB16"/>
<path d="M17.731 44.775L15.1201 41.077L12.5081 44.775V63.098H17.731V44.775Z" fill="#FFC239"/>
<path d="M15.1201 41.077V63.098H17.7311V44.775L15.1201 41.077Z" fill="#FCAB16"/>
<path d="M26.848 44.775L24.237 41.077L21.625 44.775V63.098H26.848V44.775Z" fill="#FFC239"/>
<path d="M24.2371 41.077V63.098H26.8481V44.775L24.2371 41.077Z" fill="#FCAB16"/>
<path d="M35.9659 44.775L33.3539 41.077L30.7419 44.775V63.098H35.9659V44.775Z" fill="#FFC239"/>
<path d="M33.354 41.077V63.098H35.966V44.775L33.354 41.077Z" fill="#FCAB16"/>
<path d="M45.083 44.775L42.471 41.077L39.859 44.775V63.098H45.083V44.775Z" fill="#FFC239"/>
<path d="M42.4709 41.077V63.098H45.0829V44.775L42.4709 41.077Z" fill="#FCAB16"/>
<path d="M54.2001 44.775L51.5881 41.077L48.9761 44.775V63.098H54.2001V44.775Z" fill="#FFC239"/>
<path d="M51.5881 41.077V63.098H54.2001V44.775L51.5881 41.077Z" fill="#FCAB16"/>
<path d="M63.317 44.775L60.705 41.077L58.094 44.775V63.098H63.317V44.775Z" fill="#FFC239"/>
<path d="M60.705 41.077V63.098H63.317V44.775L60.705 41.077Z" fill="#FCAB16"/>
<path d="M72.434 44.775L69.822 41.077L67.211 44.775V63.098H72.434V44.775Z" fill="#FFC239"/>
<path d="M69.822 41.077V63.098H72.434V44.775L69.822 41.077Z" fill="#FCAB16"/>
<path d="M75.485 57.726H0.781006V60.302H75.485V57.726Z" fill="#FC8A03"/>
<path d="M75.485 47.141H0.781006V49.717H75.485V47.141Z" fill="#FC8A03"/>
<path d="M67.757 68.1239H8.60803C6.02503 68.1239 3.93103 66.03 3.93103 63.447V62.9969H72.435V63.447C72.434 66.03 70.34 68.1239 67.757 68.1239Z" fill="#49151A"/>
<path d="M38.494 9.349H37.546V16.937H38.494V9.349Z" fill="white"/>
</svg>