<svg xmlns="http://www.w3.org/2000/svg" width="79" height="68" viewBox="0 0 79 68" fill="none">
<path d="M37.239 21.515H12.956V50.087H37.239V21.515Z" fill="#BD1E2C"/>
<path d="M61.521 21.515H37.239V50.087H61.521V21.515Z" fill="#8C231F"/>
<path d="M37.238 26.148H22.575V50.087H37.238V26.148Z" fill="#8C231F"/>
<path d="M51.902 26.148H37.239V50.087H51.902V26.148Z" fill="#771818"/>
<path d="M52.85 50.088H50.9539V27.096H23.5229V50.088H21.627V25.2H52.85V50.088Z" fill="white"/>
<path d="M23.937 26.7875L23.1222 27.272L36.8263 50.3178L37.6411 49.8333L23.937 26.7875Z" fill="white"/>
<path d="M36.825 26.7765L23.1235 49.8249L23.9384 50.3094L37.6399 27.2609L36.825 26.7765Z" fill="white"/>
<path d="M15.958 21.515H12.956V50.087H15.958V21.515Z" fill="#8C231F"/>
<path d="M61.385 21.515H58.383V50.087H61.385V21.515Z" fill="#771818"/>
<path d="M37.6395 26.7885L36.8247 27.273L50.5288 50.3188L51.3436 49.8342L37.6395 26.7885Z" fill="white"/>
<path d="M50.5287 26.7766L36.8273 49.8251L37.6422 50.3095L51.3436 27.261L50.5287 26.7766Z" fill="white"/>
<path d="M71.653 62.833H3.14899C3.48299 61.822 3.81799 60.844 4.16499 59.908C6.50299 53.594 9.34699 49.159 15.65 49.159H59.151C65.454 49.159 68.298 53.594 70.636 59.909C70.983 60.845 71.319 61.823 71.653 62.833Z" fill="#889C29"/>
<path d="M6.12701 21.515L17.018 8.70001L37.239 1.509V21.515H6.12701Z" fill="#8C231F"/>
<path d="M68.351 21.515L57.459 8.70001L37.239 1.509V21.515H68.351Z" fill="#771818"/>
<path d="M68.351 22.938C67.948 22.938 67.548 22.768 67.267 22.437L56.623 9.91301L37.239 3.01901L17.855 9.91301L7.21 22.437C6.701 23.035 5.804 23.108 5.205 22.6C4.607 22.091 4.53401 21.194 5.04201 20.595L16.181 7.489L37.238 0L58.295 7.489L69.434 20.595C69.943 21.193 69.87 22.091 69.271 22.6C69.004 22.827 68.677 22.938 68.351 22.938Z" fill="#49151A"/>
<path d="M37.239 9.186H31.034V16.774H37.239V9.186Z" fill="#BD1E2C"/>
<path d="M43.443 9.186H37.239V16.774H43.443V9.186Z" fill="#8C231F"/>
<path d="M43.917 17.248H30.56V8.71201H43.917V17.248ZM31.508 16.3H42.969V9.66H31.508V16.3Z" fill="white"/>
<path d="M37.713 26.148H36.765V47.791H37.713V26.148Z" fill="white"/>
<path d="M71.653 62.833H3.14899C3.48299 61.822 3.81799 60.844 4.16499 59.908C6.26499 57.377 8.98899 55.874 12.884 55.874H61.918C65.815 55.874 68.536 57.377 70.637 59.909C70.983 60.845 71.319 61.823 71.653 62.833Z" fill="#6F811B"/>
<path d="M31.278 8.79029L30.7834 9.59903L43.1918 17.1872L43.6864 16.3784L31.278 8.79029Z" fill="white"/>
<path d="M43.2148 8.77707L30.8051 16.3652L31.2996 17.174L43.7094 9.5859L43.2148 8.77707Z" fill="white"/>
<path d="M7.83298 44.612L5.22198 40.914L2.60999 44.612V62.935H7.83298V44.612Z" fill="#FFC239"/>
<path d="M5.22198 40.914V62.935H7.83298V44.612L5.22198 40.914Z" fill="#FCAB16"/>
<path d="M16.95 44.612L14.339 40.914L11.727 44.612V62.935H16.95V44.612Z" fill="#FFC239"/>
<path d="M14.339 40.914V62.935H16.95V44.612L14.339 40.914Z" fill="#FCAB16"/>
<path d="M26.067 44.612L23.456 40.914L20.844 44.612V62.935H26.067V44.612Z" fill="#FFC239"/>
<path d="M23.456 40.914V62.935H26.067V44.612L23.456 40.914Z" fill="#FCAB16"/>
<path d="M35.185 44.612L32.573 40.914L29.961 44.612V62.935H35.185V44.612Z" fill="#FFC239"/>
<path d="M32.573 40.914V62.935H35.185V44.612L32.573 40.914Z" fill="#FCAB16"/>
<path d="M44.302 44.612L41.69 40.914L39.078 44.612V62.935H44.302V44.612Z" fill="#FFC239"/>
<path d="M41.69 40.914V62.935H44.302V44.612L41.69 40.914Z" fill="#FCAB16"/>
<path d="M53.419 44.612L50.807 40.914L48.195 44.612V62.935H53.419V44.612Z" fill="#FFC239"/>
<path d="M50.807 40.914V62.935H53.419V44.612L50.807 40.914Z" fill="#FCAB16"/>
<path d="M62.536 44.612L59.924 40.914L57.313 44.612V62.935H62.536V44.612Z" fill="#FFC239"/>
<path d="M59.924 40.914V62.935H62.5359V44.612L59.924 40.914Z" fill="#FCAB16"/>
<path d="M71.653 44.612L69.041 40.914L66.43 44.612V62.935H71.653V44.612Z" fill="#FFC239"/>
<path d="M69.041 40.914V62.935H71.653V44.612L69.041 40.914Z" fill="#FCAB16"/>
<path d="M74.704 57.563H0V60.139H74.704V57.563Z" fill="#FC8A03"/>
<path d="M74.704 46.978H0V49.554H74.704V46.978Z" fill="#FC8A03"/>
<path d="M66.976 67.961H7.82703C5.24403 67.961 3.15002 65.867 3.15002 63.284V62.834H71.654V63.284C71.653 65.867 69.559 67.961 66.976 67.961Z" fill="#49151A"/>
<path d="M37.713 9.186H36.765V16.774H37.713V9.186Z" fill="white"/>
<path d="M78.8471 48.69C80.3367 61.7803 65.4264 65.289 55.3244 62.2697C49.7261 60.6015 44.9523 57.4927 42.5897 52.0125C40.4141 46.9874 40.6497 40.9144 42.2225 35.772C42.2433 35.6962 42.2987 35.6342 42.3541 35.5928C42.9777 34.1797 44.0308 32.9182 45.6313 31.9325C49.2619 29.6991 53.6893 29.1545 57.313 31.6223C60.6318 33.8833 62.1699 37.8952 65.6689 39.9218C65.7797 39.777 65.9252 39.6598 66.1262 39.584C70.4773 37.971 76.3597 38.8809 78.3551 43.6304C79.0411 45.2641 79.1519 46.9736 78.8193 48.6073C78.8263 48.6349 78.8401 48.6624 78.8471 48.69ZM76.7338 48.4143C77.981 42.2448 71.7106 39.6598 66.6527 41.4797C66.1469 41.6589 65.7728 41.4383 65.5857 41.0798C65.5441 41.0798 65.5026 41.0867 65.461 41.073C60.0498 39.5082 58.2691 31.3259 52.0057 31.7602C42.9153 32.3875 41.8968 41.1695 46.3519 47.4975C50.5368 53.4326 58.8095 55.9762 65.8975 55.4385C70.1932 55.1145 75.75 53.274 76.7338 48.4143ZM76.9625 52.5985C76.1172 53.7014 75.0433 54.6458 73.803 55.3351C66.2855 59.5331 53.5022 57.858 47.3358 51.723C45.4789 49.8756 43.6705 47.1459 42.6105 44.237C42.6798 46.4704 42.9915 48.6693 43.8091 50.7649C45.7283 55.6729 49.8716 58.9127 54.9018 60.3672C63.2577 62.7798 74.683 61.477 76.9625 52.5985Z" fill="#1D1D1B"/>
<path d="M66.6527 41.4797C71.7106 39.6598 77.981 42.2448 76.7338 48.4143C75.75 53.274 70.1932 55.1145 65.8975 55.4385C58.8095 55.9762 50.5368 53.4326 46.3519 47.4975C41.8968 41.1695 42.9153 32.3875 52.0056 31.7602C58.2691 31.3259 60.0497 39.5082 65.461 41.073C65.5026 41.0867 65.5441 41.0798 65.5857 41.0798C65.7728 41.4383 66.1469 41.6589 66.6527 41.4797ZM53.3429 46.0361C56.0312 46.429 58.3384 44.1198 57.8118 41.3969C57.4446 39.4806 56.0935 38.0192 54.493 36.9853C53.6061 36.42 52.2966 35.8617 51.1049 35.8754C51.1118 35.6411 50.9456 35.4136 50.6753 35.5239C48.1256 36.5441 46.5875 38.7499 47.6337 41.4659C48.5067 43.7544 50.904 45.6776 53.3429 46.0361Z" fill="#FF4121"/>
<path d="M73.8031 55.3351C75.0433 54.6458 76.1172 53.7014 76.9625 52.5985C74.683 61.477 63.2577 62.7798 54.9018 60.3672C49.8717 58.9127 45.7283 55.6729 43.8091 50.7649C42.9915 48.6693 42.6798 46.4704 42.6105 44.237C43.6706 47.1459 45.4789 49.8756 47.3358 51.723C53.5022 57.858 66.2855 59.5331 73.8031 55.3351Z" fill="#F6F6F6"/>
<path d="M57.8118 41.3969C58.3384 44.1198 56.0312 46.429 53.3429 46.0361C50.904 45.6777 48.5067 43.7544 47.6337 41.4659C46.5875 38.7499 48.1256 36.5441 50.6754 35.5239C50.9456 35.4136 51.1119 35.6411 51.1049 35.8755C52.2967 35.8617 53.6062 36.42 54.493 36.9853C56.0935 38.0193 57.4446 39.4806 57.8118 41.3969ZM52.9757 44.3886C54.6801 44.8505 56.53 43.9474 56.3083 41.9139C55.9896 38.9085 52.6292 37.3368 49.9894 37.1438C49.9548 37.1369 49.9201 37.13 49.8855 37.1162C48.8878 38.1985 48.3474 39.5909 49.1095 41.073C49.8786 42.5895 51.2989 43.9337 52.9757 44.3886Z" fill="#1D1D1B"/>
<path d="M56.3083 41.9139C56.53 43.9474 54.6801 44.8505 52.9756 44.3886C51.2989 43.9337 49.8786 42.5895 49.1095 41.073C48.3473 39.5909 48.8878 38.1985 49.8855 37.1162C49.9201 37.13 49.9548 37.1369 49.9894 37.1438C52.6292 37.3368 55.9896 38.9085 56.3083 41.9139ZM54.0496 42.6239C54.202 41.6865 54.2367 40.7421 53.5577 39.9976C53.0449 39.4393 52.0264 39.0188 51.3059 38.8395C50.8347 38.7223 50.3636 39.3427 50.7308 39.7081C50.6546 40.4663 50.5437 41.2384 50.8624 41.9622C51.2851 42.9203 52.6084 43.0237 53.5022 43.0444C53.7378 43.0444 54.0149 42.8652 54.0496 42.6239Z" fill="#F6F6F6"/>
<path d="M53.5577 39.9976C54.2367 40.7421 54.202 41.6865 54.0496 42.6239C54.015 42.8652 53.7378 43.0444 53.5022 43.0444C52.6085 43.0237 51.2851 42.9203 50.8625 41.9622C50.5437 41.2384 50.6546 40.4663 50.7308 39.7081C50.3636 39.3427 50.8347 38.7223 51.3059 38.8395C52.0265 39.0188 53.045 39.4393 53.5577 39.9976ZM53.0034 41.907C53.0311 41.4245 52.9618 40.9282 52.5115 40.6594C52.2205 40.4801 51.9017 40.3492 51.5899 40.2113C51.6038 40.618 51.6315 41.0247 51.777 41.39C51.9433 41.8105 52.5115 41.8933 53.0034 41.907Z" fill="#1D1D1B"/>
</svg>