<svg xmlns="http://www.w3.org/2000/svg" width="52" height="56" viewBox="0 0 52 56" fill="none">
<path d="M51.2462 25.9945C51.2462 39.946 39.8742 51.2552 25.8489 51.2552C11.8221 51.2552 0.450439 39.9456 0.450439 25.9945C0.450439 12.043 11.8221 0.734192 25.8489 0.734192C39.8742 0.734192 51.2462 12.043 51.2462 25.9945Z" fill="#C2E8F1"/>
<path d="M30.8069 26.1914C30.1783 27.4424 28.31 28.3584 26.1032 28.3584C23.8208 28.3584 21.9008 27.3828 21.3433 26.066L22.3605 25.7195V23.3338C23.4174 24.3805 24.75 25.0009 26.2012 25.0009C27.5627 25.0009 28.8213 24.4553 29.8447 23.5209V25.8046L30.8069 26.1914Z" fill="#E2C6AF"/>
<path d="M29.8447 23.3013V23.5209C28.8213 24.4553 27.5627 25.0009 26.2012 25.0009C24.75 25.0009 23.4174 24.3809 22.3605 23.3338V23.3013H29.8447Z" fill="#F1E8D6"/>
<path d="M20.6637 19.6605C20.4954 19.6926 20.3235 19.6527 20.1615 19.5548C19.7138 19.2909 19.324 18.5937 19.191 17.7242C19.0132 16.5414 19.3794 15.4918 20.0147 15.38C20.0738 15.3689 20.1313 15.3664 20.1875 15.3759C20.2231 15.3759 20.2549 15.38 20.2875 15.3895C20.4231 15.4228 20.5591 15.4972 20.686 15.6082C21.06 15.9321 21.3709 16.5603 21.485 17.3159C21.6652 18.4987 21.2965 19.5479 20.6637 19.6605Z" fill="#C9B5A2"/>
<path d="M33.2158 17.7242C33.0657 18.7063 32.5863 19.4739 32.0651 19.6354C31.9568 19.6704 31.8501 19.6807 31.7427 19.6601C31.1107 19.5475 30.7403 18.4983 30.923 17.3155C31.0346 16.5981 31.3157 15.9959 31.6654 15.6604C31.7923 15.5379 31.9241 15.4516 32.0655 15.4039C32.1746 15.3689 32.2845 15.3595 32.3945 15.3804C32.4027 15.3804 32.4123 15.3829 32.4176 15.3866C33.0368 15.5169 33.3914 16.555 33.2158 17.7242Z" fill="#E7D3BD"/>
<path d="M32.3974 17.2732C32.3974 19.841 31.3943 22.1157 29.8447 23.5208C28.8213 24.4553 27.5627 25.0008 26.2011 25.0008C24.7499 25.0008 23.4173 24.3809 22.3604 23.3338C20.9299 21.9212 20.0094 19.73 20.0094 17.2732C20.0094 13.0104 22.7833 9.55005 26.2007 9.55005C29.6239 9.55005 32.3974 13.01 32.3974 17.2732Z" fill="#E2C6AF"/>
<path d="M17.123 28.286V31.7155H16.6853V37.2552C15.3279 37.5603 14.3603 37.8814 13.2274 38.2781C12.9695 38.3656 12.7132 38.4528 12.44 38.5502V36.6406C12.44 36.6406 12.4615 32.1233 12.44 30.5068C12.4338 29.6743 13.2604 28.9175 14.1462 28.3411L14.2285 28.2856H17.123V28.286Z" fill="white"/>
<path d="M39.7304 36.6406V38.8656C39.408 38.9145 39.0955 38.9852 38.8061 39.0839C38.7892 39.0724 38.7731 39.0617 38.7569 39.0563C37.6633 38.4964 36.596 38.0545 35.523 37.6951V31.7151H35.2225V26.9976L35.9719 27.2258C36.2893 27.3836 37.2082 27.7857 38.0621 28.3518C38.9372 28.9348 39.7415 29.6908 39.7304 30.513C39.7142 32.1291 39.7304 36.6406 39.7304 36.6406Z" fill="white"/>
<path d="M35.2229 26.998V31.7155H35.1564V26.9754L35.2229 26.998Z" fill="#F2F2F2"/>
<path d="M35.5226 31.7155V36.6406H16.6854V31.7155H17.1231V28.286H14.2285C15.0324 27.7635 15.8752 27.3894 16.1877 27.2315H16.2034L17.1231 26.9545L17.1888 26.9318L19.8858 26.1265V26.1211L19.9511 26.0989L21.2262 25.7236C21.2535 25.8321 21.2866 25.9518 21.3412 26.0669C21.3742 26.1425 21.418 26.2194 21.4561 26.2897C21.4726 26.3111 21.4833 26.3386 21.4941 26.36C21.5214 26.4093 21.5544 26.4578 21.5929 26.5072C21.6367 26.5721 21.6855 26.6437 21.7462 26.7037C21.7731 26.7468 21.8053 26.7793 21.8388 26.8176C21.8938 26.8722 21.9426 26.9216 22.0029 26.9754C22.0744 27.0515 22.1562 27.1173 22.2331 27.1756C22.2385 27.1822 22.2385 27.1876 22.2439 27.1876C22.3257 27.2525 22.4076 27.3072 22.4948 27.3668C22.5824 27.4334 22.6758 27.4864 22.7746 27.5419C22.861 27.5962 22.9544 27.6447 23.0532 27.6883C23.0643 27.6994 23.08 27.7105 23.1024 27.7105L23.1297 27.7269C23.2115 27.7701 23.3103 27.8141 23.4033 27.8462C23.5128 27.8955 23.6223 27.9391 23.7422 27.9773C23.8517 28.0209 23.9774 28.0583 24.1035 28.0912C24.218 28.1232 24.3444 28.1561 24.4701 28.1841C24.5747 28.2055 24.678 28.2277 24.7822 28.2437C24.8425 28.254 24.9078 28.2704 24.9735 28.2758C24.9954 28.2758 25.0235 28.2811 25.05 28.286C25.1327 28.298 25.2199 28.3087 25.3079 28.3189C25.4282 28.33 25.5534 28.3415 25.6795 28.3469C25.8159 28.3518 25.9581 28.3572 26.1003 28.3572C28.3116 28.3572 30.1774 27.4429 30.8061 26.191C30.878 26.0332 30.9433 25.8806 30.976 25.7232L32.3982 26.1474L32.4635 26.1696L35.156 26.975V31.7151L35.5226 31.7155Z" fill="white"/>
<path d="M35.5226 31.7155H16.6853V51.5298H35.5226V31.7155Z" fill="#498978"/>
<path d="M19.9498 25.8481V34.375H17.1871V26.6991L19.9498 25.8481Z" fill="#498978"/>
<path d="M35.2225 26.6975V34.3767H32.4644V25.849L35.2225 26.6975Z" fill="#498978"/>
<path d="M19.4055 33.0405C19.4055 33.5351 19.0016 33.9367 18.5056 33.9367C18.0092 33.9367 17.605 33.5351 17.605 33.0405C17.605 32.5464 18.0092 32.1447 18.5056 32.1447C19.0016 32.1451 19.4055 32.5464 19.4055 33.0405Z" fill="#F2F2F2"/>
<path d="M34.6798 33.0405C34.6798 33.5351 34.276 33.9367 33.7796 33.9367C33.2823 33.9367 32.8789 33.5351 32.8789 33.0405C32.8789 32.5464 33.2823 32.1447 33.7796 32.1447C34.2764 32.1451 34.6798 32.5464 34.6798 33.0405Z" fill="#F2F2F2"/>
<path opacity="0.18" d="M29.8434 23.5209L25.0492 28.286H14.2264C15.0333 27.7619 15.8765 27.3894 16.1873 27.2332H16.2009V27.2291L17.121 26.9553V26.6946L19.887 25.8486V26.1215L21.2254 25.7228C21.2523 25.835 21.2887 25.9513 21.3428 26.0673L22.3621 25.7228V23.333C23.4169 24.383 24.7495 25.0009 26.2007 25.0009C27.5635 25.0004 28.82 24.4537 29.8434 23.5209Z" fill="#725439"/>
<path opacity="0.59" d="M31.3289 19.4311C31.102 19.8209 30.911 20.3097 30.6324 20.5691C29.7975 21.3609 28.9845 20.8379 28.0776 20.6209C27.1695 20.3697 25.9382 20.1534 25.0322 20.4782C24.015 20.803 23.44 21.305 22.3521 20.6562C21.8826 20.4054 21.6776 20.0975 21.3519 19.7041C21.2522 19.5651 21.165 19.4698 21.0832 19.4019C20.8335 19.1976 20.6471 19.2967 20.2474 19.4217C20.2594 19.4911 20.2768 19.5565 20.295 19.6211C20.6736 21.1011 21.4002 22.3907 22.3517 23.3342C23.4103 24.3825 24.7412 25.0004 26.1941 25.0004C27.5564 25.0004 28.8138 24.4561 29.8364 23.5204C30.8937 22.5642 31.6943 21.2055 32.0952 19.6211C32.1601 19.3748 32.2167 19.1244 32.2556 18.8679C31.8249 18.7565 31.5554 19.0459 31.3289 19.4311ZM27.5477 23.3042C27.5444 23.3128 27.5345 23.326 27.5308 23.3346C27.5171 23.3215 27.5043 23.3132 27.4915 23.3042C26.7037 22.6205 25.3149 22.5901 24.6631 23.3042C24.6494 23.3128 24.6408 23.3215 24.6325 23.3346C24.6189 23.326 24.6065 23.3174 24.5932 23.3042C24.3717 23.0974 24.0361 22.3607 24.1233 22.0676C24.2973 21.478 25.7411 21.002 26.0684 21.1446C26.2118 21.1105 27.4866 21.4221 27.8962 22.0277C28.0776 22.3052 27.7391 22.9975 27.5477 23.3042Z" fill="#B15E31"/>
<path d="M20.2909 45.3693C20.2942 45.4055 20.2942 45.4421 20.2937 45.4783L20.2491 46.1529L20.2098 46.7897C20.2041 46.8604 20.1921 46.9225 20.1648 46.9825C20.1156 47.3258 20.0044 47.7464 19.8176 47.8989C19.6539 48.0288 19.4576 48.0436 19.2402 48.0346C19.162 48.0157 19.0277 47.945 18.9517 47.9552C18.814 47.9639 18.8144 48.0564 18.7189 48.1291C18.4664 48.294 18.0956 48.3203 17.8034 48.2816C17.6071 48.259 17.4203 48.0917 17.3425 48.0868C17.2181 48.0917 17.1309 48.2122 17.033 48.2574C16.7941 48.4033 16.482 48.4671 16.2146 48.4333C16.0554 48.4116 15.9831 48.3458 15.8558 48.3976C15.7256 48.4494 15.4941 48.5616 15.349 48.6134C14.7985 48.7947 14.448 48.4843 14.1706 48.0514L14.1669 48.0522C14.1194 48.0132 14.078 47.9659 14.0404 47.9141C14.0074 47.8668 13.9764 47.815 13.9569 47.7579L13.7416 47.17L13.5031 46.5221C13.3712 46.1591 13.561 45.757 13.9255 45.6214C13.9826 45.6016 14.0429 45.5885 14.1008 45.5831C14.4141 45.5552 14.7191 45.7344 14.8315 46.0403L15.0366 46.594C15.0097 46.7054 14.9824 46.8164 14.9522 46.918C15.0097 46.902 15.0738 46.8847 15.1387 46.8724C15.2164 46.8502 15.2994 46.8312 15.3887 46.8127L15.2329 46.1533C15.144 45.7763 15.3796 45.4014 15.7591 45.3122C15.7917 45.3052 15.824 45.299 15.8558 45.2962C16.2013 45.2645 16.5254 45.4898 16.6085 45.8351L16.7825 46.5739C16.8718 46.5574 16.9623 46.5451 17.0561 46.5303L16.9449 45.8347C16.8833 45.4511 17.1466 45.0918 17.5323 45.031L17.5802 45.0269C17.9464 44.994 18.2808 45.2476 18.3399 45.6139L18.459 46.3482C18.5788 46.3371 18.7016 46.3223 18.8243 46.3079L18.883 45.3895C18.9062 45.0051 19.2451 44.7087 19.632 44.735C19.9858 44.7576 20.2594 45.0306 20.2909 45.3693Z" fill="#E2C6AF"/>
<path d="M37.8984 44.2014C37.9042 44.2594 37.9021 44.3218 37.8901 44.3839L37.7508 45.2193L37.6723 45.6781C37.6049 46.6195 36.9903 47.2132 36.3761 47.1018C36.138 47.0586 36.0896 46.844 35.9061 46.8424C35.8288 46.8424 35.6188 47.0216 35.5267 47.0524C35.4204 47.0977 35.3456 47.1121 35.2386 47.1112C35.115 47.1121 34.9889 47.087 34.8674 47.0434C34.6533 46.9488 34.4967 46.6689 34.2825 46.7285C34.1606 46.7581 34.054 46.909 33.9031 46.9382C33.8122 46.953 33.7138 46.9908 33.622 46.9891C33.3641 46.9719 33.2352 46.8452 33.0372 46.6783C32.7206 46.4193 32.7954 46.6306 32.4754 46.7367C32.0187 46.8983 31.4979 46.4835 31.3127 45.7102C31.3078 45.6958 31.3032 45.6826 31.3016 45.6682L31.2375 45.3282L31.0511 44.3769C30.9796 43.9942 31.2309 43.6291 31.6124 43.5551C31.6339 43.5494 31.6562 43.5465 31.6777 43.5453C32.0402 43.5124 32.3738 43.7549 32.4391 44.1126L32.6887 45.3854C32.7536 45.3833 32.8226 45.3763 32.8921 45.3747L32.8177 44.289C32.79 43.9029 33.0847 43.5712 33.4737 43.542C33.8556 43.5185 34.1887 43.7969 34.2234 44.1763L34.2251 44.1948L34.3003 45.29C34.3838 45.2863 34.471 45.2818 34.5587 45.2777L34.5636 44.2474C34.5644 43.8589 34.8798 43.5457 35.2708 43.5465C35.6374 43.5494 35.9371 43.8277 35.9702 44.1895C35.9718 44.21 35.9735 44.2314 35.9727 44.2544L35.9673 45.2337C36.0834 45.23 36.2008 45.2263 36.3182 45.223L36.5001 44.1521C36.5637 43.7677 36.9291 43.5128 37.3152 43.5757C37.6338 43.6287 37.8694 43.8918 37.8984 44.2014Z" fill="#E2C6AF"/>
<path d="M14.7981 42.0932C14.5678 40.9067 13.9821 39.4214 13.2274 38.2781C12.9695 38.3656 12.7132 38.4528 12.44 38.5502C12.4069 38.5613 12.3681 38.5774 12.33 38.5885C10.7321 39.1484 9.26601 40.101 8.35254 41.5921C7.95243 42.2618 7.67922 42.8283 7.406 43.7689C7.25307 44.3087 7.24232 44.7983 7.19189 45.424C8.37361 45.0265 9.86244 45.44 10.6337 46.414C9.67644 46.3753 8.15539 46.3646 8.03965 47.17C8.94857 47.0837 9.75332 47.6925 10.7106 47.7197C12.2102 47.7636 12.9976 47.4208 13.7416 47.17L13.5064 46.5229C13.3696 46.1591 13.561 45.7562 13.9268 45.6193C13.9821 45.6037 14.0425 45.5864 14.102 45.5811C14.4145 45.5543 14.7212 45.7344 14.8303 46.0386L15.0386 46.5936C15.3387 45.1186 14.956 42.8879 14.7981 42.0932ZM9.03577 43.3282C10.8474 43.6275 8.39593 44.7925 9.03577 43.3282Z" fill="#A1DBDD"/>
<path d="M9.03571 43.3257C10.8486 43.6271 8.39463 44.7926 9.03571 43.3257Z" fill="#0B0D35"/>
<path d="M43.96 46.4029C43.7521 46.1587 43.3904 45.9568 42.9151 45.7993C42.3786 45.6189 41.7053 45.4943 40.9505 45.401C40.2284 45.3138 39.4352 45.26 38.6251 45.2382C38.5656 45.2382 38.499 45.2328 38.4395 45.2328C38.2093 45.2222 37.9799 45.2222 37.7505 45.2168L37.8923 44.3839C37.9026 44.3239 37.9026 44.2589 37.898 44.1985C37.8703 43.8947 37.6352 43.6274 37.3128 43.5732C36.9296 43.5136 36.563 43.7689 36.503 44.1504L36.317 45.2222C36.2021 45.2275 36.0814 45.2275 35.9669 45.2328L35.9723 44.2536V44.1886C35.9339 43.8293 35.6383 43.5456 35.2717 43.5456C34.8786 43.5456 34.5662 43.856 34.5608 44.2474V45.2768C34.4732 45.2822 34.3855 45.2875 34.2975 45.2875L34.2268 44.194L34.2214 44.1771C34.1888 43.796 33.8544 43.5189 33.4717 43.5399C33.0835 43.5678 32.788 43.8996 32.8149 44.2856L32.8913 45.3743C32.8211 45.3743 32.7545 45.3849 32.6896 45.3849L32.4375 44.1113C32.3726 43.7528 32.0382 43.5128 31.677 43.5448C31.6555 43.5448 31.634 43.5514 31.6121 43.5563C31.2343 43.6266 30.9826 43.9917 31.0541 44.3773L31.2397 45.3249C30.8292 45.276 30.4353 45.2489 30.0302 45.2431H30.0137C29.0614 45.2374 28.0772 45.3463 26.8682 45.5046C26.3429 45.5642 25.5542 45.6464 24.6197 45.7336C24.5482 45.7381 24.4775 45.7496 24.4056 45.7554H24.4011C23.1536 45.8692 21.6813 46.0057 20.2483 46.1521L20.2967 45.4775C20.2967 45.4392 20.2967 45.4063 20.2913 45.3685C20.2582 45.031 19.985 44.7588 19.6345 44.7321C19.2464 44.7095 18.907 45.0038 18.8847 45.3903L18.8248 46.3046C18.7037 46.3215 18.578 46.3375 18.4581 46.3482L18.3428 45.6135C18.2829 45.2493 17.9489 44.9928 17.5827 45.0256L17.5331 45.031C17.1508 45.0914 16.8821 45.4503 16.9478 45.831L17.0574 46.527C16.9648 46.5439 16.8714 46.5546 16.7841 46.5706L16.6085 45.8359C16.5266 45.4877 16.2038 45.2649 15.8595 45.2974C15.8264 45.2974 15.793 45.3027 15.7607 45.3134C15.3776 45.4006 15.1424 45.7763 15.2354 46.1517L15.3887 46.8099C15.3011 46.8321 15.2189 46.8485 15.137 46.8703L15.0386 46.5928C15.3391 45.1177 14.9564 42.8866 14.7981 42.0924C14.5679 40.9059 13.9822 39.4205 13.2274 38.2772C14.3604 37.8801 15.328 37.5595 16.6854 37.2544C16.7126 37.2491 16.7453 37.2388 16.7788 37.233C17.8613 36.9876 19.0108 36.8137 20.121 36.6402C20.433 36.5962 20.7397 36.5473 21.0402 36.4984C21.1283 36.4819 21.2155 36.4708 21.2982 36.4548H21.3035C22.9337 36.2147 23.6889 36.2583 25.1934 36.1226C26.3698 36.0137 28.4819 36.0577 29.6471 36.2751C30.2919 36.3948 30.916 36.5091 31.5294 36.6402C32.1039 36.7598 32.6731 36.8844 33.2311 37.0258C34.0077 37.2223 34.7687 37.4345 35.523 37.6947C36.596 38.054 37.6633 38.4955 38.7569 39.0559C38.7731 39.0616 38.7892 39.0719 38.8061 39.0834C38.9425 39.1537 39.0744 39.2294 39.2058 39.317C39.3096 39.377 39.4079 39.4477 39.5067 39.5184C39.5832 39.5673 39.6543 39.6273 39.7308 39.6869C39.9556 39.8555 40.1743 40.0463 40.388 40.2522C40.4971 40.3513 40.6004 40.4541 40.7 40.5626C40.8038 40.6728 40.9075 40.7867 41.0055 40.9006C41.1043 41.0095 41.1977 41.1234 41.2899 41.243C41.356 41.3191 41.4101 41.3898 41.4713 41.4716C41.5474 41.5694 41.6242 41.6677 41.6945 41.7709C41.6945 41.7709 41.6945 41.7709 41.6945 41.7766C42.4827 42.8706 43.1341 44.1385 43.6211 45.4121C43.7463 45.7443 43.862 46.0764 43.96 46.4029Z" fill="#4DBABD"/>
<path d="M33.2327 37.0279C32.0832 36.7397 30.9019 36.5054 29.6446 36.2735C28.4827 36.0593 26.371 36.0145 25.1926 36.1218C23.6864 36.2583 22.9324 36.218 21.3043 36.4565C21.7044 36.2686 22.0901 36.0955 22.3736 35.9491C23.4995 35.3773 24.6846 34.775 25.906 34.3331C28.0003 34.4696 30.0657 35.0093 32.1663 35.0106C32.5805 35.6203 32.8814 36.3426 33.2327 37.0279Z" fill="#FEA621"/>
<path d="M43.0134 39.2195C42.5323 39.9867 42.0231 40.8849 41.694 41.7721C41.6238 41.6685 41.5465 41.5707 41.4708 41.4728C41.4101 41.3968 41.3506 41.3203 41.2894 41.2443C41.1968 41.1246 41.1038 41.0107 41.005 40.9018C40.907 40.7879 40.8033 40.6736 40.6996 40.5639C40.5999 40.4553 40.4966 40.3526 40.3875 40.2535C40.1738 40.0475 39.9551 39.8568 39.7303 39.6882C39.6538 39.6286 39.5827 39.5686 39.5063 39.5196C39.4079 39.4489 39.3091 39.3778 39.2053 39.3182C39.0743 39.2306 38.9421 39.155 38.8057 39.0847C39.095 38.986 39.4075 38.9153 39.7299 38.8664C40.8628 38.681 42.138 38.7842 43.0134 39.2195Z" fill="#FEA621"/>
<path d="M40.9505 45.4014C40.9988 45.9655 41.0182 46.5353 40.9145 47.0816C39.5373 47.0586 38.8404 46.0115 38.4395 45.2341C38.5023 45.2349 38.5647 45.237 38.6263 45.2386C39.4373 45.2633 40.2292 45.3151 40.9505 45.4014Z" fill="#FEA621"/>
<path d="M30.0298 45.1404C29.9352 45.9058 29.5028 46.495 29.1122 47.1754C28.219 46.9719 27.3221 46.8489 26.4611 46.4806C25.9151 46.2684 25.3149 45.9922 24.406 45.6522C25.436 45.5548 26.3061 45.4684 26.8662 45.3998C28.0826 45.2456 29.0709 45.1334 30.0298 45.1404Z" fill="#FEA621"/>
<path d="M48.3963 50.0963C47.6184 50.1193 46.7462 50.0642 45.8832 49.9125C46.2176 51.3173 45.76 52.3114 45.5108 53.0625C45.2971 53.7178 44.6209 55.0794 44.086 55.717C43.7735 55.1291 43.316 54.4919 43.0457 53.858C42.6241 52.859 42.3533 52.0655 42.1669 51.0262C41.9148 49.5968 42.0177 46.9752 42.9155 45.8014C43.3908 45.9593 43.7537 46.1591 43.9624 46.4049C43.8632 46.076 43.7483 45.7443 43.619 45.4109C45.5376 44.8723 46.69 45.2226 48.3417 45.7998C49.5123 46.199 50.7395 47.4081 51.5554 48.8441C50.7436 49.5298 49.5854 50.024 48.3963 50.0963Z" fill="#FEA621"/>
<path d="M36.7833 40.8286C35.9893 40.7308 35.1849 40.6687 34.4041 40.561C32.2184 40.198 29.85 40.3797 27.6023 40.3797C25.4778 40.3797 23.4739 40.4418 21.3465 40.6831C19.4915 40.9269 16.694 41.0494 14.7844 41.9703C14.7295 41.71 14.66 41.4305 14.5724 41.1444C18.2643 39.6948 22.6171 39.8354 26.447 39.8354C29.1205 39.8354 31.7918 40.0167 34.4628 40.4418C35.1072 40.561 35.9599 40.6617 36.7833 40.8286Z" fill="#B8E4E2"/>
<path opacity="0.07" d="M31.2681 13.6916C30.6444 12.6687 28.4012 12.4611 27.3505 12.7012C26.7268 12.8537 22.7377 13.9798 21.6217 13.1366C21.5887 12.8319 21.5403 12.5384 21.4854 12.293C22.6237 10.6165 24.3192 9.55005 26.2122 9.55005C28.264 9.55005 30.0856 10.7908 31.2131 12.7066V12.7127C31.197 13.0059 31.2189 13.3491 31.2681 13.6916Z" fill="#372F21"/>
<path d="M20.9216 15.6016C20.8286 15.6123 20.7467 15.607 20.6752 15.5905C20.5773 15.5091 20.4789 15.4495 20.3743 15.4113C20.3198 15.3566 20.2813 15.2974 20.2487 15.2259C19.8213 14.3338 20.4789 12.1952 21.4684 12.2276C21.4738 12.2494 21.4738 12.2708 21.4849 12.293C21.5399 12.538 21.5883 12.832 21.6213 13.1366C21.7309 14.2141 21.6383 15.4824 20.9216 15.6016Z" fill="#B17D51"/>
<path d="M32.4119 15.1556C32.3408 15.232 32.275 15.2863 32.2097 15.3134C31.7662 15.4976 31.4058 14.6055 31.2686 13.6916C31.2194 13.3491 31.1975 13.0059 31.2136 12.7127C32.0833 12.3255 32.9967 14.4805 32.4119 15.1556Z" fill="#B17D51"/>
<g opacity="0.2">
<path d="M41.6151 45.4947C41.4014 45.4618 41.1827 45.4289 40.9525 45.4014C40.2308 45.3142 39.4368 45.2604 38.6271 45.2386C38.5672 45.2386 38.5014 45.2333 38.4411 45.2333C38.2117 45.2226 37.9819 45.2226 37.7521 45.2172L37.8943 44.3843C37.9054 44.3194 37.9054 44.2593 37.8996 44.1989C37.8728 43.8885 37.6372 43.6279 37.3148 43.5736C36.9312 43.514 36.565 43.7639 36.505 44.1508L36.3191 45.2226C36.2037 45.2279 36.0834 45.2279 35.9685 45.2333L35.9735 44.254V44.189C35.9355 43.8297 35.6408 43.5461 35.2746 43.5461C34.8802 43.5461 34.5678 43.8564 34.5628 44.2478V45.2772C34.4748 45.2826 34.3875 45.2826 34.2995 45.2879L34.2288 44.1944L34.2235 44.1775C34.1904 43.7964 33.8564 43.5193 33.4733 43.5403C33.0851 43.5683 32.7896 43.9 32.8173 44.2861L32.8933 45.3747C32.8222 45.3747 32.7565 45.38 32.6912 45.3854L32.4391 44.1117C32.3738 43.7524 32.0402 43.5132 31.679 43.5452C31.6571 43.5452 31.6356 43.5452 31.6137 43.5518C31.2355 43.6275 30.9846 43.9921 31.0548 44.3781L31.2408 45.3257C30.8304 45.2768 30.4369 45.2489 30.0322 45.2439H30.0153C29.063 45.2382 28.0784 45.3471 26.8694 45.5054C26.3441 45.565 25.5563 45.6472 24.6209 45.7344C24.5494 45.7389 24.4787 45.7504 24.4072 45.7562H24.4014C23.1544 45.8701 21.6829 46.0066 20.2487 46.1529L20.2978 45.4783C20.2978 45.44 20.2978 45.4072 20.2925 45.3693C20.2598 45.0318 19.9862 44.7597 19.6361 44.7329C19.2476 44.7054 18.9082 45.0047 18.8859 45.3911L18.826 46.3054C18.7048 46.3223 18.5792 46.3375 18.4589 46.349L18.3448 45.6144C18.2841 45.2493 17.9505 44.9936 17.5839 45.0265L17.5351 45.0318C17.1511 45.0922 16.8833 45.4511 16.9494 45.8318L17.0585 46.5278C16.9655 46.5447 16.8725 46.5554 16.7849 46.5714L16.6101 45.8368C16.5278 45.4886 16.2054 45.2657 15.8603 45.2982C15.8272 45.2982 15.7946 45.3036 15.7623 45.3089C15.3788 45.4014 15.1436 45.7772 15.2366 46.1525L15.3903 46.8107C15.3023 46.8329 15.2209 46.8493 15.1382 46.8711L15.0398 46.5936L14.8319 46.0386C14.7224 45.7344 14.4157 45.5539 14.1044 45.581C14.0437 45.5864 13.9842 45.6037 13.9292 45.6193C13.5626 45.7562 13.3708 46.1591 13.5072 46.5229L13.7428 47.17C12.9984 47.4204 12.2106 47.7632 10.7114 47.7197C10.6622 47.7197 10.6134 47.7147 10.5692 47.7102C11.4666 47.6609 12.3147 47.4154 12.6921 46.4629C12.9335 45.8873 12.9335 45.4783 13.4803 45.1358C13.9945 44.8308 14.3338 44.9019 14.8811 44.8637C14.9687 44.8579 15.0559 44.8476 15.1378 44.8308C15.6962 44.7272 16.1281 44.4008 16.6915 44.2548C17.1734 44.1183 17.7211 44.2548 18.201 44.1833C18.8148 44.085 19.2252 43.743 19.8762 43.8133C20.39 43.8462 20.6967 44.0468 21.141 44.2869C22.5083 45.1038 24.5597 44.8308 26.032 44.4879C27.1918 44.1833 28.2202 44.1833 29.4185 44.1833C29.8231 44.1833 30.1133 44.2433 30.4857 44.0414C30.9999 43.7319 31.0218 43.1818 31.6397 43.0461C32.0501 42.975 32.871 43.0622 33.248 43.0955C33.8614 43.1658 34.3425 42.9586 34.9559 42.8225C35.4701 42.7255 35.7102 42.8225 36.2198 42.9586C36.8378 43.1284 36.9254 43.0568 37.5764 43.0235C38.0195 42.9915 38.4085 42.9972 38.6494 43.2694C38.9226 43.5736 38.9226 43.9654 39.1967 44.2704C39.76 44.83 40.9471 44.9985 41.6151 45.4947Z" fill="#999999"/>
</g>
</svg>