<svg xmlns="http://www.w3.org/2000/svg" width="44" height="46" viewBox="0 0 44 46" fill="none">
<path d="M2.53868 35.5646C2.56304 35.5582 2.60672 35.544 2.64844 35.5303L2.77472 35.4883L3.03652 35.3979C3.21264 35.3361 3.39016 35.2715 3.5688 35.2044C3.92524 35.0716 4.28336 34.9322 4.64064 34.7875C5.35492 34.4969 6.0692 34.1938 6.77564 33.8684C8.1916 33.2243 9.58824 32.521 10.9583 31.7645C13.6986 30.2506 16.3334 28.5239 18.8249 26.597C20.0636 25.6258 21.2754 24.6138 22.4349 23.5409C22.7292 23.277 23.0064 22.9964 23.294 22.7245L23.7218 22.3131C23.8643 22.1759 23.9987 22.0315 24.1379 21.8906L24.967 21.04L25.7669 20.1616C25.8996 20.0144 26.036 19.8699 26.1656 19.7202L26.5504 19.2668C26.8054 18.9631 27.0672 18.6636 27.3178 18.3555L28.0551 17.4186C28.1763 17.2611 28.3051 17.1083 28.4205 16.9466L28.771 16.4639C29.0032 16.1408 29.2431 15.8216 29.4699 15.494L30.1335 14.4984C30.243 14.3316 30.3578 14.1674 30.4636 13.9982L30.775 13.4866L31.3994 12.4612L30.8948 13.5506L30.6417 14.0965C30.5552 14.2774 30.46 14.4535 30.3693 14.6325L29.818 15.7044C29.6278 16.0584 29.4246 16.4049 29.2277 16.7565L28.9298 17.2825C28.8321 17.459 28.7204 17.6265 28.6165 17.7991L27.98 18.829C27.7622 19.1688 27.5326 19.5008 27.3092 19.8379L26.9712 20.342C26.8567 20.5087 26.7354 20.6704 26.6178 20.8352L25.9058 21.8202L25.1604 22.7813C25.035 22.9408 24.9138 23.1041 24.7847 23.2606L24.396 23.7293C24.1348 24.0399 23.8822 24.3597 23.6123 24.6636C22.55 25.8964 21.4241 27.0762 20.2599 28.2221C18.9652 29.4802 17.6116 30.6826 16.2086 31.8299C16.6358 31.836 17.0606 31.8594 17.482 31.8858C19.2466 32.0292 20.9322 32.428 22.5394 32.9772C23.343 33.2572 24.1292 33.5723 24.9042 33.9335C25.2918 34.1178 25.6776 34.304 26.0629 34.5105C26.4487 34.7151 26.8348 34.9261 27.2246 35.1777L27.2005 35.3926C26.367 35.3174 25.5376 35.2086 24.7108 35.0903C23.885 34.9648 23.0627 34.8273 22.24 34.6964C20.5962 34.4312 18.954 34.1685 17.302 34.0404C16.0011 33.9263 14.6918 33.8976 13.3954 34.0039C13.1655 34.1715 12.9362 34.3396 12.7041 34.5044C11.3618 35.4569 9.9808 36.36 8.55952 37.2115C7.85056 37.6401 7.12732 38.049 6.39372 38.4484C6.02664 38.6477 5.65564 38.8428 5.27848 39.034C5.0906 39.1297 4.89992 39.2246 4.70672 39.3182L4.41272 39.4585L4.2604 39.5292L4.09016 39.6051L3.979 39.655C3.874 39.7012 3.76368 39.7396 3.64916 39.7693C2.481 40.0741 1.2854 39.3802 0.9788 38.219C0.6722 37.0581 1.37052 35.8696 2.53868 35.5646Z" fill="#1E2E4A"/>
<path d="M25.9215 40.4966C26.0268 37.7959 27.2291 35.9008 27.599 35.3783C25.8943 36.0216 22.1499 35.2598 22.1499 35.2598C24.9264 34.4799 27.2165 35.1479 27.66 35.2943C27.6606 35.2934 27.6611 35.2926 27.662 35.2918C26.5045 33.8996 26.071 30.0786 26.071 30.0786C27.6054 32.3587 27.7348 34.6279 27.7407 35.2275C28.7576 33.7231 32.2559 32.1934 32.2559 32.1934C30.483 34.3774 28.2833 35.1623 27.7709 35.3218C29.5307 35.778 32.133 38.6078 32.133 38.6078C29.4971 37.6429 28.0456 35.8362 27.7197 35.3934C27.8 37.2056 25.9215 40.4966 25.9215 40.4966Z" fill="#90BAC6"/>
<path d="M34.9226 35.7686C34.8025 35.6728 33.4717 34.4899 30.6966 35.0315C30.6966 35.0315 33.3157 34.0468 35.4339 35.2664C35.7766 34.8957 36.0656 34.4662 36.2893 34.0039C36.6558 33.2468 36.8471 32.4013 36.8121 31.5813C36.8087 31.502 36.8034 31.4232 36.7958 31.3445C36.734 30.7096 36.5315 30.097 36.1639 29.5601C35.9169 29.1999 35.6313 28.9007 35.3177 28.6583C33.9958 27.6368 32.1798 27.6287 30.7005 28.3421C30.6776 28.3557 28.6921 29.5395 28.3418 32.4191C28.3418 32.4191 28.2161 29.6241 30.042 27.9992C30.042 27.9992 30.0467 27.9966 30.0554 27.9922C29.1908 26.4989 27.4293 25.4474 25.6927 25.4572C23.0403 25.4719 21.6946 28.1328 22.0376 30.5083C22.0379 30.5095 22.4601 32.6003 25.1218 33.828C25.1218 33.828 22.4089 33.0832 21.4182 30.8549C21.4182 30.8549 21.4174 30.8474 21.4163 30.834C20.1829 31.0929 19.0298 31.8786 18.2856 32.9229C17.5901 33.8993 17.2518 35.1017 17.5397 36.3113C17.6024 36.5746 17.706 36.8226 17.8432 37.0547C18.5412 38.2354 20.1118 38.9972 21.6243 39.1759C21.6492 39.1795 23.4902 39.4306 25.4743 37.3077C25.4743 37.3077 23.9234 39.6421 21.4857 39.8901C21.2304 42.2128 22.739 44.8486 25.1949 45.2169C26.9096 45.4738 28.6758 43.9763 29.5094 42.2919C29.5122 42.2938 29.5153 42.2955 29.5181 42.2974C29.5153 42.2871 29.513 42.2776 29.5102 42.2671C29.5102 42.2671 30.341 40.5988 28.9136 38.0495C28.9136 38.0495 30.6694 40.2377 30.1531 42.6192C30.1531 42.6192 30.1512 42.6267 30.1425 42.637C32.3696 43.6279 35.5274 42.8482 36.5259 40.4738C37.1663 38.9524 36.2846 37.0055 34.9226 35.7686ZM32.133 38.6076C29.4971 37.6426 28.0456 35.8359 27.7196 35.3931C27.8 37.2056 25.9218 40.4969 25.9218 40.4969C26.027 37.7962 27.2294 35.9011 27.5992 35.3786C25.8946 36.0219 22.1502 35.2601 22.1502 35.2601C24.9266 34.4802 27.2168 35.1482 27.6603 35.2946C27.6608 35.2937 27.6614 35.2929 27.6622 35.2921C26.5047 33.8998 26.0713 30.0789 26.0713 30.0789C27.6057 32.359 27.735 34.6282 27.7409 35.2278C28.7579 33.7234 32.2562 32.1937 32.2562 32.1937C30.4832 34.3777 28.2836 35.1626 27.7712 35.3221C29.5307 35.7778 32.133 38.6076 32.133 38.6076Z" fill="#913341"/>
<path d="M16.6809 24.7085C14.4879 24.3934 13.0451 23.2636 12.6506 22.921C13.0297 24.3483 12.0894 27.2987 12.0894 27.2987C11.6902 24.9963 12.4299 23.2091 12.587 22.8648C12.5865 22.8642 12.5856 22.8637 12.585 22.8631C11.3511 23.6764 8.19885 23.6998 8.19885 23.6998C10.1888 22.6585 12.05 22.7479 12.5391 22.7944C11.3992 21.8472 10.45 18.8997 10.45 18.8997C12.0796 20.5137 12.5324 22.3518 12.6186 22.7779C13.1406 21.3999 15.6695 19.5457 15.6695 19.5457C14.6579 21.5861 13.0613 22.6009 12.6724 22.8255C14.1575 22.9152 16.6809 24.7085 16.6809 24.7085Z" fill="white"/>
<path d="M13.5928 17.0571C13.5046 17.1456 12.4266 18.1164 12.6316 20.3973C12.6316 20.3973 12.052 18.2043 13.2266 16.6028C12.9536 16.2953 12.6279 16.0258 12.2701 15.8062C11.684 15.4466 11.0109 15.2203 10.3392 15.1786C10.2742 15.1744 10.2096 15.1722 10.1446 15.1716C9.62183 15.1672 9.10495 15.278 8.63595 15.5285C8.32123 15.6966 8.053 15.9011 7.82872 16.133C6.88316 17.1102 6.72188 18.572 7.17744 19.824C7.1864 19.8435 7.98244 21.5433 10.3008 22.071C10.3008 22.071 8.01128 21.9338 6.84172 20.325C6.84172 20.325 6.84004 20.3208 6.83724 20.3136C5.54588 20.8825 4.53844 22.2113 4.39844 23.6104C4.18452 25.7475 6.23916 27.0581 8.2056 26.9844C8.20644 26.9844 9.94719 26.8227 11.1753 24.7839C11.1753 24.7839 10.3367 26.905 8.43548 27.5124C8.43548 27.5124 8.42904 27.5124 8.41812 27.5121C8.52424 28.5275 9.0666 29.5228 9.8548 30.2111C10.5915 30.8546 11.5432 31.2293 12.554 31.1007C12.7738 31.0726 12.9852 31.0102 13.186 30.9197C14.208 30.4585 14.9631 29.2586 15.2375 28.0557C15.2426 28.0359 15.604 26.575 14.0422 24.7961C14.0422 24.7961 15.8132 26.244 15.8079 28.228C17.68 28.6316 19.9575 27.6415 20.4671 25.6954C20.8227 24.3366 19.7522 22.7868 18.45 21.9716C18.4516 21.9694 18.4533 21.9672 18.4553 21.9652C18.4466 21.9666 18.4388 21.9677 18.4298 21.9688C18.4298 21.9688 17.1404 21.1575 14.9402 22.0896C14.9402 22.0896 16.8741 20.8622 18.7717 21.4812C18.7717 21.4812 18.7776 21.4834 18.7854 21.4912C19.783 19.7822 19.4165 17.1731 17.5654 16.1664C16.3799 15.5218 14.7176 16.0659 13.5928 17.0571ZM15.6698 19.5456C14.6582 21.5861 13.0616 22.6009 12.6727 22.8255C14.1576 22.9154 16.6809 24.7087 16.6809 24.7087C14.488 24.3936 13.0451 23.2639 12.6506 22.9213C13.0297 24.3486 12.0895 27.2989 12.0895 27.2989C11.6902 24.9965 12.43 23.2094 12.587 22.8651C12.5865 22.8645 12.5856 22.8639 12.5851 22.8634C11.3511 23.6767 8.19888 23.7001 8.19888 23.7001C10.1888 22.6588 12.05 22.7481 12.5392 22.7946C11.3993 21.8475 10.4501 18.8999 10.4501 18.8999C12.0797 20.514 12.5324 22.3521 12.6187 22.7782C13.1409 21.3996 15.6698 19.5456 15.6698 19.5456Z" fill="#C7C8C9"/>
<path d="M33.8418 20.1142C31.4288 17.5569 30.7635 14.7268 30.6154 13.911C29.6598 16.0617 25.5404 18.805 25.5404 18.805C27.3456 15.5457 30.0529 14.0519 30.5927 13.7783C30.5924 13.7769 30.5922 13.7755 30.5922 13.7744C28.2438 13.5684 24.2994 10.485 24.2994 10.485C27.816 11.1539 30.0417 13.1027 30.6039 13.6435C30.133 11.3395 31.8989 6.73419 31.8989 6.73419C32.3125 10.3517 31.0376 13.086 30.719 13.7017C32.7462 12.5021 37.7462 12.6914 37.7462 12.6914C34.4478 14.2319 31.447 13.9185 30.7386 13.8142C32.4956 15.3915 33.8418 20.1142 33.8418 20.1142Z" fill="#90BAC6"/>
<path d="M37.6501 7.5439C37.6501 7.54362 37.6501 7.54362 37.6501 7.5439C37.4519 7.567 35.1402 7.7109 33.115 10.7517C33.115 10.7517 34.5867 7.45011 37.6493 6.61706C37.6171 5.96464 37.4813 5.30804 37.2559 4.68152C36.8863 3.6553 36.2753 2.70926 35.4815 1.99422C35.4048 1.92519 35.3267 1.85811 35.2466 1.79354C34.6004 1.27194 33.8469 0.899535 33.0131 0.748121C32.4533 0.64653 31.9152 0.636228 31.4045 0.703307C29.251 0.986093 27.5892 2.64579 26.904 4.65369C26.8956 4.68709 26.1867 7.58816 28.5429 10.5335C28.5429 10.5335 25.8319 8.10224 25.9859 4.94566C25.9859 4.94566 25.9879 4.93898 25.9918 4.92701C23.8167 4.36005 21.2349 5.01915 19.6618 6.62207C17.2589 9.07057 18.5046 12.7301 21.0243 14.5796C21.0254 14.5804 23.3528 16.0976 26.9183 14.7731C26.9183 14.7731 23.7543 16.5847 20.7818 15.4639C20.7818 15.4639 20.774 15.4578 20.7608 15.4463C19.8774 16.8146 19.5568 18.589 19.8492 20.2234C20.1224 21.7514 20.9313 23.1573 22.3173 23.9951C22.6189 24.1774 22.944 24.3082 23.2845 24.3936C25.0171 24.8287 27.1557 24.0811 28.6999 22.855C28.726 22.8353 30.6364 21.3743 30.4721 17.6185C30.4721 17.6185 31.2278 21.1689 29.2373 23.6327C31.1623 25.9832 34.9857 26.9997 37.5653 25.0808C39.3663 23.741 39.5844 20.7553 38.7791 18.4551C38.7833 18.4543 38.7878 18.4532 38.7923 18.4521C38.7802 18.4451 38.7693 18.439 38.757 18.4315C38.757 18.4315 37.964 16.1489 34.2952 15.1368C34.2952 15.1368 37.9279 15.5187 39.6698 18.1626C39.6698 18.1626 39.6751 18.1712 39.6765 18.1885C42.6263 17.0468 44.779 13.4379 43.4828 10.3576C42.6526 8.38502 40.0405 7.42059 37.6501 7.5439ZM37.7459 12.6911C34.4475 14.2317 31.4467 13.9183 30.7383 13.8139C32.4956 15.3915 33.8416 20.1145 33.8416 20.1145C31.4285 17.5572 30.7633 14.7271 30.6151 13.9113C29.6595 16.062 25.5401 18.8053 25.5401 18.8053C27.3453 15.546 30.0526 14.0522 30.5925 13.7786C30.5922 13.7772 30.5919 13.7758 30.5919 13.7747C28.2435 13.5687 24.2992 10.4853 24.2992 10.4853C27.8157 11.1542 30.0414 13.1031 30.6037 13.6439C30.1327 11.3398 31.8987 6.73451 31.8987 6.73451C32.3122 10.352 31.0374 13.0863 30.7187 13.702C32.7462 12.5018 37.7459 12.6911 37.7459 12.6911Z" fill="#913341"/>
</svg>