<svg xmlns="http://www.w3.org/2000/svg" width="58" height="69" viewBox="0 0 58 69" fill="none">
<path d="M42.8251 60.9855C42.8251 63.1296 40.8761 63.07 34.6999 63.403C32.9872 63.4961 31.5195 63.429 30.2554 63.2381C23.1007 62.1722 22.4694 57.1293 21.0323 55.0066C19.6796 54.1683 12.724 51.2041 3.96216 45.2892L10.3216 36.9158C15.0644 40.8468 24.0513 48.9346 25.6696 50.2358C25.6696 50.2358 29.5938 48.2077 32.5833 50.2358C32.5833 50.2358 36.0913 52.8656 38.8496 54.1376C39.8574 54.605 40.7645 54.889 41.3637 54.799C41.5083 55.5015 41.3483 57.2347 38.6632 56.8911L35.3848 55.813L39.452 60.9855H42.8251Z" fill="#E59A5C"/>
<path d="M54.6221 32.0426C55.5588 32.3824 56.6744 32.4404 57.5825 32.4086C57.7657 29.4447 56.4309 27.1889 57.3789 24.8581C55.0091 25.7905 52.715 24.478 49.7009 24.6577C49.669 25.5509 49.7275 26.6478 50.0731 27.5689C50.6731 29.1683 48.8491 29.4559 48.3045 27.6245C48.6508 26.5163 48.8383 25.3398 48.8383 24.1199C48.8383 17.5411 43.4149 12.2079 36.7251 12.2079C30.0351 12.2079 24.612 17.5411 24.612 24.1199C24.612 25.3398 24.7993 26.5163 25.1456 27.6245C24.6011 29.4559 22.7772 29.1684 23.3772 27.5689C23.7226 26.6478 23.7813 25.5509 23.7493 24.6577C20.7354 24.478 18.441 25.7905 16.0712 24.8581C17.0193 27.1889 15.6846 29.4447 15.8676 32.4086C16.7756 32.4404 17.8913 32.3824 18.828 32.0426C20.5524 31.4169 20.7785 33.4723 18.5243 33.865C17.8599 33.9806 17.0249 34.0362 16.0917 33.9064C16.2991 34.7677 16.6599 35.6892 17.2471 36.6853C18.4712 36.5906 20.0486 36.3366 21.2948 35.6895C23.4042 34.5939 24.0528 37.1993 21.2224 38.0841C20.4911 38.3127 19.5832 38.504 18.5475 38.542C18.7787 38.8281 19.0272 39.1193 19.2966 39.4175C19.6936 39.8559 20.1353 40.2673 20.6102 40.6444C21.9436 40.2775 23.8235 39.6068 25.1394 38.5054C27.125 36.8436 28.4467 39.4719 25.6408 41.0774C24.962 41.4657 24.1111 41.8562 23.1059 42.1364C25.9671 43.3556 29.3505 43.2617 32.0681 40.5893C33.5549 39.1274 34.2553 37.4696 34.3834 35.8073C35.1413 35.9534 35.9237 36.0319 36.7253 36.0319C37.5267 36.0319 38.3093 35.9534 39.0672 35.8073C39.1951 37.4696 39.8956 39.1275 41.3822 40.5893C44.1001 43.2617 47.4833 43.3556 50.3447 42.1364C49.3395 41.8562 48.4886 41.4657 47.8098 41.0774C45.0038 39.472 46.3256 36.8437 48.3111 38.5054C49.6269 39.6068 51.5069 40.2775 52.8402 40.6444C53.3153 40.2673 53.7567 39.8559 54.1537 39.4175C54.4233 39.1193 54.6719 38.8281 54.903 38.542C53.8673 38.504 52.9592 38.3127 52.228 38.0841C49.3975 37.1993 50.0465 34.5939 52.1555 35.6895C53.402 36.3367 54.9793 36.5907 56.2033 36.6853C56.7905 35.6892 57.1514 34.7677 57.3589 33.9064C56.4257 34.0362 55.5905 33.9805 54.9263 33.865C52.6718 33.4724 52.8976 31.4169 54.6221 32.0426ZM29.8359 33.9159C30.4986 34.3675 31.2083 34.7566 31.9578 35.0725C30.4101 36.6683 28.5631 35.5641 29.8359 33.9159ZM41.4922 35.0725C42.2418 34.7566 42.9518 34.3675 43.6143 33.9159C44.887 35.5641 43.0397 36.6683 41.4922 35.0725Z" fill="#5F8403"/>
<path d="M37.1401 14.6514H35.902V46.8692H37.1401V14.6514Z" fill="#5F8403"/>
<path d="M51.983 52.6275C51.983 58.1696 48.9673 63.0185 44.4639 65.6757H36.522V39.3762H44.1052C48.8074 41.9832 51.983 46.9404 51.983 52.6275Z" fill="#B74B02"/>
<path d="M36.522 39.3762V65.6757H28.5783C24.0748 63.0184 21.0591 58.1696 21.0591 52.6275C21.0591 46.9403 24.2346 41.9832 28.9372 39.3762H36.522Z" fill="#E85E00"/>
<path d="M39.2629 65.6758C39.2629 67.8199 37.314 67.7603 31.1378 68.0933C29.4251 68.1865 27.9574 68.1193 26.6933 67.9283C19.5385 66.8624 18.9073 61.8196 17.4703 59.6968C16.1174 58.8585 9.16183 55.8943 0.400024 49.9794L6.75944 41.6059C11.5023 45.5369 20.4892 53.6247 22.1074 54.9259C22.1074 54.9259 26.0316 52.8978 29.0211 54.9259C29.0211 54.9259 32.5291 57.5557 35.2874 58.8277C36.2951 59.2951 37.2022 59.5792 37.8015 59.4891C37.946 60.1916 37.786 61.9249 35.101 61.5812L31.8226 60.5031L35.8898 65.6756H39.2629V65.6758Z" fill="#FCB87A"/>
<path d="M37.7441 60.4574C37.6663 60.4634 37.5874 60.4666 37.5081 60.4666C36.2812 60.4666 35.2858 59.7457 35.2858 58.8569C35.2858 58.8478 35.2858 58.8371 35.2874 58.8279C36.2951 59.2953 37.2022 59.5794 37.8015 59.4893C37.8015 59.4893 37.8978 59.958 37.7441 60.4574Z" fill="#FFD3AE"/>
<path d="M30.4686 64.4882C30.4686 64.4882 32.0764 67.4385 35.0772 67.9231H33.4195C33.4195 67.9231 30.8089 67.0724 29.7734 64.5272L30.4686 64.4882Z" fill="#E59A5C"/>
<path d="M26.7047 64.7C26.7047 64.7 28.3126 67.6504 31.3135 68.1351H29.6554C29.6554 68.1351 27.0448 67.2844 26.0096 64.739L26.7047 64.7Z" fill="#E59A5C"/>
<path d="M26.6933 67.9282C26.1808 67.8519 25.7023 67.7542 25.255 67.6396C24.4384 67.1051 23.5423 66.285 23.0593 65.0954L23.7533 65.0557C23.7533 65.0557 24.769 66.9188 26.6933 67.9282Z" fill="#E59A5C"/>
<path d="M39.6496 15.1229C41.2341 14.9975 42.9002 14.2312 44.0105 13.6171C44.0699 13.068 44.0851 12.518 44.0531 11.9789C44.0314 11.6125 44.0002 11.2642 43.9614 10.9301C43.2627 11.5679 42.5453 12.0243 41.9187 12.3432C39.4924 13.5783 38.1913 11.4686 40.2876 10.8321C41.5263 10.456 42.7204 9.61204 43.5792 8.89083C43.3022 7.86725 42.9273 7.03726 42.4929 6.34426C41.9716 7.02549 41.3915 7.52344 40.8828 7.87315C39.1571 9.05959 37.9444 7.57822 39.48 6.88211C40.314 6.50402 41.0779 5.82789 41.6476 5.22645C39.8064 3.18171 37.4458 2.56808 36.521 0.445892C35.5963 2.56799 33.2359 3.18171 31.3944 5.22645C31.9644 5.82797 32.7281 6.50402 33.5621 6.88211C35.0976 7.57822 33.8854 9.05959 32.1596 7.87315C31.6509 7.52344 31.0708 7.02549 30.5495 6.34426C30.1149 7.03718 29.7403 7.86725 29.463 8.89083C30.3221 9.61195 31.5158 10.456 32.7548 10.8321C34.8511 11.4686 33.55 13.5783 31.1235 12.3432C30.4967 12.0242 29.7796 11.5679 29.081 10.9301C29.0423 11.2642 29.011 11.6125 28.9893 11.9789C28.9574 12.5179 28.9722 13.068 29.0319 13.6171C30.142 14.2312 31.8083 14.9975 33.3925 15.1229C35.7831 15.3121 34.9048 17.8669 32.0176 17.1164C31.3194 16.9348 30.5075 16.6445 29.6686 16.184C30.7231 18.8071 32.9856 20.9103 36.521 20.9103C40.0565 20.9103 42.319 18.8071 43.3737 16.184C42.5348 16.6446 41.7228 16.9348 41.0248 17.1164C38.1376 17.8669 37.259 15.312 39.6496 15.1229Z" fill="#96C620"/>
<path d="M31.0576 26.4169C31.9606 25.3734 32.5104 23.8828 32.8116 22.8255C32.5023 22.4488 32.165 22.099 31.8051 21.7842C31.5611 21.5704 31.322 21.3736 31.0874 21.1902C31.0563 22.0113 30.8996 22.7314 30.7123 23.311C29.987 25.5555 27.8507 25.0407 28.7488 23.3686C29.2794 22.3804 29.4877 21.1296 29.5652 20.1593C28.7483 19.6936 27.9931 19.4074 27.2869 19.2429C27.3932 19.983 27.3475 20.6452 27.2526 21.172C26.931 22.9592 25.2458 22.78 25.7587 21.4127C26.0373 20.67 26.0847 19.7855 26.0589 19.0653C23.6286 18.9205 21.7788 19.9788 19.8682 19.2271C20.6324 21.1063 19.5562 22.9251 19.7037 25.3149C20.4359 25.3404 21.3355 25.2938 22.0907 25.0199C23.4812 24.5153 23.6633 26.1727 21.8458 26.4891C21.3102 26.5823 20.6369 26.6273 19.8846 26.5227C20.0519 27.217 20.3426 27.9601 20.816 28.7633C21.803 28.6869 23.0747 28.4821 24.0796 27.9602C25.7806 27.0769 26.3036 29.1777 24.0213 29.891C23.4316 30.0755 22.6994 30.2297 21.8644 30.2603C22.0508 30.4909 22.2511 30.7258 22.4684 30.9661C22.7887 31.3197 23.1444 31.6514 23.5275 31.9554C24.6026 31.6596 26.1184 31.1189 27.1794 30.2309C28.7802 28.891 29.8462 31.0101 27.5836 32.3046C27.0363 32.6176 26.3501 32.9324 25.5397 33.1584C27.8467 34.1413 30.5749 34.0657 32.7657 31.9109C34.9574 29.756 35.0341 27.0734 34.0344 24.8048C33.8048 25.6018 33.4844 26.2765 33.1662 26.8145C31.8503 29.0392 29.6951 27.991 31.0576 26.4169Z" fill="#96C620"/>
<path d="M41.9849 26.4169C41.0815 25.3734 40.5318 23.8828 40.2308 22.8255C40.5401 22.4488 40.8775 22.099 41.237 21.7842C41.4812 21.5704 41.7201 21.3736 41.9548 21.1902C41.9857 22.0113 42.1427 22.7314 42.33 23.311C43.0554 25.5555 45.1918 25.0407 44.2935 23.3686C43.7628 22.3804 43.5547 21.1296 43.4771 20.1593C44.2937 19.6936 45.0489 19.4074 45.7551 19.2429C45.649 19.983 45.6948 20.6452 45.7895 21.172C46.1114 22.9592 47.7966 22.78 47.2836 21.4127C47.005 20.67 46.9576 19.7855 46.9835 19.0653C49.4137 18.9205 51.2637 19.9788 53.1742 19.2271C52.4098 21.1063 53.486 22.9251 53.3384 25.3149C52.6066 25.3404 51.7068 25.2938 50.9516 25.0199C49.5611 24.5153 49.3791 26.1727 51.1965 26.4891C51.7322 26.5823 52.4055 26.6273 53.1578 26.5227C52.9905 27.217 52.6996 27.9601 52.2263 28.7633C51.2394 28.6869 49.9673 28.4821 48.9625 27.9602C47.2619 27.0769 46.7387 29.1777 49.021 29.891C49.6104 30.0755 50.3428 30.2297 51.1779 30.2603C50.9916 30.4909 50.791 30.7258 50.5737 30.9661C50.2535 31.3197 49.8976 31.6514 49.5148 31.9554C48.4397 31.6596 46.9239 31.1189 45.8629 30.2309C44.2621 28.891 43.1962 31.0101 45.4588 32.3046C46.006 32.6176 46.692 32.9324 47.5026 33.1584C45.1954 34.1413 42.4674 34.0657 40.2762 31.9109C38.0849 29.756 38.0082 27.0734 39.0078 24.8048C39.2375 25.6018 39.5578 26.2765 39.8761 26.8145C41.1922 29.0392 43.3472 27.991 41.9849 26.4169Z" fill="#96C620"/>
</svg>