<svg xmlns="http://www.w3.org/2000/svg" width="63" height="67" viewBox="0 0 63 67" fill="none">
<path d="M55.3968 2.83798C54.2407 2.77599 53.0959 2.95089 51.9737 3.18334C50.9967 3.38569 50.0327 3.63497 49.0857 3.92853C47.1832 4.51786 45.3536 5.29139 43.6497 6.2469C40.3055 8.12205 37.4934 10.7247 35.6492 13.8378C34.859 15.1723 34.2559 16.5923 33.869 18.0588C33.8091 18.0973 33.7592 18.1478 33.7487 18.1996C33.6938 18.4754 33.6564 18.7637 33.6444 19.0541C33.6219 19.1715 33.596 19.2879 33.5765 19.4057C33.563 19.4863 33.5984 19.5195 33.6504 19.5261C33.7153 20.6194 34.1915 21.6608 35.475 22.0836C35.8679 22.2129 36.2847 22.2758 36.6981 22.328C37.1953 22.3909 37.7 22.4538 38.2037 22.4347C38.8043 22.4121 39.3984 22.2567 39.8597 21.9309C39.8552 21.953 39.8487 21.9751 39.8442 21.9973C39.7943 22.2399 40.1876 22.077 40.2201 21.9193C40.2515 21.7657 40.2915 21.6138 40.3259 21.4611C40.3259 21.4611 40.3259 21.4602 40.3264 21.4593C40.9769 18.5853 42.1616 15.8179 43.8145 13.2786C45.5577 10.6003 47.8112 8.18315 50.4536 6.16543C51.9492 5.02307 53.5752 4.01222 55.298 3.15766C55.3814 3.11604 55.6385 2.85082 55.3968 2.83798Z" fill="#79695D"/>
<path d="M47.0694 8.80525C44.7201 11.1936 42.8216 13.9392 41.5021 16.8854C40.8357 18.3736 40.3245 19.9118 39.9655 21.4806C39.4813 22.0398 38.6301 22.1305 37.8838 22.0885C37.1215 22.0455 36.2758 21.9716 35.5714 21.6935C34.3284 21.2029 33.9829 20.0429 34.0278 18.9324C34.6573 15.7263 36.3422 12.7335 38.742 10.2779C41.2955 7.66466 44.6512 5.72487 48.2775 4.48953C49.3114 4.13752 50.3703 3.84352 51.4446 3.60487C52.5154 3.3671 53.6072 3.16741 54.713 3.16519C51.8415 4.66664 49.2615 6.57677 47.0694 8.80525Z" fill="#DBBDA5"/>
<path d="M40.8226 15.3672C39.9844 14.9036 39.0748 14.4918 38.1063 14.2965C37.3805 14.1504 36.6336 14.065 35.8893 14.0574C35.8104 14.1956 35.7231 14.3302 35.6482 14.4701C36.5922 14.4812 37.5562 14.6273 38.4348 14.8549C39.6569 15.1715 40.7737 15.6899 41.7422 16.3824C41.7921 16.2771 41.8475 16.1743 41.8989 16.0698C41.5679 15.8029 41.206 15.5793 40.8226 15.3672Z" fill="#DBBDA5"/>
<path d="M45.9221 10.0605C46.0235 9.94451 46.1198 9.82496 46.2232 9.71028C45.2627 8.66666 44.1629 7.72975 42.8929 7.01157C42.6747 7.14573 42.4621 7.28653 42.2494 7.42689C43.6212 8.12072 44.8289 9.03903 45.9221 10.0605Z" fill="#DBBDA5"/>
<path d="M52.6502 3.36798C52.2458 3.43794 51.8434 3.51631 51.4446 3.60487C51.4206 3.61018 51.3971 3.61726 51.3732 3.62257C51.6487 3.95997 51.8939 4.31818 52.112 4.69011C52.3861 4.51123 52.6681 4.34297 52.9482 4.17206C52.8623 3.90064 52.765 3.63187 52.6502 3.36798Z" fill="#DBBDA5"/>
<path d="M47.8187 6.05605C48.2555 6.34252 48.6049 6.70383 48.9459 7.07266C49.0477 6.98588 49.1451 6.89467 49.2484 6.80877C48.9574 6.33766 48.5875 5.94536 48.0708 5.62877C47.7043 5.40429 47.294 5.19707 46.8632 5.01819C46.657 5.10143 46.4538 5.18999 46.2501 5.2781C46.8227 5.47646 47.3649 5.75806 47.8187 6.05605Z" fill="#DBBDA5"/>
<path d="M44.0006 12.5122C44.0925 12.3798 44.1813 12.2456 44.2757 12.1145C43.1699 11.0833 41.827 10.3953 40.262 10.0743C39.9055 10.0012 39.5261 9.93965 39.1382 9.89935C39.1322 9.90555 39.1257 9.9113 39.1198 9.91706C40.9614 10.3939 42.6417 11.3043 44.0006 12.5122Z" fill="#DBBDA5"/>
<path d="M43.0072 14.061C43.0402 14.0065 43.0711 13.9512 43.1046 13.8967C42.176 13.306 41.2325 12.7322 40.1582 12.3727C39.2566 12.0707 38.3136 11.9481 37.3626 11.8613C37.3256 11.9091 37.2922 11.9587 37.2557 12.0069C39.301 12.3434 41.2465 13.0692 43.0072 14.061Z" fill="#DBBDA5"/>
<path d="M35.6198 15.848C37.2777 12.3523 39.9675 9.26441 43.3762 6.97305C44.4425 6.2562 45.5742 5.62923 46.7454 5.06558C43.7121 6.2965 40.9315 8.03793 38.7424 10.2784C36.3427 12.7344 34.6578 15.7271 34.0283 18.9328C34.0113 19.357 34.0527 19.7878 34.1775 20.1863C34.4032 18.6893 34.9698 17.218 35.6198 15.848Z" fill="#DBBDA5"/>
<path d="M52.1943 4.15389C51.112 4.54664 50.1186 5.0266 49.1651 5.62922C47.5192 6.66974 45.9272 7.83379 44.5413 9.14042C43.175 10.4289 41.9943 11.8595 40.9225 13.3485C40.4717 13.9746 40.0663 14.6273 39.6045 15.2467C39.2471 15.7258 38.7689 16.3293 38.1004 16.475C37.2642 16.6565 36.9143 15.8276 36.2338 15.6014C35.9043 15.492 35.5329 15.4424 35.1585 15.4438C34.6463 16.5657 34.2629 17.7342 34.0273 18.9324C33.9828 20.0429 34.3278 21.2029 35.5709 21.6935C36.2748 21.9716 37.1209 22.0455 37.8832 22.0885C38.6296 22.1305 39.4807 22.0398 39.965 21.4805C40.3239 19.9118 40.8351 18.3736 41.5016 16.8854C42.821 13.9392 44.7195 11.1936 47.0689 8.80524C49.1561 6.68346 51.5978 4.85481 54.3045 3.38834C53.5877 3.61017 52.8928 3.90063 52.1943 4.15389Z" fill="#DBBDA5"/>
<path d="M42.3558 0.870293C41.2026 0.96726 40.1018 1.29668 39.034 1.68012C38.1039 2.01398 37.1949 2.39211 36.3107 2.81186C34.5335 3.6549 32.8606 4.6693 31.3435 5.84663C28.3657 8.15703 26.0408 11.1134 24.7608 14.4422C24.2122 15.8688 23.8632 17.3543 23.7364 18.8562C23.684 18.9023 23.6436 18.9594 23.6421 19.0117C23.6356 19.2919 23.6491 19.5819 23.6875 19.8702C23.6855 19.9893 23.6805 20.108 23.6815 20.2271C23.682 20.3085 23.7229 20.3364 23.7754 20.336C24.0295 21.4071 24.6819 22.371 26.0233 22.6132C26.4342 22.6871 26.857 22.692 27.2744 22.6871C27.7766 22.6809 28.2863 22.6738 28.7805 22.5862C29.3701 22.4817 29.9297 22.247 30.3291 21.8613C30.3281 21.8839 30.3256 21.9065 30.3251 21.9291C30.3181 22.1757 30.6786 21.9605 30.683 21.8007C30.6875 21.6448 30.7005 21.489 30.708 21.3331C30.708 21.3331 30.708 21.3322 30.708 21.3313C30.8503 18.4024 31.5392 15.5062 32.7298 12.7712C33.9859 9.88606 35.7916 7.18957 38.0515 4.83401C39.3305 3.50037 40.7608 2.2792 42.3143 1.19883C42.3887 1.14702 42.5964 0.849925 42.3558 0.870293Z" fill="#79695D"/>
<path d="M35.167 7.90596C33.2615 10.5874 31.8637 13.5602 31.0734 16.6516C30.674 18.2133 30.4369 19.8029 30.3555 21.4022C29.9746 22.0212 29.1489 22.2271 28.4046 22.2877C27.6443 22.3497 26.7956 22.3922 26.0513 22.2142C24.7378 21.8999 24.1947 20.8009 24.0454 19.6975C24.1093 16.4435 25.253 13.256 27.1965 10.5011C29.2647 7.56945 32.2421 5.19353 35.6098 3.47645C36.5703 2.98718 37.5648 2.55149 38.5852 2.16894C39.6021 1.78726 40.6459 1.44057 41.7377 1.28693C39.1613 3.1634 36.9447 5.40385 35.167 7.90596Z" fill="#DBBDA5"/>
<path d="M30.1374 15.2445C29.2283 14.9014 28.2584 14.6189 27.2674 14.5587C26.5251 14.5135 25.7722 14.5317 25.0349 14.626C24.981 14.7734 24.9181 14.9182 24.8682 15.0665C25.8032 14.9483 26.7807 14.9607 27.6888 15.0652C28.9513 15.2104 30.1449 15.57 31.2222 16.1217C31.2532 16.011 31.2901 15.9016 31.3226 15.7914C30.9496 15.5731 30.5528 15.4017 30.1374 15.2445Z" fill="#DBBDA5"/>
<path d="M34.2514 9.30338C34.3313 9.17453 34.4062 9.04347 34.488 8.91595C33.3573 8.01623 32.1078 7.24138 30.7279 6.70563C30.5357 6.86813 30.3505 7.03638 30.1643 7.20375C31.641 7.70187 32.9934 8.44396 34.2514 9.30338Z" fill="#DBBDA5"/>
<path d="M39.7344 1.77002C39.347 1.89444 38.9631 2.02727 38.5847 2.1694C38.5618 2.17781 38.5403 2.188 38.5173 2.19686C38.8483 2.49263 39.1528 2.81275 39.4334 3.15059C39.6725 2.93673 39.9221 2.73128 40.1693 2.52407C40.037 2.26681 39.8937 2.01487 39.7344 1.77002Z" fill="#DBBDA5"/>
<path d="M35.4287 5.08682C35.9104 5.30998 36.3183 5.61903 36.7191 5.93695C36.8045 5.83688 36.8854 5.73372 36.9722 5.63498C36.6023 5.20947 36.169 4.87207 35.6029 4.63032C35.2015 4.45896 34.7602 4.31019 34.3034 4.19241C34.1142 4.30266 33.929 4.41823 33.7428 4.53291C34.3439 4.65113 34.9284 4.85525 35.4287 5.08682Z" fill="#DBBDA5"/>
<path d="M32.7802 11.9884C32.8481 11.8449 32.9125 11.7005 32.9829 11.558C31.7109 10.6906 30.2647 10.1947 28.6622 10.0915C28.2972 10.068 27.9118 10.0592 27.5215 10.0729C27.5165 10.0796 27.511 10.0862 27.506 10.0928C29.4085 10.312 31.2272 10.9815 32.7802 11.9884Z" fill="#DBBDA5"/>
<path d="M32.0684 13.655C32.0913 13.5965 32.1123 13.5376 32.1358 13.4796C31.1159 13.0231 30.0835 12.5857 28.9592 12.3771C28.0157 12.2022 27.0627 12.2102 26.1082 12.2549C26.0798 12.3072 26.0558 12.3612 26.0278 12.4134C28.1076 12.4652 30.1559 12.916 32.0684 13.655Z" fill="#DBBDA5"/>
<path d="M25.0803 16.432C26.1097 12.7508 28.2299 9.33215 31.1987 6.60111C32.1278 5.74656 33.1367 4.97215 34.1955 4.25485C31.4129 5.88603 28.9687 7.98744 27.1955 10.5011C25.252 13.256 24.1083 16.4435 24.0444 19.6975C24.1013 20.1186 24.2172 20.5388 24.4099 20.9151C24.3734 19.4062 24.6769 17.8746 25.0803 16.432Z" fill="#DBBDA5"/>
<path d="M39.4209 2.60864C38.4199 3.14484 37.5218 3.75498 36.6851 4.48113C35.2404 5.73463 33.87 7.10236 32.7283 8.58344C31.6026 10.0437 30.6855 11.6187 29.8853 13.2366C29.5488 13.9167 29.2623 14.6171 28.9138 15.2924C28.6442 15.8148 28.2768 16.4763 27.6413 16.7119C26.8465 17.0059 26.3563 16.2346 25.6449 16.1044C25.3 16.0411 24.9245 16.0433 24.5551 16.096C24.2441 17.2747 24.0689 18.4817 24.0449 19.698C24.1942 20.8014 24.7373 21.8999 26.0508 22.2147C26.7951 22.3927 27.6433 22.3502 28.4041 22.2882C29.1489 22.2275 29.9741 22.0212 30.355 21.4026C30.4364 19.8033 30.6741 18.2138 31.0729 16.6521C31.8632 13.5607 33.2615 10.5879 35.1665 7.90643C36.8594 5.52431 38.9536 3.38349 41.3728 1.56369C40.7029 1.88072 40.0664 2.26283 39.4209 2.60864Z" fill="#DBBDA5"/>
<path d="M23.0295 20.4414C19.9303 22.4272 15.8622 21.9729 12.2683 21.9955C10.3508 22.0075 8.39788 22.15 6.60868 22.8071C5.16594 23.3367 3.89792 24.2085 2.90897 25.276C1.78572 26.4892 1.04838 27.9637 0.81225 29.52C0.784793 29.702 1.0978 29.5523 1.14523 29.4881C1.33593 29.2322 1.56557 29.0126 1.82566 28.8231C1.66941 29.0564 1.5471 29.3071 1.46523 29.5763C1.40931 29.7596 1.66292 29.7007 1.75028 29.6267C2.08126 29.3447 2.42423 29.0458 2.84507 28.8718C3.33979 28.6668 3.85898 28.7159 4.37018 28.847C5.28275 29.0808 6.16288 29.4186 7.0405 29.7379C8.74833 30.3586 10.5176 30.9781 12.3941 30.9542C14.0945 30.9325 15.7848 30.4295 17.1582 29.54C18.6314 28.5862 19.6318 27.2185 20.5529 25.8494C21.6676 24.1926 22.7514 22.483 23.2417 20.5857C23.2481 20.5605 23.2471 20.5419 23.2442 20.5251C23.2651 20.4192 23.1937 20.336 23.0295 20.4414Z" fill="#95766D"/>
<path d="M17.1756 29.215C15.7753 30.1572 14.012 30.6566 12.2553 30.6119C10.3837 30.5645 8.63845 29.8906 6.93212 29.2721C6.45437 29.099 5.97512 28.9276 5.48988 28.7713C5.01262 28.6177 4.52139 28.4534 4.01419 28.4011C3.22642 28.3201 2.58692 28.6509 2.01931 29.0755C2.14761 28.8311 2.31385 28.6057 2.53101 28.4069C2.63934 28.3077 2.6648 28.066 2.43566 28.1678C1.99834 28.3617 1.61244 28.6225 1.28296 28.9351C1.84758 26.3445 3.92183 24.0611 6.69349 23.0746C10.218 21.8193 14.1219 22.5866 17.7991 22.2754C19.5609 22.1261 21.3096 21.7387 22.8013 20.8788C22.3505 22.4631 21.4888 23.9167 20.5618 25.3203C19.6323 26.7275 18.6663 28.2125 17.1756 29.215Z" fill="#F7F0EA"/>
<path d="M8.45774 22.6105C7.86167 22.7212 7.2721 22.8687 6.694 23.0746C5.85681 23.3726 5.08502 23.7905 4.39709 24.298C5.66411 23.5842 7.03447 23.0033 8.45774 22.6105Z" fill="#E4DFDA"/>
<path d="M17.7991 22.2753C17.3149 22.3161 16.8272 22.3378 16.3364 22.3484C16.5167 22.4197 16.6919 22.4994 16.8551 22.5981C16.9934 22.6818 17.0199 22.8788 16.8551 22.9572C15.952 23.3872 14.9356 23.5364 13.9232 23.5944C12.9607 23.6493 11.9952 23.6236 11.0317 23.6572C10.1072 23.69 9.21059 23.8127 8.32597 24.0571C6.81234 24.4759 5.49241 25.2375 4.51294 26.3236C5.64317 26.0389 6.77839 25.7803 7.96903 25.8826C8.18969 25.9017 8.30201 26.1589 8.08735 26.2705C7.58214 26.5335 7.03549 26.7257 6.50782 26.9493C7.70844 26.8749 8.90357 26.7297 10.1062 26.9028C10.3263 26.9347 10.3049 27.191 10.1621 27.2831C9.62294 27.6303 8.99643 27.8353 8.38738 28.0673C9.71231 28.5526 11.178 28.7824 12.6043 28.6668C13.3846 28.6035 14.2817 28.503 14.9836 28.1762C15.6216 27.8791 16.1502 27.3912 16.8811 27.2707C16.9944 27.2521 17.1482 27.2986 17.1696 27.416C17.2775 28.0071 16.9655 28.5769 16.6265 29.0688C16.4383 29.3425 16.2281 29.6028 16.0104 29.8579C16.4183 29.6741 16.8092 29.4602 17.1746 29.2145C18.6653 28.2121 19.6313 26.727 20.5608 25.3199C21.4879 23.9163 22.3495 22.4631 22.8003 20.8784C21.3102 21.7387 19.5609 22.1266 17.7991 22.2753Z" fill="#E4DFDA"/>
<path d="M20.786 22.6353C19.7191 23.2658 18.6039 23.8379 17.3189 24.015C16.0239 24.1934 14.6865 24.0615 13.385 24.0141C11.0572 23.9291 8.64345 23.9548 6.47884 24.8049C5.81388 25.1676 5.18586 25.5993 4.67017 26.1151C6.02555 25.0613 7.86217 24.5517 9.64388 24.3936C10.9349 24.2789 12.2353 24.3152 13.5293 24.3661C14.7714 24.4153 16.0354 24.5162 17.2705 24.3378C17.4976 24.305 17.7183 24.2563 17.9369 24.2014C17.3274 25.864 16.0648 27.2969 14.4229 28.2453C14.8437 28.0832 15.2461 27.8849 15.6135 27.6245C16.0194 27.3371 16.3863 27.0121 16.7488 26.6832C17.4317 25.9181 17.9734 25.0533 18.3158 24.1168C18.3188 24.1089 18.3163 24.1031 18.3178 24.096C19.2319 23.8118 20.0751 23.3619 20.8828 22.8842C21.083 22.7664 21.0465 22.4817 20.786 22.6353Z" fill="#95766D"/>
<path d="M33.3055 51.2864C33.2246 49.8354 32.5881 48.519 31.7434 47.2934C31.8218 47.1708 31.7554 47.0242 31.5477 47.1367C29.1065 48.4575 26.4067 49.3718 23.5976 49.8429C23.4224 49.8722 23.2232 50.2189 23.4958 50.1732C23.5188 50.1693 23.5412 50.1644 23.5642 50.1604C23.5612 50.198 23.5782 50.2295 23.6261 50.2459C25.1392 50.7621 25.8866 52.1768 26.2909 53.4786C26.8201 55.1797 26.8925 56.9813 26.5176 58.7139C26.4637 58.9619 26.8076 58.7777 26.8745 58.6794C27.0912 58.3619 27.2764 58.0303 27.4466 57.6933C27.0462 59.4303 26.3808 61.1691 26.4397 62.9207C26.4676 63.7523 26.6549 64.5758 27.0732 65.3241C27.1686 65.4946 27.4601 65.2524 27.4566 65.1293C27.4376 64.4226 27.4207 63.7031 27.4781 62.9925C27.5579 64.3354 27.9858 65.6566 28.7586 66.83C28.7621 66.8349 28.7666 66.8362 28.7701 66.8406C28.7356 66.5887 28.7631 66.3248 28.798 66.0813C28.8354 65.8205 28.8824 65.5606 28.9313 65.3006C28.9033 65.0186 28.8864 64.7361 28.9018 64.4527C28.9413 63.7182 29.2293 63.0744 29.6132 62.4319C30.2937 61.2931 31.0245 60.1777 31.651 59.0141C32.2776 57.851 32.8082 56.6338 33.0623 55.3604C33.1936 54.7033 33.2485 54.0378 33.2775 53.3714C33.3075 52.6785 33.3444 51.9793 33.3055 51.2864Z" fill="#95766D"/>
<path d="M32.8961 53.3329C32.8701 54.0369 32.8257 54.7431 32.6869 55.4378C32.1697 58.0272 30.5448 60.2521 29.2019 62.5474C28.8285 63.1855 28.5624 63.8399 28.515 64.5634C28.494 64.8818 28.513 65.1992 28.5469 65.5158C28.0941 64.5236 27.8585 63.4618 27.853 62.3947C27.7417 61.9067 27.6433 61.4148 27.6114 60.9189C27.172 61.9555 27.0607 63.0482 27.0517 64.1467C26.3204 61.7881 27.505 59.3072 27.9513 56.9056C27.9993 56.4341 28.0192 55.9607 27.9848 55.4905C27.9329 54.7803 27.6683 54.1051 27.3667 53.4493C27.3677 53.456 27.3652 53.4635 27.3677 53.4697C27.7147 54.3548 27.7801 55.2377 27.7047 56.1201C27.5475 56.7139 27.3228 57.2891 27.0323 57.8408C27.2474 56.3065 27.1336 54.7431 26.6688 53.2483C26.2774 51.9891 25.5526 50.6488 24.1832 50.0444C26.7178 49.5507 29.1475 48.697 31.3805 47.5223C31.383 47.5365 31.3845 47.5511 31.3934 47.5635C32.1702 48.6864 32.7918 49.9186 32.9031 51.2474C32.9605 51.9395 32.9221 52.6395 32.8961 53.3329Z" fill="#F7F0EA"/>
<path d="M32.9021 51.2465C32.7908 49.9178 32.1698 48.686 31.3925 47.5627C31.3835 47.5498 31.382 47.5357 31.3795 47.5215C29.1465 48.6957 26.7168 49.5498 24.1823 50.0435C24.9476 50.3814 25.5112 50.949 25.928 51.6039C26.258 51.777 26.4817 52.0931 26.6344 52.4004C27.0393 53.2142 27.2035 54.1609 27.2899 55.042C27.3698 55.8585 27.3633 56.7095 27.1865 57.5246C27.4022 57.0699 27.5764 56.601 27.7042 56.1197C27.7796 55.2373 27.7142 54.3544 27.3673 53.4693C27.3648 53.4631 27.3673 53.4555 27.3663 53.4489C27.6678 54.1047 27.9324 54.7799 27.9848 55.4901C27.9858 55.5025 27.9858 55.5149 27.9863 55.5268C28.0232 55.2466 28.0532 54.9672 28.0792 54.6922C28.1346 54.1033 28.2099 53.4688 28.1201 52.8813C28.0617 52.5018 27.9324 52.0103 28.17 51.6592C28.2184 51.5875 28.3607 51.5534 28.4271 51.63C29.0441 52.338 29.2543 53.2244 29.2603 54.1046C29.2718 55.8966 28.5125 57.5499 27.9094 59.228C27.3563 60.7666 26.926 62.3695 27.0068 63.9719C27.0223 64.0299 27.0343 64.0883 27.0523 64.1463C27.0612 63.0483 27.1726 61.9555 27.6119 60.9185C27.6184 61.0221 27.6294 61.1253 27.6418 61.2289C27.7597 60.7166 27.9024 60.2087 28.0662 59.7062C28.4011 58.6785 28.841 57.6832 29.1969 56.6612C29.5558 55.6296 29.8574 54.5625 29.9442 53.4825C30.0316 52.3942 29.7635 51.3285 29.5668 50.2609C29.5464 50.1485 29.6382 50.0595 29.7685 50.082C30.1963 50.1564 30.4714 50.5036 30.6456 50.8317C30.8688 51.2532 30.9931 51.7128 31.0859 52.1688C31.2846 53.146 31.3366 54.1259 31.1943 55.1137C30.9881 56.5426 30.4614 57.9116 29.9098 59.2599C29.3442 60.6418 28.6592 62.0228 28.5314 63.5043C28.5035 63.8297 28.506 64.1565 28.5245 64.4828C28.5854 63.7912 28.8435 63.1612 29.2029 62.5461C30.5458 60.2508 32.1708 58.0259 32.6879 55.4365C32.8267 54.7418 32.8712 54.0356 32.8971 53.3316C32.9221 52.6395 32.9605 51.9395 32.9021 51.2465Z" fill="#E4DFDA"/>
<path d="M25.7123 51.2939C26.1966 51.2634 26.6758 51.1823 27.1431 51.0557C28.4091 50.713 29.4954 50.0865 30.6242 49.4954C31.1204 49.2355 31.6271 48.9632 32.0334 48.5957C31.8392 48.2423 31.6246 47.8974 31.3934 47.5627C31.3845 47.5498 31.383 47.5357 31.3805 47.5215C29.1475 48.6957 26.7178 49.5498 24.1832 50.0435C24.8237 50.3265 25.3219 50.7723 25.7123 51.2939Z" fill="#E4DFDA"/>
<path d="M45.8523 28.2794C45.5957 26.425 44.8743 24.646 43.9363 22.9807C43.2803 21.8166 42.4741 20.6725 41.3823 19.8029C41.6349 19.7821 41.89 19.7839 42.1481 19.8166C42.2644 19.8312 42.5071 19.6453 42.4337 19.5315C41.8895 18.6862 40.9425 18.1199 39.8672 17.9791C40.1822 17.7466 40.5266 17.5536 40.9036 17.4004C40.9874 17.3663 41.2186 17.1449 41.0423 17.0878C39.7364 16.6623 38.2842 16.738 37.0361 17.2729C37.0082 16.7252 36.9967 16.177 37.0062 15.6289C37.0091 15.4668 36.782 15.5691 36.7146 15.6191C36.2978 15.9273 35.9658 16.2992 35.7177 16.719C35.2399 16.0486 34.3303 15.6908 33.4337 15.8339C33.3399 15.8489 33.0798 16.0539 33.2136 16.1434C33.5755 16.3856 33.8506 16.703 34.0158 17.0657C33.1287 16.8208 32.2171 16.6667 31.3036 16.6534C31.5547 16.4586 31.8053 16.2634 32.0564 16.0685C32.1373 16.0057 32.2241 15.8272 32.0564 15.8095C31.3001 15.7298 30.5463 15.8365 29.8499 16.0947C29.9911 15.8927 30.1324 15.6913 30.2737 15.4894C30.3216 15.4212 30.3046 15.3233 30.2018 15.3154C28.7341 15.2056 27.4002 15.8795 26.2854 16.6632C25.8097 16.2332 25.1282 16.0566 24.4588 16.1775C24.3455 16.1978 24.0879 16.4245 24.2706 16.5056C24.4947 16.6043 24.6665 16.7508 24.7918 16.9257C23.9096 16.7323 22.9252 17.1241 22.4579 17.8277C22.3955 17.9215 22.4504 18.0176 22.5757 17.9973C22.9442 17.937 23.3086 17.9601 23.6575 18.0429C22.118 19.2264 20.9238 20.7292 20.2174 22.4343C19.2644 24.7332 18.7577 27.2659 18.7268 29.7131C18.7118 30.9001 18.8361 32.085 19.0972 33.2482C18.2415 34.1953 17.3963 35.1499 16.5866 36.1275C15.4684 37.478 14.42 38.8922 13.6627 40.4326C12.9213 41.9403 12.3687 43.629 12.8375 45.2695C13.2613 46.7515 14.3811 48.0072 15.6021 49.0486C16.2372 49.5901 16.9141 50.1028 17.6704 50.5075C18.4791 50.9406 19.3648 51.1925 20.3018 51.2904C22.087 51.4772 23.9516 51.2669 25.6754 50.8392C29.094 49.9908 32.1542 48.2029 34.5979 45.9416C36.2848 44.3809 37.6926 42.6089 38.8982 40.7337C42.0568 39.5515 44.4475 37.0627 45.3007 34.1169C45.5708 33.1835 45.736 32.2205 45.8498 31.2632C45.9681 30.2696 45.9896 29.2716 45.8523 28.2794Z" fill="#95766D"/>
<path d="M45.1628 33.2278C44.8249 34.8337 44.1799 36.3325 43.0386 37.6268C42.0078 38.7961 40.6659 39.7291 39.1462 40.341C39.5606 39.6759 39.947 38.998 40.3154 38.3135C40.0863 38.6088 39.8591 38.9059 39.646 39.2106C39.2915 39.7171 39.0055 40.256 38.6725 40.7736C38.1952 41.5148 37.6426 42.2002 37.05 42.8635C36.5418 43.5161 36.0012 44.1488 35.4226 44.7568C33.1851 47.1088 30.364 49.0402 27.0991 50.125C25.4801 50.6629 23.7598 50.9786 22.0295 51.0079C21.061 51.0242 20.0721 50.9676 19.1495 50.6868C18.3143 50.4331 17.568 50.0032 16.8881 49.5095C15.5936 48.5699 14.36 47.4276 13.6386 46.074C13.2702 45.382 13.0516 44.635 13.0471 43.8677C13.0421 43.0016 13.2792 42.1515 13.6007 41.339C14.2142 39.7871 15.1673 38.3578 16.2236 37.0131C16.938 36.1032 17.6958 35.2194 18.4691 34.3467C18.6174 34.1315 18.7681 33.9177 18.9244 33.7069C19.2354 33.2876 19.5828 32.8979 19.9193 32.495C20.1005 32.2776 20.2713 32.0514 20.4041 31.81C20.4041 31.81 20.4041 31.81 20.4036 31.8105C20.0786 32.1612 19.7606 32.518 19.4386 32.8718C18.9938 30.7682 19.0352 28.5999 19.4191 26.4892C19.8185 24.2913 20.446 21.9862 21.8877 20.1292C22.4713 19.3783 23.1722 18.7088 23.9595 18.1257C24.1143 18.1814 24.265 18.2492 24.4093 18.3315C24.4208 18.3382 24.4348 18.3386 24.4482 18.3408C24.4263 18.2682 24.4053 18.1956 24.3758 18.1252C24.3714 18.1146 24.3669 18.104 24.3619 18.0933C24.3489 18.069 24.3369 18.0446 24.3229 18.0207C24.2965 17.9751 24.265 17.9335 24.2331 17.891C24.2261 17.8839 24.2191 17.8764 24.2116 17.8693C24.2056 17.8635 24.1986 17.8587 24.1921 17.8533C24.1906 17.8525 24.1881 17.8498 24.1856 17.848C24.1752 17.8401 24.1597 17.8286 24.1457 17.8215C24.1432 17.8201 24.1382 17.8179 24.1337 17.8162C24.1332 17.8157 24.1322 17.8153 24.1312 17.8153C24.1173 17.8091 24.1033 17.8033 24.1143 17.8073C24.0633 17.79 24.0209 17.7644 23.9855 17.7329C23.655 17.6492 23.3105 17.616 22.9616 17.6426C23.2601 17.3508 23.7009 17.2144 24.1427 17.2175C24.2016 17.2034 24.2625 17.198 24.3204 17.2144C24.3344 17.2184 24.3439 17.2264 24.3574 17.2308C24.6015 17.2587 24.8391 17.3256 25.0458 17.4402C25.1981 17.5248 25.3918 17.2729 25.3718 17.1622C25.3254 16.9076 25.1951 16.6875 25.0124 16.5051C25.4007 16.5697 25.7592 16.7508 26.0288 17.0254C26.0802 17.0776 26.1975 17.0409 26.2464 17.0054C27.2658 16.27 28.464 15.6187 29.8143 15.6532C29.6431 15.8981 29.4714 16.1425 29.3001 16.3873C29.2193 16.5029 29.3371 16.6029 29.4674 16.5414C30.1159 16.2363 30.8213 16.1075 31.5451 16.1358C31.3195 16.3112 31.0938 16.4865 30.8677 16.6618C30.1244 16.6888 29.382 16.8097 28.6532 17.0643C28.6232 17.0745 28.5972 17.0931 28.5728 17.1144C29.1928 17.0568 29.8078 16.9594 30.4334 16.9519C30.8577 16.9465 31.2805 16.9736 31.7014 17.0183C32.1487 17.055 32.5935 17.1232 33.0343 17.2188C33.6678 17.3318 34.2978 17.4602 34.9164 17.6262C35.4086 17.7586 35.8913 17.9224 36.3806 18.0645C36.413 18.0017 36.411 17.9397 36.3411 17.9087C35.752 17.6488 35.14 17.4106 34.5135 17.2131C34.4176 16.819 34.2185 16.4573 33.9174 16.1588C34.6019 16.2421 35.2239 16.6437 35.5009 17.2175C35.5863 17.3937 35.8409 17.1484 35.8779 17.0634C36.0441 16.6756 36.2962 16.3346 36.6157 16.0411C36.6122 16.5542 36.6217 17.0674 36.6511 17.5802C36.6561 17.6718 36.7635 17.6886 36.8443 17.6506C37.9501 17.1268 39.2366 17.0174 40.4322 17.322C40.0543 17.5182 39.7044 17.7528 39.3889 18.0269C39.3195 18.0876 39.2131 18.2753 39.3889 18.2859C40.3479 18.3426 41.2425 18.7752 41.8196 19.4478C41.5515 19.4496 41.2879 19.4885 41.0273 19.5439C40.7168 19.326 40.3908 19.1237 40.0334 18.9554C40.3608 19.342 40.7467 19.6931 41.0902 20.0668C41.1471 20.1288 41.1985 20.1947 41.2544 20.2576C42.0607 20.9475 42.7037 21.7932 43.2373 22.6645C44.1794 24.2023 44.9292 25.8649 45.3086 27.586C45.7224 29.4598 45.5557 31.3624 45.1628 33.2278Z" fill="#F7F0EA"/>
<path d="M23.6865 17.6731C23.8183 17.5168 23.9571 17.3654 24.1039 17.2202C23.6755 17.2255 23.2522 17.3597 22.9626 17.6426C23.2073 17.624 23.4494 17.6359 23.6865 17.6731Z" fill="#F7F0EA"/>
<path d="M20.149 32.0912C20.0741 32.1288 19.9973 32.1643 19.9179 32.1957C19.826 32.232 19.7037 32.2085 19.6773 32.1089C19.3717 30.9581 19.5445 29.7379 19.7392 28.5844C19.9264 27.4753 20.1156 26.3568 20.3822 25.2605C20.5374 24.6234 20.7176 23.9911 20.9083 23.3615C21.0841 22.7814 21.2488 22.1947 21.4685 21.6262C21.7605 20.8704 22.107 20.1279 22.5108 19.4124C22.2927 19.6435 22.0815 19.8799 21.8883 20.1292C20.4466 21.9858 19.819 24.2913 19.4197 26.4892C19.0358 28.5999 18.9948 30.7682 19.4391 32.8718C19.6758 32.6115 19.9119 32.3511 20.149 32.0912Z" fill="#F7F0EA"/>
<path d="M17.26 36.2834C18.0737 35.2469 18.9204 34.2347 19.7601 33.215C20.3367 32.5149 21.1879 31.9562 21.6861 31.203C21.1614 31.3947 20.749 31.7587 20.2668 32.0261C20.1605 32.1873 20.0456 32.3445 19.9198 32.4946C19.5834 32.8975 19.2359 33.2871 18.9249 33.7064C18.7686 33.9172 18.6179 34.1311 18.4696 34.3463C17.6963 35.219 16.9385 36.1027 16.2241 37.0126C15.4598 37.9859 14.7514 39.0042 14.1848 40.0806C15.1758 38.7953 16.2556 37.563 17.26 36.2834Z" fill="#F7F0EA"/>
<path d="M24.0564 31.0423C24.2866 30.3622 24.5112 29.6617 24.6395 28.9608C24.7793 28.1979 24.7733 27.3973 24.4558 26.6681C24.2352 26.1611 23.9321 25.6364 23.384 25.3526C22.3985 24.8425 21.0661 25.245 20.3028 25.9012C19.8835 26.2616 19.564 26.7 19.3104 27.1684C19.0348 29.0631 19.0423 30.9927 19.4392 32.8714C19.7612 32.5176 20.0792 32.1612 20.4042 31.81L20.4047 31.8096C20.2719 32.0509 20.1011 32.2772 19.9199 32.4946C19.6019 32.8753 19.2764 33.246 18.9789 33.6391C19.5145 33.4833 20.0881 33.4071 20.6258 33.3668C21.1959 33.3239 21.7605 33.3221 22.3187 33.4505C22.8593 33.5749 23.3735 33.7742 23.9132 33.899C23.8008 33.5165 23.4085 33.2522 23.049 33.0303C22.9676 32.9803 22.9317 32.8692 23.0161 32.8023C23.5807 32.3551 23.8443 31.6679 24.0564 31.0423Z" fill="#E4DFDA"/>
<path d="M24.5282 24.7509C24.639 23.8038 23.7374 22.7416 22.6122 22.8027C21.5773 22.8589 20.811 23.6555 20.3667 24.4569C20.8814 24.1961 21.453 24.034 22.0605 24.0208C22.5433 24.0101 23.0111 24.1 23.4539 24.2674C23.8238 24.4073 24.1717 24.5871 24.5282 24.7509Z" fill="#E4DFDA"/>
<path d="M30.6276 23.3468C31.3814 22.9669 32.2565 22.7292 33.1142 22.6256C33.6359 22.5627 34.1451 22.6225 34.6458 22.7606C35.0861 22.8824 35.5129 23.0325 35.9627 23.1188C35.9033 22.6566 35.5534 22.2691 35.15 21.9791C34.7192 21.6701 34.198 21.4447 33.6608 21.3273C33.1092 21.2069 32.5685 21.2631 32.0479 21.4646C30.968 21.8817 30.008 22.8292 29.8413 23.8892C30.061 23.6679 30.34 23.4916 30.6276 23.3468Z" fill="#E4DFDA"/>
<path d="M36.7081 32.7886C36.6142 32.7651 36.5813 32.6881 36.5937 32.6097C36.6806 32.0655 36.9297 31.5599 37.1204 31.041C37.3151 30.5105 37.414 29.9508 37.5083 29.4C37.6047 28.8377 37.6571 28.2595 37.5373 27.6967C37.4329 27.2061 37.2233 26.7399 36.9397 26.3095C36.447 25.5616 35.7426 24.8465 34.8699 24.4379C34.0173 24.0385 33.0163 23.9473 32.0863 24.1678C30.4154 24.5636 29.3441 25.8742 28.6991 27.2238C28.3716 27.9092 28.141 28.634 28.0032 29.3682C27.8789 30.0332 27.808 30.7478 27.9338 31.4173C28.1909 32.7877 29.2997 34.3529 31.0275 34.3985C31.1278 34.4012 31.2211 34.4897 31.1852 34.5823C31.0824 34.8466 31.005 35.1171 30.9271 35.3877C31.1687 35.1614 31.4358 34.956 31.7204 34.7722C32.7622 34.0997 34.0228 33.6733 35.2853 33.4683C36.3691 33.2925 37.5428 33.261 38.6046 33.5639C38.2462 33.037 37.3271 32.9431 36.7081 32.7886Z" fill="#E4DFDA"/>
<path d="M45.3091 27.5855C44.9297 25.8645 44.1798 24.2019 43.2378 22.6641C42.7042 21.7927 42.0607 20.947 41.2549 20.2572C41.199 20.1943 41.1476 20.1283 41.0907 20.0663C40.7472 19.6926 40.3613 19.3415 40.0343 18.955C40.3918 19.1232 40.7178 19.3256 41.0283 19.5434C41.2884 19.4881 41.552 19.4491 41.8205 19.4473C41.2434 18.7748 40.3483 18.3417 39.3898 18.2855C39.2141 18.2753 39.3204 18.0871 39.3898 18.0265C39.7053 17.752 40.0553 17.5177 40.4332 17.3216C39.2376 17.017 37.9511 17.1263 36.8453 17.6501C36.7644 17.6882 36.6576 17.6714 36.6521 17.5797C36.6227 17.067 36.6132 16.5538 36.6167 16.0406C36.2972 16.3342 36.0451 16.6751 35.8788 17.063C35.8424 17.148 35.5873 17.3938 35.5019 17.2171C35.2249 16.6433 34.6028 16.2417 33.9184 16.1584C34.2189 16.4569 34.4181 16.8186 34.5145 17.2127C35.141 17.4106 35.753 17.6484 36.3421 17.9083C36.4125 17.9393 36.4145 18.0017 36.3815 18.0641C35.8923 17.9215 35.4096 17.7577 34.9173 17.6258C34.2988 17.4597 33.6688 17.3318 33.0353 17.2184C32.5945 17.1232 32.1492 17.055 31.7024 17.0178C31.2815 16.9731 30.8592 16.9461 30.4344 16.9514C29.8093 16.9594 29.1938 17.0564 28.5738 17.1139C28.5977 17.0927 28.6242 17.0745 28.6541 17.0639C29.383 16.8093 30.1253 16.6884 30.8687 16.6614C31.0943 16.4861 31.32 16.3107 31.5461 16.1354C30.8222 16.1071 30.1168 16.2359 29.4684 16.541C29.3381 16.6025 29.2202 16.5025 29.3011 16.3869C29.4724 16.142 29.6441 15.8976 29.8153 15.6528C28.4649 15.6182 27.2668 16.2696 26.2474 17.005C26.1985 17.0404 26.0812 17.0772 26.0297 17.0249C25.7602 16.7504 25.4017 16.5693 25.0133 16.5047C25.196 16.6871 25.3263 16.9076 25.3728 17.1617C25.3932 17.2729 25.199 17.5244 25.0468 17.4398C24.8401 17.3251 24.602 17.2583 24.3579 17.2304C24.3444 17.2259 24.3349 17.218 24.3209 17.214C24.263 17.1976 24.2021 17.2034 24.1432 17.2171C23.7014 17.214 23.2606 17.3504 22.962 17.6422C23.311 17.6156 23.6555 17.6484 23.9859 17.7325C24.0214 17.7639 24.0638 17.7896 24.1147 17.8069C24.1038 17.8033 24.1177 17.8091 24.1317 17.8148C24.1322 17.8148 24.1327 17.8153 24.1337 17.8157C24.1382 17.8175 24.1437 17.8197 24.1462 17.821C24.1602 17.8281 24.1756 17.8396 24.1861 17.8476C24.1886 17.8494 24.1911 17.852 24.1926 17.8529C24.1991 17.8582 24.2056 17.8631 24.2121 17.8689C24.2196 17.8759 24.2266 17.883 24.2336 17.8906C24.265 17.9331 24.297 17.9747 24.3234 18.0203C24.3374 18.0442 24.3494 18.069 24.3624 18.0929C24.3668 18.1035 24.3718 18.1142 24.3763 18.1248C24.4058 18.1952 24.4267 18.2678 24.4487 18.3404C24.4352 18.3382 24.4213 18.3378 24.4098 18.3311C24.266 18.2488 24.1152 18.181 23.96 18.1252C23.1732 18.7084 22.4718 19.3778 21.8882 20.1288C21.5083 20.618 21.1858 21.1396 20.9083 21.6811C22.1189 20.4117 23.6639 19.3929 25.222 18.4821C25.3798 18.39 25.5515 18.5977 25.4207 18.7101C24.7842 19.2565 24.261 19.9233 23.8791 20.6402C24.5975 19.9937 25.4222 19.4389 26.3348 19.0258C28.4415 18.0725 30.9076 17.957 33.1007 18.7602C34.2094 19.1666 35.2134 19.8011 35.9303 20.6619C36.3461 21.1613 36.6247 21.7206 36.8653 22.2957C36.9442 21.6816 36.9741 21.0551 37.059 20.4383C37.0745 20.3249 37.2332 20.2315 37.3385 20.3356C37.7913 20.7836 38.1453 21.2942 38.4054 21.8494C39.268 23.6874 39.1223 25.7356 39.0658 27.6945C39.2186 27.3659 39.2855 27.002 39.3419 26.6539C39.4243 26.143 39.4847 25.6276 39.7258 25.1521C39.7772 25.0511 39.9535 25.0635 40.0089 25.1521C40.3244 25.6559 40.4617 26.2262 40.5355 26.7939C40.6763 27.8733 40.577 28.9683 40.4831 30.0474C40.3663 31.393 40.1561 32.7443 39.6994 34.035C39.6594 34.1488 39.4682 34.1851 39.3998 34.0695C39.1587 33.6595 38.9271 33.2451 38.676 32.8404C38.8033 33.4939 38.8292 34.1616 38.7503 34.8227C38.5551 36.4539 37.7834 37.9943 36.6636 39.2912C36.1264 40.4871 35.3517 41.5883 34.4895 42.62C34.0352 43.1637 33.5185 43.6587 33.0488 44.1905C32.6469 44.6448 32.2221 45.146 31.618 45.3984C31.5027 45.4466 31.3804 45.3882 31.3714 45.2731C31.3519 45.0087 31.3759 44.7426 31.3654 44.4778C31.3599 44.3441 31.3554 44.1807 31.31 44.0359C31.1782 44.5354 31.0948 45.0446 30.9171 45.5347C30.7124 46.0997 30.3759 46.6961 29.695 46.891C29.6146 46.914 29.5113 46.8639 29.4938 46.7896C29.3181 46.0537 29.41 45.2704 29.0266 44.5814C28.9262 44.4008 28.8114 44.2268 28.6941 44.0537C28.7375 44.3751 28.745 44.7001 28.7066 45.0224C28.5778 46.0944 27.9148 47.041 26.7871 47.4914C25.1686 48.1378 23.3185 47.8367 21.6102 47.796C21.4584 47.7924 21.4075 47.6441 21.4943 47.548C22.0614 46.9206 22.7004 46.306 23.1168 45.5852C23.3484 45.1845 23.5476 44.7643 23.7149 44.3397C23.8626 43.9651 24.0538 43.5064 23.9809 43.1026C23.951 42.937 23.8546 42.8276 23.654 42.8369C23.3689 42.8502 23.0843 42.9733 22.8233 43.0663C22.1338 43.3116 21.381 43.4245 20.6482 43.5152C19.785 43.622 18.9174 43.6503 18.0472 43.676C17.1676 43.7021 16.287 43.7132 15.4079 43.6808C14.7644 43.6574 14.1084 43.6224 13.5278 43.3496C13.3715 43.2761 13.2348 43.1814 13.109 43.0765C13.0695 43.3377 13.0461 43.6011 13.0476 43.8659C13.052 44.6337 13.2707 45.3802 13.6391 46.0723C14.3605 47.4258 15.5941 48.5682 16.8885 49.5078C17.568 50.001 18.3148 50.4314 19.15 50.6851C20.0726 50.9654 21.0615 51.0225 22.0305 51.0061C23.7608 50.9769 25.4811 50.6612 27.1001 50.1232C30.365 49.038 33.186 47.107 35.4235 44.755C36.0021 44.1471 36.5428 43.5144 37.0505 42.8617C37.6431 42.1984 38.1962 41.513 38.673 40.7718C39.0059 40.2542 39.2915 39.7158 39.6464 39.2088C39.8596 38.9042 40.0867 38.6071 40.3159 38.3118C39.9475 38.9963 39.5611 39.6742 39.1467 40.3392C40.6663 39.7273 42.0082 38.7944 43.0391 37.625C44.1803 36.3308 44.8253 34.832 45.1633 33.226C45.5557 31.3624 45.7224 29.4598 45.3091 27.5855Z" fill="#E4DFDA"/>
<path d="M23.4528 25.5368C23.3185 25.4837 23.1807 25.4372 23.0459 25.3942C22.7444 25.2991 22.4214 25.2468 22.1039 25.3083C21.9197 25.3442 21.7494 25.4075 21.5862 25.485C21.0785 25.7821 20.7121 26.2479 20.436 26.7239C20.0476 27.3943 19.77 28.1195 19.6128 28.8603C19.457 29.5944 19.4071 30.3529 19.496 31.0967C19.5639 31.6648 19.7456 32.3148 20.3112 32.6553C20.9053 33.0131 21.6711 32.8869 22.2432 32.5597C22.8303 32.224 23.2132 31.6949 23.4912 31.137C23.8112 30.441 24.0848 29.7312 24.2346 28.9887C24.3838 28.2475 24.3843 27.4447 24.2051 26.7066C24.0868 26.2178 23.7977 25.864 23.4528 25.5368Z" fill="#95766D"/>
<path d="M24.0239 28.6885C23.9281 29.1583 23.7758 29.6232 23.6036 30.0726C23.3759 30.6668 23.1573 31.3031 22.7329 31.814C22.3381 32.2896 21.6746 32.6628 20.9867 32.4968C19.7087 32.1882 19.792 30.4702 19.8719 29.5687C19.9283 28.9351 20.0771 28.3086 20.3082 27.7073C20.5289 27.133 20.8174 26.5127 21.2722 26.0504C21.7744 25.5399 22.6556 25.295 23.2786 25.7901C23.2961 25.8038 23.31 25.8202 23.327 25.8343C23.7803 26.1226 24.0549 26.6353 24.1392 27.1233C24.2281 27.6431 24.1847 28.1806 24.0239 28.6885Z" fill="white"/>
<path d="M31.6825 34.5105C31.649 34.5375 31.6291 34.5641 31.6141 34.5898C32.5092 34.0283 33.4772 33.5391 34.545 33.3026C35.6548 33.0565 36.756 33.0166 37.8773 32.983C37.8623 32.9652 37.8404 32.9506 37.8034 32.9444C37.1649 32.8382 36.5179 32.8244 35.8799 32.878C36.5379 32.0447 36.8519 30.9515 36.9637 29.9756C37.087 28.8966 36.9642 27.7804 36.5309 26.7624C36.166 25.9061 35.5409 25.0356 34.5006 24.7571C34.4801 24.7518 34.4581 24.7522 34.4357 24.7558C33.6534 24.4547 32.7568 24.4511 31.9645 24.7575C31.0784 25.1002 30.395 25.7653 29.9497 26.5136C29.4515 27.35 29.1944 28.3205 29.103 29.2583C29.0107 30.2054 29.133 31.1857 29.5923 32.0522C30.1159 33.0396 31.1024 33.8313 32.2496 34.1054C32.0539 34.2329 31.8627 34.3653 31.6825 34.5105Z" fill="#95766D"/>
<path d="M30.373 32.4397C29.2368 31.0184 29.2967 29.1268 29.8364 27.5222C30.1329 26.6393 30.6471 25.7755 31.5377 25.2592C32.4498 24.7305 33.6035 24.7522 34.526 25.2468C34.5625 25.2663 34.6084 25.2623 34.6538 25.2446C36.0761 25.9167 36.5593 27.7777 36.6128 29.0724C36.6472 29.8986 36.5349 30.7385 36.2628 31.5302C36.0951 32.0181 35.848 32.5101 35.488 32.9174C34.5135 33.0476 33.5765 33.358 32.7358 33.8202C31.8043 33.6555 30.9242 33.1286 30.373 32.4397Z" fill="white"/>
<path d="M29.0361 46.1922C28.9897 46.0218 28.6158 46.2653 28.6587 46.4229C28.9233 47.3939 27.5924 47.8075 26.7781 47.9934C25.8561 48.2042 24.9016 48.2507 23.9536 48.2631C23.0105 48.2755 22.066 48.252 21.1245 48.3078C20.4206 48.3494 19.7506 48.4668 19.0762 48.6067C19.0737 48.6031 19.0742 48.5987 19.0712 48.5952C18.578 48.0275 18.2016 47.3895 17.9534 46.7076C17.891 46.5358 17.5201 46.7842 17.576 46.9383C17.8072 47.5728 18.1561 48.1688 18.5949 48.7099C18.5136 48.7276 18.4327 48.7448 18.3503 48.7625C17.3758 48.9768 16.2147 49.0805 15.4464 48.3835C15.3126 48.2627 14.9746 48.5509 15.1084 48.6722C15.7724 49.274 16.7648 49.3404 17.6539 49.2062C18.219 49.1207 18.7652 48.9609 19.3233 48.8476C19.8859 48.7329 20.459 48.6718 21.0346 48.6412C23.1478 48.5288 25.3349 48.7904 27.3667 48.1325C28.2703 47.8398 29.3017 47.1672 29.0361 46.1922Z" fill="#95766D"/>
<path d="M22.7993 44.4601C22.6201 44.1838 22.0815 44.3167 21.8104 44.3742C20.9657 44.5531 20.113 44.7085 19.2539 44.8232C18.3233 44.9472 17.3708 45.0335 16.4303 44.964C15.5661 44.9007 14.723 44.7165 13.8763 44.5597C13.6696 44.5217 12.9612 44.3065 12.9882 44.6913C12.9902 44.7187 12.9972 44.7457 13.0061 44.7718C13.0101 44.7718 13.0136 44.7727 13.0176 44.7723C13.7829 45.7623 14.9391 46.4973 16.2406 46.8307C17.6903 47.2022 19.2364 47.0194 20.6167 46.5119C21.3012 46.2604 21.9517 45.9045 22.4653 45.4271C22.5163 45.3798 22.5697 45.3297 22.6221 45.2779C22.7479 45.0202 22.9481 44.689 22.7993 44.4601Z" fill="#5E4B44"/>
<path d="M22.695 44.364C22.2577 44.7918 21.7579 45.1655 21.1903 45.4573C19.7017 46.2219 17.856 46.4097 16.1692 46.2082C15.3804 46.1139 14.687 45.8584 14.0141 45.4931C13.732 45.3399 13.4554 45.1743 13.1998 44.987C13.9606 45.8673 15.0365 46.5226 16.2411 46.8312C17.6908 47.2027 19.2369 47.0198 20.6172 46.5124C21.3017 46.2609 21.9521 45.9049 22.4658 45.4276C22.5172 45.3802 22.5702 45.3302 22.6226 45.2784C22.7479 45.0202 22.9481 44.689 22.7993 44.4601C22.7724 44.4185 22.7359 44.3888 22.695 44.364Z" fill="#5E4B44"/>
<path d="M23.5446 23.3185C23.7768 23.408 23.9585 23.5727 24.1262 23.7361C24.1816 23.7901 24.239 23.8432 24.296 23.8959C24.3199 23.6922 24.3349 23.4872 24.3274 23.2822C24.256 23.0573 24.1602 22.8399 24.0109 22.6437C23.7249 22.2669 23.2551 22.0371 22.7429 22.0234C21.5053 21.9911 20.9033 23.0878 20.5903 23.9791C20.5683 24.042 20.6212 24.0757 20.6861 24.0672C20.762 24.0575 20.8314 23.9862 20.8528 23.9247C20.8533 23.9233 20.8538 23.9216 20.8543 23.9202C21.2522 23.3889 21.9267 23.0161 22.6625 23.0564C22.967 23.0732 23.2601 23.1658 23.5137 23.3105C23.5242 23.3132 23.5346 23.3145 23.5446 23.3185Z" fill="#58453F"/>
<path d="M21.0476 23.4421C21.3556 22.7832 21.8603 22.1624 22.7679 22.2722C23.4344 22.3528 23.7938 22.7788 23.999 23.2791C23.65 22.9913 23.1773 22.8191 22.6945 22.8169C22.076 22.8142 21.4899 23.0644 21.0476 23.4421Z" fill="#79695D"/>
<path d="M35.6727 21.98C35.0931 21.2813 34.2899 20.7243 33.243 20.8372C32.1997 20.9497 31.2382 21.5173 30.6132 22.2528C30.38 22.5273 30.1963 22.831 30.0615 23.1516C30.0775 23.1662 30.093 23.1808 30.1104 23.1936C30.1144 23.1963 30.1184 23.199 30.1224 23.2012C30.1354 23.2091 30.1489 23.2171 30.1624 23.2242C30.1913 23.2397 30.2208 23.2534 30.2512 23.2663C30.2522 23.2667 30.2542 23.2672 30.2552 23.2676C30.2517 23.2663 30.2497 23.2658 30.2442 23.264C30.2512 23.2663 30.2577 23.2689 30.2647 23.2711C30.2732 23.2742 30.2817 23.2769 30.2902 23.2795C30.2937 23.2791 30.2967 23.2769 30.3001 23.2769C30.3221 23.2725 30.3436 23.2733 30.3655 23.2795C30.3665 23.28 30.368 23.2804 30.369 23.2809C31.059 22.6969 31.9271 22.2864 32.8606 22.108C33.8461 21.9198 35.1136 21.93 35.8055 22.6858C35.8195 22.7013 35.8395 22.7057 35.8609 22.7057C35.806 22.4622 35.7441 22.22 35.6727 21.98Z" fill="#58453F"/>
<path d="M32.8687 21.8901C31.9231 22.0814 31.0535 22.4959 30.3391 23.0697C30.704 22.2665 31.4189 21.6023 32.331 21.2667C32.982 21.0272 33.6769 20.9758 34.3184 21.2649C34.6958 21.435 35.0048 21.6873 35.2684 21.976C34.5345 21.6944 33.618 21.7383 32.8687 21.8901Z" fill="#79695D"/>
<path d="M60.2717 25.2756C59.2833 24.2081 58.0148 23.3362 56.572 22.8067C54.7828 22.1496 52.8294 22.007 50.9124 21.9951C47.5347 21.9738 43.7386 22.3732 40.7213 20.773C40.941 21.0254 41.1631 21.276 41.4082 21.5093C41.9224 21.9991 42.3772 22.5344 42.8535 23.052C42.9718 23.1804 42.8265 23.3535 42.6553 23.28C42.5664 23.2419 42.4856 23.1928 42.4077 23.1401C42.5105 23.5682 42.7611 23.9738 42.9788 24.3573C43.2853 24.8975 43.5664 25.45 43.8574 25.9969C43.9113 26.0983 43.819 26.2612 43.6727 26.2103C42.9349 25.953 42.3862 25.3455 41.9204 24.7704C42.1516 25.1326 42.3887 25.4921 42.6283 25.8485C43.5499 27.2176 44.5503 28.5858 46.023 29.5391C47.3964 30.4282 49.0867 30.9311 50.7871 30.9533C52.6636 30.9772 54.4329 30.3577 56.1402 29.737C57.0178 29.4177 57.8979 29.0799 58.8105 28.8461C59.3217 28.7151 59.8409 28.6659 60.3356 28.8709C60.757 29.0454 61.0994 29.3438 61.4304 29.6258C61.5173 29.7002 61.7709 29.7591 61.715 29.5754C61.6331 29.3066 61.5103 29.056 61.3545 28.8222C61.6146 29.0113 61.8443 29.2313 62.035 29.4873C62.0829 29.5515 62.3959 29.7011 62.3679 29.5191C62.1323 27.9632 61.395 26.4888 60.2717 25.2756Z" fill="#95766D"/>
<path d="M42.6189 25.3203C41.6918 23.9167 40.8302 22.4635 40.3794 20.8788C41.8711 21.7387 43.6203 22.1261 45.3816 22.2754C49.0588 22.5866 52.9627 21.8193 56.4872 23.0746C59.2584 24.0615 61.3331 26.3445 61.8972 28.9351C61.5682 28.6225 61.1818 28.3617 60.7445 28.1678C60.5159 28.066 60.5408 28.3077 60.6492 28.4069C60.8663 28.6057 61.0326 28.8311 61.1609 29.0755C60.5933 28.6509 59.9538 28.3201 59.166 28.4011C58.6588 28.4534 58.1676 28.6177 57.6903 28.7713C57.2051 28.9276 56.7258 29.099 56.2481 29.2721C54.5422 29.8911 52.7965 30.5645 50.9254 30.6119C49.1681 30.6566 47.4054 30.1572 46.0051 29.215C44.5144 28.2125 43.5484 26.7275 42.6189 25.3203Z" fill="#F7F0EA"/>
<path d="M54.7229 22.6105C55.319 22.7212 55.9085 22.8687 56.4866 23.0746C57.3238 23.3726 58.0956 23.7905 58.7835 24.298C57.5165 23.5842 56.1462 23.0033 54.7229 22.6105Z" fill="#E4DFDA"/>
<path d="M45.3811 22.2753C45.8653 22.3161 46.353 22.3378 46.8438 22.3484C46.6636 22.4197 46.4883 22.4994 46.3251 22.5981C46.1868 22.6818 46.1603 22.8788 46.3251 22.9572C47.2282 23.3872 48.2446 23.5364 49.257 23.5944C50.2195 23.6493 51.185 23.6236 52.1485 23.6572C53.073 23.69 53.9696 23.8127 54.8542 24.0571C56.3679 24.4759 57.6878 25.2375 58.6673 26.3236C57.537 26.0389 56.4018 25.7803 55.2112 25.8826C54.9905 25.9017 54.8782 26.1589 55.0929 26.2705C55.5981 26.5335 56.1447 26.7257 56.6724 26.9493C55.4718 26.8749 54.2766 26.7297 53.074 26.9028C52.8539 26.9347 52.8753 27.191 53.0181 27.2831C53.5573 27.6303 54.1838 27.8353 54.7928 28.0673C53.4679 28.5526 52.0022 28.7824 50.5759 28.6668C49.7957 28.6035 48.8986 28.503 48.1967 28.1762C47.5586 27.8791 47.03 27.3912 46.2991 27.2707C46.1858 27.2521 46.032 27.2986 46.0106 27.416C45.9022 28.0071 46.2148 28.5769 46.5537 29.0688C46.7419 29.3425 46.9516 29.6028 47.1698 29.8579C46.7619 29.6741 46.371 29.4602 46.0056 29.2145C44.5149 28.2121 43.5494 26.727 42.6194 25.3199C41.6923 23.9163 40.8307 22.4631 40.3799 20.8784C41.8706 21.7387 43.6198 22.1266 45.3811 22.2753Z" fill="#E4DFDA"/>
<path d="M42.3948 22.6353C43.4616 23.2658 44.5769 23.8379 45.8619 24.015C47.1568 24.1934 48.4942 24.0615 49.7957 24.0141C52.1236 23.9291 54.5373 23.9548 56.7019 24.8049C57.3669 25.1676 57.9949 25.5993 58.5106 26.1151C57.1552 25.0613 55.3186 24.5517 53.5368 24.3936C52.2459 24.2789 50.9454 24.3152 49.6514 24.3661C48.4094 24.4153 47.1453 24.5162 45.9103 24.3378C45.6831 24.305 45.4625 24.2563 45.2443 24.2014C45.8539 25.864 47.1159 27.2969 48.7583 28.2453C48.337 28.0832 47.9351 27.8849 47.5677 27.6245C47.1618 27.3371 46.7949 27.0121 46.4325 26.6832C45.7495 25.9181 45.2079 25.0533 44.8654 24.1168C44.8624 24.1089 44.8649 24.1031 44.8634 24.096C43.9493 23.8118 43.1062 23.3619 42.2984 22.8842C42.0977 22.7664 42.1342 22.4817 42.3948 22.6353Z" fill="#95766D"/>
<mask id="mask0_36_3687" style="mask-type:luminance" maskUnits="userSpaceOnUse" x="19" y="25" width="6" height="8">
<path d="M24.0239 28.6885C23.9281 29.1583 23.7758 29.6232 23.6036 30.0726C23.3759 30.6668 23.1573 31.3031 22.7329 31.814C22.3381 32.2896 21.6746 32.6628 20.9867 32.4968C19.7087 32.1882 19.792 30.4702 19.8719 29.5687C19.9283 28.9351 20.0771 28.3086 20.3082 27.7073C20.5289 27.133 20.8174 26.5127 21.2722 26.0504C21.7744 25.5399 22.6556 25.295 23.2786 25.7901C23.2961 25.8038 23.31 25.8202 23.327 25.8343C23.7803 26.1226 24.0549 26.6353 24.1392 27.1233C24.2281 27.6431 24.1847 28.1806 24.0239 28.6885Z" fill="white"/>
</mask>
<g mask="url(#mask0_36_3687)">
<path d="M25.9474 29.7737C25.9474 31.168 24.6734 32.298 23.1024 32.298C21.5313 32.298 20.2573 31.168 20.2573 29.7737C20.2573 28.3812 21.5308 27.2512 23.1024 27.2512C24.6734 27.2508 25.9474 28.3812 25.9474 29.7737Z" fill="#885A54"/>
<path d="M24.9784 29.7737C24.9784 30.6934 24.1392 31.4377 23.1029 31.4377C22.0675 31.4377 21.2273 30.6934 21.2273 29.7737C21.2273 28.855 22.068 28.1107 23.1029 28.1107C24.1392 28.1107 24.9784 28.855 24.9784 29.7737Z" fill="#3A0000"/>
<path d="M22.5282 28.8957C22.5282 29.2393 22.2152 29.5169 21.8278 29.5169C21.4414 29.5169 21.1284 29.2393 21.1284 28.8957C21.1284 28.5525 21.4414 28.2754 21.8278 28.2754C22.2152 28.2749 22.5282 28.5521 22.5282 28.8957Z" fill="white"/>
</g>
<mask id="mask1_36_3687" style="mask-type:luminance" maskUnits="userSpaceOnUse" x="29" y="24" width="8" height="10">
<path d="M30.373 32.4397C29.2368 31.0184 29.2967 29.1268 29.8364 27.5222C30.1329 26.6393 30.6471 25.7755 31.5377 25.2592C32.4498 24.7305 33.6035 24.7522 34.526 25.2468C34.5625 25.2663 34.6084 25.2623 34.6538 25.2446C36.0761 25.9167 36.5593 27.7777 36.6128 29.0724C36.6472 29.8986 36.5349 30.7385 36.2628 31.5302C36.0951 32.0181 35.848 32.5101 35.488 32.9174C34.5135 33.0476 33.5765 33.358 32.7358 33.8202C31.8043 33.6555 30.9242 33.1286 30.373 32.4397Z" fill="white"/>
</mask>
<g mask="url(#mask1_36_3687)">
<path d="M37.1953 29.7737C37.1953 31.168 35.9213 32.298 34.3503 32.298C32.7793 32.298 31.5052 31.168 31.5052 29.7737C31.5052 28.3812 32.7788 27.2512 34.3503 27.2512C35.9208 27.2508 37.1953 28.3812 37.1953 29.7737Z" fill="#885A54"/>
<path d="M36.2259 29.7737C36.2259 30.6934 35.3867 31.4377 34.3503 31.4377C33.3149 31.4377 32.4747 30.6934 32.4747 29.7737C32.4747 28.855 33.3154 28.1107 34.3503 28.1107C35.3867 28.1107 36.2259 28.855 36.2259 29.7737Z" fill="#3A0000"/>
<path d="M33.7757 28.8957C33.7757 29.2393 33.4627 29.5169 33.0753 29.5169C32.6889 29.5169 32.3759 29.2393 32.3759 28.8957C32.3759 28.5525 32.6889 28.2754 33.0753 28.2754C33.4627 28.2749 33.7757 28.5521 33.7757 28.8957Z" fill="white"/>
</g>
</svg>