<svg xmlns="http://www.w3.org/2000/svg" width="81" height="84" viewBox="0 0 81 84" fill="none">
<path d="M40.6028 83.2922C62.8968 83.2922 80.9696 64.8514 80.9696 42.1035C80.9696 19.3556 62.8968 0.914795 40.6028 0.914795C18.3089 0.914795 0.236084 19.3556 0.236084 42.1035C0.236084 64.8514 18.3089 83.2922 40.6028 83.2922Z" fill="#FF4462"/>
<path d="M41.6347 35.8553C44.8015 32.624 44.8015 27.385 41.6347 24.1537C38.4678 20.9224 33.3334 20.9224 30.1666 24.1537C26.9998 27.385 26.9998 32.624 30.1666 35.8553C33.3334 39.0866 38.4678 39.0866 41.6347 35.8553Z" fill="#48D1CD"/>
<path d="M43.6707 32.0291C47.8178 30.3035 49.8089 25.4743 48.1177 21.2426C46.4266 17.011 41.6938 14.9794 37.5466 16.705C33.3994 18.4305 31.4083 23.2598 33.0995 27.4914C34.7906 31.723 39.5235 33.7546 43.6707 32.0291Z" fill="white"/>
<path d="M53.3158 31.3157C54.0283 26.8039 51.0214 22.5571 46.5997 21.83C42.178 21.1029 38.0158 24.1711 37.3033 28.6828C36.5908 33.1946 39.5976 37.4415 44.0194 38.1685C48.4411 38.8956 52.6032 35.8275 53.3158 31.3157Z" fill="#8B311B"/>
<path d="M52.8374 34.3621C52.7336 34.2215 52.566 34.1385 52.387 34.1385H28.818C28.639 34.1385 28.4714 34.2219 28.3676 34.3621C28.2641 34.5026 28.2368 34.6827 28.2954 34.8458L40.0798 67.7598C40.1568 67.9747 40.3668 68.1191 40.6025 68.1191C40.8382 68.1191 41.0482 67.9747 41.1252 67.7598L52.9096 34.8458C52.9682 34.6827 52.9413 34.5023 52.8374 34.3621Z" fill="#FED495"/>
<path d="M52.3873 34.1381H28.8184C28.6394 34.1381 28.4718 34.2215 28.3679 34.3617C28.2644 34.5023 28.2372 34.6823 28.2957 34.8454L31.8516 44.7764C33.785 45.0249 35.6867 45.0155 37.1936 44.4889C41.888 42.8495 42.5867 47.8943 47.9357 48.7388L52.91 34.8454C52.9686 34.6823 52.9413 34.5023 52.8378 34.3617C52.7336 34.2215 52.566 34.1381 52.3873 34.1381Z" fill="white"/>
<path d="M47.9357 49.1361C47.918 49.1361 47.8999 49.1346 47.8823 49.132C45.3997 48.74 43.8906 47.4866 42.5591 46.3805C41.3837 45.4041 40.3686 44.5607 38.9336 44.5607C38.429 44.5607 37.8971 44.6611 37.307 44.867C35.9063 45.3564 34.0476 45.4586 31.8082 45.1711C31.6726 45.1538 31.557 45.0572 31.508 44.9196L27.9521 34.9882C27.8468 34.6928 27.8943 34.3662 28.0799 34.1144C28.2527 33.8803 28.5289 33.7408 28.8184 33.7408H52.3873C52.6772 33.7408 52.9531 33.8807 53.1258 34.1144C53.3119 34.3662 53.3594 34.6928 53.254 34.9882L48.2797 48.882C48.2241 49.0369 48.0859 49.1361 47.9357 49.1361ZM38.9332 43.7666C40.6191 43.7666 41.7801 44.7306 43.0088 45.7514C44.2148 46.7529 45.575 47.8827 47.6992 48.295L52.566 34.7022C52.58 34.6631 52.5645 34.6297 52.549 34.6087C52.5155 34.5632 52.4536 34.535 52.3873 34.535H28.818C28.7521 34.535 28.6899 34.5632 28.6564 34.609C28.6409 34.6297 28.6254 34.6631 28.6394 34.7026L32.115 44.4093C34.1482 44.6494 35.8285 44.5479 37.0794 44.1112C37.7439 43.8793 38.3501 43.7666 38.9332 43.7666Z" fill="white"/>
</svg>