<svg xmlns="http://www.w3.org/2000/svg" width="86" height="94" viewBox="0 0 86 94" fill="none">
<path fill-rule="evenodd" clip-rule="evenodd" d="M50.1568 89.5511C44.0607 89.7977 37.9893 89.4689 31.9409 88.7165C29.8076 88.4508 27.8131 87.687 25.9448 86.6651C24.2977 85.7647 23.5786 84.2636 23.5967 82.4185C23.6162 80.4472 24.0714 78.538 24.4763 76.6225C26.6779 66.2149 29.4135 55.9415 32.3123 45.7043C33.7098 40.7674 34.8111 35.75 35.6934 30.6906C36.2731 27.3679 36.196 24.0452 35.5097 20.776C35.0151 18.4272 34.0107 16.2237 32.5871 14.2382C31.3135 12.4625 30.1141 10.6361 28.7519 8.92007C27.6049 7.47555 26.9224 5.80092 26.5185 4.01037C26.4198 3.57188 26.3878 3.13338 26.4014 2.69075C26.4442 1.32593 27.2973 0.384768 28.6696 0.264363C30.0189 0.146028 31.3508 0.32577 32.6666 0.632475C35.2111 1.22588 37.6684 2.11425 40.1853 2.79942C44.6724 4.02038 49.2166 4.80698 53.8902 4.49648C55.5645 4.38539 57.2253 4.10076 58.8965 3.93689C60.9091 3.73955 62.92 3.71402 64.9173 4.12215C68.3664 4.82699 69.4953 7.51178 68.8753 10.4391C68.4906 12.2559 67.8478 13.9833 67.0088 15.64C66.6101 16.4266 66.4574 17.2408 66.6304 18.1085C66.7925 18.9202 66.804 18.9382 67.6288 18.9782C70.0216 19.0948 72.3725 19.4636 74.6976 20.0387C77.7537 20.7943 80.2909 22.2636 81.9642 24.9891C83.0663 26.7852 83.6846 28.7648 83.9978 30.8145C84.6796 35.2691 85.3105 39.7293 85.3666 44.2526C85.3963 46.651 85.5989 49.0474 85.7272 51.4448C85.8388 53.5189 85.7321 55.5803 85.3418 57.6223C85.1887 58.4241 84.9589 59.2014 84.4637 59.8769C83.1803 61.6257 80.3097 61.4363 79.3071 59.5126C78.4715 57.9104 78.1879 56.1523 77.9944 54.3883C77.572 50.5336 77.1957 46.6741 76.9314 42.8049C76.8097 41.0189 76.2677 39.3263 75.7641 37.6292C75.3341 36.1792 74.811 34.7564 74.3276 33.3223C74.0967 32.6371 73.6929 32.0741 73.1126 31.6342C70.8719 29.9364 68.3413 29.4686 65.6043 29.924C64.7053 30.0734 64.7074 30.0993 64.7168 30.9735C64.7356 32.4943 64.9832 33.9933 65.2636 35.4785C66.4542 41.792 67.9141 48.0327 69.7447 54.2092C71.5568 60.3258 73.394 66.4599 74.3792 72.7899C74.4978 73.5534 74.6579 74.3231 74.9121 75.0514C75.4196 76.5031 75.5273 78.0063 75.6766 79.514C75.9671 82.4316 73.8205 86.3094 70.2479 87.302C68.2629 87.8536 66.2527 88.2145 64.2222 88.5143C59.5584 89.2036 54.8562 89.3492 50.1568 89.5511Z" fill="black"/>
<path fill-rule="evenodd" clip-rule="evenodd" d="M33.5605 48.3639C33.8901 46.5468 34.5059 44.8001 34.9105 43.0012C35.4207 40.7329 35.939 38.4659 36.4583 36.1996C36.6644 35.2991 36.6741 35.2884 37.4822 35.6003C38.1908 35.8742 38.9288 35.9432 39.6769 35.9622C43.112 36.0478 46.5368 35.838 49.9612 35.6037C50.6677 35.5558 51.3767 35.532 52.0847 35.5002C55.658 35.3381 59.2456 35.4399 62.8021 34.9717C63.3559 34.8993 63.3057 35.2622 63.3661 35.5699C63.7127 37.3443 64.0608 39.1183 64.3973 40.8943C65.3815 46.0873 66.8386 51.1581 68.4065 56.2016C68.6681 57.0427 68.9248 57.8959 69.0099 58.7822C69.2184 59.0572 68.9548 59.4436 69.232 59.7027L69.2289 59.6934C69.3056 62.6728 69.5131 65.6567 69.0692 68.6247C68.8383 70.1648 68.448 71.6697 67.7408 73.0718C66.2153 76.0974 63.7724 77.2311 60.4313 76.4849C59.5912 76.2975 58.7678 76.0433 57.9716 75.7297C56.873 75.297 55.7797 75.2542 54.694 75.6786C51.7788 76.8178 48.683 77.1397 45.6321 77.6489C43.8978 77.9387 42.1216 77.8359 40.3765 77.7213C38.5947 77.6047 36.8084 77.4616 35.0381 77.1431C32.9592 76.7698 31.6214 75.5917 30.8399 73.7214C29.7898 71.2088 29.6998 68.5606 30.2927 65.9896C31.499 60.7625 31.9207 55.4036 33.1671 50.1903C33.3122 49.5838 33.4503 48.9777 33.5605 48.3639Z" fill="#FF9B3C"/>
<path fill-rule="evenodd" clip-rule="evenodd" d="M37.373 31.8363C37.4853 30.8559 37.5725 29.9823 37.688 29.1126C38.1026 25.9941 37.8414 22.8939 37.101 19.8724C36.5399 17.583 35.5801 15.3974 34.1666 13.451C32.8396 11.6221 31.6389 9.70632 30.1891 7.96166C29.2792 6.86732 28.6787 5.59116 28.317 4.2153C28.2232 3.85926 28.1312 3.49667 28.0984 3.13166C28.023 2.27364 28.2877 1.94831 29.1485 1.93485C30.0437 1.92071 30.9372 2.01558 31.8171 2.20119C34.4491 2.75526 36.9727 3.68159 39.5555 4.40471C44.1444 5.68914 48.8065 6.47057 53.5847 6.24045C55.7054 6.13833 57.8108 5.75366 59.9298 5.57771C61.5672 5.44143 63.2133 5.46317 64.8301 5.84819C66.6659 6.28599 67.6341 7.52972 67.4722 9.39099C67.3701 10.5661 67.112 11.7239 66.5648 12.7944C66.0417 13.8187 65.6779 14.9037 65.3156 15.9902C65.1143 16.5949 65.0233 17.2187 65.0181 17.8442C64.9902 20.6828 65.522 20.7291 67.7003 20.905C70.0122 21.0913 72.2878 21.4425 74.5411 22.0025C78.0746 22.8801 80.3348 25.0112 81.4453 28.4298C82.1016 30.4501 82.3346 32.5357 82.6478 34.6157C83.4708 40.0743 83.4589 45.5877 83.7801 51.0791C83.8921 52.9966 83.9078 54.9206 83.5514 56.8247C83.4492 57.3691 83.3585 57.918 83.1203 58.4252C82.9233 58.8454 82.6561 59.2204 82.1232 59.1676C81.6043 59.1165 81.107 59.0292 80.8604 58.4324C80.4035 57.3277 80.1319 56.1761 79.9913 55.0055C79.4996 50.8979 79.0933 46.7814 78.8321 42.6521C78.7142 40.7925 78.1489 39.0255 77.6401 37.2532C77.1724 35.6224 76.6318 34.0095 75.9992 32.4294C75.8035 31.9426 75.5971 31.4575 75.2253 31.0929C73.5182 29.4131 71.5495 28.1907 69.0845 28.0179C67.5999 27.9137 66.1044 27.8147 64.6306 28.2166C63.0993 28.6341 62.798 28.9873 62.7955 30.5222C62.7945 31.3216 62.7906 31.3433 62.0178 31.2005C60.4177 30.9048 58.8062 31.0263 57.2145 31.157C54.4196 31.3872 51.6184 31.4558 48.8225 31.4734C45.0522 31.4982 41.2909 31.6597 37.373 31.8363Z" fill="#F3FDFF"/>
<path fill-rule="evenodd" clip-rule="evenodd" d="M33.5605 48.3639C33.5605 50.1369 33.1754 51.8608 32.833 53.5841C32.3897 55.8149 31.996 58.0491 31.7658 60.3127C31.6695 61.258 31.491 62.2022 31.2622 63.1254C30.8454 64.8028 30.5406 66.4781 30.3767 68.2121C30.1982 70.111 30.4936 71.8702 31.1391 73.5886C31.8167 75.393 33.1029 76.4983 35.1379 76.8181C37.7887 77.2349 40.4406 77.4188 43.1183 77.4657C44.7714 77.4943 46.376 77.2415 47.982 76.9475C48.8193 76.7943 49.648 76.6132 50.5024 76.5397C51.0492 76.4932 51.5867 76.3051 52.122 76.1568C52.5517 76.0378 52.9722 75.8856 53.3963 75.7452C56.2201 74.8109 56.2362 74.7671 58.9798 75.7428C60.4184 76.2544 61.8741 76.4535 63.3674 76.3241C64.7973 76.2006 65.8411 75.3205 66.6593 74.2465C67.9476 72.5564 68.4173 70.5419 68.771 68.496C69.1762 66.1511 68.9282 63.7882 68.9854 61.4339C69.0001 60.8391 69.0249 60.2568 69.2296 59.6937C70.2734 62.9992 71.3081 66.3053 71.894 69.7329C72.2801 71.9871 72.6923 74.2386 73.3919 76.4276C73.8013 77.7096 73.8659 79.0569 73.8223 80.3754C73.7588 82.3181 72.2815 84.7835 69.8601 85.5332C67.9988 86.1093 66.0964 86.4512 64.1758 86.7172C57.5458 87.6349 50.8703 87.912 44.1904 87.8074C39.907 87.7405 35.6076 87.5735 31.3735 86.7869C29.8233 86.4992 28.3756 85.8989 26.9792 85.1851C25.9127 84.6396 25.4342 83.7316 25.4206 82.5631C25.407 81.3753 25.572 80.2033 25.8172 79.0479C27.9798 68.8642 30.3914 58.7408 33.3725 48.7565C33.4133 48.6196 33.4973 48.4947 33.5605 48.3639Z" fill="#E58C36"/>
<path fill-rule="evenodd" clip-rule="evenodd" d="M37.2475 33.6504C37.8303 33.3523 38.3562 33.3613 38.8744 33.3343C42.5248 33.1456 46.1776 33.088 49.8321 33.0207C53.1477 32.9593 56.4643 32.8179 59.7712 32.5367C60.6385 32.4632 61.4783 32.6709 62.3348 32.6775C62.4876 32.6788 62.625 32.744 62.6536 32.9214C62.6871 33.1339 62.58 33.2671 62.3934 33.353C62.0813 33.4975 61.7461 33.5224 61.4106 33.5369C59.3631 33.6252 57.316 33.729 55.2674 33.7901C51.7653 33.8946 48.2704 34.1299 44.7739 34.3466C42.9115 34.4615 41.045 34.4373 39.182 34.3662C38.5208 34.3411 37.8568 34.2169 37.2475 33.6504Z" fill="#D16901"/>
<path fill-rule="evenodd" clip-rule="evenodd" d="M69.2324 59.703C68.8788 59.4622 68.9998 59.1096 69.0103 58.7826C69.2335 59.0541 69.2523 59.3739 69.2324 59.703Z" fill="#E58C36"/>
<path fill-rule="evenodd" clip-rule="evenodd" d="M82.0518 57.9394C81.4837 57.7107 81.402 57.3446 81.2734 57.0024C80.7907 55.7073 80.5406 54.3669 80.5853 52.9911C80.6446 51.1453 80.7108 49.293 80.4234 47.469C79.7744 43.3576 79.6168 39.1645 78.3589 35.1528C77.788 33.333 76.7783 31.7649 75.6662 30.2204C74.1585 28.1273 72.0772 27.2403 69.615 26.8901C67.6421 26.6096 65.6905 26.4067 63.7424 27.0039C63.6036 27.0467 63.4453 27.0595 63.3009 27.044C62.8377 26.9939 62.6763 26.6396 62.9448 26.2567C63.236 25.8409 63.6569 25.6267 64.1532 25.5263C65.2922 25.2969 66.4292 25.1955 67.5975 25.3055C69.3506 25.4704 71.064 25.7895 72.7346 26.3395C73.8547 26.7083 74.8023 27.3307 75.6313 28.1611C78.0317 30.5668 79.4867 33.4354 80.225 36.735C80.8643 39.5923 81.1227 42.4889 81.4885 45.378C81.8286 48.0624 81.8603 50.743 81.5987 53.4365C81.4767 54.6871 81.5035 55.9456 81.9297 57.1614C82.0008 57.3615 81.9995 57.5858 82.0518 57.9394Z" fill="#010101"/>
<path fill-rule="evenodd" clip-rule="evenodd" d="M66.2042 7.64875C62.4457 7.65496 58.8138 8.36358 55.2356 9.41135C53.3349 9.96749 51.3802 9.85778 49.4541 9.70287C47.4868 9.54521 45.5268 9.23471 43.5822 8.88971C42.4508 8.68892 41.3303 8.35737 40.2495 7.96338C38.8535 7.45347 37.4435 6.98393 36.0802 6.37087C34.2193 5.5339 32.2858 4.85356 30.3823 4.11008C29.9328 3.93482 29.4494 3.81821 29.1282 3.42388C28.9556 3.2117 28.8712 2.97055 29.0616 2.71559C29.2346 2.48375 29.4362 2.56276 29.6559 2.64659C32.3283 3.66641 35.021 4.63621 37.7033 5.62808C40.5233 6.67136 43.397 7.59838 46.4478 7.85092C48.3806 8.011 50.2984 8.28458 52.2493 8.23697C53.4183 8.20799 54.5563 8.09725 55.666 7.73948C58.178 6.92942 60.7811 6.74933 63.3943 6.65239C64.2139 6.62203 65.0407 6.64514 65.7749 7.10606C65.9935 7.24337 66.2443 7.3486 66.2042 7.64875Z" fill="#010101"/>
<path fill-rule="evenodd" clip-rule="evenodd" d="M61.7663 27.1295C62.0463 27.1937 62.2497 27.3738 62.2396 27.6543C62.228 27.9827 62.0076 28.2194 61.6596 28.1745C61.3363 28.1324 61.1162 27.9075 61.1933 27.5539C61.2543 27.2803 61.4591 27.1247 61.7663 27.1295Z" fill="#393B3C"/>
<path fill-rule="evenodd" clip-rule="evenodd" d="M22.7036 61.9027C22.4078 67.7087 22.3851 74.8723 22.4988 82.038C22.5201 83.3304 22.5142 84.6244 22.4765 85.9161C22.4437 87.0043 21.8275 87.666 20.7558 87.7098C17.3304 87.8495 13.9035 88.0051 10.475 88.0499C7.97724 88.0824 5.47321 88.1679 2.9786 87.9047C2.64659 87.8699 2.31633 87.8661 1.99687 87.7215C1.47375 87.4841 1.14418 87.1402 1.15464 86.5409C1.21846 83.0719 0.739977 79.6123 1.04269 76.1347C1.18289 74.5204 1.10024 72.8865 1.10547 71.2619C1.13685 62.0656 1.46886 52.871 1.30844 43.6729C1.23346 39.3525 1.16894 35.0317 1.10686 30.7113C1.09884 30.1579 1.11662 29.6028 1.15778 29.0508C1.25717 27.707 1.73845 27.2316 3.12124 27.1371C4.31222 27.0557 5.50704 27.0201 6.69907 26.9504C10.053 26.7538 13.4073 26.5747 16.7577 26.3377C18.1478 26.2394 19.5184 26.3998 20.8928 26.4944C21.8568 26.5606 22.5295 27.2799 22.6767 28.3356C22.7723 29.027 22.7377 29.7353 22.7726 30.4353C22.9111 33.2008 23.0314 35.9677 23.2019 38.7315C23.4059 42.02 23.2096 45.3048 23.1479 48.5895C23.0729 52.5764 22.888 56.5621 22.7036 61.9027Z" fill="black"/>
<path fill-rule="evenodd" clip-rule="evenodd" d="M3.14741 57.2045C3.13625 54.252 3.12614 51.2995 3.11393 48.3473C3.1087 47.0177 3.09684 45.6888 3.09405 44.3591C3.09335 43.9993 3.03965 43.6309 3.15962 43.2976C5.15865 43.1751 7.06352 43.5725 8.98967 43.6688C12.7956 43.8592 16.6004 43.7737 20.4053 43.6133C21.3881 43.5719 21.4108 43.5767 21.386 44.543C21.3068 47.6053 21.4341 50.6733 21.1049 53.7276C20.9476 53.9194 20.9898 54.1482 20.9936 54.3648C21.0533 57.8818 20.5445 61.3318 19.7943 64.759C19.3514 66.7824 19.0947 68.8324 19.191 70.9128C19.298 73.208 18.5534 75.2756 17.4095 77.2228C16.6175 78.5707 15.0544 79.2135 13.2179 78.7729C11.7943 78.431 10.4408 78.4334 9.0242 78.7519C7.30033 79.1393 6.20769 78.5373 5.23782 76.9113C4.06881 74.951 3.65833 72.7551 3.39293 70.5667C2.85481 66.1293 3.02814 61.6626 3.14741 57.2045Z" fill="#FF9B3C"/>
<path fill-rule="evenodd" clip-rule="evenodd" d="M3.14738 57.2045C3.15854 59.5678 3.20248 61.9307 3.17248 64.2933C3.13587 67.2506 3.60249 70.142 4.17723 73.0286C4.43147 74.3065 4.83846 75.5147 5.45784 76.6605C5.6528 77.0217 5.89587 77.3363 6.16057 77.651C6.92782 78.5628 7.89247 78.7605 8.98301 78.4507C10.3773 78.0543 11.7088 78.1274 13.1464 78.4303C15.068 78.8353 16.5788 78.4786 17.4761 76.52C18.355 74.6029 18.9838 72.6881 18.8683 70.5685C18.725 67.9309 19.4134 65.4 19.8434 62.8301C20.2961 60.1229 21.0801 57.4484 20.89 54.6564C20.8681 54.3386 20.7934 53.9815 21.1052 53.7273C21.2074 55.6862 21.009 57.6368 20.9291 59.5902C20.5898 67.8957 20.5891 76.204 20.6661 84.5137C20.6787 85.8554 20.6651 85.8319 19.3144 85.8706C17.0433 85.9348 14.7733 86.0524 12.5015 86.11C9.66621 86.1814 6.82948 86.1835 3.99379 86.1062C2.92487 86.0769 2.92243 86.0648 2.78886 84.9867C2.60716 83.5153 2.60751 82.0331 2.6532 80.5607C2.87919 73.1773 2.88756 65.7905 3.02392 58.4062C3.03159 58.0039 2.96951 57.5909 3.14738 57.2045Z" fill="#E58C36"/>
<path fill-rule="evenodd" clip-rule="evenodd" d="M20.9221 31.1467C21.1453 33.8691 21.3622 36.5401 21.35 39.1776C21.222 39.4001 21.0543 39.347 20.9284 39.3115C18.8809 38.7356 16.7814 38.8264 14.6966 38.8874C12.2682 38.9585 9.84337 38.8423 7.41711 38.863C6.14801 38.8733 4.87717 38.7902 3.61155 38.9133C3.20072 38.9537 2.98764 38.9006 2.9845 38.4279C2.97369 36.3593 2.95102 34.2907 2.90498 32.2231C2.89348 31.697 3.19305 31.7477 3.54669 31.7522C5.74939 31.7798 7.95279 31.7666 10.1545 31.8229C12.0656 31.8719 13.9593 31.6814 15.8544 31.5058C17.5183 31.3516 19.1951 31.4172 20.9221 31.1467Z" fill="#F3FDFF"/>
<path fill-rule="evenodd" clip-rule="evenodd" d="M3.1122 28.9245C4.22925 28.8624 5.30654 28.8065 6.38313 28.7424C9.84796 28.535 13.3131 28.3432 16.7748 28.1052C17.9407 28.0251 19.085 28.198 20.24 28.228C20.6313 28.2383 20.8768 28.3912 20.9019 28.809C20.9298 29.282 20.5975 29.3341 20.248 29.3765C20.0632 29.3989 19.8787 29.4489 19.6939 29.452C15.0712 29.5266 10.4666 30.2245 5.82966 29.8391C5.19912 29.787 4.56021 29.806 3.92723 29.8298C3.35319 29.8512 3.0979 29.598 3.1122 28.9245Z" fill="#F0FAFB"/>
<path fill-rule="evenodd" clip-rule="evenodd" d="M13.7734 41.9818C11.7489 41.851 9.09392 42.0856 6.45737 41.6526C5.69884 41.5281 4.89566 41.6868 4.11446 41.6723C3.77513 41.6661 3.2398 41.7886 3.21678 41.2811C3.19376 40.7687 3.72979 40.8709 4.07436 40.8108C4.88869 40.668 5.71069 40.6946 6.532 40.7139C8.20983 40.7532 9.88837 40.767 11.5645 40.8439C13.2489 40.9219 14.9191 40.6908 16.6001 40.698C17.8357 40.7035 19.0619 40.7684 20.2815 40.9537C20.5755 40.9982 20.8698 41.062 21.1509 41.1551C21.2873 41.2003 21.3874 41.3539 21.3316 41.5095C21.3009 41.5943 21.1928 41.692 21.1042 41.7085C20.8862 41.7496 20.6602 41.7544 20.4367 41.7623C18.4216 41.83 16.4069 41.8952 13.7734 41.9818Z" fill="#CF6701"/>
<path fill-rule="evenodd" clip-rule="evenodd" d="M18.2988 58.1102C12.2581 58.8364 7.45757 56.5218 3.48286 52.1893C3.35766 52.053 3.2342 51.9109 3.13411 51.7566C2.6762 51.0553 2.75921 50.5271 3.43369 50.0348C3.9753 49.6397 4.57131 49.3285 5.19034 49.0667C9.3729 47.2979 13.6402 47.0626 17.9846 48.4057C19.6568 48.9228 21.3263 49.4558 22.8503 50.3504C23.1091 50.0668 22.9051 49.8416 22.8493 49.6208C22.7053 49.0484 22.5204 48.4847 22.3952 47.9085C22.0974 46.5351 22.2927 46.2394 23.6511 45.862C24.1177 45.7323 24.5679 45.5415 25.0381 45.4304C25.9595 45.213 26.3863 45.4928 26.4878 46.425C26.6148 47.6015 26.7619 48.7714 27.057 49.9199C27.1379 50.2355 27.1626 50.5705 27.48 50.9159C28.6654 50.161 30.0147 49.7591 31.3961 49.4341C34.8027 48.633 38.232 48.5954 41.5845 49.5304C45.0141 50.4867 47.7985 52.4059 49.8656 55.3995C51.497 57.7634 52.9102 60.2012 53.9383 62.8719C54.355 63.9541 54.5779 65.0719 54.7237 66.2056C55.1348 69.3948 55.5275 72.5874 55.0958 75.8083C54.8405 77.7158 54.4579 79.6019 53.7604 81.3991C53.0723 83.1744 52.0254 84.7783 50.6844 86.1169C47.0403 89.7525 42.6876 92.0941 37.5355 92.9638C34.2011 93.5272 30.94 93.4658 27.6858 92.4911C25.5151 91.8415 23.7512 90.586 22.0876 89.1395C18.4237 85.9537 16.5659 81.7758 15.4495 77.2097C14.7151 74.2055 14.4343 71.1519 14.9494 68.0865C15.5371 64.5924 16.6771 61.2911 18.8198 58.3931C18.8547 57.9225 18.5844 58.0018 18.2988 58.1102Z" fill="black"/>
<path fill-rule="evenodd" clip-rule="evenodd" d="M18.2988 58.1102C18.4212 58.0505 18.5381 57.9739 18.6671 57.9353C18.7982 57.8959 18.989 57.8797 19.0427 58.0074C19.1132 58.1764 19.0295 58.3406 18.8192 58.3931C18.7484 58.1143 18.4725 58.2044 18.2988 58.1102Z" fill="#808586"/>
<path fill-rule="evenodd" clip-rule="evenodd" d="M16.9453 67.6066C17.6707 63.5725 19.3901 60.048 22.3834 57.1669C23.6378 55.9598 24.7775 54.6364 26.2765 53.6886C28.5353 52.2603 30.9225 51.2561 33.6243 50.9414C35.684 50.702 37.7054 50.7261 39.7445 51.039C41.5102 51.3099 43.0799 52.0806 44.634 52.871C46.2804 53.708 47.2639 55.2298 48.3653 56.626C50.0365 58.7432 51.2093 61.1158 52.1569 63.6129C52.4066 64.2715 52.6197 64.9367 52.6245 65.6491C53.2404 69.3278 50.4769 76.4041 45.426 77.7134C44.845 77.8642 44.2598 77.9832 43.67 78.0543C42.1261 78.2402 40.6526 78.6767 39.3361 79.4671C36.3414 81.2655 33.0604 81.261 29.7741 80.9581C27.6704 80.7639 25.6299 80.2857 23.6643 79.3046C21.0316 77.9901 19.7318 75.67 18.3107 73.3823C17.9396 72.7854 17.7237 72.1048 17.4147 71.4755C16.8027 70.2297 16.6848 68.9456 16.9453 67.6066Z" fill="#F58111"/>
<path fill-rule="evenodd" clip-rule="evenodd" d="M16.9453 67.6066C16.84 70.0806 17.8984 72.1789 19.1567 74.2003C19.7601 75.1694 20.4203 76.1037 21.0933 77.0296C21.4599 77.5344 21.9038 77.888 22.3966 78.2016C24.4218 79.4895 26.5956 80.2985 29.0267 80.5786C30.9291 80.7977 32.818 80.7574 34.7075 80.7208C35.9302 80.6973 37.0982 80.2233 38.2037 79.6734C39.5987 78.9789 40.9745 78.2178 42.524 77.9197C43.5755 77.7176 44.6455 77.6368 45.6823 77.3201C47.3647 76.8068 48.6261 75.7307 49.6431 74.3938C51.603 71.8167 52.4435 68.8352 52.6249 65.6488C52.9199 66.1145 52.8355 66.651 52.8945 67.1564C53.0734 68.6948 53.2157 70.2352 53.2865 71.7856C53.4186 74.6619 52.9719 77.4478 52.1059 80.1781C51.5601 81.8993 50.6007 83.4432 49.3494 84.6859C44.5701 89.4334 38.7439 91.6946 31.96 91.3368C28.1531 91.136 24.8497 89.7908 22.4067 86.7435C21.7584 85.9344 21.0327 85.1847 20.3993 84.3654C18.2015 81.5219 17.2819 78.193 16.7636 74.7292C16.44 72.5671 16.3925 70.3942 16.7392 68.2242C16.7741 68.0055 16.7793 67.7809 16.9453 67.6066Z" fill="#DD750F"/>
<path fill-rule="evenodd" clip-rule="evenodd" d="M24.0298 52.9835C22.1201 53.4927 20.2961 53.1874 18.4952 52.9493C16.2412 52.6523 14.02 52.1386 11.7573 51.8722C11.132 51.7987 10.5252 51.5817 9.90791 51.4368C9.52847 51.3478 9.11973 51.3061 8.94013 51.7325C8.73436 52.2224 9.08032 52.4922 9.47964 52.6706C10.4105 53.0863 11.411 53.2146 12.4119 53.3433C14.8166 53.6524 17.1786 54.2372 19.5972 54.4577C20.4001 54.5304 21.2071 54.5532 22.1588 54.607C21.5691 55.415 20.9975 55.9115 20.0844 56.1212C17.8758 56.6298 15.679 56.8951 13.4394 56.3741C10.0711 55.591 7.2044 53.9747 4.93648 51.3658C4.89219 51.3154 4.89323 51.2281 4.87091 51.1501C5.11085 50.7858 5.52412 50.6802 5.89275 50.5212C9.41164 48.9994 13.0435 48.7796 16.7378 49.716C19.0591 50.3039 21.2963 51.1357 23.3358 52.417C23.5486 52.5519 23.8101 52.6302 24.0298 52.9835Z" fill="#5CC154"/>
<path fill-rule="evenodd" clip-rule="evenodd" d="M24.9826 47.1337C25.2543 48.4895 25.4332 49.8681 25.8301 51.1991C25.9131 51.4793 25.896 51.6977 25.6177 51.8529C25.369 51.9916 25.204 51.8243 25.021 51.7087C24.7566 51.541 24.5993 51.3251 24.5892 50.9942C24.562 50.0717 24.2826 49.195 24.0567 48.3101C23.8042 47.3217 23.7993 47.3231 24.9826 47.1337Z" fill="#BA8551"/>
<path fill-rule="evenodd" clip-rule="evenodd" d="M38.9469 71.7028C38.9256 72.1413 38.7321 72.5429 38.4953 72.9162C38.0415 73.6338 37.5773 74.3459 37.086 75.0379C36.6793 75.61 36.2089 75.739 35.6554 75.307C34.6367 74.5122 33.5883 73.7349 32.7953 72.6937C32.7064 72.5774 32.6408 72.4425 32.5728 72.3121C32.4385 72.0551 32.4549 71.8091 32.6757 71.608C32.9017 71.4016 33.1611 71.4386 33.3969 71.58C33.618 71.7125 33.8199 71.8764 34.0243 72.0337C34.3169 72.2593 34.5952 72.5039 34.8955 72.7178C36.1178 73.59 36.1234 73.5893 36.89 72.3207C37.1177 71.9429 37.2879 71.5276 37.5418 71.1698C37.743 70.8866 38.0593 70.7441 38.4259 70.9048C38.7635 71.0532 38.9406 71.314 38.9469 71.7028Z" fill="#030200"/>
<path fill-rule="evenodd" clip-rule="evenodd" d="M24.1784 68.6803C24.1972 67.9351 24.5425 67.4476 25.1322 67.2703C25.6337 67.1195 26.1809 67.3541 26.5562 67.9026C26.9116 68.4219 26.9897 69.0094 26.8132 69.5935C26.6702 70.0686 26.3267 70.4287 25.8133 70.5398C25.271 70.6578 24.8878 70.3766 24.5791 69.9675C24.2764 69.5659 24.1951 69.0998 24.1784 68.6803Z" fill="#050200"/>
<path fill-rule="evenodd" clip-rule="evenodd" d="M43.9947 65.439C44.0184 66.2825 43.6146 66.8083 42.9125 66.8466C42.0162 66.8956 41.4157 66.2846 41.4049 65.3127C41.3965 64.5513 41.9437 63.802 42.547 63.7492C43.2198 63.6909 43.9703 64.5668 43.9947 65.439Z" fill="#040200"/>
</svg>