<svg xmlns="http://www.w3.org/2000/svg" width="81" height="83" viewBox="0 0 81 83" fill="none">
<path d="M40.3667 82.3774C62.6607 82.3774 80.7335 63.9366 80.7335 41.1887C80.7335 18.4408 62.6607 0 40.3667 0C18.0728 0 0 18.4408 0 41.1887C0 63.9366 18.0728 82.3774 40.3667 82.3774Z" fill="#8B311B"/>
<path d="M42.5744 68.1608C42.5744 68.6952 42.2307 69.1285 41.8068 69.1285H38.9275C38.5036 69.1285 38.1599 68.6952 38.1599 68.1608V45.4187C38.1599 44.8843 38.5036 44.4509 38.9275 44.4509H41.8068C42.2307 44.4509 42.5744 44.8843 42.5744 45.4187V68.1608Z" fill="white"/>
<path d="M42.4828 68.6091L42.0128 69.0887C42.2176 69.0162 42.386 68.8414 42.4828 68.6091Z" fill="white"/>
<path d="M42.5742 45.4187C42.5742 44.8843 42.2305 44.4509 41.8066 44.4509H41.6766L38.1593 48.0397V51.4249L42.5742 46.9201V45.4187Z" fill="#FF4462"/>
<path d="M42.5742 48.9342L38.1593 53.4386V56.8237L42.5742 52.319V48.9342Z" fill="#FF4462"/>
<path d="M38.1593 62.2226L42.5742 57.7182V54.3331L38.1593 58.8378V62.2226Z" fill="#FF4462"/>
<path d="M38.1593 67.6218L42.5742 63.1171V59.7319L38.1593 64.2367V67.6218Z" fill="#FF4462"/>
<path d="M38.9273 69.1285H41.8066C41.8788 69.1285 41.9469 69.112 42.0132 69.0887L42.4832 68.6091C42.5396 68.4746 42.5745 68.3235 42.5745 68.1608V65.1311L38.703 69.0815C38.7741 69.1093 38.8485 69.1285 38.9273 69.1285Z" fill="#FF4462"/>
<path d="M40.3667 47.8541C49.732 47.8541 57.3241 40.1075 57.3241 30.5515C57.3241 20.9955 49.732 13.2489 40.3667 13.2489C31.0015 13.2489 23.4094 20.9955 23.4094 30.5515C23.4094 40.1075 31.0015 47.8541 40.3667 47.8541Z" fill="#48D1CD"/>
<path d="M37.8963 43.5625C37.6072 43.5625 37.3169 43.5527 37.0256 43.5327C32.319 43.1934 28.3355 39.7861 26.8743 34.851C25.3752 29.1372 27.5532 22.9514 32.2866 19.4339C37.6219 15.8402 44.3875 16.0052 49.1508 19.8237C52.1693 22.4406 54.0378 26.2948 54.3004 30.4169C54.566 34.5751 53.2389 38.5236 50.5644 41.5348C50.2709 41.8652 49.7718 41.8907 49.448 41.5912C49.1242 41.2917 49.0999 40.782 49.3928 40.4521C51.7777 37.7675 52.9605 34.2406 52.7229 30.5222C52.4879 26.8333 50.8212 23.3888 48.1504 21.0726C43.9481 17.7047 37.9251 17.5702 33.1876 20.7599C29.0085 23.8658 27.0707 29.3597 28.3944 34.4098C29.6575 38.6728 33.0903 41.6322 37.1335 41.9234C42.011 42.2564 46.396 39.5561 48.3165 35.0468C49.6307 31.3103 48.8362 27.2111 46.3363 24.8392C42.9396 21.4946 37.2584 21.651 33.9202 25.1695C32.3651 26.8221 31.5374 29.0316 31.6523 31.2298C31.7573 33.25 32.6572 35.0848 34.1854 36.3968C37.1516 38.7939 41.26 38.4601 43.5197 35.6226C44.7853 34.0336 45.2656 31.8443 44.7735 29.9081C44.365 28.3021 43.334 27.0844 41.8688 26.4759C39.2654 25.6623 36.4956 27.146 35.5534 29.8697C34.8778 31.8984 36.318 33.2687 37.7866 33.84C38.8279 33.9768 39.8861 32.9936 40.3075 31.9751C40.3951 31.5816 40.3167 31.1163 40.1281 30.916C40.1973 31.1498 40.162 31.4125 40.0102 31.6245C39.7527 31.9849 39.2577 32.0631 38.9059 31.8015C38.6503 31.6117 38.1748 31.258 38.1424 30.6646C38.1103 30.0798 38.528 29.6893 38.665 29.5608C38.7365 29.4943 38.8194 29.4409 38.9096 29.4052C40.0761 28.9354 40.818 29.3819 41.1572 29.6893C41.9292 30.391 42.0489 31.5741 41.8246 32.4348C41.8161 32.4667 41.8062 32.4979 41.794 32.528C41.145 34.1786 39.405 35.7541 37.4591 35.4223C37.4116 35.4136 37.3648 35.4016 37.3192 35.3843C35.0591 34.5462 33.0752 32.2976 34.059 29.3428C35.2926 25.7754 38.9439 23.8504 42.3709 24.9463C42.3904 24.9527 42.4092 24.9594 42.4283 24.967C44.3871 25.7667 45.7636 27.3776 46.3039 29.5033C46.9201 31.9263 46.3234 34.6608 44.747 36.64C41.9347 40.1709 36.8577 40.6137 33.1854 37.6464C31.3006 36.0292 30.2022 33.7863 30.0733 31.3159C29.9355 28.6738 30.9231 26.0257 32.7817 24.0503C36.718 19.9015 43.4217 19.7267 47.4236 23.6684C50.3758 26.4688 51.3335 31.2757 49.7953 35.6185C49.7902 35.6339 49.7839 35.6489 49.7777 35.6643C47.7408 40.472 43.0383 43.5625 37.8963 43.5625Z" fill="white"/>
</svg>