<svg xmlns="http://www.w3.org/2000/svg" width="53" height="78" viewBox="0 0 53 78" fill="none">
<path d="M21.9841 5.77497C21.6621 5.17797 21.148 4.71998 20.541 4.42698C19.972 4.15198 18.987 4.27599 18.526 3.93299C18.403 3.84199 18.3251 3.70397 18.2391 3.57697C17.8211 2.95897 17.121 2.52998 16.374 2.47398C15.991 2.44498 14.684 2.88099 14.442 2.57099C13.425 1.25699 11.875 0.369966 10.228 0.157966C8.01004 -0.127034 5.64105 0.676969 4.80205 2.86097C4.58205 2.85597 4.36504 2.86799 4.16804 2.88999C3.48704 2.96899 2.83705 3.17199 2.27705 3.57899C1.22105 4.34599 0.54204 5.61597 0.60304 6.93397H22.1181C22.2331 6.55097 22.1791 6.13797 21.9841 5.77497Z" fill="#83D2E5"/>
<path d="M15.981 8.80999C16.003 8.25899 15.765 7.77699 15.405 7.32299C14.643 6.36399 13.694 5.625 12.43 5.527C12.027 5.496 11.615 5.542 11.228 5.665C11.167 5.593 11.103 5.522 11.034 5.453C10.274 4.702 9.12104 4.37899 8.08704 4.66299C7.35504 4.86399 6.77804 5.35099 6.39304 5.97299C4.76404 5.71799 3.67104 6.97899 3.13904 8.39599C3.08904 8.52999 3.06103 8.66798 3.05103 8.80898H15.981V8.80999Z" fill="#AEEAFF"/>
<path d="M46.328 71.029H14.122L23.145 28.998H37.305L46.328 71.029ZM16.351 69.228H44.098L35.849 30.8H24.6L16.351 69.228Z" fill="#8C231F"/>
<path d="M48.57 71.254H12.381C10.278 71.254 8.573 72.959 8.573 75.062V77.045H52.379V75.062C52.379 72.96 50.673 71.254 48.57 71.254Z" fill="#889C29"/>
<path d="M48.227 68.406H12.725V71.254H48.227V68.406Z" fill="#49151A"/>
<path d="M52.268 74.15H8.573V77.045H52.268V74.15Z" fill="#6F811B"/>
<path d="M43.961 61.691H17.08V63.492H43.961V61.691Z" fill="#8C231F"/>
<path d="M42.527 56.145H18.514V57.946H42.527V56.145Z" fill="#8C231F"/>
<path d="M41.337 50.599H19.705V52.4H41.337V50.599Z" fill="#8C231F"/>
<path d="M40.146 45.053H20.895V46.854H40.146V45.053Z" fill="#8C231F"/>
<path d="M30.225 37.857C22.715 37.857 16.606 31.748 16.606 24.238C16.606 16.728 22.715 10.619 30.225 10.619C37.735 10.619 43.844 16.729 43.844 24.238C43.844 31.747 37.735 37.857 30.225 37.857ZM30.225 11.567C23.238 11.567 17.554 17.251 17.554 24.238C17.554 31.225 23.238 36.909 30.225 36.909C37.212 36.909 42.896 31.225 42.896 24.238C42.896 17.251 37.212 11.567 30.225 11.567Z" fill="#8C231F"/>
<path d="M35.345 70.257H29.798V29.899H30.652V69.404H34.491V29.899H35.345V70.257Z" fill="#49151A"/>
<path d="M34.918 66.147H30.52V67H34.918V66.147Z" fill="#49151A"/>
<path d="M34.918 64.452H30.52V65.305H34.918V64.452Z" fill="#49151A"/>
<path d="M34.918 62.757H30.52V63.61H34.918V62.757Z" fill="#49151A"/>
<path d="M34.918 61.062H30.52V61.915H34.918V61.062Z" fill="#49151A"/>
<path d="M34.918 59.367H30.52V60.22H34.918V59.367Z" fill="#49151A"/>
<path d="M34.918 57.672H30.52V58.525H34.918V57.672Z" fill="#49151A"/>
<path d="M34.918 55.978H30.52V56.831H34.918V55.978Z" fill="#49151A"/>
<path d="M34.918 54.283H30.52V55.136H34.918V54.283Z" fill="#49151A"/>
<path d="M34.918 52.588H30.52V53.441H34.918V52.588Z" fill="#49151A"/>
<path d="M34.918 50.893H30.52V51.746H34.918V50.893Z" fill="#49151A"/>
<path d="M34.918 49.198H30.52V50.051H34.918V49.198Z" fill="#49151A"/>
<path d="M34.918 47.503H30.52V48.356H34.918V47.503Z" fill="#49151A"/>
<path d="M34.918 45.808H30.52V46.661H34.918V45.808Z" fill="#49151A"/>
<path d="M34.918 44.113H30.52V44.966H34.918V44.113Z" fill="#49151A"/>
<path d="M34.918 42.418H30.52V43.271H34.918V42.418Z" fill="#49151A"/>
<path d="M34.918 40.724H30.52V41.577H34.918V40.724Z" fill="#49151A"/>
<path d="M34.918 39.029H30.52V39.882H34.918V39.029Z" fill="#49151A"/>
<path d="M34.918 37.334H30.52V38.187H34.918V37.334Z" fill="#49151A"/>
<path d="M34.918 35.639H30.52V36.492H34.918V35.639Z" fill="#49151A"/>
<path d="M34.918 33.944H30.52V34.797H34.918V33.944Z" fill="#49151A"/>
<path d="M34.918 32.249H30.52V33.102H34.918V32.249Z" fill="#49151A"/>
<path d="M34.918 30.554H30.52V31.407H34.918V30.554Z" fill="#49151A"/>
<path d="M30.225 24.238L26.281 4.81201H30.225V24.238Z" fill="#FFC239"/>
<path d="M30.225 24.238L34.168 4.81201H30.225V24.238Z" fill="#FCAB16"/>
<path d="M30.225 24.238L34.168 43.663H30.225V24.238Z" fill="#FCAB16"/>
<path d="M30.225 24.238L26.281 43.663H30.225V24.238Z" fill="#FFC239"/>
<path d="M30.225 24.238L49.65 20.294V24.238H30.225Z" fill="#FFC239"/>
<path d="M30.225 24.238L49.65 28.181V24.238H30.225Z" fill="#FCAB16"/>
<path d="M30.225 24.238L10.799 28.181V24.238H30.225Z" fill="#FCAB16"/>
<path d="M30.225 24.238L10.799 20.294V24.238H30.225Z" fill="#FFC239"/>
<path d="M30.225 24.238L41.172 7.71301L43.961 10.502L30.225 24.238Z" fill="#FFC239"/>
<path d="M30.225 24.238L46.749 13.29L43.961 10.502L30.225 24.238Z" fill="#FCAB16"/>
<path d="M30.225 24.238L19.278 40.762L16.489 37.974L30.225 24.238Z" fill="#FCAB16"/>
<path d="M30.225 24.238L13.701 35.185L16.489 37.974L30.225 24.238Z" fill="#FFC239"/>
<path d="M30.225 24.238L46.749 35.185L43.961 37.974L30.225 24.238Z" fill="#FFC239"/>
<path d="M30.225 24.238L41.172 40.762L43.961 37.974L30.225 24.238Z" fill="#FCAB16"/>
<path d="M30.225 24.238L13.701 13.29L16.489 10.502L30.225 24.238Z" fill="#FCAB16"/>
<path d="M30.225 24.238L19.278 7.71301L16.489 10.502L30.225 24.238Z" fill="#FFC239"/>
<path d="M31.832 24.238C31.832 25.125 31.113 25.845 30.225 25.845C29.338 25.845 28.618 25.126 28.618 24.238C28.618 23.35 29.337 22.631 30.225 22.631C31.112 22.631 31.832 23.35 31.832 24.238Z" fill="#8C231F"/>
<path d="M30.225 22.631C29.338 22.631 28.618 23.35 28.618 24.238C28.618 25.126 29.337 25.845 30.225 25.845V22.631Z" fill="#BD1E2C"/>
</svg>