<svg width="33" height="50" viewBox="0 0 33 50" fill="none" xmlns="http://www.w3.org/2000/svg">
<path d="M16.1604 40.5344V49.4185C5.41248 49.4185 -1.82172 42.4752 0.857609 30.7584C2.63269 37.0122 8.5088 40.5344 16.1604 40.5344Z" fill="#FCCC42"/>
<path d="M16.1604 0.510071V40.5346C8.50858 40.5346 2.63268 37.0121 0.857605 30.7586C1.72908 26.9471 3.64723 22.6283 6.83886 17.8817C10.7807 12.0182 15.1936 6.13836 16.1604 0.510071Z" fill="#FEE658"/>
<path d="M16.1604 49.4185V40.5344C23.8116 40.5344 29.6877 37.012 31.4634 30.7584C34.1425 42.4752 26.9083 49.4185 16.1604 49.4185Z" fill="#F2B60F"/>
<path d="M31.4634 30.7523V30.7584C29.6877 37.0119 23.8114 40.5344 16.1604 40.5344V0.510071C17.1276 6.13836 21.5447 12.0182 25.4815 17.8817C28.6731 22.6283 30.5913 26.9419 31.4634 30.7523Z" fill="#FAC41A"/>
<path d="M10.5717 29.0686C10.5717 30.2523 9.62272 31.2119 8.45226 31.2119C7.28243 31.2119 6.33341 30.2523 6.33341 29.0686C6.33341 27.8846 7.28243 26.9242 8.45226 26.9242C9.62294 26.924 10.5717 27.8846 10.5717 29.0686Z" fill="white"/>
<path d="M12.3022 20.6017C12.3022 21.3201 11.7261 21.9027 11.0168 21.9027C10.3068 21.9027 9.73129 21.3201 9.73129 20.6017C9.73129 19.8846 10.3068 19.3021 11.0168 19.3021C11.7261 19.3018 12.3022 19.8846 12.3022 20.6017Z" fill="white"/>
</svg>
