<svg xmlns="http://www.w3.org/2000/svg" width="20" height="61" viewBox="0 0 20 61" fill="none">
<path d="M18.0117 31.5303H1.59055V46.3308H18.0117V31.5303Z" fill="#2CB4FF"/>
<path d="M15.3095 24.7247V18.2461H4.29235V24.7247C1.01955 25.7382 1.59075 31.5303 1.59075 31.5303H18.012C18.012 31.5303 18.5827 25.7382 15.3095 24.7247Z" fill="#FAC41A"/>
<path d="M14.2973 4.8501H5.30476C0.66745 6.17316 -0.456773 16.9256 4.17004 18.2458H15.432C20.0592 16.9256 18.9348 6.17316 14.2973 4.8501Z" fill="#FFCC3E"/>
<path d="M15.3095 18.2461H4.29236V20.3638H15.3095V18.2461Z" fill="#FF9210"/>
<path d="M13.4417 0.511108H6.1604V4.85012H13.4417V0.511108Z" fill="#E51F0A"/>
<path d="M9.71997 0.511108H7.27216V4.85012H9.71997V0.511108Z" fill="#F7392B"/>
<path d="M6.38613 9.35811C6.38613 10.0154 5.85904 10.5484 5.20924 10.5484C4.55922 10.5484 4.03235 10.0154 4.03235 9.35811C4.03235 8.70059 4.55922 8.16742 5.20924 8.16742C5.85904 8.16742 6.38613 8.70059 6.38613 9.35811Z" fill="white"/>
<path d="M16.553 32.779H3.04929V46.4876H16.553V32.779Z" fill="#7CD1F7"/>
<path d="M11.1153 36.1598C11.1153 37.6442 10.527 38.8475 9.80091 38.8475C9.07465 38.8475 8.48611 37.6442 8.48611 36.1598C8.48611 34.6753 9.07465 33.472 9.80091 33.472C10.527 33.472 11.1153 34.6753 11.1153 36.1598Z" fill="#FFCC3E"/>
<path d="M8.88105 36.0302C9.74354 37.2311 9.96668 38.5544 9.37942 38.9859C8.79215 39.4177 7.61677 38.7942 6.75408 37.5933C5.8916 36.3924 5.66863 35.0692 6.2559 34.6372C6.84338 34.2056 8.01857 34.8291 8.88105 36.0302Z" fill="#FFCC3E"/>
<path d="M6.99825 37.2534C8.39382 37.7123 9.34346 38.6503 9.11901 39.3486C8.89477 40.0471 7.58101 40.2416 6.18566 39.7825C4.7901 39.3237 3.84067 38.3858 4.06491 37.6874C4.28936 36.9893 5.60248 36.795 6.99825 37.2534Z" fill="#FFCC3E"/>
<path d="M6.18611 39.3629C7.58167 38.9043 8.89477 39.0986 9.11901 39.7971C9.34368 40.4956 8.3936 41.4339 6.99825 41.8923C5.60269 42.3509 4.28981 42.1568 4.06535 41.4581C3.84068 40.7599 4.79033 39.8218 6.18611 39.3629Z" fill="#FFCC3E"/>
<path d="M6.75471 41.5524C7.61698 40.3515 8.79239 39.7278 9.37965 40.1598C9.96756 40.5913 9.74416 41.915 8.88189 43.1159C8.0192 44.3166 6.84361 44.9403 6.25634 44.5085C5.66865 44.0767 5.89201 42.7535 6.75471 41.5524Z" fill="#FFCC3E"/>
<path d="M8.48654 42.9857C8.48654 41.5014 9.07509 40.2982 9.80092 40.2982C10.5272 40.2979 11.1162 41.5016 11.1162 42.9857C11.1157 44.4699 10.5272 45.6732 9.80113 45.6734C9.07529 45.6736 8.48676 44.4701 8.48654 42.9857Z" fill="#FFCC3E"/>
<path d="M10.7206 43.1155C9.85854 41.9146 9.63536 40.5913 10.2224 40.1598C10.8097 39.7278 11.9855 40.3515 12.8478 41.5522C13.7103 42.7532 13.9334 44.0765 13.3459 44.5083C12.7589 44.9401 11.5837 44.3161 10.7206 43.1155Z" fill="#FFCC3E"/>
<path d="M12.6036 41.8918C11.2078 41.4332 10.2591 40.4951 10.4829 39.7971C10.7071 39.0982 12.0211 38.9038 13.416 39.3625C14.8118 39.8218 15.761 40.7596 15.5369 41.4581C15.3127 42.1566 13.9996 42.3503 12.6036 41.8918Z" fill="#FFCC3E"/>
<path d="M13.4158 39.7827C12.0202 40.2412 10.7073 40.0468 10.4829 39.3488C10.2584 38.6501 11.2083 37.7118 12.6036 37.2532C13.9994 36.795 15.3121 36.9891 15.5369 37.6875C15.7612 38.3858 14.8118 39.3237 13.4158 39.7827Z" fill="#FFCC3E"/>
<path d="M12.8476 37.5933C11.9851 38.7942 10.8097 39.4173 10.2224 38.9859C9.63474 38.5543 9.85814 37.2306 10.7204 36.0298C11.5831 34.8291 12.7583 34.2056 13.346 34.6369C13.9332 35.0687 13.7098 36.3922 12.8476 37.5933Z" fill="#FFCC3E"/>
<path d="M12.6268 39.5726C12.6268 41.1513 11.3621 42.4308 9.80137 42.4308C8.24111 42.4308 6.97577 41.1513 6.97577 39.5726C6.97577 37.9943 8.24111 36.7146 9.80137 36.7146C11.3619 36.7146 12.6268 37.9943 12.6268 39.5726Z" fill="#272324"/>
<path d="M12.6426 52.2231H6.95968H1.27679V58.1064C1.27679 59.2458 2.15726 60.1693 3.24355 60.1693H4.29343C5.49131 60.1693 6.22314 59.6193 6.95968 58.8482C7.65918 59.5811 8.38008 60.1698 9.62594 60.1698H9.97635C11.1725 60.1698 11.9065 59.6204 12.6426 58.848C12.9857 59.2068 13.7959 60.1691 15.3084 60.1691H16.3585C17.4448 60.1691 18.3253 59.2456 18.3253 58.1062V52.2231H12.6426Z" fill="#FF9210"/>
<path d="M19.3204 53.8445C19.3204 54.5761 18.7821 55.1691 18.1186 55.1691H1.48389C0.819953 55.1691 0.28196 54.5761 0.28196 53.8445V53.5477C0.28196 52.8161 0.820167 52.2229 1.48389 52.2229H18.1186C18.7823 52.2229 19.3204 52.8161 19.3204 53.5477V53.8445Z" fill="#FFCC3E"/>
<path d="M19.3204 50.8983C19.3204 51.6299 18.7824 52.2231 18.1186 52.2231H1.48371C0.819764 52.2231 0.282188 51.6299 0.282188 50.8983V50.6017C0.282188 49.8701 0.819978 49.2769 1.48371 49.2769H18.1186C18.7826 49.2769 19.3204 49.8701 19.3204 50.6017V50.8983Z" fill="#FAC41A"/>
<path d="M19.3204 47.9521C19.3204 48.6842 18.7823 49.2769 18.1186 49.2769H1.48369C0.819958 49.2769 0.28196 48.6842 0.28196 47.9521V47.6555C0.28196 46.9239 0.820172 46.3307 1.48369 46.3307H18.1186C18.7826 46.3307 19.3204 46.9239 19.3204 47.6555V47.9521Z" fill="#FFCC3E"/>
</svg>