<svg xmlns="http://www.w3.org/2000/svg" width="67" height="109" viewBox="0 0 67 109" fill="none">
<path d="M66.5715 35.3579C66.5715 62.7864 43.2178 69.0257 33.6499 97.9168C24.0821 69.0257 0.728333 62.7864 0.728333 35.3579C0.728333 16.0525 15.4678 0.402496 33.6499 0.402496C51.8321 0.402496 66.5715 16.0525 66.5715 35.3579Z" fill="#49BDEA"/>
<path d="M33.6499 52.5436C42.5893 52.5436 49.8361 44.8491 49.8361 35.3575C49.8361 25.8659 42.5893 18.1714 33.6499 18.1714C24.7105 18.1714 17.4637 25.8659 17.4637 35.3575C17.4637 44.8491 24.7105 52.5436 33.6499 52.5436Z" fill="white"/>
<path d="M33.6499 53.4363C24.2612 53.4363 16.6229 45.3262 16.6229 35.3575C16.6229 25.3887 24.2612 17.2786 33.6499 17.2786C43.0386 17.2786 50.6769 25.3887 50.6769 35.3575C50.6769 45.3262 43.0386 53.4363 33.6499 53.4363ZM33.6499 19.0643C25.1885 19.0643 18.3047 26.3734 18.3047 35.3575C18.3047 44.3416 25.1885 51.6506 33.6499 51.6506C42.1113 51.6506 48.9951 44.3415 48.9951 35.3575C48.9951 26.3734 42.1113 19.0643 33.6499 19.0643Z" fill="#42A7C6"/>
<path d="M33.6499 108.597C41.5819 108.597 48.0121 107.296 48.0121 105.69C48.0121 104.084 41.5819 102.783 33.6499 102.783C25.7179 102.783 19.2878 104.084 19.2878 105.69C19.2878 107.296 25.7179 108.597 33.6499 108.597Z" fill="#DBDCDD"/>
</svg>