<svg xmlns="http://www.w3.org/2000/svg" width="48" height="72" viewBox="0 0 48 72" fill="none">
<path d="M39.6589 71.876L41.9299 56.935C41.9299 52.648 38.4539 49.172 34.1669 49.172H29.9729L23.9009 50.434L17.8289 49.172H13.6349C9.34794 49.172 5.87195 52.648 5.87195 56.935L8.14295 71.876H39.6589Z" fill="#BD1E2C"/>
<path d="M34.167 49.172H29.973L23.932 50.427V71.876H39.659L41.93 56.935C41.93 52.648 38.454 49.172 34.167 49.172Z" fill="#8C231F"/>
<path d="M12.7219 32.987H11.2259C9.35594 32.987 7.84094 31.4711 7.84094 29.6021C7.84094 27.7321 9.35694 26.217 11.2259 26.217H12.7219V32.987Z" fill="#FCCEAE"/>
<path d="M35.071 26.217H36.567C38.437 26.217 39.952 27.7331 39.952 29.6021C39.952 31.4721 38.436 32.987 36.567 32.987H35.071V26.217Z" fill="#EDB188"/>
<path d="M29.973 46.176L23.9 50.434L17.828 46.176V35.822H29.973V46.176Z" fill="#FCCEAE"/>
<path d="M23.8961 44.324C20.0871 44.324 16.665 42.67 14.308 40.041C12.266 37.763 11.024 34.753 11.024 31.452V22.556C11.024 15.447 16.7871 9.68402 23.8961 9.68402C31.0051 9.68402 36.768 15.447 36.768 22.556V31.452C36.768 34.513 35.7001 37.324 33.9151 39.534C31.5561 42.456 27.9441 44.324 23.8961 44.324Z" fill="#FCCEAE"/>
<path d="M23.9969 9.685V44.322C28.0039 44.291 31.5749 42.431 33.9149 39.533C35.6989 37.324 36.7679 34.512 36.7679 31.451V22.555C36.7679 15.481 31.0599 9.74 23.9969 9.685Z" fill="#EDB188"/>
<path d="M33.8431 18.847L36.768 25.932V14.448C36.768 10.747 33.7681 7.74701 30.0671 7.74701H17.725C14.024 7.74701 11.024 10.747 11.024 14.448V25.932L13.7261 19.129C13.7261 19.129 23.8961 26.164 33.8431 18.847Z" fill="#672122"/>
<path d="M29.9731 48.665L23.9821 50.434V35.822H29.9731V48.665Z" fill="#EDB188"/>
<path d="M23.9 50.434L29.973 46.176L30.191 49.233L26.931 53.35L23.9 50.434Z" fill="#BD1E2C"/>
<path d="M23.9 50.434L17.828 46.176L17.61 49.233L20.87 53.35L23.9 50.434Z" fill="#EF4136"/>
<path d="M36.975 65.214C37.843 65.865 38.921 66.25 40.088 66.25H40.514L39.659 71.876L36.975 65.214Z" fill="#376991"/>
<path d="M0.645996 69.939V71.876H8.002C8.07699 71.558 8.11399 71.37 8.11399 71.37L8.154 51.479C8.154 51.479 1.798 57.178 0.645996 69.939Z" fill="#EF4136"/>
<path d="M47.141 68.615C45.689 56.784 39.775 51.479 39.775 51.479L39.815 71.37C39.815 71.37 39.851 71.558 39.927 71.876H47.141V68.615Z" fill="#771818"/>
<path d="M35.0551 61.055V60.581H23.9821V71.875H39.937V66.238C37.2141 66.077 35.0551 63.819 35.0551 61.055Z" fill="#6F811B"/>
<path d="M12.908 61.055V60.581H23.982V71.875H8.02698V66.238C10.75 66.077 12.908 63.819 12.908 61.055Z" fill="#889C29"/>
<path d="M16.909 49.172H12.908V64.424C12.908 65.529 13.804 66.425 14.908 66.425C16.013 66.425 16.908 65.529 16.908 64.424L16.909 49.172Z" fill="#6F811B"/>
<path d="M35.021 49.172H31.02V64.424C31.02 65.529 31.916 66.425 33.021 66.425C34.126 66.425 35.021 65.529 35.021 64.424V49.172Z" fill="#626D13"/>
<path d="M14.909 65.568C15.7458 65.568 16.424 64.8897 16.424 64.053C16.424 63.2163 15.7458 62.538 14.909 62.538C14.0723 62.538 13.394 63.2163 13.394 64.053C13.394 64.8897 14.0723 65.568 14.909 65.568Z" fill="#FCAB16"/>
<path d="M14.909 62.538C14.072 62.538 13.394 63.216 13.394 64.054C13.394 64.892 14.073 65.57 14.909 65.57V62.538Z" fill="#FFC239"/>
<path d="M33.02 65.568C33.8567 65.568 34.535 64.8897 34.535 64.053C34.535 63.2163 33.8567 62.538 33.02 62.538C32.1833 62.538 31.505 63.2163 31.505 64.053C31.505 64.8897 32.1833 65.568 33.02 65.568Z" fill="#FCAB16"/>
<path d="M33.02 62.538C32.183 62.538 31.504 63.216 31.504 64.054C31.504 64.892 32.182 65.57 33.02 65.57V62.538Z" fill="#FFC239"/>
<path d="M30.067 7.74701H24.077V22.173C27.09 22.154 30.479 21.321 33.843 18.847L36.768 25.932V14.448C36.768 10.747 33.768 7.74701 30.067 7.74701Z" fill="#49151A"/>
<path d="M24.155 46.778H23.813C21.856 46.778 20.27 45.192 20.27 43.235V38.691C20.27 37.541 21.203 36.608 22.353 36.608H25.616C26.766 36.608 27.699 37.541 27.699 38.691V43.235C27.698 45.192 26.111 46.778 24.155 46.778Z" fill="#672122"/>
<path d="M25.615 36.608H23.896V46.778H24.154C26.111 46.778 27.697 45.192 27.697 43.235V38.691C27.698 37.541 26.765 36.608 25.615 36.608Z" fill="#49151A"/>
<path d="M23.9319 40.632H22.3809C21.9469 40.632 21.5959 40.28 21.5959 39.847V39.744C21.5959 39.527 21.7719 39.35 21.9899 39.35H23.9329L23.9319 40.632Z" fill="#FCCEAE"/>
<path d="M23.896 40.632H25.447C25.881 40.632 26.232 40.28 26.232 39.847V39.744C26.232 39.527 26.056 39.35 25.838 39.35H23.895V40.632H23.896Z" fill="#EDB188"/>
<path d="M24.0771 0.968018H21.46C15.696 0.968018 11.024 5.64002 11.024 11.404H24.0771V0.968018Z" fill="#FFC239"/>
<path d="M24.077 0.968018H26.695C32.458 0.968018 37.131 5.64002 37.131 11.404H24.077V0.968018Z" fill="#FCAB16"/>
<path d="M24.0769 13.8801H9.07894C8.39494 13.8801 7.84094 13.326 7.84094 12.642C7.84094 11.958 8.39494 11.4041 9.07894 11.4041H24.0779L24.0769 13.8801Z" fill="#FFC239"/>
<path d="M24.077 11.403H39.076C39.76 11.403 40.314 11.957 40.314 12.641C40.314 13.325 39.76 13.879 39.076 13.879H24.077V11.403Z" fill="#FCAB16"/>
</svg>