<svg xmlns="http://www.w3.org/2000/svg" width="72" height="71" viewBox="0 0 72 71" fill="none">
<path d="M64.013 70.908L66.284 55.967C66.284 51.68 62.808 48.204 58.521 48.204H54.327L48.255 49.466L42.183 48.204H37.989C33.702 48.204 30.226 51.68 30.226 55.967L32.497 70.908H64.013Z" fill="#BD1E2C"/>
<path d="M58.521 48.204H54.327L48.286 49.459V70.908H64.013L66.284 55.967C66.284 51.68 62.808 48.204 58.521 48.204Z" fill="#8C231F"/>
<path d="M37.076 32.019H35.58C33.71 32.019 32.195 30.503 32.195 28.634C32.195 26.764 33.711 25.249 35.58 25.249H37.076V32.019Z" fill="#FCCEAE"/>
<path d="M59.425 25.249H60.921C62.791 25.249 64.306 26.765 64.306 28.634C64.306 30.504 62.79 32.019 60.921 32.019H59.425V25.249Z" fill="#EDB188"/>
<path d="M54.327 45.208L48.254 49.466L42.182 45.208V34.854H54.327V45.208Z" fill="#FCCEAE"/>
<path d="M48.25 43.356C44.441 43.356 41.019 41.702 38.662 39.073C36.62 36.795 35.378 33.785 35.378 30.484V21.588C35.378 14.479 41.141 8.716 48.25 8.716C55.359 8.716 61.122 14.479 61.122 21.588V30.484C61.122 33.545 60.054 36.356 58.269 38.566C55.91 41.488 52.298 43.356 48.25 43.356Z" fill="#FCCEAE"/>
<path d="M48.351 8.71698V43.354C52.358 43.323 55.929 41.463 58.269 38.565C60.053 36.356 61.122 33.544 61.122 30.483V21.587C61.122 14.513 55.414 8.77198 48.351 8.71698Z" fill="#EDB188"/>
<path d="M58.197 17.879L61.122 24.964V13.48C61.122 9.779 58.122 6.77899 54.421 6.77899H42.079C38.378 6.77899 35.378 9.779 35.378 13.48V24.964L38.08 18.161C38.08 18.161 48.25 25.196 58.197 17.879Z" fill="#672122"/>
<path d="M54.327 47.697L48.336 49.466V34.854H54.327V47.697Z" fill="#EDB188"/>
<path d="M48.254 49.466L54.327 45.208L54.545 48.265L51.285 52.382L48.254 49.466Z" fill="#BD1E2C"/>
<path d="M48.254 49.466L42.182 45.208L41.964 48.265L45.224 52.382L48.254 49.466Z" fill="#EF4136"/>
<path d="M61.329 64.246C62.197 64.897 63.275 65.282 64.442 65.282H64.868L64.013 70.908L61.329 64.246Z" fill="#376991"/>
<path d="M25 68.971V70.908H32.356C32.431 70.59 32.468 70.402 32.468 70.402L32.508 50.511C32.508 50.511 26.152 56.21 25 68.971Z" fill="#EF4136"/>
<path d="M71.495 67.647C70.043 55.816 64.129 50.511 64.129 50.511L64.169 70.402C64.169 70.402 64.205 70.59 64.281 70.908H71.495V67.647Z" fill="#771818"/>
<path d="M59.409 60.087V59.613H48.336V70.907H64.291V65.27C61.568 65.109 59.409 62.851 59.409 60.087Z" fill="#6F811B"/>
<path d="M37.262 60.087V59.613H48.336V70.907H32.381V65.27C35.104 65.109 37.262 62.851 37.262 60.087Z" fill="#889C29"/>
<path d="M41.263 48.204H37.262V63.456C37.262 64.561 38.158 65.457 39.262 65.457C40.367 65.457 41.262 64.561 41.262 63.456L41.263 48.204Z" fill="#6F811B"/>
<path d="M59.375 48.204H55.374V63.456C55.374 64.561 56.27 65.457 57.375 65.457C58.48 65.457 59.375 64.561 59.375 63.456V48.204Z" fill="#626D13"/>
<path d="M39.263 64.6C40.0997 64.6 40.778 63.9217 40.778 63.085C40.778 62.2483 40.0997 61.57 39.263 61.57C38.4263 61.57 37.748 62.2483 37.748 63.085C37.748 63.9217 38.4263 64.6 39.263 64.6Z" fill="#FCAB16"/>
<path d="M39.263 61.57C38.426 61.57 37.748 62.248 37.748 63.086C37.748 63.924 38.427 64.602 39.263 64.602V61.57Z" fill="#FFC239"/>
<path d="M57.374 64.6C58.2107 64.6 58.889 63.9217 58.889 63.085C58.889 62.2483 58.2107 61.57 57.374 61.57C56.5373 61.57 55.859 62.2483 55.859 63.085C55.859 63.9217 56.5373 64.6 57.374 64.6Z" fill="#FCAB16"/>
<path d="M57.374 61.57C56.537 61.57 55.858 62.248 55.858 63.086C55.858 63.924 56.536 64.602 57.374 64.602V61.57Z" fill="#FFC239"/>
<path d="M54.421 6.77899H48.431V21.205C51.444 21.186 54.833 20.353 58.197 17.879L61.122 24.964V13.48C61.122 9.779 58.122 6.77899 54.421 6.77899Z" fill="#49151A"/>
<path d="M48.509 45.81H48.167C46.21 45.81 44.624 44.224 44.624 42.267V37.723C44.624 36.573 45.557 35.64 46.707 35.64H49.97C51.12 35.64 52.053 36.573 52.053 37.723V42.267C52.052 44.224 50.465 45.81 48.509 45.81Z" fill="#672122"/>
<path d="M49.969 35.64H48.25V45.81H48.508C50.465 45.81 52.051 44.224 52.051 42.267V37.723C52.052 36.573 51.119 35.64 49.969 35.64Z" fill="#49151A"/>
<path d="M48.286 39.664H46.735C46.301 39.664 45.95 39.312 45.95 38.879V38.776C45.95 38.559 46.126 38.382 46.344 38.382H48.287L48.286 39.664Z" fill="#FCCEAE"/>
<path d="M48.25 39.664H49.801C50.235 39.664 50.586 39.312 50.586 38.879V38.776C50.586 38.559 50.41 38.382 50.192 38.382H48.249V39.664H48.25Z" fill="#EDB188"/>
<path d="M48.431 0H45.814C40.05 0 35.378 4.672 35.378 10.436H48.431V0Z" fill="#FFC239"/>
<path d="M48.431 0H51.049C56.812 0 61.485 4.672 61.485 10.436H48.431V0Z" fill="#FCAB16"/>
<path d="M48.431 12.912H33.433C32.749 12.912 32.195 12.358 32.195 11.674C32.195 10.99 32.749 10.436 33.433 10.436H48.432L48.431 12.912Z" fill="#FFC239"/>
<path d="M48.431 10.435H63.43C64.114 10.435 64.668 10.989 64.668 11.673C64.668 12.357 64.114 12.911 63.43 12.911H48.431V10.435Z" fill="#FCAB16"/>
<path d="M27.5798 17.501C27.1527 16.9338 26.3283 16.8475 25.7377 17.2458C25.6146 17.3283 25.5195 17.426 25.4405 17.5319C25.4144 17.5098 25.3889 17.4865 25.3609 17.4657C24.9848 17.1815 24.5098 17.0737 24.0479 17.1657C23.6488 17.2451 23.3019 17.4815 23.1029 17.8464C23.0078 18.021 22.9637 18.2164 22.9587 18.413C22.4377 18.5403 21.9727 18.8642 21.6967 19.3981C21.1887 20.3787 21.6015 21.6537 22.5558 22.1724C23.0202 22.4245 23.4604 22.2279 23.7004 21.89C24.033 21.9279 24.3755 21.9165 24.692 21.8938C25.1203 21.8636 25.5213 21.7797 25.8956 21.6203C26.0833 21.7879 26.3482 21.8642 26.6671 21.7602C27.6854 21.4293 28.378 18.5611 27.5798 17.501Z" fill="#BD1E2C"/>
<path d="M28.4576 21.0215C28.4576 21.0215 30.9655 21.0833 32 22.132C30.8436 22.9955 28.7137 24.106 28.7137 24.106L28.4576 21.0215Z" fill="#49151A"/>
<path d="M31.9347 22.0703C30.8642 21.0814 28.4582 21.0215 28.4582 21.0215L28.6049 22.7887L31.9347 22.0703Z" fill="#672122"/>
<path d="M9.09363 39.1222C9.88505 39.5274 10.7411 38.5266 10.2997 37.7514C9.81604 36.9031 9.04203 36.3365 8.40293 35.6231C7.82848 34.9821 7.34977 34.1899 6.91334 33.3781C5.96526 31.6147 5.12349 29.8633 4.62302 27.9183C4.57577 27.7343 4.47195 27.5767 4.33518 27.4576C4.31466 27.3713 4.28171 27.2862 4.23384 27.203C3.98827 26.7776 3.36097 26.5639 2.93511 26.8576C2.51236 27.1488 2.23757 27.5591 2.16919 28.0646C1.53692 28.248 0.988588 28.6211 0.800215 29.3376C0.696392 29.7322 0.738665 30.1746 0.907145 30.5483C0.687686 30.8294 0.498069 31.1351 0.345754 31.4559C0.136242 31.8958 0.196549 32.5311 0.686445 32.7725C0.692041 32.775 0.697636 32.7781 0.70261 32.7813C0.4129 32.9912 0.164217 33.2414 0.0547987 33.5993C-0.0875695 34.0676 0.0572895 34.5624 0.375598 34.9178C0.394248 34.9392 0.41476 34.9582 0.435276 34.9777C0.338292 35.192 0.275501 35.4226 0.278609 35.6609C0.284826 36.1714 0.490611 36.6107 0.789647 36.9901C0.613707 37.4331 0.613086 37.9638 0.823219 38.4371C1.17386 39.2274 1.99511 39.852 2.63173 40.4035C3.41693 41.0835 4.24503 41.7106 5.11167 42.2772C6.49121 43.7652 7.58726 44.8416 7.58726 44.8416L11.8714 41.3791C11.8714 41.3803 10.6112 40.5408 9.09363 39.1222Z" fill="#A57C60"/>
<path d="M30.6764 24.4866C30.6248 23.8766 30.4725 23.3358 30.2381 22.7743C30.0516 22.3287 29.4032 22.2304 29.0283 22.4528C28.9238 22.5146 28.8418 22.5902 28.7778 22.6734C28.7504 22.6778 28.723 22.6841 28.6963 22.6917C28.2176 22.8247 27.972 23.3207 28.079 23.794C28.1977 24.3221 28.3681 24.8276 28.5776 25.3255C28.8312 25.9286 29.4765 26.4398 30.1343 26.0465C30.687 25.7162 30.7255 25.069 30.6764 24.4866Z" fill="#BD1E2C"/>
<path d="M9.29318 38.9772C10.0299 39.3547 10.8275 38.4226 10.416 37.7009C9.96524 36.9106 9.24469 36.3831 8.64911 35.7194C8.11383 35.1226 7.6687 34.3846 7.26211 33.6289C6.37868 31.9865 5.59535 30.3561 5.1297 28.5447C5.08555 28.3733 4.98857 28.2265 4.86174 28.1156C4.84247 28.0355 4.812 27.9555 4.76724 27.8786C4.53846 27.4822 3.95407 27.2836 3.55742 27.5572C3.16389 27.8288 2.90775 28.2101 2.84372 28.6809C2.25497 28.8517 1.74456 29.1989 1.56924 29.8664C1.47288 30.2338 1.51204 30.6453 1.66933 30.9939C1.4648 31.2561 1.28885 31.5403 1.14648 31.839C0.951273 32.2487 1.00785 32.8405 1.46356 33.0655C1.46853 33.068 1.4735 33.0712 1.47909 33.0737C1.20928 33.2691 0.977385 33.5016 0.876049 33.8356C0.743628 34.2718 0.877921 34.7325 1.17447 35.0634C1.19188 35.0829 1.21115 35.1012 1.23042 35.1194C1.14027 35.3192 1.08183 35.5335 1.08432 35.756C1.08992 36.2312 1.28202 36.6409 1.55992 36.9938C1.39579 37.4066 1.39579 37.9007 1.591 38.3412C1.91739 39.0774 2.68208 39.6591 3.27518 40.1727C4.00629 40.8061 4.77781 41.3897 5.58415 41.9179C6.86919 43.3038 7.8894 44.3059 7.8894 44.3059L11.8788 41.0815C11.8801 41.0803 10.7069 40.2988 9.29318 38.9772Z" fill="#C19272"/>
<path d="M28.5148 27.45C28.4937 27.4891 28.4719 27.5263 28.4508 27.5641C28.2064 27.9958 28.0044 28.4351 27.8403 28.8826C27.8396 28.8851 27.8384 28.887 27.8384 28.8889C27.6158 29.4958 27.461 30.1166 27.3584 30.7481C27.152 32.0243 27.1583 33.3434 27.2441 34.6802C27.4287 37.5484 27.7433 40.5081 26.3003 42.9755C26.1617 43.2124 26.0069 43.445 25.8334 43.6725C25.7482 43.7847 25.6606 43.8956 25.5717 44.0046C25.5282 44.0595 25.4828 44.1143 25.4368 44.1679C25.3454 44.2756 25.2521 44.3815 25.1576 44.4849C25.1228 44.5233 25.0874 44.5611 25.052 44.599C25.0252 44.628 24.9985 44.6563 24.9705 44.6853C24.9456 44.7111 24.9214 44.7364 24.8972 44.7609C24.8754 44.7843 24.853 44.8069 24.8306 44.829C24.7946 44.8649 24.7585 44.9008 24.7225 44.9368C24.7162 44.9437 24.7094 44.95 24.7032 44.9557C24.6578 44.9998 24.6124 45.0433 24.5658 45.0874C24.5142 45.1366 24.4626 45.1845 24.411 45.2317C24.3681 45.2708 24.3246 45.3086 24.2811 45.3464C24.2692 45.3578 24.2568 45.3685 24.245 45.3779C24.2152 45.4044 24.1853 45.4296 24.1555 45.4548C24.1182 45.487 24.0815 45.5185 24.0436 45.5494C24.0243 45.5658 24.0044 45.5815 23.9851 45.5973C23.9447 45.6313 23.9031 45.6641 23.8614 45.6962C23.8384 45.7151 23.8154 45.7334 23.7924 45.7504C23.7607 45.7763 23.7284 45.8008 23.696 45.8248C23.6606 45.8525 23.6258 45.8784 23.5897 45.9048C23.5325 45.9471 23.4747 45.9893 23.4169 46.0302C23.3193 46.1002 23.2192 46.1683 23.1172 46.2344C23.0824 46.2571 23.0476 46.2798 23.0122 46.3019C23.0078 46.3057 23.0035 46.3082 22.9985 46.3107C22.9599 46.3353 22.922 46.3592 22.8829 46.3832C22.8456 46.4065 22.8083 46.4292 22.7703 46.4525C22.7641 46.4563 22.7579 46.4601 22.7523 46.4632C22.7113 46.4878 22.6702 46.5124 22.6292 46.5363C22.6112 46.547 22.5931 46.5578 22.5751 46.5678C22.5515 46.5817 22.5279 46.5949 22.5042 46.6075C22.4309 46.6491 22.3563 46.6901 22.2811 46.7292C22.2251 46.7601 22.1685 46.7897 22.1107 46.818C22.0672 46.8407 22.0237 46.8628 21.9789 46.8842C21.8707 46.9384 21.7601 46.9907 21.6476 47.0399C21.5953 47.0632 21.5431 47.0865 21.4909 47.1092C19.06 48.1567 16.3389 48.2771 13.724 47.9002C13.6575 47.8907 13.5916 47.8806 13.5245 47.8706C13.4816 47.8643 13.4387 47.8573 13.3952 47.8504C13.3056 47.8359 13.2161 47.8214 13.1266 47.8056C13.0452 47.7911 12.9637 47.7766 12.8823 47.7615C12.8008 47.7464 12.72 47.7313 12.6392 47.7155C12.559 47.6998 12.4782 47.6834 12.3967 47.6664C9.34793 47.0323 7.27271 45.6256 5.86892 43.9051C2.02374 39.1953 3.20495 32.1365 3.20495 32.1365C5.40576 33.5439 8.34824 34.7571 10.9308 34.1634C11.9224 33.9359 12.9196 33.7058 13.8534 33.3006C17.0489 31.9159 18.4614 28.7338 19.9553 25.7799C20.7672 24.1734 21.4983 22.4591 22.6653 21.0758C22.7169 21.014 22.771 20.9541 22.8257 20.8955C23.167 20.3926 23.6904 20.0125 24.2469 19.7838C24.3078 19.7586 24.3687 19.7359 24.4315 19.7132C25.5002 19.2008 26.7299 19.0476 27.8968 19.3602C28.8723 19.6212 29.4859 20.0995 29.8371 20.7064C31.0184 22.7503 29.5449 25.6255 28.5148 27.45Z" fill="#C19272"/>
<path d="M13.7259 38.5574C13.5916 38.5455 13.4573 38.5347 13.323 38.524C13.3174 38.5202 13.3118 38.5158 13.3062 38.5127C13.2584 38.1957 13.0619 37.9203 12.7821 37.7942C12.8512 37.7072 12.9028 37.6026 12.9307 37.4797C12.9699 37.3064 12.9556 37.1079 12.8941 36.927C12.9537 36.547 12.8574 36.1417 12.5627 35.8858C11.3261 34.8119 10.3439 33.6592 9.51701 32.2991C9.17569 31.7376 8.43774 31.5214 7.8664 31.8605C7.35102 32.1661 7.12285 32.8638 7.37153 33.414C7.20492 33.3957 7.03146 33.4291 6.86236 33.5293C6.48562 33.7525 6.25746 34.3657 6.5453 34.7558C6.81947 35.1283 7.12161 35.4774 7.44676 35.8007C7.34356 35.8436 7.24844 35.906 7.16824 35.9873C6.82258 36.3377 6.83812 36.903 7.16824 37.2547C7.29009 37.3839 7.4163 37.5087 7.54686 37.6278C7.34978 37.9713 7.4051 38.4181 7.68238 38.7156C8.40603 39.4921 9.42065 39.8772 10.4433 40.0303C11.3181 40.162 12.204 40.2269 13.0868 40.2975C13.1061 40.3026 13.1253 40.3076 13.1446 40.3133C13.2801 40.3498 13.4157 40.3895 13.5499 40.4305C13.5798 40.4028 13.6078 40.3732 13.6345 40.3429C13.6656 40.3454 13.6967 40.3479 13.7277 40.3505C14.1897 40.3908 14.6317 39.9093 14.6118 39.4543C14.5869 38.9331 14.2208 38.6009 13.7259 38.5574Z" fill="#A51627"/>
<path d="M28.516 27.4929C28.2593 27.965 28.028 28.4106 27.8402 28.8826C27.8396 28.8851 27.8384 28.887 27.8384 28.8889C27.7488 29.1133 27.6693 29.3439 27.6021 29.5866C27.4871 29.9981 27.4113 30.3719 27.3584 30.7481C27.152 32.0244 27.1582 33.3435 27.244 34.6802C27.4287 37.5485 27.7432 40.5081 26.3003 42.9755C26.1617 43.2124 26.0068 43.445 25.8334 43.6725C25.7488 43.7847 25.6618 43.8956 25.5717 44.0047C25.5281 44.0595 25.4828 44.1143 25.4368 44.1679C25.346 44.2757 25.2527 44.3816 25.1576 44.4849C25.1228 44.5234 25.0874 44.5612 25.0519 44.599C25.0252 44.628 24.9985 44.6563 24.9705 44.6853C24.9456 44.7112 24.9214 44.7364 24.8971 44.761C24.8754 44.7843 24.853 44.807 24.8306 44.829C24.7945 44.8649 24.7585 44.9009 24.7224 44.9368C24.7162 44.9437 24.7094 44.95 24.7032 44.9557C24.6578 44.9998 24.6124 45.0433 24.5658 45.0874C24.5142 45.1366 24.4626 45.1845 24.411 45.2317C24.3681 45.2708 24.3245 45.3086 24.281 45.3465C24.2692 45.3578 24.2568 45.3685 24.245 45.378C24.2151 45.4044 24.1853 45.4296 24.1554 45.4549C24.1181 45.487 24.0815 45.5185 24.0435 45.5494C24.0243 45.5658 24.0044 45.5815 23.9851 45.5973C23.9447 45.6313 23.903 45.6641 23.8614 45.6962C23.8384 45.7151 23.8154 45.7334 23.7924 45.7504C23.7607 45.7763 23.7283 45.8009 23.696 45.8248C23.6606 45.8525 23.6258 45.8784 23.5897 45.9048C23.5325 45.9471 23.4747 45.9893 23.4169 46.0303C23.3193 46.1002 23.2192 46.1683 23.1172 46.2345C23.0824 46.2572 23.0476 46.2798 23.0121 46.3019C23.0078 46.3057 23.0034 46.3082 22.9985 46.3107C22.9599 46.3353 22.922 46.3593 22.8828 46.3832C22.8455 46.4065 22.8082 46.4292 22.7703 46.4525C22.7641 46.4563 22.7579 46.4601 22.7523 46.4632C22.7112 46.4878 22.6702 46.5124 22.6292 46.5364C22.5875 46.5603 22.5459 46.5843 22.5042 46.6076C22.4309 46.6492 22.3563 46.6901 22.281 46.7292C22.2251 46.7601 22.1685 46.7897 22.1107 46.8181C22.0672 46.8408 22.0236 46.8628 21.9789 46.8842C21.8707 46.9384 21.7601 46.9908 21.6475 47.0399C21.5953 47.0632 21.5431 47.0866 21.4909 47.1092C19.461 47.9891 16.9077 48.3653 13.724 47.9002C13.6575 47.8907 13.5916 47.8807 13.5245 47.8706C13.4816 47.8643 13.4387 47.8573 13.3951 47.8504C13.3056 47.8359 13.2161 47.8214 13.1266 47.8057C13.0451 47.7912 12.9637 47.7767 12.8822 47.7615C12.8008 47.7464 12.72 47.7313 12.6392 47.7155C12.559 47.6998 12.4781 47.6834 12.3967 47.6664C9.3479 47.0324 7.27268 45.6257 5.8689 43.9051C5.97769 43.9505 16.4079 48.2998 21.047 43.9045C23.3211 41.7497 24.4812 38.9318 25.037 35.8758C25.4759 33.462 25.0128 30.5792 26.2692 28.3721C26.7311 27.561 27.5741 26.9931 28.511 27.244C28.5123 27.3114 28.5142 27.3795 28.5154 27.4482C28.5154 27.4646 28.5154 27.4784 28.516 27.4929Z" fill="#A57C60"/>
<path d="M22.8424 33.6403C22.779 33.5073 22.7069 33.3787 22.6254 33.2552C21.5667 31.65 19.5772 31.0847 17.9055 32.0199C16.4837 32.8153 14.9593 33.317 13.4305 33.4002C13.0892 33.31 12.6708 33.1714 12.3979 33.0548C12.1262 32.9388 11.7308 32.7309 11.4293 32.5468C11.0843 32.3357 10.8095 32.1365 10.5508 31.9172C10.1741 31.5977 9.63323 31.5428 9.26394 31.9172C9.23162 31.95 9.2024 31.9865 9.17566 32.025C8.81073 31.7685 8.31834 31.7603 7.98387 32.0993C7.65437 32.4334 7.6121 33.075 7.98387 33.404C8.04231 33.4556 8.10137 33.5061 8.15981 33.5565C7.88378 33.6063 7.61832 33.7815 7.48714 34.009C7.21359 34.4836 7.42186 34.9682 7.81352 35.2714C7.88502 35.3268 7.95714 35.3804 8.02925 35.4346C7.701 35.7686 7.65811 36.4102 8.0305 36.7379C8.20644 36.8936 8.38797 37.0373 8.57386 37.1734C8.39668 37.2982 8.25928 37.4804 8.21328 37.6839C8.0964 38.2033 8.3687 38.6432 8.84865 38.819C9.0221 38.8827 9.1968 38.9425 9.3715 39.0005C9.14396 39.395 9.24778 40.0568 9.69789 40.2629C9.71778 40.2717 9.73768 40.2805 9.75757 40.29C9.83342 40.4324 9.9447 40.5553 10.0902 40.6385C13.6836 42.6963 20.4072 43.4122 22.4886 38.773C23.1439 37.3121 23.5766 35.1806 22.8424 33.6403Z" fill="#BD1E2C"/>
<path d="M29.8365 20.7065C29.4853 20.0996 28.8716 19.6212 27.8962 19.3603C26.7299 19.0477 25.4996 19.2015 24.4309 19.7132C24.3681 19.7359 24.3071 19.7586 24.2462 19.7838C23.6898 20.0126 23.1663 20.3926 22.825 20.8955C22.7703 20.9548 22.7168 21.0147 22.6646 21.0758C21.5412 22.4075 20.7349 23.973 19.969 25.5335C19.5816 26.3219 19.2068 27.1173 18.802 27.8969C18.6149 28.258 18.4383 28.6469 18.2108 28.9841C18.1555 29.066 17.5518 29.7063 17.5524 29.7108C17.6121 30.0322 17.8297 30.2862 18.1468 30.3921C18.1636 30.7652 18.4651 31.149 18.807 31.2252C18.8667 31.2385 18.927 31.2504 18.9873 31.2618C18.9972 31.4168 19.0066 31.5712 19.0165 31.7263C19.0557 32.3584 19.581 32.6798 20.0703 32.5803C20.084 32.6502 20.0983 32.7208 20.112 32.7908C20.1847 33.1588 20.5987 33.4651 20.9643 33.4487C21.1576 33.4399 21.3361 33.3763 21.4828 33.2685C21.4871 33.288 21.4909 33.3076 21.494 33.3271C21.4946 33.334 21.4952 33.3422 21.4965 33.3529C21.5058 33.4594 21.5108 33.5653 21.5151 33.6718C21.5344 34.1199 21.8372 34.4918 22.2817 34.5523C22.5098 34.5832 22.7069 34.5302 22.8685 34.4199C22.8947 34.4565 22.9233 34.4968 22.9257 34.5006C23.0035 34.6128 23.083 34.7218 23.1676 34.829C23.3118 35.0117 23.4679 35.1422 23.655 35.2846C23.8974 35.4693 24.2158 35.451 24.4787 35.3161C24.6814 35.6439 24.8878 36.0107 25.2254 36.1979C25.6307 36.4228 26.0852 36.3775 26.4246 36.1102C26.4514 36.1298 26.4626 36.1361 26.4302 36.1058C26.7946 36.3958 27.3025 36.4386 27.6525 36.0838C27.9671 35.7649 28.0205 35.1283 27.6525 34.8164C27.5188 34.7029 27.1595 31.967 27.3566 30.7462C27.4591 30.1147 27.6133 29.494 27.8365 28.887C27.8365 28.8851 27.8378 28.8832 27.8384 28.8807C28.0025 28.4333 28.2046 27.9933 28.4489 27.5623C28.47 27.5244 28.4918 27.4873 28.5129 27.4482C29.5449 25.6255 31.0184 22.7504 29.8365 20.7065Z" fill="#EDB188"/>
<path d="M27.9963 21.5296C27.9963 21.752 27.8185 21.9323 27.5991 21.9323C27.3796 21.9323 27.2018 21.752 27.2018 21.5296C27.2018 21.3071 27.3796 21.1268 27.5991 21.1268C27.8185 21.1268 27.9963 21.3071 27.9963 21.5296Z" fill="#49151A"/>
<path d="M26.6994 47.8271C26.6994 48.1327 26.6459 48.4327 26.544 48.7239C25.6674 51.226 21.185 53.1318 15.7862 53.1318C10.388 53.1318 5.90494 51.2266 5.02835 48.7239C4.92639 48.4327 4.87292 48.1334 4.87292 47.8271C4.87292 46.8609 5.4051 45.9546 6.33329 45.1744C8.22013 46.7601 11.747 47.8271 15.7862 47.8271C19.8259 47.8271 23.3522 46.7607 25.2397 45.1744C26.1685 45.9552 26.6994 46.8609 26.6994 47.8271Z" fill="#672122"/>
<path d="M26.544 48.7239C25.6674 51.226 21.185 53.1319 15.7862 53.1319C10.388 53.1319 5.90497 51.2266 5.02838 48.7239C7.57049 49.9189 11.4455 50.6821 15.7862 50.6821C20.1281 50.6821 24.0019 49.9189 26.544 48.7239Z" fill="#49151A"/>
<path d="M19.7483 48.9331C19.724 48.9331 19.6992 48.9287 19.6755 48.9199L11.2205 45.6836C11.1142 45.6426 11.0601 45.5223 11.1005 45.4139C11.1409 45.3055 11.2597 45.2513 11.3666 45.2922L19.8216 48.5285C19.928 48.5695 19.982 48.6899 19.9416 48.7983C19.9099 48.8815 19.8316 48.9331 19.7483 48.9331Z" fill="#49151A"/>
<path d="M7.9012 48.3117C7.80919 48.3117 7.72526 48.2487 7.70164 48.1542C7.67366 48.042 7.74018 47.9285 7.85022 47.8996L11.8285 46.8685C11.9391 46.8401 12.051 46.9075 12.0796 47.0191C12.1076 47.1307 12.0411 47.2447 11.931 47.2737L7.95281 48.3048C7.9354 48.3098 7.91799 48.3117 7.9012 48.3117Z" fill="#49151A"/>
<path d="M15.7868 48.9331C15.719 48.9331 15.6531 48.8997 15.6133 48.8373C15.5512 48.7403 15.5785 48.6111 15.6743 48.5481L20.6087 45.3118C20.7044 45.2487 20.8319 45.2771 20.894 45.3735C20.9562 45.4706 20.9282 45.5998 20.8331 45.6628L15.8987 48.8991C15.8639 48.9218 15.8247 48.9331 15.7868 48.9331Z" fill="#49151A"/>
<path d="M23.3734 48.3117C23.3572 48.3117 23.3404 48.3098 23.3236 48.3054L17.19 46.7739C17.0793 46.7462 17.0115 46.6327 17.0389 46.5206C17.0663 46.4084 17.1782 46.3397 17.2888 46.3674L23.4225 47.8989C23.5331 47.9266 23.6009 48.0401 23.5735 48.1523C23.5499 48.2481 23.466 48.3117 23.3734 48.3117Z" fill="#49151A"/>
<path d="M12.7156 49.293C12.6746 49.293 12.633 49.2804 12.5969 49.2546L9.07935 46.7418C8.9861 46.675 8.96371 46.5445 9.02961 46.4506C9.09551 46.3561 9.22421 46.3334 9.31684 46.4002L12.8344 48.9136C12.9276 48.9798 12.95 49.1109 12.8841 49.2048C12.8443 49.2621 12.7809 49.293 12.7156 49.293Z" fill="#49151A"/>
<path d="M22.2518 48.0049C22.8045 45.09 24.1778 43.9839 24.7467 43.641C24.9008 43.5484 25.0985 43.5503 25.2508 43.6461C25.8135 44.0003 27.1644 45.1335 27.6612 48.0584C28.2947 51.7932 24.9213 51.6527 24.9213 51.6527C24.9213 51.6527 21.5462 51.7258 22.2518 48.0049Z" fill="#F66654"/>
<path d="M24.9997 43.5723C25.0874 43.573 25.175 43.5975 25.2509 43.6454C25.8135 43.9996 27.1645 45.1328 27.6612 48.0578C28.2947 51.7926 24.9214 51.652 24.9214 51.652L24.9997 43.5723Z" fill="#D4583F"/>
<path d="M25.9627 49.2161C28.1903 47.2901 29.9447 47.2958 30.6 47.3884C30.7778 47.4136 30.9307 47.5403 30.9904 47.7117C31.2117 48.3445 31.5686 50.0852 30.1536 52.6837C28.3469 56.0013 25.7992 53.7558 25.7992 53.7558C25.7992 53.7558 23.1185 51.6747 25.9627 49.2161Z" fill="#F66654"/>
<path d="M30.8393 47.4949C30.9071 47.551 30.9606 47.626 30.9904 47.7117C31.2117 48.3445 31.5686 50.0852 30.1536 52.6837C28.3469 56.0013 25.7999 53.7558 25.7999 53.7558L30.8393 47.4949Z" fill="#D4583F"/>
<path d="M25.0084 52.7234C25.0084 52.7234 24.3388 48.7232 19.2658 48.2657C20.8238 49.194 22.5372 49.6957 23.747 52.695C24.6764 54.9992 25.0084 52.7234 25.0084 52.7234Z" fill="#6F811B"/>
<path d="M25.0563 52.5022C25.0563 52.5022 21.867 49.2823 18.0255 51.1251C20.2742 51.0464 21.8856 50.9783 23.2894 53.0203C24.6938 55.0629 25.0563 52.5022 25.0563 52.5022Z" fill="#889C29"/>
</svg>