<svg xmlns="http://www.w3.org/2000/svg" width="64" height="71" viewBox="0 0 64 71" fill="none">
<path d="M56.013 70.908L58.284 55.967C58.284 51.68 54.808 48.204 50.521 48.204H46.327L40.255 49.466L34.183 48.204H29.989C25.702 48.204 22.226 51.68 22.226 55.967L24.497 70.908H56.013Z" fill="#BD1E2C"/>
<path d="M50.521 48.204H46.327L40.286 49.459V70.908H56.013L58.284 55.967C58.284 51.68 54.808 48.204 50.521 48.204Z" fill="#8C231F"/>
<path d="M29.076 32.019H27.58C25.71 32.019 24.195 30.503 24.195 28.634C24.195 26.764 25.711 25.249 27.58 25.249H29.076V32.019Z" fill="#FCCEAE"/>
<path d="M51.425 25.249H52.921C54.791 25.249 56.306 26.765 56.306 28.634C56.306 30.504 54.79 32.019 52.921 32.019H51.425V25.249Z" fill="#EDB188"/>
<path d="M46.327 45.208L40.254 49.466L34.182 45.208V34.854H46.327V45.208Z" fill="#FCCEAE"/>
<path d="M40.25 43.356C36.441 43.356 33.019 41.702 30.662 39.073C28.62 36.795 27.378 33.785 27.378 30.484V21.588C27.378 14.479 33.141 8.716 40.25 8.716C47.359 8.716 53.122 14.479 53.122 21.588V30.484C53.122 33.545 52.054 36.356 50.269 38.566C47.91 41.488 44.298 43.356 40.25 43.356Z" fill="#FCCEAE"/>
<path d="M40.351 8.71698V43.354C44.358 43.323 47.929 41.463 50.269 38.565C52.053 36.356 53.122 33.544 53.122 30.483V21.587C53.122 14.513 47.414 8.77198 40.351 8.71698Z" fill="#EDB188"/>
<path d="M50.197 17.879L53.122 24.964V13.48C53.122 9.779 50.122 6.77899 46.421 6.77899H34.079C30.378 6.77899 27.378 9.779 27.378 13.48V24.964L30.08 18.161C30.08 18.161 40.25 25.196 50.197 17.879Z" fill="#672122"/>
<path d="M46.327 47.697L40.336 49.466V34.854H46.327V47.697Z" fill="#EDB188"/>
<path d="M40.254 49.466L46.327 45.208L46.545 48.265L43.285 52.382L40.254 49.466Z" fill="#BD1E2C"/>
<path d="M40.254 49.466L34.182 45.208L33.964 48.265L37.224 52.382L40.254 49.466Z" fill="#EF4136"/>
<path d="M53.329 64.246C54.197 64.897 55.275 65.282 56.442 65.282H56.868L56.013 70.908L53.329 64.246Z" fill="#376991"/>
<path d="M17 68.971V70.908H24.356C24.431 70.59 24.468 70.402 24.468 70.402L24.508 50.511C24.508 50.511 18.152 56.21 17 68.971Z" fill="#EF4136"/>
<path d="M63.495 67.647C62.043 55.816 56.129 50.511 56.129 50.511L56.169 70.402C56.169 70.402 56.205 70.59 56.281 70.908H63.495V67.647Z" fill="#771818"/>
<path d="M51.409 60.087V59.613H40.336V70.907H56.291V65.27C53.568 65.109 51.409 62.851 51.409 60.087Z" fill="#6F811B"/>
<path d="M29.262 60.087V59.613H40.336V70.907H24.381V65.27C27.104 65.109 29.262 62.851 29.262 60.087Z" fill="#889C29"/>
<path d="M33.263 48.204H29.262V63.456C29.262 64.561 30.158 65.457 31.262 65.457C32.367 65.457 33.262 64.561 33.262 63.456L33.263 48.204Z" fill="#6F811B"/>
<path d="M51.375 48.204H47.374V63.456C47.374 64.561 48.27 65.457 49.375 65.457C50.48 65.457 51.375 64.561 51.375 63.456V48.204Z" fill="#626D13"/>
<path d="M31.263 64.6C32.0997 64.6 32.778 63.9217 32.778 63.085C32.778 62.2483 32.0997 61.57 31.263 61.57C30.4263 61.57 29.748 62.2483 29.748 63.085C29.748 63.9217 30.4263 64.6 31.263 64.6Z" fill="#FCAB16"/>
<path d="M31.263 61.57C30.426 61.57 29.748 62.248 29.748 63.086C29.748 63.924 30.427 64.602 31.263 64.602V61.57Z" fill="#FFC239"/>
<path d="M49.374 64.6C50.2107 64.6 50.889 63.9217 50.889 63.085C50.889 62.2483 50.2107 61.57 49.374 61.57C48.5373 61.57 47.859 62.2483 47.859 63.085C47.859 63.9217 48.5373 64.6 49.374 64.6Z" fill="#FCAB16"/>
<path d="M49.374 61.57C48.537 61.57 47.858 62.248 47.858 63.086C47.858 63.924 48.536 64.602 49.374 64.602V61.57Z" fill="#FFC239"/>
<path d="M46.421 6.77899H40.431V21.205C43.444 21.186 46.833 20.353 50.197 17.879L53.122 24.964V13.48C53.122 9.779 50.122 6.77899 46.421 6.77899Z" fill="#49151A"/>
<path d="M40.509 45.81H40.167C38.21 45.81 36.624 44.224 36.624 42.267V37.723C36.624 36.573 37.557 35.64 38.707 35.64H41.97C43.12 35.64 44.053 36.573 44.053 37.723V42.267C44.052 44.224 42.465 45.81 40.509 45.81Z" fill="#672122"/>
<path d="M41.969 35.64H40.25V45.81H40.508C42.465 45.81 44.051 44.224 44.051 42.267V37.723C44.052 36.573 43.119 35.64 41.969 35.64Z" fill="#49151A"/>
<path d="M40.286 39.664H38.735C38.301 39.664 37.95 39.312 37.95 38.879V38.776C37.95 38.559 38.126 38.382 38.344 38.382H40.287L40.286 39.664Z" fill="#FCCEAE"/>
<path d="M40.25 39.664H41.801C42.235 39.664 42.586 39.312 42.586 38.879V38.776C42.586 38.559 42.41 38.382 42.192 38.382H40.249V39.664H40.25Z" fill="#EDB188"/>
<path d="M40.431 0H37.814C32.05 0 27.378 4.672 27.378 10.436H40.431V0Z" fill="#FFC239"/>
<path d="M40.431 0H43.049C48.812 0 53.485 4.672 53.485 10.436H40.431V0Z" fill="#FCAB16"/>
<path d="M40.431 12.912H25.433C24.749 12.912 24.195 12.358 24.195 11.674C24.195 10.99 24.749 10.436 25.433 10.436H40.432L40.431 12.912Z" fill="#FFC239"/>
<path d="M40.431 10.435H55.43C56.114 10.435 56.668 10.989 56.668 11.673C56.668 12.357 56.114 12.911 55.43 12.911H40.431V10.435Z" fill="#FCAB16"/>
<path d="M15.9247 54.208C15.9247 55.3417 15.9148 59.7481 15.8463 60.8818C15.8082 60.8593 14.5052 60.8511 14.4519 60.8435C13.4548 60.791 12.0011 60.7204 11.004 60.6904C10.9736 60.1723 12.6519 56.3478 12.629 55.8297C12.8954 56.0475 13.1161 56.3478 13.4815 56.4229C13.6794 56.4604 13.8468 56.3328 13.862 56.1301C13.9229 55.3943 14.3035 54.606 14.6003 53.9002C15.057 53.9528 15.4832 54.133 15.9247 54.208Z" fill="#FBBE3A"/>
<path d="M25.3931 30.3178C25.9183 39.0345 24.1525 47.8263 24.0383 56.5505C24.0307 56.8058 23.9089 56.9635 23.7491 57.0536C23.7339 57.2713 23.6273 57.4815 23.3838 57.6242C21.2831 58.8404 19.0073 59.7339 16.8457 60.8376C16.8 60.8601 16.762 60.8676 16.7163 60.8751C16.7087 60.8976 16.7087 60.9202 16.7011 60.9427C16.5641 61.5734 15.4604 61.4382 15.5442 60.785C15.6279 60.1769 15.6812 59.5612 15.7344 58.9456C15.7268 58.9456 15.7192 58.9606 15.704 58.9606C15.0037 58.9681 14.334 58.7429 13.6337 58.9681C12.9944 59.1708 12.5149 59.5612 12.1191 60.0943C12.0734 60.1619 12.0125 60.1994 11.944 60.2144C13.0096 60.2294 14.06 60.312 15.0342 60.5297C15.7116 60.6874 15.7192 61.7385 15.0342 61.8812C12.591 62.4142 9.752 61.9112 7.2555 61.8812C5.55058 61.8587 2.74203 62.5118 1.14366 61.9112C0.869656 62.3842 0.0628636 62.0989 0.169421 61.4908C1.68406 52.7815 -1.52029 43.4792 1.01426 34.9802C1.01426 34.9802 1.00666 34.9802 0.999046 34.9802C0.443424 34.8075 0.671744 34.0192 1.24259 34.1243C1.26542 34.1243 1.29587 34.1318 1.31871 34.1318C2.40712 32.0746 3.39657 30.0024 4.33276 27.8702C4.33276 27.8551 4.32516 27.8551 4.31754 27.8401C3.86848 26.4136 3.99787 25.0321 3.98265 23.5456C3.98265 23.1552 4.348 22.9449 4.70573 23.0125C9.51604 23.8309 14.5623 24.4015 19.3879 23.3279C19.8598 23.2302 20.3925 23.6432 20.2175 24.1462C19.8826 25.1147 19.8065 26.1208 19.4944 27.0743C19.5401 27.1344 19.5781 27.2095 19.5857 27.2845C19.7988 27.1194 20.0729 27.0518 20.3316 27.2095C21.6788 28.0578 23.1706 28.6885 24.2971 29.7997C24.6853 29.5369 25.3551 29.7096 25.3931 30.3178ZM22.615 56.3253C22.6759 56.2952 22.7368 56.2652 22.7977 56.2502C22.1964 48.1942 23.8557 40.0706 24.0155 31.9845C22.8738 31.6542 21.7625 31.2938 20.56 31.2112C20.4686 31.5115 20.3469 31.8043 20.2099 32.0521C19.6086 33.1332 18.6724 33.854 17.5916 34.4096C17.622 34.4997 17.6372 34.6048 17.6144 34.7174C16.3053 42.9311 18.3755 51.2875 16.9903 59.4561C18.8246 58.3374 20.7579 57.3989 22.615 56.3253ZM20.735 30.3027C21.5571 30.3102 22.4095 30.4079 23.2391 30.5805C22.5009 29.8823 21.5418 29.3943 20.6285 28.8987C20.7579 29.3342 20.7883 29.8147 20.735 30.3027ZM19.1443 31.4364C19.3726 30.9034 19.3955 30.3703 19.4107 29.8372C18.817 30.8358 18.3147 31.8719 17.8656 32.9455C18.3984 32.5401 18.8703 32.0521 19.1443 31.4364ZM19.1215 27.8702C19.0377 27.9452 18.9388 27.9753 18.8322 27.9828C16.0998 29.184 12.7052 29.0489 9.79766 28.9963C7.40772 28.9513 5.95398 28.4783 4.56873 30.6481C3.79238 31.8644 3.01603 33.0732 2.20923 34.2669C6.9891 34.9952 11.4417 34.5072 16.2368 34.4396C16.9446 32.1422 17.7134 29.8447 19.1215 27.8702ZM18.1472 26.9317C18.307 26.2559 18.4288 25.5802 18.5963 24.9045C14.1817 25.8881 9.41709 25.1298 5.033 24.2213C4.88839 25.3175 4.71333 26.3986 4.77422 27.5098C4.85034 27.4872 4.91883 27.4797 4.97972 27.4797C9.4247 27.5323 13.7555 27.0893 18.1472 26.9317ZM15.9247 53.5999C15.9247 53.277 15.9095 52.9542 15.9019 52.6389C14.6308 52.6163 13.6033 51.4827 13.2684 50.3565C13.1162 49.8234 13.0248 49.2753 13.002 48.7197C12.9944 48.532 12.9639 48.3368 12.9639 48.1416C12.9563 47.984 13.0172 48.0515 12.8345 48.2167C12.6595 48.3819 12.4007 48.1266 12.5758 47.9614C13.2456 47.3308 13.55 48.1416 13.6718 48.7348C13.8088 49.3955 13.8545 50.0937 14.1893 50.6943C14.6156 51.4451 15.1788 51.6403 15.8867 51.8956C15.8486 50.1613 15.7801 48.4344 15.7268 46.7076C14.2274 46.9478 12.7813 47.2332 11.5178 47.8263C12.8421 49.3654 14.0904 52.3911 11.7614 53.5398C10.4903 54.163 7.88723 53.7275 8.24496 51.8581C8.2754 51.7079 8.48853 51.6929 8.56464 51.813C9.15071 52.8116 10.2924 53.4272 11.4112 52.744C13.1466 51.6779 11.7309 49.4555 10.9393 48.1266C9.93466 48.7047 9.06697 49.5231 8.41241 50.7394C7.82634 51.8205 7.50667 52.9692 7.3925 54.133C8.65597 54.3057 10.1402 55.2517 10.6501 56.2427C11.4189 57.7143 10.6577 58.8555 9.39426 59.7264C9.16593 59.884 8.8843 59.5237 9.09741 59.3435C10.1402 58.4801 10.7034 57.2037 9.54648 56.1601C8.87669 55.552 8.10796 55.3643 7.34683 55.0865C7.36206 56.5205 7.69695 57.962 8.32107 59.321C8.51897 59.7714 7.94051 60.1168 7.65128 59.7114C3.82282 54.2906 8.43524 44.6504 15.7116 46.0919C15.704 45.724 15.6888 45.3637 15.6811 44.9958C15.605 45.1159 15.4756 45.206 15.2778 45.1985C6.56286 44.9733 2.88663 52.7965 5.69518 60.2895C5.69518 60.297 5.69518 60.312 5.69518 60.3195C6.29647 60.3195 6.84449 60.3345 7.2555 60.327C8.68642 60.312 10.2315 60.2069 11.7461 60.2144C11.5635 60.1619 11.4341 59.9741 11.5711 59.7789C12.1191 58.9906 13.002 58.39 13.9458 58.2023C13.3902 58.2398 12.8346 58.2698 12.2713 58.2698C12.0354 58.2698 11.7994 58.0671 11.8223 57.8269C11.8755 56.9785 11.906 56.1301 11.944 55.2817C11.9516 55.0715 12.1495 54.9138 12.3627 54.9663C12.7813 55.0715 13.0096 55.4769 13.3369 55.7021C13.4967 54.9513 13.8621 54.2005 14.1437 53.5173C14.1894 53.4047 14.2807 53.2996 14.4177 53.3071C14.92 53.3371 15.43 53.4572 15.9247 53.5999ZM15.8334 57.6092C15.9019 56.4755 15.9247 55.3418 15.9247 54.2081C15.4833 54.133 15.057 53.9528 14.6004 53.9002C14.3035 54.606 13.923 55.3943 13.8621 56.1301C13.8468 56.3328 13.6794 56.4604 13.4815 56.4229C13.1162 56.3478 12.8954 56.0475 12.6291 55.8298C12.6519 56.3478 12.6747 56.8659 12.7051 57.3839C13.7022 57.4139 14.7069 57.5116 15.704 57.5641C15.7573 57.5716 15.7953 57.5866 15.8334 57.6092ZM15.7801 58.3975C15.7877 58.2849 15.7953 58.1722 15.8029 58.0596C15.7725 58.0671 15.742 58.0746 15.704 58.0821C15.3919 58.0972 15.0723 58.1197 14.7602 58.1422C15.1027 58.1647 15.4452 58.2398 15.7801 58.3975ZM15.6736 44.4552C15.6203 41.5121 15.6964 38.5765 16.1454 35.6634C11.7842 36.9097 6.42586 36.4743 2.02655 35.273C0.862024 43.7945 3.38898 52.7064 1.37961 61.0628C2.26251 60.4997 3.73908 60.3571 5.07105 60.327C1.3187 52.714 6.08335 43.3891 15.2778 44.215C15.468 44.23 15.5974 44.3276 15.6736 44.4552Z" fill="#1D1D1B"/>
<path d="M22.7977 56.2502C22.7368 56.2652 22.6759 56.2952 22.615 56.3253C20.7579 57.3989 18.8246 58.3374 16.9903 59.4561C18.3755 51.2874 16.3053 42.9311 17.6144 34.7174C17.6373 34.6048 17.622 34.4996 17.5916 34.4096C18.6724 33.854 19.6086 33.1332 20.2099 32.0521C20.3469 31.8043 20.4686 31.5115 20.56 31.2112C21.7626 31.2938 22.8738 31.6541 24.0155 31.9845C23.8557 40.0706 22.1964 48.1942 22.7977 56.2502Z" fill="#FFCC00"/>
<path d="M23.2391 30.5805C22.4095 30.4079 21.557 30.3102 20.735 30.3027C20.7883 29.8147 20.7578 29.3342 20.6284 28.8987C21.5418 29.3943 22.5008 29.8823 23.2391 30.5805Z" fill="#FFCC00"/>
<path d="M19.4107 29.8373C19.3955 30.3703 19.3726 30.9034 19.1443 31.4365C18.8703 32.0521 18.3984 32.5402 17.8656 32.9456C18.3147 31.8719 18.817 30.8358 19.4107 29.8373Z" fill="#FFCC00"/>
<path d="M18.8322 27.9828C18.9388 27.9753 19.0377 27.9453 19.1214 27.8702C17.7134 29.8448 16.9446 32.1422 16.2368 34.4396C11.4417 34.5072 6.9891 34.9952 2.20923 34.2669C3.01602 33.0732 3.79238 31.8644 4.56872 30.6481C5.95397 28.4783 7.40772 28.9513 9.79766 28.9964C12.7052 29.0489 16.0998 29.1841 18.8322 27.9828Z" fill="#FFCC00"/>
<path d="M18.5963 24.9045C18.4288 25.5803 18.307 26.256 18.1472 26.9317C13.7555 27.0893 9.42468 27.5323 4.97971 27.4798C4.91882 27.4798 4.85032 27.4873 4.77421 27.5098C4.71332 26.3986 4.88838 25.3175 5.03299 24.2213C9.41708 25.1298 14.1817 25.8881 18.5963 24.9045Z" fill="#FFCC00"/>
<path d="M15.9019 52.6389C15.9095 52.9542 15.9247 53.2771 15.9247 53.5999C15.43 53.4572 14.92 53.3371 14.4177 53.3071C14.2807 53.2996 14.1893 53.4047 14.1437 53.5173C13.8621 54.2005 13.4967 54.9513 13.3369 55.7021C13.0096 55.4769 12.7813 55.0715 12.3626 54.9663C12.1495 54.9138 11.9516 55.0715 11.944 55.2817C11.906 56.1301 11.8755 56.9785 11.8222 57.8269C11.7994 58.0671 12.0354 58.2698 12.2713 58.2698C12.8345 58.2698 13.3902 58.2398 13.9458 58.2023C13.002 58.39 12.1191 58.9906 11.5711 59.7789C11.4341 59.9742 11.5635 60.1619 11.7461 60.2144C10.2315 60.2069 8.68641 60.312 7.25549 60.327C6.84448 60.3345 6.29646 60.3195 5.69517 60.3195C5.69517 60.312 5.69517 60.297 5.69517 60.2895C2.88661 52.7965 6.56285 44.9733 15.2777 45.1985C15.4756 45.206 15.605 45.1159 15.6811 44.9958C15.6888 45.3637 15.704 45.7241 15.7116 46.0919C8.43523 44.6504 3.82281 54.2906 7.65127 59.7114C7.9405 60.1168 8.51896 59.7714 8.32106 59.321C7.69694 57.962 7.36205 56.5205 7.34682 55.0865C8.10795 55.3643 8.87667 55.552 9.54647 56.1601C10.7034 57.2037 10.1401 58.4801 9.0974 59.3435C8.88429 59.5237 9.16592 59.884 9.39425 59.7264C10.6577 58.8555 11.4188 57.7143 10.6501 56.2427C10.1402 55.2517 8.65596 54.3057 7.39249 54.133C7.50666 52.9692 7.82633 51.8205 8.4124 50.7394C9.06696 49.5231 9.93465 48.7047 10.9393 48.1266C11.7309 49.4555 13.1466 51.6779 11.4112 52.744C10.2924 53.4272 9.1507 52.8116 8.56463 51.813C8.48852 51.6929 8.27539 51.7079 8.24495 51.8581C7.88722 53.7275 10.4903 54.163 11.7613 53.5398C14.0904 52.3911 12.8421 49.3654 11.5178 47.8263C12.7812 47.2332 14.2274 46.9479 15.7268 46.7076C15.7801 48.4344 15.8486 50.1613 15.8867 51.8956C15.1788 51.6403 14.6156 51.4451 14.1893 50.6943C13.8544 50.0937 13.8088 49.3955 13.6718 48.7348C13.55 48.1416 13.2455 47.3308 12.5758 47.9614C12.4007 48.1266 12.6595 48.3819 12.8345 48.2167C13.0172 48.0515 12.9563 47.984 12.9639 48.1416C12.9639 48.3368 12.9944 48.532 13.002 48.7197C13.0248 49.2753 13.1162 49.8234 13.2684 50.3565C13.6033 51.4827 14.6308 52.6164 15.9019 52.6389Z" fill="#FBBE3A"/>
<path d="M16.1455 35.6634C15.6964 38.5765 15.6203 41.5121 15.6736 44.4552C15.5975 44.3276 15.4681 44.23 15.2778 44.215C6.08338 43.3891 1.31873 52.714 5.07108 60.327C3.73911 60.3571 2.26254 60.4997 1.37964 61.0628C3.38901 52.7065 0.862054 43.7945 2.02658 35.273C6.42589 36.4743 11.7842 36.9097 16.1455 35.6634Z" fill="#FFCC00"/>
</svg>