<svg xmlns="http://www.w3.org/2000/svg" width="64" height="71" viewBox="0 0 64 71" fill="none">
<path d="M56.013 70.908L58.284 55.967C58.284 51.68 54.808 48.204 50.521 48.204H46.327L40.255 49.466L34.183 48.204H29.989C25.702 48.204 22.226 51.68 22.226 55.967L24.497 70.908H56.013Z" fill="#BD1E2C"/>
<path d="M50.521 48.204H46.327L40.286 49.459V70.908H56.013L58.284 55.967C58.284 51.68 54.808 48.204 50.521 48.204Z" fill="#8C231F"/>
<path d="M29.076 32.019H27.58C25.71 32.019 24.195 30.503 24.195 28.634C24.195 26.764 25.711 25.249 27.58 25.249H29.076V32.019Z" fill="#FCCEAE"/>
<path d="M51.425 25.249H52.921C54.791 25.249 56.306 26.765 56.306 28.634C56.306 30.504 54.79 32.019 52.921 32.019H51.425V25.249Z" fill="#EDB188"/>
<path d="M46.327 45.208L40.254 49.466L34.182 45.208V34.854H46.327V45.208Z" fill="#FCCEAE"/>
<path d="M40.25 43.356C36.441 43.356 33.019 41.702 30.662 39.073C28.62 36.795 27.378 33.785 27.378 30.484V21.588C27.378 14.479 33.141 8.716 40.25 8.716C47.359 8.716 53.122 14.479 53.122 21.588V30.484C53.122 33.545 52.054 36.356 50.269 38.566C47.91 41.488 44.298 43.356 40.25 43.356Z" fill="#FCCEAE"/>
<path d="M40.351 8.71698V43.354C44.358 43.323 47.929 41.463 50.269 38.565C52.053 36.356 53.122 33.544 53.122 30.483V21.587C53.122 14.513 47.414 8.77198 40.351 8.71698Z" fill="#EDB188"/>
<path d="M50.197 17.879L53.122 24.964V13.48C53.122 9.779 50.122 6.77899 46.421 6.77899H34.079C30.378 6.77899 27.378 9.779 27.378 13.48V24.964L30.08 18.161C30.08 18.161 40.25 25.196 50.197 17.879Z" fill="#672122"/>
<path d="M46.327 47.697L40.336 49.466V34.854H46.327V47.697Z" fill="#EDB188"/>
<path d="M40.254 49.466L46.327 45.208L46.545 48.265L43.285 52.382L40.254 49.466Z" fill="#BD1E2C"/>
<path d="M40.254 49.466L34.182 45.208L33.964 48.265L37.224 52.382L40.254 49.466Z" fill="#EF4136"/>
<path d="M53.329 64.246C54.197 64.897 55.275 65.282 56.442 65.282H56.868L56.013 70.908L53.329 64.246Z" fill="#376991"/>
<path d="M17 68.971V70.908H24.356C24.431 70.59 24.468 70.402 24.468 70.402L24.508 50.511C24.508 50.511 18.152 56.21 17 68.971Z" fill="#EF4136"/>
<path d="M63.495 67.647C62.043 55.816 56.129 50.511 56.129 50.511L56.169 70.402C56.169 70.402 56.205 70.59 56.281 70.908H63.495V67.647Z" fill="#771818"/>
<path d="M51.409 60.087V59.613H40.336V70.907H56.291V65.27C53.568 65.109 51.409 62.851 51.409 60.087Z" fill="#6F811B"/>
<path d="M29.262 60.087V59.613H40.336V70.907H24.381V65.27C27.104 65.109 29.262 62.851 29.262 60.087Z" fill="#889C29"/>
<path d="M33.263 48.204H29.262V63.456C29.262 64.561 30.158 65.457 31.262 65.457C32.367 65.457 33.262 64.561 33.262 63.456L33.263 48.204Z" fill="#6F811B"/>
<path d="M51.375 48.204H47.374V63.456C47.374 64.561 48.27 65.457 49.375 65.457C50.48 65.457 51.375 64.561 51.375 63.456V48.204Z" fill="#626D13"/>
<path d="M31.263 64.6C32.0997 64.6 32.778 63.9217 32.778 63.085C32.778 62.2483 32.0997 61.57 31.263 61.57C30.4263 61.57 29.748 62.2483 29.748 63.085C29.748 63.9217 30.4263 64.6 31.263 64.6Z" fill="#FCAB16"/>
<path d="M31.263 61.57C30.426 61.57 29.748 62.248 29.748 63.086C29.748 63.924 30.427 64.602 31.263 64.602V61.57Z" fill="#FFC239"/>
<path d="M49.374 64.6C50.2107 64.6 50.889 63.9217 50.889 63.085C50.889 62.2483 50.2107 61.57 49.374 61.57C48.5373 61.57 47.859 62.2483 47.859 63.085C47.859 63.9217 48.5373 64.6 49.374 64.6Z" fill="#FCAB16"/>
<path d="M49.374 61.57C48.537 61.57 47.858 62.248 47.858 63.086C47.858 63.924 48.536 64.602 49.374 64.602V61.57Z" fill="#FFC239"/>
<path d="M46.421 6.77899H40.431V21.205C43.444 21.186 46.833 20.353 50.197 17.879L53.122 24.964V13.48C53.122 9.779 50.122 6.77899 46.421 6.77899Z" fill="#49151A"/>
<path d="M40.509 45.81H40.167C38.21 45.81 36.624 44.224 36.624 42.267V37.723C36.624 36.573 37.557 35.64 38.707 35.64H41.97C43.12 35.64 44.053 36.573 44.053 37.723V42.267C44.052 44.224 42.465 45.81 40.509 45.81Z" fill="#672122"/>
<path d="M41.969 35.64H40.25V45.81H40.508C42.465 45.81 44.051 44.224 44.051 42.267V37.723C44.052 36.573 43.119 35.64 41.969 35.64Z" fill="#49151A"/>
<path d="M40.286 39.664H38.735C38.301 39.664 37.95 39.312 37.95 38.879V38.776C37.95 38.559 38.126 38.382 38.344 38.382H40.287L40.286 39.664Z" fill="#FCCEAE"/>
<path d="M40.25 39.664H41.801C42.235 39.664 42.586 39.312 42.586 38.879V38.776C42.586 38.559 42.41 38.382 42.192 38.382H40.249V39.664H40.25Z" fill="#EDB188"/>
<path d="M40.431 0H37.814C32.05 0 27.378 4.672 27.378 10.436H40.431V0Z" fill="#FFC239"/>
<path d="M40.431 0H43.049C48.812 0 53.485 4.672 53.485 10.436H40.431V0Z" fill="#FCAB16"/>
<path d="M40.431 12.912H25.433C24.749 12.912 24.195 12.358 24.195 11.674C24.195 10.99 24.749 10.436 25.433 10.436H40.432L40.431 12.912Z" fill="#FFC239"/>
<path d="M40.431 10.435H55.43C56.114 10.435 56.668 10.989 56.668 11.673C56.668 12.357 56.114 12.911 55.43 12.911H40.431V10.435Z" fill="#FCAB16"/>
<path d="M25.6507 35.3232C27.9721 39.204 27.3562 43.5167 26.138 47.6397C25.1093 51.1213 23.7489 55.7417 20.6154 58.0453C17.6916 60.1919 15.1469 58.3071 13.6579 55.722C12.6562 58.3464 9.54977 60.5256 6.9035 58.5165C3.5466 55.9642 2.05087 50.9512 1.07629 47.1227C0.0272535 42.9867 -0.906711 38.3859 1.59743 34.5182C3.68873 31.2983 9.00157 32.5549 12.4871 32.4763C11.8373 31.763 11.2891 30.9449 10.856 30.14C10.6732 29.8062 10.8289 29.407 11.2079 29.2958C12.372 28.9554 13.597 28.9751 14.8017 29.034C14.998 29.0405 15.2078 29.1583 15.2484 29.3612C15.4311 30.297 15.5326 31.2329 15.5462 32.1688C19.167 30.9384 23.6339 31.9528 25.6507 35.3232ZM24.6491 46.5795C25.4883 43.4382 26.314 39.721 24.5678 36.704C22.4968 33.1111 19.2889 32.9802 15.5123 33.242C15.492 33.4973 15.4785 33.7459 15.4447 34.0012C16.4057 34.2237 17.4141 34.7211 17.5563 35.6242C17.6104 35.9645 17.3532 36.3114 16.9607 36.2001C16.3922 36.043 15.9928 35.5915 15.4108 35.4344C14.9167 35.3035 14.4092 35.225 13.8948 35.2381C13.1774 35.2577 12.2502 35.6111 11.614 35.2315C11.5125 35.1726 11.4651 35.0614 11.4922 34.9436C11.7358 34.0077 13.2654 33.8507 14.1858 33.8572C13.8474 33.6674 13.5293 33.4449 13.2248 33.1897C11.5666 33.6805 9.88139 33.8965 8.14203 33.8572C6.51095 33.8245 4.22338 33.5823 3.05929 34.9763C0.6499 37.8951 1.32671 42.2602 2.16594 45.6044C2.99163 48.9093 4.06096 52.4171 6.03043 55.2705C6.68692 56.2194 8.07435 58.2155 9.5633 57.7443C11.1605 57.2403 11.7629 55.6042 12.8458 54.5179C13.1232 54.2365 13.509 54.3216 13.7188 54.5637C13.7933 54.5768 13.861 54.603 13.9219 54.6684C16.426 57.3647 18.9775 58.4576 21.2177 54.8844C22.815 52.3255 23.8775 49.4656 24.6491 46.5795ZM14.531 33.3337C14.6866 32.208 14.6731 31.03 14.4362 29.9502C13.7053 29.996 12.9811 30.0745 12.2705 30.2251C12.6563 30.8533 13.1029 31.4554 13.5632 32.0313C13.8406 32.3716 14.1723 32.9214 14.531 33.3337Z" fill="#1D1D1B"/>
<path d="M24.5678 36.704C26.314 39.721 25.4883 43.4382 24.6491 46.5795C23.8775 49.4656 22.8149 52.3255 21.2177 54.8843C18.9775 58.4576 16.426 57.3647 13.9219 54.6684C13.8609 54.6029 13.7933 54.5768 13.7188 54.5637C13.509 54.3215 13.1232 54.2365 12.8458 54.5179C11.7629 55.6042 11.1605 57.2403 9.56329 57.7442C8.07434 58.2154 6.68691 56.2194 6.03042 55.2705C4.06095 52.4171 2.99162 48.9093 2.16593 45.6044C1.3267 42.2602 0.64989 37.8951 3.05928 34.9763C4.22337 33.5823 6.51094 33.8245 8.14202 33.8572C9.88138 33.8964 11.5666 33.6805 13.2248 33.1897C13.5293 33.4449 13.8474 33.6674 14.1858 33.8572C13.2654 33.8506 11.7358 34.0077 11.4922 34.9436C11.4651 35.0614 11.5125 35.1726 11.614 35.2315C12.2502 35.6111 13.1774 35.2577 13.8948 35.2381C14.4091 35.225 14.9167 35.3035 15.4108 35.4344C15.9928 35.5915 16.3921 36.043 16.9607 36.2001C17.3532 36.3113 17.6104 35.9645 17.5562 35.6242C17.4141 34.7211 16.4057 34.2237 15.4446 34.0012C15.4785 33.7459 15.492 33.4972 15.5123 33.242C19.2888 32.9802 22.4968 33.1111 24.5678 36.704ZM8.55487 53.2352C9.12338 53.3726 9.42116 52.7443 9.08953 52.3386C8.49395 51.6252 7.74948 51.1213 7.23512 50.3229C6.61923 49.3805 6.31468 48.2941 6.37559 47.1816C6.38913 46.8086 5.78001 46.73 5.6988 47.0965C5.19797 49.2693 5.93568 52.6004 8.55487 53.2352Z" fill="#CCD73F"/>
<path d="M14.4362 29.9502C14.6731 31.03 14.6866 32.208 14.5309 33.3337C14.1722 32.9214 13.8406 32.3716 13.5631 32.0313C13.1029 31.4554 12.6562 30.8533 12.2704 30.2251C12.9811 30.0745 13.7052 29.996 14.4362 29.9502Z" fill="#99B815"/>
<path d="M9.0895 52.3386C9.42113 52.7444 9.12336 53.3726 8.55485 53.2352C5.93565 52.6004 5.19795 49.2693 5.69877 47.0965C5.77999 46.7301 6.38911 46.8086 6.37557 47.1816C6.31466 48.2942 6.61921 49.3805 7.23509 50.3229C7.74946 51.1213 8.49392 51.6253 9.0895 52.3386Z" fill="#1D1D1B"/>
</svg>