<svg xmlns="http://www.w3.org/2000/svg" width="60" height="77" viewBox="0 0 60 77" fill="none">
<path d="M31.127 50.281H27.199V65.405H31.127V50.281Z" fill="#49151A"/>
<path d="M29.289 24.444C24.991 24.444 21.506 20.959 21.506 16.661V10.201H29.289V24.444Z" fill="#FCCEAE"/>
<path d="M29.289 24.444C33.588 24.444 37.072 20.959 37.072 16.661V10.201H29.289V24.444Z" fill="#EDB188"/>
<path d="M34.081 3.48297C33.11 2.96097 31.947 2.96696 30.947 3.43296C30.54 3.62296 29.948 3.74197 29.289 3.74197C28.631 3.74197 28.039 3.62297 27.632 3.43397C26.601 2.95497 25.405 2.97396 24.413 3.52996C22.699 4.48996 21.541 6.32296 21.541 8.42596V11.606H37.036V8.42596C37.036 6.28696 35.84 4.42897 34.081 3.48297Z" fill="#FCAB16"/>
<path d="M40.001 14.38H18.577C17.811 14.38 17.189 13.759 17.189 12.992C17.189 12.226 17.81 11.604 18.577 11.604H40.001C40.767 11.604 41.389 12.225 41.389 12.992C41.388 13.759 40.767 14.38 40.001 14.38Z" fill="#FFC239"/>
<path d="M40.0009 11.605H29.2889V14.38H40.0009C40.7669 14.38 41.3889 13.759 41.3889 12.992C41.3879 12.226 40.7669 11.605 40.0009 11.605Z" fill="#FCAB16"/>
<path d="M30.945 3.43298C30.538 3.62198 29.947 3.74098 29.288 3.74098V11.604H37.036V8.42398C37.036 6.31998 35.878 4.48698 34.164 3.52798C33.172 2.97298 31.976 2.95398 30.945 3.43298Z" fill="#FC8A03"/>
<path d="M55.272 25.973H3.379C2.957 25.973 2.61499 25.631 2.61499 25.208C2.61499 24.786 2.957 24.444 3.379 24.444H55.272C55.694 24.444 56.036 24.786 56.036 25.208C56.036 25.631 55.694 25.973 55.272 25.973Z" fill="#49151A"/>
<path d="M29.289 24.444C29.289 24.444 29.289 47.933 29.289 54.731C25.784 57.938 18.684 52.55 18.684 52.55L19.582 30.584L19.574 30.588C19.31 30.71 12.947 33.599 8.55103 30.584C4.06103 27.505 4.95905 24.443 4.95905 24.443H24.072C21.506 22.148 20.48 19.454 20.48 19.454C20.48 19.454 24.293 18.915 25.398 19.454C26.819 20.149 29.289 24.444 29.289 24.444Z" fill="#A7A9AC"/>
<path d="M50.028 30.585C45.538 33.664 38.996 30.585 38.996 30.585L39.894 52.551C39.894 52.551 32.794 57.939 29.289 54.732C29.289 47.933 29.289 24.445 29.289 24.445C29.289 24.445 31.759 20.15 33.181 19.456C34.285 18.917 38.098 19.456 38.098 19.456C38.098 19.456 37.072 22.15 34.506 24.445H53.554C53.597 24.445 53.62 24.445 53.62 24.445C53.62 24.445 54.517 27.506 50.028 30.585Z" fill="#939598"/>
<path d="M19.581 30.585L19.573 30.589C19.309 30.711 12.946 33.6 8.54999 30.585C4.05999 27.506 4.95801 24.444 4.95801 24.444C4.95801 24.444 17.247 24.444 22.427 24.444C23.182 27.587 19.581 30.585 19.581 30.585Z" fill="#939598"/>
<path d="M38.996 30.585L39.004 30.589C39.268 30.711 45.631 33.6 50.027 30.585C54.517 27.506 53.619 24.444 53.619 24.444C53.619 24.444 41.33 24.444 36.15 24.444C35.395 27.587 38.996 30.585 38.996 30.585Z" fill="#7B7C7C"/>
<path d="M29.289 24.4439H24.071C21.505 22.1489 20.479 19.4549 20.479 19.4549C20.479 19.4549 24.292 18.9159 25.397 19.4549C26.819 20.1489 29.289 24.4439 29.289 24.4439Z" fill="#939598"/>
<path d="M38.098 19.4549C38.098 19.4549 37.072 22.1489 34.506 24.4439H29.288C29.288 24.4439 31.758 20.1489 33.18 19.4549C34.285 18.9159 38.098 19.4549 38.098 19.4549Z" fill="#7B7C7C"/>
<path d="M39.8799 70.742V74.459H18.4449V70.742C18.4449 70.466 18.4659 70.196 18.5069 69.932C18.8969 67.368 21.11 65.405 23.782 65.405H34.5429C37.2159 65.405 39.4289 67.368 39.8189 69.932C39.8599 70.196 39.8799 70.466 39.8799 70.742Z" fill="#889C29"/>
<path d="M39.8799 72.355H18.4449V73.121C18.4449 74.975 19.9479 76.479 21.8029 76.479H36.5229C38.3769 76.479 39.881 74.976 39.881 73.121V72.355H39.8799Z" fill="#49151A"/>
<path d="M39.8799 70.742V72.355H18.4449V70.742C18.4449 70.466 18.4659 70.196 18.5069 69.932H39.8189C39.8599 70.196 39.8799 70.466 39.8799 70.742Z" fill="#6F811B"/>
<path d="M4.09097 5.23499C4.09097 5.23499 4.37598 1.67999 0.250977 0.541992C2.17298 4.09699 2.81097 5.62298 2.81097 7.34898C8.07297 6.08898 9.51797 7.34898 9.51797 7.34898C9.51797 7.34898 7.92997 3.66999 4.09097 5.23499Z" fill="#262626"/>
<path d="M54.06 13.074C54.06 13.074 51.716 10.386 48.02 12.541C51.906 13.651 53.443 14.2609 54.677 15.4669C57.452 10.8229 59.364 10.6699 59.364 10.6699C59.364 10.6699 55.625 9.23496 54.06 13.074Z" fill="#262626"/>
</svg>