<svg xmlns="http://www.w3.org/2000/svg" width="59" height="109" viewBox="0 0 59 109" fill="none">
<path d="M24.0264 21.1164C23.4917 15.452 22.9565 9.78763 22.4219 4.12323C22.4034 3.92729 22.3866 3.71979 22.4646 3.54234C22.5721 3.29843 22.8247 3.18456 23.0571 3.09497C27.1985 1.49564 31.6843 0.995675 36.032 1.64939C36.2534 1.68292 36.4973 1.73262 36.6343 1.92741C36.7528 2.09503 36.7592 2.32507 36.7592 2.5372C36.7724 8.87728 36.1979 15.2185 35.0483 21.4303L24.0264 21.1164Z" fill="#B78459"/>
<path d="M23.0415 3.05452C25.5685 1.82511 28.3776 1.1529 31.2069 1.00378C32.6224 0.934994 34.0489 1.00609 35.4419 1.26156L35.9638 1.35462C36.1309 1.38584 36.3326 1.413 36.5459 1.52455C36.7678 1.62802 36.9389 1.89736 36.9615 2.1118C36.9973 2.33029 36.9771 2.5112 36.9707 2.68287L36.8817 4.78043C36.7684 7.57332 36.7777 10.3749 36.5846 13.1741C36.4881 14.5729 36.3361 15.967 36.1598 17.3583C35.9893 18.7507 35.7742 20.1379 35.5107 21.5158L35.4338 21.9187L35.0356 21.9002C34.1177 21.8574 33.1987 21.8337 32.2814 21.7754L29.5284 21.6176C28.6105 21.5644 27.6938 21.4835 26.7765 21.4176C25.8592 21.3448 24.9425 21.2604 24.0258 21.1609C24.0015 21.1586 23.9836 21.1367 23.9865 21.1124C23.9888 21.0904 24.0067 21.0742 24.0281 21.0731C24.9489 21.0263 25.8691 20.9939 26.7887 20.9737C27.7083 20.9604 28.6284 20.9315 29.5475 20.9309L32.3051 20.9297C33.2247 20.924 34.1431 20.9523 35.0622 20.9621L34.587 21.3459L35.2899 17.2352C35.5084 15.8618 35.6956 14.4833 35.8829 13.1036C36.2523 10.3454 36.5956 7.56697 36.5967 4.7758C36.5973 4.07816 36.584 3.38109 36.5476 2.68402C36.5401 2.50773 36.5366 2.33664 36.5008 2.2118C36.4621 2.08232 36.4141 2.03377 36.3141 1.99042C36.1072 1.91124 35.6922 1.9095 35.3668 1.87135C33.9894 1.7702 32.6143 1.75055 31.2404 1.78639C29.8654 1.82743 28.4967 1.98638 27.1308 2.19735C25.7685 2.4297 24.4206 2.75743 23.0733 3.1366C23.0496 3.14353 23.0253 3.13024 23.0184 3.10654C23.012 3.08573 23.0224 3.06377 23.0415 3.05452Z" fill="#A3714B"/>
<path opacity="0.35" d="M54.5535 53.6318C54.4685 51.0661 54.3575 48.4541 53.5431 46.041C51.86 41.0569 47.3389 37.6594 42.5686 36.3207C41.6363 36.0595 40.6381 35.8358 39.9376 35.1243C38.9053 34.0764 38.8642 32.3545 38.8955 30.828C38.9723 27.0086 39.0492 23.1891 39.1266 19.3697C39.1394 18.7316 39.1613 18.0594 39.4711 17.5149C40.2509 16.1451 42.3525 16.3196 43.1831 14.9844C43.8842 13.8573 43.2096 12.2256 42.1224 11.5384C41.0352 10.8517 39.7035 10.8483 38.4429 10.8645C35.6691 10.9003 32.5791 10.9355 29.5983 10.9714C26.6176 10.9355 23.5276 10.9003 20.7538 10.8645C19.4931 10.8483 18.1614 10.8517 17.0742 11.5384C15.987 12.2251 15.3125 13.8573 16.0136 14.9844C16.8442 16.319 18.9464 16.1451 19.7255 17.5149C20.0353 18.0594 20.0573 18.7316 20.07 19.3697C20.1469 23.1891 20.2237 27.0086 20.3012 30.828C20.3318 32.3545 20.2914 34.0764 19.2591 35.1243C18.5585 35.8358 17.5603 36.0595 16.628 36.3207C11.8578 37.6588 7.33664 41.0569 5.65351 46.041C4.83853 48.4541 4.72813 51.0667 4.64316 53.6318C4.13048 69.0806 4.24203 84.5537 4.97725 99.9921C5.06568 101.85 5.26163 103.801 6.41242 105.191H25.439H33.7588H52.7854C53.9362 103.801 54.1321 101.85 54.2205 99.9921C54.9546 84.5537 55.0662 69.0806 54.5535 53.6318Z" fill="#B1D4C0"/>
<g opacity="0.35">
<path d="M21.8508 14.5428C23.5767 14.5642 25.3974 14.5862 27.2187 14.6076L29.5602 14.6353L29.5977 14.6359L29.6353 14.6353L31.9768 14.6076C33.7981 14.5862 35.6188 14.5642 37.3447 14.5428C37.0626 14.8428 36.7979 15.1925 36.565 15.6017C35.7662 17.0051 35.7373 18.4357 35.7199 19.2905L35.4933 30.5245L35.4887 30.7488C35.4575 32.3065 35.3916 35.5485 37.5984 37.7888C38.877 39.087 40.3769 39.4997 41.4716 39.8009L41.708 39.8662C45.8817 41.0372 49.1891 43.8821 50.3404 47.2917C50.9988 49.2408 51.0785 51.6429 51.1485 53.7625C51.6554 69.043 51.5438 84.5334 50.8167 99.8042C50.7965 100.23 50.7641 100.908 50.6624 101.526H33.7564H25.4367H8.53253C8.4308 100.908 8.39843 100.23 8.3782 99.8042C7.65108 84.5334 7.53952 69.043 8.04643 53.7619C8.11695 51.6424 8.19613 49.2402 8.85448 47.2912C10.0059 43.8815 13.3137 41.0366 17.4869 39.8656L17.7239 39.8003C18.8192 39.4992 20.3191 39.0865 21.5971 37.7883C23.8033 35.5479 23.738 32.3059 23.7068 30.7477L23.5114 21.0656L23.4756 19.2894C23.4582 18.4345 23.4293 17.004 22.6311 15.6012C22.3976 15.1925 22.1329 14.8434 21.8508 14.5428Z" fill="#B1D4C0"/>
</g>
<path d="M50.341 47.2917C50.9993 49.2408 51.0791 51.6429 51.1491 53.7625C51.656 69.043 51.5444 84.5334 50.8173 99.8042C50.797 100.23 50.7647 100.908 50.663 101.526H33.757H25.4373H8.53253C8.4308 100.908 8.39843 100.23 8.3782 99.8042C7.65108 84.5334 7.53952 69.043 8.04643 53.7619C8.11695 51.6424 8.19613 49.2402 8.85448 47.2912L50.341 47.2917Z" fill="#F9B24C"/>
<path d="M35.7482 89.6644C37.3713 91.8024 39.6185 93.4479 40.7161 95.9432C42.1837 93.2237 42.6443 89.895 41.9768 86.8333C40.682 80.8944 35.4737 76.3854 34.9957 70.3065C32.9964 76.6085 31.4595 84.015 35.7482 89.6644Z" fill="#EA9D34"/>
<path d="M35.1523 76.038C35.9401 78.9049 37.273 81.5174 38.4614 84.2381C39.0457 85.601 39.6029 86.9917 39.9809 88.4436C40.3688 89.8886 40.5618 91.4024 40.4393 92.8855C40.1613 89.9164 39.0324 87.2009 37.8539 84.5017C37.273 83.1457 36.6684 81.7885 36.1754 80.3811C35.6742 78.9794 35.2899 77.5194 35.1523 76.038Z" fill="#D8892B"/>
<path d="M33.9402 80.4146C34.324 80.5146 34.6217 80.6851 34.9188 80.866C35.209 81.0579 35.4887 81.2556 35.7419 81.5608C35.3436 81.5735 34.9934 81.4302 34.6812 81.2383C34.3761 81.0354 34.0992 80.7793 33.9402 80.4146Z" fill="#D8892B"/>
<path d="M34.4541 83.9254C34.9205 84.0676 35.3089 84.2809 35.6997 84.4994C36.084 84.7288 36.4615 84.9595 36.8175 85.2935C36.328 85.2831 35.8841 85.1097 35.4783 84.8814C35.0789 84.6421 34.709 84.3433 34.4541 83.9254Z" fill="#D8892B"/>
<path d="M36.2655 87.8495C36.6464 87.8489 36.9539 87.9159 37.2713 87.9812C37.5857 88.0581 37.8914 88.1298 38.2354 88.2939C37.8995 88.4806 37.5227 88.4853 37.1736 88.4118C36.8268 88.3269 36.4904 88.1604 36.2655 87.8495Z" fill="#D8892B"/>
<path d="M37.9152 79.7557C38.0781 80.0245 38.1076 80.2886 38.1047 80.551C38.088 80.8129 38.0383 81.0735 37.8533 81.329C37.6892 81.0603 37.6597 80.7961 37.6637 80.5337C37.6811 80.2719 37.7313 80.0112 37.9152 79.7557Z" fill="#D8892B"/>
<path d="M39.4116 82.3446C39.5966 82.6792 39.6324 83.0312 39.6185 83.3775C39.5919 83.7225 39.5145 84.0682 39.2896 84.3786C39.1688 84.0161 39.1642 83.6849 39.1775 83.3514C39.2047 83.0185 39.2492 82.6896 39.4116 82.3446Z" fill="#D8892B"/>
<path d="M40.7497 85.3415C40.8895 85.7039 40.8733 86.068 40.804 86.4154C40.7219 86.7605 40.5844 87.098 40.304 87.3674C40.2543 86.983 40.3063 86.6524 40.3728 86.3206C40.4526 85.9917 40.5439 85.6692 40.7497 85.3415Z" fill="#D8892B"/>
<path d="M14.4524 92.0428C16.0142 90.4048 18.3776 89.7065 20.4977 90.2585C23.4808 91.0342 25.6535 93.9774 28.629 94.7854C23.5917 97.0165 17.8389 97.3223 12.6219 95.6362C12.4803 95.5854 14.2773 92.2266 14.4524 92.0428Z" fill="#EA9D34"/>
<path d="M13.5617 95.027C14.2518 94.2363 15.1425 93.5994 16.1332 93.1867C17.1187 92.7567 18.2065 92.5584 19.2879 92.5688C19.8301 92.5734 20.3688 92.6555 20.8977 92.7688C21.4213 92.9023 21.9398 93.078 22.4167 93.3127C23.3773 93.7676 24.2293 94.3323 25.2269 94.6652C24.1657 94.6034 23.1709 94.1363 22.2167 93.789C21.2618 93.4416 20.2798 93.237 19.277 93.23C18.7781 93.2179 18.2764 93.2474 17.7817 93.3289C17.2834 93.393 16.795 93.5185 16.313 93.6687C15.346 93.9705 14.4339 94.4427 13.5617 95.027Z" fill="#D8892B"/>
<path d="M16.5898 94.3698C16.8777 94.4906 17.058 94.6583 17.2308 94.8398C17.3944 95.0299 17.5412 95.2259 17.6326 95.5253C17.3193 95.4964 17.0881 95.3322 16.9031 95.1357C16.7274 94.9299 16.5887 94.6837 16.5898 94.3698Z" fill="#D8892B"/>
<path d="M18.7348 93.9363C19.0498 94.2167 19.2729 94.4987 19.5116 94.7785C19.7417 95.0658 19.9734 95.3368 20.1937 95.6969C19.7735 95.6253 19.4319 95.3675 19.1712 95.0588C18.9192 94.7432 18.7331 94.3617 18.7348 93.9363Z" fill="#D8892B"/>
<path d="M20.9509 94.2282C21.2653 94.3525 21.4768 94.5357 21.6791 94.7328C21.8728 94.9392 22.0502 95.1542 22.1681 95.4715C21.8311 95.4264 21.5768 95.2507 21.3635 95.0415C21.1601 94.823 20.9902 94.5652 20.9509 94.2282Z" fill="#D8892B"/>
<path d="M16.3633 92.4486C16.4222 92.066 16.6534 91.7602 16.9343 91.5296C17.2216 91.3082 17.5753 91.1504 17.9614 91.1874C17.7071 91.4752 17.4603 91.6689 17.2083 91.8752C16.9499 92.0723 16.7037 92.2706 16.3633 92.4486Z" fill="#D8892B"/>
<path d="M18.9683 92.1133C18.9978 91.7689 19.1908 91.4966 19.429 91.2908C19.6741 91.0943 19.9798 90.9521 20.3237 90.9926C20.1243 91.2718 19.9226 91.4481 19.711 91.6307C19.4926 91.8041 19.2804 91.9723 18.9683 92.1133Z" fill="#D8892B"/>
<path d="M20.993 92.2243C21.1214 91.9573 21.3381 91.8133 21.5682 91.7197C21.8028 91.6382 22.0612 91.6035 22.3334 91.7226C22.1381 91.9445 21.9363 92.0469 21.7231 92.133C21.5052 92.2075 21.2855 92.263 20.993 92.2243Z" fill="#D8892B"/>
<path d="M21.6265 58.8801C23.7177 60.0112 25.9719 61.0903 27.3406 63.133C27.5886 60.4696 27.595 57.5588 26.1286 55.3965C24.9893 53.7156 23.1068 52.7608 21.2029 52.3984C19.2989 52.036 17.3459 52.2013 15.4182 52.3677C15.8309 52.3319 17.4696 55.7305 17.8672 56.1664C18.9307 57.331 20.2821 58.1529 21.6265 58.8801Z" fill="#EA9D34"/>
<path d="M17.2222 53.2214C18.2608 53.196 19.3099 53.4047 20.2942 53.7769C21.2826 54.1451 22.2045 54.6884 23.0334 55.3433C24.6766 56.6634 25.9517 58.4801 26.4788 60.4933C25.4639 58.6899 24.19 57.1085 22.6201 55.8606C21.0595 54.604 19.2353 53.7064 17.2222 53.2214Z" fill="#D8892B"/>
<path d="M19.9966 55.1606C19.8423 55.386 19.6284 55.4739 19.4128 55.5115C19.1949 55.5363 18.9648 55.5126 18.7539 55.3375C18.9631 55.1624 19.1527 55.1086 19.3504 55.0745C19.5498 55.0531 19.7475 55.052 19.9966 55.1606Z" fill="#D8892B"/>
<path d="M21.7612 56.4727C21.5479 56.7033 21.2861 56.8091 21.0185 56.8819C20.7474 56.942 20.4665 56.9698 20.1706 56.8628C20.4052 56.6259 20.6543 56.5235 20.9133 56.4536C21.1757 56.3964 21.4439 56.3721 21.7612 56.4727Z" fill="#D8892B"/>
<path d="M23.5039 57.7206C23.2837 57.9778 22.9923 58.0917 22.697 58.146C22.3999 58.1876 22.0866 58.1709 21.7976 57.9934C22.0872 57.8212 22.3531 57.7599 22.6271 57.7102C22.9033 57.6726 23.1756 57.6478 23.5039 57.7206Z" fill="#D8892B"/>
<path d="M21.3364 53.0134C21.5878 53.0573 21.7323 53.2134 21.8265 53.3868C21.9092 53.5659 21.9473 53.7746 21.8311 54.0029C21.6115 53.8746 21.5138 53.7364 21.4312 53.5839C21.3601 53.4261 21.3092 53.2654 21.3364 53.0134Z" fill="#D8892B"/>
<path d="M23.0259 53.6636C23.2634 53.8405 23.364 54.0763 23.4166 54.3173C23.4565 54.5607 23.449 54.8167 23.2917 55.0681C23.1004 54.8433 23.0317 54.6254 22.9825 54.3994C22.9467 54.1705 22.9317 53.9428 23.0259 53.6636Z" fill="#D8892B"/>
<path d="M24.4882 54.4977C24.7425 54.7757 24.8471 55.1156 24.8899 55.456C24.92 55.7982 24.8899 56.1525 24.6986 56.4773C24.5402 56.1369 24.4911 55.823 24.4512 55.5022C24.4235 55.1803 24.4061 54.8636 24.4882 54.4977Z" fill="#D8892B"/>
<path d="M18.1874 69.0627C18.5608 68.2373 19.1926 67.5223 19.9954 67.2108C20.5098 67.0114 21.0682 66.9836 21.6144 67.005C21.8699 67.0154 22.1323 67.0374 22.3646 67.1518C22.8253 67.3778 23.0854 67.9321 23.1316 68.4743C23.1785 69.0165 23.0484 69.5563 22.9189 70.0829C23.3143 69.7702 23.7443 69.4806 24.2275 69.3875C24.7107 69.2945 25.2598 69.4355 25.5587 69.8546C26.0338 70.5193 25.698 71.4718 25.3494 72.2215C25.8459 71.9943 26.4043 72.5891 26.3817 73.1688C26.3592 73.7485 25.9552 74.2283 25.5234 74.5762C24.2518 75.5999 22.5161 75.9195 21.0006 75.4091C19.8006 75.0045 18.7712 74.0919 18.1383 72.9272C17.469 71.6926 17.61 70.3401 18.1874 69.0627Z" fill="#F9C764"/>
<path d="M14.9761 69.669C14.9709 68.9384 15.2003 68.0171 15.8731 67.9194C16.2829 67.8599 16.6621 68.1593 16.9453 68.4835C17.6435 69.2846 18.0707 70.3545 18.1296 71.451C18.2707 70.8083 18.8042 70.3302 19.3856 70.1187C19.9677 69.9072 20.5965 69.9181 21.2104 69.9482C21.3971 69.9574 21.5919 69.9707 21.7525 70.0736C22.0618 70.2724 22.1288 70.7227 22.1086 71.11C22.0687 71.8735 21.8109 72.6226 21.3792 73.2307C21.9346 72.8682 22.5201 72.4954 23.1686 72.4596C23.8172 72.4238 24.5379 72.8532 24.6275 73.5457C24.7027 74.1289 24.3304 74.6572 23.9802 75.1092C24.7194 75.0531 25.4142 75.5692 25.8298 76.2299C26.0182 76.5293 26.1656 76.8778 26.1453 77.2385C26.117 77.7431 25.7558 78.1737 25.328 78.3841C24.9003 78.5939 24.4154 78.6193 23.9455 78.6049C19.3469 78.4598 15.0125 74.782 14.9761 69.669Z" fill="#EA9D34"/>
<path d="M17.71 75.2953C17.454 74.9739 17.2892 74.5768 17.2187 74.1618C17.1875 73.9555 17.1621 73.7399 17.21 73.5156C17.2476 73.3041 17.4095 73.0289 17.7019 72.9948C17.9863 72.9671 18.1996 73.122 18.3643 73.2694C18.5325 73.4312 18.651 73.604 18.7672 73.7878C18.9932 74.1566 19.1354 74.5745 19.203 75.0034L18.7978 75.0011C18.8429 74.6577 18.8897 74.2682 19.1284 73.9156C19.2556 73.7364 19.4296 73.596 19.648 73.5225C19.8596 73.4439 20.1573 73.4711 20.3474 73.6381C20.5428 73.7983 20.6254 74.0202 20.6671 74.2144C20.7069 74.4127 20.7127 74.6051 20.7006 74.7895L20.5561 75.8588L20.3156 75.6253C20.6804 75.5484 21.1225 75.4467 21.5474 75.6403C21.7635 75.7432 21.9202 75.9166 22.015 76.1195C22.1086 76.3195 22.1346 76.5779 22.0202 76.7923C21.9109 77.0079 21.6895 77.127 21.489 77.1697C21.2832 77.2119 21.0832 77.2009 20.8907 77.1801C20.5035 77.1379 20.1272 77.0212 19.7943 76.8356C20.1538 76.9616 20.5278 77.0322 20.8988 77.0304C21.2595 77.0333 21.6705 76.9576 21.7872 76.679C21.9069 76.4154 21.6814 76.0496 21.4133 75.9536C21.1208 75.8449 20.7676 75.9201 20.4064 76.0131L20.1336 76.0831L20.1659 75.7796L20.2734 74.771C20.2925 74.4549 20.2376 74.1063 20.0711 73.9809C19.9324 73.8456 19.6324 73.9451 19.4798 74.1641C19.3151 74.3924 19.2585 74.7207 19.2018 75.0606L18.9596 76.5096L18.7966 75.0589C18.7539 74.678 18.6319 74.3069 18.4556 73.9647C18.3666 73.7965 18.2608 73.6225 18.1424 73.4925C18.0216 73.3619 17.8638 73.2561 17.7291 73.2642C17.5921 73.2653 17.4782 73.3965 17.4285 73.5728C17.3753 73.7462 17.3673 73.9468 17.3759 74.145C17.3985 74.541 17.5135 74.9363 17.71 75.2953Z" fill="#D8892B"/>
<path d="M36.547 60.8996C36.1199 60.4337 35.7037 59.8095 35.8638 59.1783C36.0367 58.498 36.8326 58.194 37.4689 58.3628C38.1053 58.5321 38.6116 59.035 39.0873 59.5193C38.7585 59.0604 38.4862 58.5541 38.2799 58.0189C38.1284 57.6264 38.014 57.1715 38.1805 56.786C38.4174 56.2363 39.137 56.108 39.6497 56.3588C40.1624 56.6097 40.5138 57.1235 40.8421 57.616C40.778 57.0819 40.5468 56.5837 40.4821 56.0496C40.4173 55.5155 40.5913 54.8751 41.0629 54.6942C41.3797 54.5722 41.7323 54.6953 42.0299 54.863C43.8177 55.8681 44.5026 58.4032 44.0142 60.5083C43.8275 61.3134 43.4905 62.0932 42.9501 62.6845C40.9618 64.8612 38.099 62.5914 36.547 60.8996Z" fill="#F9C764"/>
<path d="M43.7073 64.704C43.1825 65.3456 42.6212 66.0114 41.8698 66.2877C41.2254 66.5241 40.5202 66.4432 39.8503 66.3149C39.311 66.212 38.7654 66.0756 38.2978 65.7692C37.8302 65.4629 37.4458 64.9583 37.3874 64.3728C37.3343 63.8387 37.5753 63.2821 37.9903 62.9821C38.4047 62.6821 38.9752 62.6527 39.4151 62.9076C38.9694 62.2429 39.0174 61.2475 39.5243 60.636C40.0312 60.0245 40.9462 59.8609 41.6103 60.262C41.4045 59.4251 41.412 58.4454 41.9438 57.7963C42.4756 57.1472 43.6466 57.1443 43.9645 57.9396C44.0102 57.4917 44.0633 57.0229 44.3003 56.6519C45.5748 54.6566 46.5343 58.9055 46.4366 59.8586C46.2534 61.6423 44.7546 63.4243 43.7073 64.704Z" fill="#EA9D34"/>
<path d="M42.5143 64.8768C42.0952 65.0583 41.6253 65.1306 41.1572 65.0757C40.9236 65.0444 40.6815 64.9664 40.4844 64.8023C40.2867 64.6335 40.1653 64.3867 40.1462 64.1231C40.1196 63.859 40.2595 63.5555 40.5075 63.4156C40.7502 63.2717 41.0121 63.2555 41.2485 63.2497C41.7138 63.2492 42.16 63.2758 42.616 63.2891L42.4247 63.5578C42.2843 63.2139 42.1889 62.8515 42.1438 62.4822C42.1207 62.2978 42.1097 62.1117 42.1109 61.9256C42.1149 61.7417 42.1161 61.5273 42.2392 61.3042C42.3571 61.0695 42.6692 60.9389 42.9044 60.9857C43.1443 61.0193 43.3501 61.1418 43.4957 61.3279C43.7616 61.6886 43.7847 62.0955 43.8212 62.4434L43.4189 62.4498C43.4587 61.9521 43.5009 61.44 43.6426 60.9343C43.7194 60.684 43.8212 60.4366 43.9639 60.2106C44.1038 59.9945 44.2864 59.7344 44.628 59.6754C44.9916 59.6373 45.2332 59.9326 45.3095 60.1956C45.391 60.4719 45.3419 60.743 45.2846 60.988C45.1656 61.4834 44.9569 61.9556 44.6541 62.355C44.8928 61.9157 45.054 61.4418 45.1182 60.9574C45.1523 60.7164 45.1575 60.473 45.0852 60.269C45.0165 60.0725 44.8269 59.9141 44.6697 59.9552C44.5044 59.9881 44.3523 60.1759 44.2477 60.3777C44.1356 60.5811 44.061 60.8048 44.0032 61.0337C43.8842 61.4932 43.8512 61.9822 43.8223 62.4781L43.42 62.4845C43.383 62.1394 43.3327 61.8024 43.1605 61.5897C43.0877 61.4978 42.9646 61.4302 42.853 61.4192C42.738 61.4117 42.6692 61.4406 42.6154 61.525C42.5079 61.7105 42.5288 62.118 42.5553 62.4348C42.59 62.7689 42.6692 63.0983 42.7894 63.4116L42.8998 63.6989L42.5981 63.6809C42.1467 63.6538 41.6854 63.6335 41.2427 63.5983C41.0294 63.5879 40.8173 63.5989 40.6601 63.6815C40.5023 63.7607 40.4081 63.9225 40.4104 64.1133C40.4046 64.5138 40.756 64.8364 41.1849 64.9231C41.6132 65.0184 42.0756 64.9942 42.5143 64.8768Z" fill="#D8892B"/>
<path d="M25.5465 85.5999C25.5263 85.2756 25.5604 84.9022 25.8032 84.7092C25.9916 84.5589 26.2586 84.5681 26.4742 84.667C26.6898 84.7658 26.8667 84.941 27.0383 85.1126C27.3314 85.4057 27.6447 85.7426 27.6689 86.1721C27.7464 85.6293 27.8857 85.097 28.0822 84.5901C28.266 84.1161 28.6302 83.5919 29.0995 83.685C29.5012 83.7647 29.6995 84.2502 29.8 84.6762C29.9937 85.4987 30.074 86.3519 30.0376 87.1992C30.0174 87.6772 29.9497 88.1795 29.6734 88.5546C29.3128 89.0448 28.6619 89.2014 28.0897 89.0904C26.5199 88.7852 25.6483 87.2275 25.5465 85.5999Z" fill="#F9C764"/>
<path d="M24.5657 88.287C24.4784 87.9471 24.4437 87.5564 24.6275 87.2645C24.8529 86.9073 25.3385 86.8351 25.713 86.9905C26.0875 87.146 26.3736 87.4743 26.6361 87.8009C26.7095 87.242 26.9852 86.657 27.4823 86.4755C27.8816 86.3299 28.3331 86.4848 28.6666 86.7616C29.0001 87.0391 29.2388 87.424 29.4717 87.8026C29.4891 87.3628 29.763 86.9466 30.1434 86.7836C30.5231 86.6206 30.9884 86.7195 31.2826 87.0252C31.6519 87.4102 31.7132 88.0546 31.5213 88.5673C31.3294 89.08 30.9248 89.4725 30.4792 89.7476C28.3539 91.0625 25.3893 91.4932 24.5657 88.287Z" fill="#EA9D34"/>
<path d="M27.6562 90.3464C27.2632 90.3724 26.8609 90.2846 26.4887 90.1244C26.3083 90.0372 26.1182 89.9499 25.9586 89.7667C25.7916 89.5904 25.7494 89.2586 25.8847 89.0361C25.9974 88.8112 26.2563 88.6505 26.5031 88.6338C26.7517 88.6101 26.9765 88.6766 27.1701 88.7609C27.5562 88.9286 27.9065 89.1788 28.181 89.4962L27.8071 89.5967C27.8938 89.1985 28.1955 88.8835 28.5648 88.7615C28.7469 88.7003 28.9382 88.6841 29.1197 88.7014C29.3105 88.7303 29.4538 88.75 29.6648 88.8754C29.8827 89.0476 29.8723 89.3112 29.789 89.4956C29.6983 89.6823 29.5411 89.7961 29.3937 89.873C29.096 90.0297 28.7689 90.1273 28.4435 90.1227C28.7556 90.0383 29.0457 89.9037 29.2856 89.7077C29.4041 89.6112 29.5076 89.5083 29.5405 89.3939C29.5735 89.2898 29.5341 89.1551 29.4763 89.1401C29.4047 89.1083 29.2238 89.0702 29.0954 89.0725C28.9567 89.0684 28.8215 89.0893 28.7018 89.1384C28.4672 89.2349 28.277 89.4499 28.2325 89.6852L28.1533 90.1025L27.8585 89.7857C27.614 89.5233 27.3245 89.2991 26.9979 89.1511C26.6765 88.9985 26.3546 88.9708 26.1985 89.2187C26.1228 89.3303 26.1176 89.4551 26.2026 89.5811C26.2841 89.7077 26.4407 89.8216 26.5979 89.9216C26.91 90.1314 27.2719 90.2672 27.6562 90.3464Z" fill="#D8892B"/>
<path opacity="0.35" d="M43.5738 77.9888C43.3033 81.7851 42.9154 85.697 41.2022 89.0291C39.5058 92.329 36.6123 94.7918 33.4166 96.3403C30.2202 97.8887 26.7314 98.9973 23.2259 98.9973H47.2077C49.1099 85.1346 49.248 71.0811 48.9226 57.0721C48.8607 54.415 48.7781 51.7221 48.0625 49.1778C47.347 46.634 45.9147 44.2151 43.742 42.9492C44.0859 54.6584 44.4807 66.2796 43.5738 77.9888Z" fill="white"/>
<g opacity="0.35">
<path d="M14.5634 59.1124C14.5634 58.5171 14.1149 58.035 13.5617 58.035C13.0086 58.035 12.56 58.5177 12.56 59.1124C12.56 59.7072 13.0086 60.1898 13.5617 60.1898C14.1149 60.1898 14.5634 59.7078 14.5634 59.1124Z" fill="white"/>
<path d="M19.3538 63.133C19.3538 62.1105 18.5834 61.2816 17.6331 61.2816C16.6829 61.2816 15.9124 62.1105 15.9124 63.133C15.9124 64.1555 16.6829 64.9843 17.6331 64.9843C18.5834 64.9843 19.3538 64.1555 19.3538 63.133Z" fill="white"/>
<path d="M13.4022 64.4265C13.4022 63.9584 13.0496 63.5792 12.6144 63.5792C12.1791 63.5792 11.8265 63.9584 11.8265 64.4265C11.8265 64.8947 12.1791 65.2739 12.6144 65.2739C13.0496 65.2739 13.4022 64.8947 13.4022 64.4265Z" fill="white"/>
<path d="M14.8194 67.9125C14.8194 67.2622 14.3293 66.7351 13.7247 66.7351C13.1201 66.7351 12.63 67.2622 12.63 67.9125C12.63 68.5627 13.1201 69.0898 13.7247 69.0898C14.3293 69.0898 14.8194 68.5627 14.8194 67.9125Z" fill="white"/>
<path d="M12.9294 72.4139C12.9294 71.418 12.1791 70.6111 11.2532 70.6111C10.3272 70.6111 9.57697 71.418 9.57697 72.4139C9.57697 73.4098 10.3272 74.2167 11.2532 74.2167C12.1791 74.2167 12.9294 73.4092 12.9294 72.4139Z" fill="white"/>
<path d="M14.5634 78.932C15.4987 78.932 16.2569 78.1166 16.2569 77.1108C16.2569 76.1049 15.4987 75.2895 14.5634 75.2895C13.6281 75.2895 12.8698 76.1049 12.8698 77.1108C12.8698 78.1166 13.6281 78.932 14.5634 78.932Z" fill="white"/>
<path d="M15.2685 82.3445C15.2685 81.5955 14.7038 80.988 14.0073 80.988C13.3109 80.988 12.7461 81.5955 12.7461 82.3445C12.7461 83.0936 13.3109 83.7011 14.0073 83.7011C14.7038 83.7011 15.2685 83.0936 15.2685 82.3445Z" fill="white"/>
<path d="M14.0073 88.2962C14.0073 87.976 13.7663 87.7165 13.4687 87.7165C13.171 87.7165 12.93 87.976 12.93 88.2962C12.93 88.6164 13.171 88.876 13.4687 88.876C13.7663 88.876 14.0073 88.6159 14.0073 88.2962Z" fill="white"/>
</g>
<path opacity="0.14" d="M53.7951 103.152C53.5859 103.899 53.2755 104.598 52.7842 105.191H33.7576H25.4379H6.41127C5.90436 104.579 5.58935 103.854 5.38069 103.08C2.32712 103.623 0.543991 104.275 0.543991 104.977C0.543991 106.868 13.4606 108.401 29.3937 108.401C45.3269 108.401 58.2434 106.868 58.2434 104.977C58.2434 104.306 56.6088 103.681 53.7951 103.152Z" fill="#B78459"/>
</svg>