<svg xmlns="http://www.w3.org/2000/svg" width="57" height="50" viewBox="0 0 57 50" fill="none">
<path d="M9.9202 10.3068C10.0149 8.80413 9.96547 7.29272 9.77312 5.79893C8.8549 5.93291 7.97621 5.31347 7.45416 4.55766C6.89898 3.75378 6.65452 2.6056 7.26203 1.83935C7.67719 1.31582 8.3779 1.10594 9.04415 1.00197C10.2662 0.811223 11.6067 0.906922 12.6009 1.63228C13.5951 2.35765 14.0675 3.846 13.369 4.85194C12.9701 5.42636 12.2889 5.7439 11.6142 5.95031C11.4552 5.99903 11.279 6.05471 11.1966 6.19739C11.1414 6.29309 11.1412 6.40902 11.1423 6.51907C11.1653 8.73997 11.1884 10.9609 11.2114 13.1818L9.9202 10.3068Z" fill="#F49BB6"/>
<path d="M3.09116 14.9792C3.1859 13.4765 3.13643 7.29272 2.94408 5.79893C2.02586 5.93291 1.14716 5.31347 0.625114 4.55766C0.0699386 3.75378 -0.174524 2.6056 0.432988 1.83935C0.848155 1.31582 1.54886 1.10594 2.21511 1.00197C3.4372 0.811223 4.77766 0.906922 5.77185 1.63228C6.76605 2.35765 7.23841 3.846 6.53969 4.85194C6.14087 5.42636 5.4596 5.7439 4.78495 5.95031C4.62595 5.99903 4.4495 6.05471 4.36735 6.19739C4.31215 6.29309 4.31193 6.40902 4.31303 6.51908C4.336 8.73997 4.35918 13.4758 4.38215 15.6969L3.09116 14.9792Z" fill="#F49BB6"/>
<path d="M7.67899 2.50378C8.27391 2.58752 8.70917 2.65103 9.21797 2.69605C10.2828 2.79001 11.3477 2.88376 12.4125 2.97772C12.3099 3.86838 11.6253 4.66704 10.751 4.91629C10.5037 4.98676 10.2464 5.01635 9.99045 5.04223C9.75372 5.06615 9.51411 5.08747 9.27804 5.05745C8.71447 4.98633 8.2112 4.61658 7.92963 4.13025C7.64851 3.64392 7.57851 3.05449 7.67899 2.50378Z" fill="white"/>
<path d="M0.591771 2.26434C1.18648 2.34808 1.62174 2.41159 2.13076 2.45661C3.19562 2.55057 4.26048 2.64432 5.32533 2.73828C5.22265 3.62894 4.53806 4.4276 3.66378 4.67685C3.41645 4.74732 3.15918 4.7769 2.90323 4.80278C2.6665 4.82671 2.4269 4.84781 2.19082 4.81801C1.62726 4.74689 1.12376 4.37714 0.842418 3.89081C0.561297 3.40448 0.491071 2.81505 0.591771 2.26434Z" fill="white"/>
<path d="M8.80324 2.64386C8.754 2.97033 8.88274 3.30593 9.09342 3.56258C9.28201 3.79204 9.55916 3.97561 9.85861 3.96321C9.92022 3.9606 9.98117 3.94995 10.0406 3.93385C10.5043 3.80792 11.0003 3.31746 10.9372 2.84766L8.80324 2.64386Z" fill="#3A3A3A"/>
<path d="M1.75953 2.41003C1.71051 2.7365 1.83903 3.0721 2.04971 3.32875C2.2383 3.55822 2.51545 3.74179 2.8149 3.72939C2.87651 3.72678 2.93746 3.71612 2.99686 3.70003C3.46061 3.57409 3.9566 3.08363 3.89344 2.61383L1.75953 2.41003Z" fill="#3A3A3A"/>
<path d="M13.2502 36.6605C15.9203 38.1268 18.4216 40.5905 21.8415 39.4464C22.3469 39.3124 22.8343 39.1293 23.2926 38.8872C24.2088 38.4031 25.008 37.6829 25.6219 36.6546C25.9024 36.2518 26.189 35.8411 26.5017 35.4305C26.4123 36.0465 26.3891 36.6226 26.4249 37.1607C26.5017 39.5367 28.5861 42.0003 30.469 42.9838C30.8188 43.1987 31.1732 43.3943 31.533 43.5726C31.8925 43.751 32.2573 43.9119 32.6267 44.0566C33.1199 44.2493 33.6216 44.4128 34.1337 44.5485C40.2594 45.6961 46.9297 44.4641 52.004 40.3697C52.3818 40.0097 52.7411 39.6239 53.0774 39.2128C53.7503 38.3905 54.3311 37.4661 54.8004 36.4364C55.0064 36.0439 55.1853 35.6317 55.3313 35.2034C56.6247 30.9665 56.2928 26.5502 54.6374 22.6628C54.4305 22.1769 54.2028 21.6993 53.9553 21.2312C52.5912 18.7646 50.6375 16.8978 48.3616 15.4701C47.9064 15.1845 47.4389 14.917 46.9727 14.6686C41.5098 11.6156 34.8393 11.2049 28.9412 12.6913C28.3847 12.8355 27.8318 12.993 27.2835 13.1633C20.7479 15.195 14.0664 19.5095 9.65124 24.6991C9.24976 25.1708 8.8686 25.6517 8.53161 26.1604C8.08575 27.2016 7.95965 28.2134 8.03143 29.203C8.0672 29.6979 8.15266 30.187 8.2728 30.6714C8.36599 31.0927 8.5018 31.4779 8.67118 31.8359C9.66626 34.0207 12.1676 34.4313 12.8158 36.3608C12.9419 36.4565 13.0861 36.5552 13.2502 36.6605Z" fill="#6EB644"/>
<path d="M19.6749 39.7359C21.1251 39.7759 23.3354 39.1819 24.3742 38.3637C25.4753 37.4965 26.1378 36.2028 26.6347 34.9033C27.1315 33.6039 27.5008 32.248 28.1752 31.0287C28.7593 29.9726 29.5567 29.0473 30.3773 28.1569C31.0193 27.4604 31.6842 26.7751 32.4629 26.2303C34.196 25.0177 36.3533 24.5879 38.44 24.1873C39.095 24.0616 39.7566 23.9352 40.4235 23.9548C41.1887 23.9774 41.934 24.1914 42.6614 24.4263C44.1936 24.9213 45.6689 25.548 46.7844 26.6948C48.154 28.1029 48.8004 30.2192 48.4583 31.7713C48.9136 29.3303 47.8135 24.9959 45.422 23.4554C44.4435 22.8251 43.2932 22.4951 42.1378 22.3194C40.3623 22.0495 38.5331 22.1273 36.7881 22.5471C32.0027 23.6983 28.2039 27.2843 25.2441 31.1627C24.9654 31.5281 24.6889 31.902 24.5131 32.3248C23.8632 33.8884 24.7021 35.7739 24.0195 37.3241C23.5052 38.4922 22.7043 38.7282 21.5453 39.2922C21.1511 39.4851 20.0653 39.7916 19.6749 39.7359Z" fill="#559B44"/>
<path d="M5.587 33.2994C4.83661 32.0729 5.30323 30.1846 6.85083 29.896C8.29729 29.6263 10.0163 29.7977 11.487 29.8174C13.1344 29.8396 14.7847 29.9708 16.3835 30.3806C17.8192 30.7484 19.2146 31.3075 20.4433 32.134C21.5007 32.8453 23.0679 34.0241 23.1896 35.3744C23.2859 36.4427 22.6923 37.2962 21.7357 37.7825C19.4617 38.9385 16.3177 38.4653 13.9391 37.9078C12.6455 37.6046 11.3848 37.1722 10.1739 36.6317C9.02472 36.1189 7.46563 35.4988 6.55558 34.6183C6.15963 34.2357 5.82307 33.8003 5.587 33.2994Z" fill="#9D3922"/>
<path d="M42.7988 30.7451C42.7745 30.3845 42.6943 30.0273 42.562 29.6902C42.4596 29.429 42.3189 29.1715 42.0925 29.002C41.773 28.7626 41.3424 28.7382 40.9409 28.7367C39.9622 28.733 38.9711 28.8104 38.0438 29.1195C37.1165 29.4286 36.2519 29.9871 35.7158 30.7938C35.3361 31.3648 35.135 32.0355 35.0318 32.7104C34.7883 34.3019 35.1851 36.1354 36.5381 37.0378C37.1304 37.4328 37.8415 37.6092 38.538 37.7697C39.4414 37.9778 40.4248 38.1642 41.2688 37.7847C40.158 37.6949 39.034 37.4795 38.0663 36.9351C37.0984 36.3907 36.3005 35.4764 36.1137 34.3941C35.9399 33.3869 36.3197 32.3278 37.0105 31.5657C37.7013 30.8034 38.6756 30.3231 39.6897 30.1087C40.0827 30.0254 40.4893 29.9797 40.8875 30.0358C41.542 30.1278 42.1226 30.4843 42.6813 30.8325C42.7921 30.8158 42.7751 30.6118 42.663 30.6131C42.5508 30.6144 42.5388 30.8188 42.6501 30.833L42.7988 30.7451Z" fill="#559B44"/>
<path d="M26.7892 35.0255C26.9352 34.008 27.2099 33.0069 27.6096 32.0516C28.0303 31.1055 28.5658 30.2116 29.1897 29.3785C29.8281 28.5555 30.5668 27.8123 31.3678 27.1398C32.182 26.4819 33.0666 25.9129 33.9981 25.4259C34.9402 24.9583 35.9317 24.5911 36.9535 24.3232C37.4667 24.2181 37.9934 24.0929 38.5088 24.0372C39.0382 23.9821 39.568 23.9408 40.0971 23.9517C41.1564 23.9534 42.2169 24.1072 43.2364 24.4078C44.2496 24.7206 45.2297 25.1893 46.0587 25.8616C46.4772 26.1848 46.8572 26.5828 47.183 26.9852C47.5237 27.4102 47.7911 27.8647 48.015 28.3474C48.4662 29.3083 48.6837 30.3693 48.6709 31.4259C48.6681 31.9544 48.6003 32.4834 48.4691 32.9967C48.4417 33.1265 48.4015 33.2529 48.3604 33.379L48.3001 33.5687C48.2721 33.6563 48.2483 33.6948 48.2222 33.7601C48.1138 34.0004 48.0301 34.2236 47.9015 34.4783C47.6876 34.9337 47.3616 35.4042 47.0202 35.8022C46.6556 36.1922 46.259 36.555 45.8107 36.8475C44.9205 37.4369 43.8996 37.8284 42.8447 37.9894C42.3184 38.0792 41.7816 38.1051 41.2485 38.077C40.7119 38.0601 40.1872 37.9446 39.6788 37.8573C38.6336 37.6331 37.618 37.1748 36.8709 36.3949C36.5028 36.0047 36.2226 35.5307 36.0684 35.0203C35.9121 34.5096 35.8809 33.9708 35.9355 33.4482L35.9368 33.4393C35.9677 33.2831 36.0079 33.1289 36.0574 32.9777C36.0821 32.902 36.1088 32.8272 36.138 32.7533C36.1541 32.7141 36.164 32.6845 36.1868 32.638L36.2391 32.534L36.344 32.3263L36.3966 32.2226C36.4085 32.2008 36.4069 32.1978 36.4299 32.1608L36.4624 32.1125L36.7227 31.7258L36.7199 31.7304C36.7978 31.6184 36.87 31.502 36.9531 31.3943C37.0452 31.2941 37.1284 31.1855 37.2276 31.0929C37.3307 31.0046 37.4245 30.9052 37.5352 30.8267C37.6471 30.7501 37.7503 30.6607 37.8691 30.5952C38.3295 30.3101 38.8432 30.1146 39.3738 30.0134C39.6397 29.9636 39.9094 29.939 40.1792 29.9369C40.4495 29.9388 40.7183 29.9669 40.9822 30.0219C41.1118 30.0587 41.2434 30.0874 41.3704 30.1307C41.4943 30.1824 41.621 30.2274 41.7418 30.2846C41.858 30.3512 41.9766 30.4134 42.0899 30.4832L42.4085 30.7236L42.0824 30.4945C41.9671 30.4291 41.847 30.3712 41.7299 30.3092C41.6082 30.2568 41.481 30.2164 41.3574 30.1696C41.2306 30.1311 41.0994 30.1072 40.9711 30.0754C40.7094 30.0313 40.4453 30.0093 40.1803 30.0143C39.9158 30.0232 39.6525 30.0541 39.3942 30.1091C38.8783 30.2211 38.3832 30.4247 37.9457 30.7114C37.8324 30.7773 37.7357 30.8662 37.6301 30.9424C37.5257 31.0202 37.4389 31.1179 37.3426 31.2045C37.2503 31.2952 37.1743 31.4002 37.0895 31.497C37.014 31.6007 36.9493 31.7117 36.8784 31.818L36.8756 31.8228L36.6254 32.216L36.594 32.2652C36.5953 32.2608 36.5801 32.2941 36.5739 32.3067L36.5242 32.4118L36.4246 32.6221L36.3747 32.7272C36.3632 32.7502 36.3475 32.7939 36.335 32.8268C36.3085 32.8975 36.2842 32.969 36.2619 33.0408C36.217 33.1848 36.1815 33.3314 36.1548 33.4791L36.1561 33.4704C36.1124 33.9702 36.1508 34.4761 36.3038 34.9487C36.4549 35.4211 36.7201 35.8544 37.0681 36.2122C37.7717 36.9271 38.7491 37.3514 39.7342 37.547C40.2539 37.6281 40.7552 37.7305 41.2644 37.7382C41.773 37.7547 42.2851 37.7321 42.7866 37.6422C43.7923 37.4841 44.7622 37.1046 45.5996 36.5439C46.0216 36.2657 46.3917 35.9218 46.732 35.5553C47.0573 35.1636 47.3287 34.7828 47.554 34.3034C47.6575 34.0979 47.7571 33.8384 47.8589 33.6087C47.8803 33.5545 47.9183 33.4789 47.9261 33.4425L47.9815 33.264C48.0195 33.1452 48.057 33.0262 48.0817 32.9038C48.2025 32.4201 48.2644 31.9211 48.2642 31.422C48.2714 30.4236 48.0566 29.4238 47.6401 28.5144C47.4343 28.0618 47.1748 27.6198 46.8703 27.2362C46.8022 27.1366 46.7068 27.04 46.6253 26.9419C46.5414 26.8394 46.4633 26.7603 46.3683 26.6694L46.0987 26.4053L45.8085 26.1628C45.0276 25.5223 44.0959 25.0696 43.124 24.7641C42.1457 24.4704 41.1211 24.3154 40.0929 24.3086C39.5781 24.2953 39.0649 24.3332 38.5568 24.3828C38.0334 24.4393 37.5427 24.5483 37.0323 24.644C36.0324 24.8902 35.0572 25.2336 34.1268 25.6776C33.2071 26.1408 32.329 26.6859 31.5181 27.3206C30.7207 27.9702 29.9831 28.6912 29.329 29.4847C28.6926 30.291 28.1396 31.1614 27.6979 32.0895C27.281 33.0282 26.9716 34.0109 26.7892 35.0255Z" fill="#559B44"/>
<path d="M26.929 34.2364C26.3842 36.7109 27.9793 39.9045 30.0871 41.3541C32.195 42.8037 34.8644 43.2496 37.4349 43.2139C41.5665 43.1567 45.6696 41.935 49.1632 39.7618C51.4543 38.3365 53.2682 36.5636 54.2198 34.0356C55.1595 31.5396 55.687 28.5018 55.1745 25.852C54.6714 23.2511 53.1035 20.597 51.2386 17.7042C52.3019 18.5342 53.8959 20.8871 54.5959 21.9959C55.4139 23.2911 55.8672 24.7027 56.2217 26.1793C57.3128 30.7262 56.7139 35.8285 53.5858 39.4616C50.4765 43.0728 46.0366 45.6286 41.2618 46.1785C38.8591 46.4551 36.4149 46.2328 34.0553 45.7087C32.1294 45.2808 30.1927 44.6207 28.72 43.3257C26.3721 41.2612 26.0669 37.8119 26.7709 35.0053C26.918 34.4546 26.889 34.5298 26.929 34.2364Z" fill="#559B44"/>
<path d="M25.7458 31.5633C25.4949 30.043 24.4687 28.6669 23.0708 27.9761C21.1571 27.0304 18.8242 27.3786 16.8239 26.6259C16.4668 26.4914 16.1186 26.3216 15.7416 26.2589C15.3646 26.1965 14.9391 26.2618 14.6776 26.5367C14.3651 26.8653 14.3843 27.4062 14.6153 27.7949C14.8463 28.1834 15.2434 28.4463 15.6466 28.6586C16.24 28.9709 16.8765 29.2035 17.533 29.3479C18.2374 29.5027 18.9627 29.5562 19.662 29.7322C21.4124 30.1728 22.8886 31.3491 24.6153 31.8722C24.9351 31.9692 25.2966 32.0394 25.5927 31.8859C25.8889 31.7323 26.0117 31.2612 25.7352 31.0755L25.7458 31.5633Z" fill="#BF5327"/>
<path d="M49.1437 42.8124C46.8411 42.2402 44.6127 41.2727 42.3129 40.6831C40.7788 40.2896 39.1992 40.0593 37.7571 39.3024C36.766 38.7821 35.8692 38.0276 34.9731 37.2901C33.6401 36.193 32.2911 35.121 30.8965 34.1498C30.7393 34.0424 30.5805 33.9365 30.3819 33.8388C30.2417 33.8101 30.1061 33.7722 29.9736 33.7268C29.8409 33.6813 29.7113 33.6283 29.583 33.5691C28.7738 32.7354 27.3055 32.4855 26.4988 31.7434C26.3816 31.6375 26.278 31.5213 26.1696 31.39C25.926 30.7357 25.509 29.9147 24.7938 29.8027C24.6449 29.7104 24.4625 29.6173 24.2766 29.5262C20.9312 27.8878 17.1419 26.9351 15.0038 23.6213C14.7871 23.0919 14.631 22.5216 14.546 21.9057C14.461 21.2897 14.4471 20.6279 14.5151 19.9153C14.5292 19.3285 14.5261 18.7445 14.4963 18.1636C14.4658 17.6307 14.4133 17.1004 14.3353 16.5784C13.9718 14.1433 13.0604 11.8944 11.3042 10.4528C10.8651 10.0924 10.3733 9.78244 9.82369 9.53318C5.08085 7.74163 0.0780945 11.8478 0.0780945 15.9538C0.0780945 18.0068 2.68371 18.9192 3.58184 20.7244C3.76137 21.0855 3.87289 21.4822 3.88129 21.9309C4.08114 22.4403 4.2132 22.9444 4.29402 23.4447C4.37551 23.9454 4.40643 24.4419 4.4199 24.9452C4.4888 25.42 4.55041 25.8944 4.60341 26.3679C4.65641 26.8414 4.70036 27.314 4.73415 27.7853C4.76308 28.3732 4.77809 28.9951 4.78714 29.6395C4.79642 30.284 4.79995 30.9513 4.80614 31.6305C4.77058 32.6386 4.71802 33.677 4.69793 34.7186C4.68799 35.2395 4.68622 35.7613 4.70146 36.2774C3.83027 42.6428 10.0836 45.9277 15.9213 44.811C16.5682 44.8758 17.2205 44.9276 17.8733 44.9805C26.3555 45.6675 34.7975 46.5908 43.6573 48.3913C47.4672 49.1913 52.759 48.4304 52.3063 43.0758C51.3326 42.7245 50.0483 43.0373 49.1437 42.8124Z" fill="#F28098"/>
<path d="M43.6571 48.3918C34.1158 46.4527 25.059 45.5312 15.9147 44.8263C15.3052 44.7793 14.6951 44.7332 14.0849 44.6866C13.1183 44.599 12.2036 44.3928 11.3252 44.1031C11.1995 44.0611 11.0743 44.0176 10.9493 43.97C9.24976 43.4647 7.58203 42.6435 7.08162 40.8884C6.99726 40.719 6.91445 40.5474 6.83296 40.376C6.09957 38.8331 5.46777 37.3058 4.66372 37.3058C2.16234 37.7164 4.24678 41.8224 6.03133 43.5794C6.16781 43.7096 6.3034 43.8354 6.43612 43.9565C6.83384 44.3186 7.20838 44.6401 7.50716 44.9115C7.65578 45.0162 7.80706 45.1203 7.96009 45.2243C8.11335 45.3283 8.2686 45.432 8.42561 45.5358C8.55656 45.6041 8.68862 45.6702 8.82178 45.7339C9.22127 45.9253 9.62982 46.0963 10.0452 46.2448C11.1529 46.6411 12.3087 46.8786 13.4675 46.9217C13.8502 46.9143 14.232 46.9034 14.6123 46.8917C14.9923 46.8799 15.3708 46.8671 15.7462 46.8556C22.7411 46.6411 29.7508 47.1768 36.6713 48.4546C40.0103 49.0712 43.3762 49.8627 46.7384 49.4812C48.2564 49.309 49.7923 48.8787 51.0701 47.8511C51.9382 47.1529 54.1699 44.6821 52.9772 43.4915C52.7815 43.2962 52.5532 43.1659 52.3059 43.0765C52.7586 48.4311 47.467 49.1919 43.6571 48.3918Z" fill="#F49BB6"/>
<path d="M27.1816 35.4237C27.0622 35.604 27.2176 35.9127 27.5292 36.113C27.8408 36.3133 28.1902 36.3292 28.3097 36.1489C28.4291 35.9686 28.2737 35.6599 27.9621 35.4598C27.6507 35.2593 27.3013 35.2432 27.1816 35.4237Z" fill="#F49BB6"/>
<path d="M31.199 37.7258C31.0796 37.9061 31.235 38.2147 31.5466 38.4148C31.858 38.6151 32.2076 38.6312 32.327 38.4507C32.4465 38.2704 32.2911 37.9617 31.9795 37.7616C31.6681 37.5613 31.3187 37.5452 31.199 37.7258Z" fill="#F49BB6"/>
<path d="M32.9489 37.7257C32.8295 37.906 32.9849 38.2147 33.2965 38.415C33.6079 38.6153 33.9575 38.6312 34.077 38.4509C34.1964 38.2706 34.041 37.9619 33.7294 37.7618C33.418 37.5613 33.0684 37.5452 32.9489 37.7257Z" fill="#F49BB6"/>
<path d="M29.4644 35.7484C29.291 36.0101 29.5167 36.4577 29.9686 36.7481C30.4204 37.0384 30.9272 37.0617 31.1006 36.8001C31.2739 36.5384 31.0482 36.0908 30.5964 35.8004C30.1446 35.5101 29.6378 35.4868 29.4644 35.7484Z" fill="#F49BB6"/>
<path d="M8.35847 19.8973C8.14007 19.9086 7.97886 20.2144 7.99829 20.5802C8.01773 20.9461 8.21073 21.2334 8.42914 21.2221C8.64754 21.2108 8.80875 20.905 8.78932 20.5394C8.76966 20.1733 8.57688 19.886 8.35847 19.8973Z" fill="#F49BB6"/>
<path d="M8.83989 24.4504C8.62148 24.4617 8.46027 24.7673 8.47971 25.1331C8.49914 25.499 8.69215 25.7863 8.91055 25.7752C9.12896 25.7639 9.29017 25.4581 9.27073 25.0925C9.25108 24.7264 9.05829 24.4391 8.83989 24.4504Z" fill="#F49BB6"/>
<path d="M9.87184 25.8422C9.65343 25.8535 9.49223 26.1593 9.51166 26.5251C9.53109 26.891 9.7241 27.1783 9.9425 27.167C10.1609 27.1557 10.3221 26.8499 10.3027 26.4842C10.283 26.1182 10.0902 25.8309 9.87184 25.8422Z" fill="#F49BB6"/>
<path d="M9.43835 21.9044C9.12168 21.9207 8.88759 22.3642 8.91586 22.8949C8.94412 23.4256 9.22392 23.8423 9.5406 23.826C9.85727 23.8097 10.0914 23.3662 10.0631 22.8355C10.0348 22.305 9.75503 21.8881 9.43835 21.9044Z" fill="#F49BB6"/>
<path d="M47.5447 47.4267C47.5392 47.642 47.8364 47.8241 48.2081 47.833C48.58 47.8421 48.8858 47.6749 48.8911 47.4596C48.8966 47.2442 48.5996 47.0622 48.2277 47.0533C47.8558 47.0441 47.5502 47.2112 47.5447 47.4267Z" fill="#F49BB6"/>
<path d="M49.0333 46.5206C49.0278 46.7359 49.3251 46.918 49.6967 46.9269C50.0686 46.936 50.3745 46.7688 50.3798 46.5534C50.3853 46.3381 50.088 46.1561 49.7164 46.1471C49.3445 46.138 49.0386 46.3053 49.0333 46.5206Z" fill="#F49BB6"/>
<path d="M45.0137 46.6426C45.0058 46.9549 45.4366 47.2187 45.9761 47.232C46.5154 47.2451 46.959 47.0025 46.9668 46.6902C46.9747 46.3779 46.5439 46.1141 46.0044 46.1008C45.4651 46.0877 45.0214 46.3303 45.0137 46.6426Z" fill="#F49BB6"/>
<path d="M52.2286 43.1C52.2714 42.9616 52.4132 42.869 52.5585 42.8488C52.8268 42.8116 53.09 42.9917 53.2192 43.2263C53.3484 43.461 53.3681 43.7386 53.3601 44.0054C53.3477 44.4263 53.2636 44.8678 52.9862 45.1882L52.2286 43.1Z" fill="#F49BB6"/>
<path d="M16.151 23.7899C15.5033 23.3447 15.9203 22.5234 15.8279 22.0194C15.8251 21.8487 15.8383 21.6762 15.8624 21.504C16.0536 20.1254 16.9208 18.7458 15.9203 18.4174C14.4612 18.1299 14.4318 19.2509 14.3795 20.5154C14.372 20.6962 14.364 20.8797 14.3515 21.0624C14.2527 22.5234 13.8358 24.1657 15.012 25.42C15.082 25.5616 15.1568 25.7002 15.2354 25.835C15.4717 26.2394 15.7409 26.6096 16.0362 26.9315C16.3727 27.0546 16.7153 27.137 17.0615 27.1981C18.0994 27.3799 19.172 27.3723 20.1987 27.6455C21.8741 28.0916 23.3447 29.2704 24.5354 30.6803C24.9671 31.1916 25.392 31.7547 25.9737 32.0131C26.5554 32.2715 27.3486 32.0799 27.5584 31.4224C27.6551 31.1196 27.6109 30.7793 27.5178 30.4726C27.4542 30.2633 27.3669 30.0606 27.243 29.8884C27.0968 29.6854 26.9049 29.5317 26.7155 29.3807C25.3905 28.3248 24.0416 27.2547 22.5095 26.6628C21.6566 26.3335 20.7682 26.1606 19.8787 25.9914C19.4339 25.9068 18.989 25.8229 18.5482 25.7189C18.0054 25.3974 17.1715 25.3974 16.5903 24.8354C16.4823 24.7021 16.3973 24.5398 16.2312 24.0829C16.2016 23.9876 16.1755 23.8893 16.151 23.7899Z" fill="#9DCA3D"/>
<path d="M0.878418 15.6806C1.25913 16.4564 1.87416 17.2325 2.74137 17.3478C3.20203 17.4089 3.66423 17.2716 4.10214 17.1189C5.3684 16.6776 6.58321 16.0934 7.71542 15.3816C7.48067 15.1934 7.14633 15.2004 6.84489 15.2273C4.86159 15.4042 2.86636 16.031 0.915961 15.6354L0.878418 15.6806Z" fill="#E93C55"/>
<path d="M23.168 15.9149C22.6002 16.3022 21.989 16.9178 22.2178 17.5596C22.3103 17.8193 22.5313 18.0181 22.7771 18.149C23.5677 18.5694 24.5372 18.3526 25.4033 18.1179C28.2841 17.3371 31.139 16.4673 33.9935 15.5977C34.762 15.3635 36.5141 15.0342 36.2084 13.8436C36.0137 13.0852 34.8128 12.8 34.1489 12.7174C32.897 12.5612 31.6253 12.8127 30.3952 13.0208C27.8124 13.4575 25.3231 14.4439 23.168 15.9149Z" fill="#9DCA3D"/>
</svg>