<svg xmlns="http://www.w3.org/2000/svg" width="110" height="99" viewBox="0 0 110 99" fill="none">
<path d="M108.71 49.5H103.726C103.726 42.8787 102.436 36.453 99.8922 30.4012C97.4359 24.5582 93.9206 19.3118 89.4438 14.8075C84.9669 10.3033 79.7526 6.76633 73.9453 4.29497C67.9304 1.73536 61.5439 0.437439 54.963 0.437439C50.5201 0.437439 46.1157 1.03943 41.8722 2.22675C37.7565 3.37822 33.8024 5.07651 30.1196 7.27415C23.6535 11.1328 18.1458 16.46 14.0568 22.7848C13.2258 24.0701 13.6353 25.7932 14.9586 26.5538L18.6396 28.6695C19.8544 29.3678 21.3958 28.9912 22.1654 27.8156C25.4454 22.8057 29.8352 18.5838 34.9776 15.5152C37.9384 13.7483 41.1165 12.3832 44.4235 11.4579C47.8364 10.503 51.3824 10.0189 54.963 10.0189C60.2624 10.0189 65.4009 11.062 70.2356 13.1195C74.9077 15.1078 79.1047 17.9551 82.71 21.5825C86.3152 25.21 89.1453 29.4327 91.1215 34.1336C93.1663 38.998 94.2032 44.1679 94.2032 49.5H89.2194C88.5744 49.5 88.2513 50.2848 88.7074 50.7436L98.4528 60.5461C98.7355 60.8304 99.1938 60.8304 99.4765 60.5461L109.222 50.7436C109.678 50.2848 109.355 49.5 108.71 49.5Z" fill="#1BAF3A"/>
<path d="M74.9485 83.4848C71.9876 85.2517 68.8095 86.6168 65.5026 87.5421C62.0897 88.497 58.5437 88.9811 54.9631 88.9811C49.6637 88.9811 44.5251 87.938 39.6905 85.8805C35.0184 83.8922 30.8214 81.0447 27.2161 77.4173C23.6108 73.7899 20.7807 69.5672 18.8046 64.8663C16.7597 60.0019 15.7229 54.832 15.7229 49.5H20.7067C21.3518 49.5 21.6747 48.7152 21.2186 48.2564L11.4733 38.4539C11.1906 38.1696 10.7323 38.1696 10.4496 38.4539L0.704261 48.2564C0.248021 48.7153 0.57106 49.5 1.21618 49.5H6.20002C6.20002 56.1213 7.4899 62.547 10.034 68.5988C12.4903 74.4417 16.0056 79.6882 20.4824 84.1925C24.9593 88.6968 30.1736 92.2337 35.9809 94.705C41.9958 97.2648 48.3823 98.5626 54.9632 98.5626C59.4061 98.5626 63.8105 97.9606 68.054 96.7732C72.1697 95.6218 76.1238 93.9235 79.8066 91.7258C86.2727 87.8672 91.7804 82.5401 95.8694 76.2153C96.7003 74.93 96.2909 73.2069 94.9676 72.4464L91.2866 70.3306C90.0717 69.6324 88.5303 70.0089 87.7608 71.1845C84.4806 76.1942 80.0909 80.4161 74.9485 83.4848Z" fill="#1BAF3A"/>
<path d="M85 69.7954C85 70.9567 84.5274 72.0077 83.7626 72.7685C82.9987 73.5284 81.9426 74 80.7775 74H31.2225C28.8905 74 27 72.118 27 69.7954C27 69.2636 27.0989 68.7554 27.2794 68.2875C27.4937 67.7328 27.8216 67.2347 28.2356 66.8224C28.9995 66.0615 30.0556 65.5899 31.2216 65.5899H80.7766C82.5746 65.5899 84.1106 66.7102 84.7179 68.2875C84.9011 68.7554 85 69.2636 85 69.7954Z" fill="#49151A"/>
<path d="M84.7198 68.2875C84.5064 68.8421 84.1775 69.3402 83.7635 69.7525C82.9996 70.5125 81.9436 70.9841 80.7785 70.9841H31.2235C29.4255 70.9841 27.8894 69.8648 27.2803 68.2875C27.4947 67.7328 27.8226 67.2347 28.2366 66.8224C29.0005 66.0615 30.0565 65.5899 31.2225 65.5899H80.7776C82.5756 65.5899 84.1116 66.7102 84.7198 68.2875Z" fill="#672122"/>
<path d="M50.09 19.5956V25.445C50.09 27.9893 49.436 29.4945 48.1903 31.7159L44.8911 36.8035C44.4129 37.6565 44.162 38.6162 44.162 39.5923V63.5291C44.162 65.1037 45.4443 66.3808 47.0252 66.3808H54.2007V19.5956H50.09Z" fill="#AEEAFF"/>
<path d="M58.3123 19.5956V25.445C58.3123 27.9893 58.9663 29.4945 60.2119 31.7159L63.5111 36.8035C63.9893 37.6565 64.2402 38.6162 64.2402 39.5923V63.5291C64.2402 65.1037 62.9579 66.3808 61.377 66.3808H54.2015V19.5956H58.3123Z" fill="#83D2E5"/>
<path d="M54.2015 18H49.0887L50.0899 19.5955H54.2015V18Z" fill="#BD1E2C"/>
<path d="M59.3134 18H54.2015V19.5955H58.3123L59.3134 18Z" fill="#8C231F"/>
<path d="M54.2015 19.5956V64.0126H47.56C46.8144 64.0126 46.2072 63.4078 46.2072 62.6652V40.5091C46.2072 39.8405 46.3766 39.1772 46.6981 38.5916L49.75 33.8843L49.7702 33.8487C51.0726 31.5252 51.6927 29.9698 51.6927 27.4146V19.5956H54.2015Z" fill="#CFF5FF"/>
<path d="M62.1958 40.5091V62.6652C62.1958 63.4078 61.5876 64.0126 60.842 64.0126H54.2006V19.5956H56.7084V27.4146C56.7084 29.9698 57.3285 31.5252 58.631 33.8487L58.6511 33.8843L61.703 38.5916C62.0254 39.1772 62.1958 39.8405 62.1958 40.5091Z" fill="#BDE8F2"/>
<path d="M62.1958 41.103V62.6652C62.1958 63.4078 61.5876 64.0126 60.842 64.0126H47.56C46.8144 64.0126 46.2072 63.4078 46.2072 62.6652V41.2873C46.2072 41.2873 49.3378 38.0305 54.2015 42.1175C57.1664 44.6098 62.1958 41.103 62.1958 41.103Z" fill="#E3F7FC"/>
<path d="M54.2015 42.1175C49.3378 38.0305 46.2072 41.2873 46.2072 41.2873V62.6652C46.2072 63.4078 46.8144 64.0126 47.56 64.0126H54.2015V42.1175Z" fill="white"/>
<path d="M80.5705 55.8634C80.5705 56.7838 75.4083 57.5301 69.0397 57.5301C62.6712 57.5301 57.509 56.7838 57.509 55.8634C57.509 54.9429 62.6712 54.1967 69.0397 54.1967C75.4083 54.1967 80.5705 54.9429 80.5705 55.8634Z" fill="#49151A"/>
<path d="M64.0359 49.1282C64.8502 44.909 66.8735 43.308 67.7116 42.8117C67.9387 42.6776 68.23 42.6804 68.4544 42.819C69.2833 43.3317 71.2737 44.972 72.0055 49.2058C72.9389 54.6118 67.969 54.4084 67.969 54.4084C67.969 54.4084 62.9963 54.5142 64.0359 49.1282Z" fill="#F66654"/>
<path d="M68.0844 42.7122C68.2136 42.7131 68.3427 42.7487 68.4544 42.818C69.2834 43.3307 71.2737 44.971 72.0055 49.2048C72.9389 54.6108 67.969 54.4074 67.969 54.4074L68.0844 42.7122Z" fill="#D4583F"/>
<path d="M71.1894 52.7835C72.5157 48.6948 74.7194 47.3519 75.6125 46.9615C75.8552 46.8557 76.1428 46.894 76.3489 47.0591C77.1082 47.6685 78.8833 49.5386 79.0894 53.8308C79.3532 59.3099 74.4456 58.5034 74.4456 58.5034C74.4456 58.5034 69.4958 58.0035 71.1894 52.7835Z" fill="#F66654"/>
<path d="M75.9935 46.9084C76.1218 46.9258 76.2454 46.976 76.348 47.059C77.1073 47.6684 78.8824 49.5385 79.0885 53.8307C79.3523 59.3097 74.4447 58.5033 74.4447 58.5033L75.9935 46.9084Z" fill="#D4583F"/>
<path d="M59.743 56.1926C58.741 52.0136 59.9225 49.7247 60.4821 48.9292C60.6342 48.713 60.8998 48.5962 61.1618 48.6309C62.129 48.7577 64.6213 49.4373 67.0375 52.9961C70.1224 57.54 65.5088 59.3919 65.5088 59.3919C65.5088 59.3919 61.0216 61.5284 59.743 56.1926Z" fill="#F66654"/>
<path d="M60.7807 48.6865C60.8989 48.6345 61.0307 48.6144 61.1617 48.6318C62.1289 48.7586 64.6212 49.4382 67.0375 52.9969C70.1224 57.5409 65.5097 59.3928 65.5097 59.3928L60.7807 48.6865Z" fill="#D4583F"/>
<path d="M66.5859 51.531C69.8677 48.7431 72.4525 48.7513 73.4179 48.8854C73.6799 48.9219 73.9052 49.1053 73.9931 49.3534C74.3192 50.2693 74.8449 52.789 72.7603 56.5502C70.0985 61.3524 66.345 58.1011 66.345 58.1011C66.345 58.1011 62.3955 55.0906 66.5859 51.531Z" fill="#F66654"/>
<path d="M73.7705 49.0396C73.8704 49.1208 73.9492 49.2285 73.9931 49.3534C74.3192 50.2693 74.8449 52.789 72.7603 56.5502C70.0985 61.3524 66.3459 58.102 66.3459 58.102L73.7705 49.0396Z" fill="#D4583F"/>
<path d="M69.0397 57.53C62.6712 57.53 57.509 56.7838 57.509 55.8633V58.5098C57.509 63.5829 61.638 67.6963 66.7325 67.6963H69.0406L69.0397 57.53Z" fill="#889C29"/>
<path d="M69.0397 57.53C75.4082 57.53 80.5704 56.7838 80.5704 55.8633V58.5098C80.5704 63.5829 76.4414 67.6963 71.3469 67.6963H69.0397V57.53Z" fill="#6F811B"/>
<path d="M33.778 55.3179V57.5502C35.1207 57.5502 36.2089 58.6339 36.2089 59.9713C36.2089 61.3087 35.1207 62.3924 33.778 62.3924V69.3539H52.6243C53.6868 69.3539 54.5478 68.4964 54.5478 67.4373V55.3179H33.778Z" fill="#FFC239"/>
<path d="M38.6452 66.9719C39.3241 66.9719 39.8744 66.4238 39.8744 65.7477C39.8744 65.0716 39.3241 64.5234 38.6452 64.5234C37.9664 64.5234 37.4161 65.0716 37.4161 65.7477C37.4161 66.4238 37.9664 66.9719 38.6452 66.9719Z" fill="#FCAB16"/>
<path d="M42.5499 59.0873C42.5499 59.9376 41.8584 60.6263 41.0047 60.6263C40.1511 60.6263 39.4595 59.9376 39.4595 59.0873C39.4595 58.2371 40.1511 57.5483 41.0047 57.5483C41.8575 57.5483 42.5499 58.2371 42.5499 59.0873Z" fill="#FCAB16"/>
<path d="M50.699 60.1774C50.699 60.7795 50.209 61.2685 49.6035 61.2685C48.9981 61.2685 48.5081 60.7804 48.5081 60.1774C48.5081 59.5753 48.9981 59.0864 49.6035 59.0864C50.209 59.0864 50.699 59.5753 50.699 60.1774Z" fill="#FCAB16"/>
<path d="M45.9536 63.2828C45.9536 63.8849 45.4635 64.3738 44.8581 64.3738C44.2527 64.3738 43.7626 63.8858 43.7626 63.2828C43.7626 62.6807 44.2527 62.1917 44.8581 62.1917C45.4635 62.1917 45.9536 62.6807 45.9536 63.2828Z" fill="#FCAB16"/>
<path d="M51.625 65.7477C51.625 66.5185 50.9976 67.1434 50.2236 67.1434C49.4496 67.1434 48.8231 66.5185 48.8231 65.7477C48.8231 64.9768 49.4506 64.3519 50.2236 64.3519C50.9967 64.3519 51.625 64.9768 51.625 65.7477Z" fill="#FCAB16"/>
<path d="M33.778 55.3178L42.8045 52.1687C42.8045 52.1687 51.0471 51.095 54.5487 55.3178C45.2675 55.3178 33.778 55.3178 33.778 55.3178Z" fill="#FCAB16"/>
</svg>