<svg xmlns="http://www.w3.org/2000/svg" width="52" height="50" viewBox="0 0 52 50" fill="none">
<path d="M51.3642 25.0404C51.3642 38.7076 39.8907 49.7854 25.7398 49.7854C11.5846 49.7854 0.111206 38.7075 0.111206 25.0404C0.111206 11.3741 11.5846 0.296204 25.7398 0.296204C39.8907 0.296254 51.3642 11.3741 51.3642 25.0404Z" fill="#00A4A1"/>
<path d="M12.118 34.7391C12.9959 34.7391 13.7076 33.982 13.7076 33.048C13.7076 32.114 12.9959 31.3568 12.118 31.3568C11.24 31.3568 10.5283 32.114 10.5283 33.048C10.5283 33.982 11.24 34.7391 12.118 34.7391Z" fill="#FDFCEA"/>
<path d="M38.5495 32.9439C38.5495 33.9066 37.8257 34.6872 36.9328 34.6872C36.04 34.6872 35.3162 33.9066 35.3162 32.9439C35.3162 31.9812 36.04 31.2007 36.9328 31.2007C37.8257 31.2007 38.5495 31.9812 38.5495 32.9439Z" fill="#FDFCEA"/>
<path d="M34.9391 18.9203V25.3207L40.4895 24.9565L40.5433 24.2279L39.0345 19.4927L34.9391 18.9203Z" fill="#EFF7F0"/>
<path d="M44.1038 29.1027H41.1796V30.777H44.1038V29.1027Z" fill="#F39225"/>
<path d="M31.0211 15.1057H8.8564C8.38417 15.1057 7.99866 15.4764 7.99866 15.9339V28.1552C7.99866 28.6117 8.38417 28.9832 8.8564 28.9832H31.0211C31.496 28.9832 31.8793 28.6117 31.8793 28.1552V15.9339C31.8793 15.4764 31.4959 15.1057 31.0211 15.1057Z" fill="#F39225"/>
<path d="M36.7278 29.5242C34.7356 29.5242 33.1206 31.0838 33.1206 33.0074C33.1206 34.9314 34.7356 36.4907 36.7278 36.4907C38.7198 36.4907 40.3349 34.9314 40.3349 33.0074C40.3349 31.0838 38.7198 29.5242 36.7278 29.5242ZM37.4555 33.7725C37.264 33.9426 37.0089 34.0471 36.7279 34.0471C36.447 34.0471 36.1919 33.9426 36 33.7725C35.786 33.5823 35.651 33.3102 35.651 33.0074C35.651 32.9427 35.658 32.88 35.6696 32.8188C35.7617 32.335 36.2001 31.9675 36.7279 31.9675C37.2559 31.9675 37.694 32.335 37.786 32.8188C37.7977 32.88 37.8046 32.9427 37.8046 33.0074C37.8048 33.3102 37.6698 33.5823 37.4555 33.7725Z" fill="black"/>
<path d="M12.241 29.5244H12.2238C10.4449 29.5284 8.9694 30.776 8.67842 32.4146C8.6441 32.6073 8.62524 32.8052 8.62524 33.0074C8.62524 34.9312 10.2403 36.4905 12.2324 36.4905C14.2243 36.4905 15.8396 34.9312 15.8396 33.0074C15.8396 32.8052 15.8208 32.6073 15.7864 32.4146C15.4952 30.776 14.0198 29.5284 12.241 29.5244ZM12.9603 33.7724C12.7686 33.9425 12.5136 34.0471 12.2328 34.0471C11.9518 34.0471 11.6964 33.9426 11.5047 33.7724C11.2907 33.5821 11.1557 33.3102 11.1557 33.0075C11.1557 32.9426 11.1628 32.8801 11.1743 32.8187C11.2024 32.6707 11.2634 32.5337 11.349 32.4147C11.5435 32.1447 11.8664 31.9676 12.2327 31.9676C12.5989 31.9676 12.9219 32.1447 13.1161 32.4147C13.2018 32.5337 13.2626 32.6707 13.2907 32.8187C13.3024 32.8801 13.3094 32.9426 13.3094 33.0075C13.3095 33.3102 13.1743 33.5821 12.9603 33.7724Z" fill="black"/>
<path d="M10.9367 29.5244H7.89551V32.4146H8.45146C8.45367 32.4024 8.45503 32.3901 8.45718 32.3779C8.69649 31.0309 9.66699 29.963 10.9367 29.5244Z" fill="#3F4D50"/>
<path d="M44.1989 30.6059C44.184 29.0159 44.2296 27.4406 44.1688 25.8505C43.6436 25.6185 43.1133 25.3856 42.5837 25.1475C42.2147 24.9816 41.8462 24.8135 41.4803 24.6399C41.4311 24.6217 41.386 24.6 41.3424 24.5774C40.5941 24.1893 40.6179 23.2144 40.3324 22.5251C40.0366 21.3555 39.5486 20.2188 39.2525 19.0512C39.0648 18.3114 38.954 17.5592 39.0184 16.7785C36.8655 16.749 34.7273 16.7635 32.5893 16.7783C32.5823 16.7783 32.5753 16.7784 32.5684 16.7785C32.5684 16.7797 32.5684 16.7808 32.5684 16.7822L32.5576 16.773V19.3317L32.5682 19.3406C32.561 22.7338 32.5323 26.1309 32.5671 29.5242L13.5281 29.5243C14.798 29.9629 15.7686 31.0308 16.0078 32.3779C16.0101 32.39 16.0114 32.4024 16.0136 32.4146L32.6137 32.4145C33.1426 30.7954 34.4565 29.2346 36.3449 29.1325C38.4292 28.8408 40.3626 30.387 40.8155 32.3123C42.1903 32.327 43.5649 32.327 44.9392 32.327C44.9392 31.7725 44.9544 31.2037 44.9544 30.6494C44.6975 30.6347 44.4561 30.6202 44.1989 30.6059ZM35.4081 24.363C35.3931 22.8169 35.3628 21.2707 35.4235 19.7249C36.4957 19.7249 37.5834 19.71 38.6558 19.7539C39.0785 21.2854 39.5923 22.8023 40.0152 24.3483C38.4744 24.3776 36.9488 24.363 35.4081 24.363ZM44.0256 30.7218C43.0922 30.753 42.1429 30.753 41.2097 30.7376C41.1934 30.1936 41.1934 29.6654 41.2097 29.1216C42.1429 29.1058 43.0762 29.1058 44.0093 29.1216C44.0413 29.6654 44.0413 30.1936 44.0256 30.7218Z" fill="#3F4D50"/>
<path d="M24.812 20.2034H8.43494V22.5097H24.812V20.2034Z" fill="#C67838"/>
</svg>