<svg xmlns="http://www.w3.org/2000/svg" width="50" height="58" viewBox="0 0 50 58" fill="none">
<path d="M7.75599 5.739C7.61699 5.63 7.76502 5.29598 7.80702 5.07698C7.84802 4.86398 6.626 4.93599 6.636 4.72099C6.02 4.98199 5.853 5.936 5.24 6.2C5.34 6.25 5.41998 6.35998 5.40998 6.52998C5.08998 17.29 8.08 27.82 16.36 35.16C24.22 42.15 34.13 45.45 44.47 46.47C45.27 46.55 45.29 47.8 44.47 47.74C22.42 46.13 1.63999 30.52 4.60999 6.52998C4.61999 6.49998 4.63002 6.48 4.64002 6.45C3.80002 6.81 2.97001 7.16997 2.13001 7.51997C-1.19999 32.42 22.95 48.43 45.45 48.89C45.59 47.02 45.71 45.14 45.74 43.27C28.545 42.993 1.87199 25.689 7.75599 5.739Z" fill="#FF4121"/>
<path d="M27.6 54.74C27.62 54.76 27.63 54.77 27.65 54.79C25.87 54.87 24.09 55.03 22.32 55.07C22.54 53.71 22.75 52.44 23.31 51.16C23.93 49.74 25.13 48.75 25.8 47.4C26.47 47.68 27.15 47.94 27.83 48.18C26.6 50.14 26.51 52.67 27.6 54.74Z" fill="#F6F6F6"/>
<path d="M45.38 12.03C45.33 12.05 45.27 12.06 45.22 12.09C38.96 15.71 35.4 23.5 34.11 30.43C32.8 29.81 31.54 29.13 30.31 28.37C32.18 20.51 37.92 15.72 43.64 10.62C44.21 11.1 44.79 11.58 45.38 12.03Z" fill="#F6F6F6"/>
<path d="M49.03 11.67C49.64 12.09 49.92 13.05 49.28 13.6C43.35 18.72 41.1 25.23 39.76 32.68C41.91 33.38 44.12 33.98 46.37 34.49C46.75 34.58 46.93 34.92 46.97 35.27C47.07 36.36 47.16 37.44 47.22 38.53C47.24 38.53 47.26 38.53 47.28 38.53C48.17 38.6 48.16 39.81 47.29 39.9C47.42 43.06 47.34 46.22 47 49.39C47.32 49.96 47.04 50.88 46.16 50.94C42.03 51.26 37.74 50.87 33.51 49.89C34.21 51.86 33.44 53.73 33.78 55.81C33.93 56.77 33.26 57.41 32.31 57.27C29.33 56.84 26.12 57.47 23.12 57.54C21.21 57.59 18.42 57.89 16.79 56.63C14.9 55.18 15.11 52.14 15.37 50.07C15.57 48.42 15.95 46.77 16.51 45.2C16.69 44.69 16.9 44.18 17.1 43.67C17.05 43.72 17.01 43.77 16.95 43.83C16.83 43.93 16.64 43.8 16.73 43.66C16.9 43.38 17.08 43.12 17.26 42.86C5.29999 34.91 -2.74 21.91 1.08 7.1C1.07 6.91 1.14001 6.70999 1.34001 6.58999C4.94001 4.43999 8.72996 2.52999 12.6 0.929985C13.12 0.709985 13.92 1.15999 14 1.71999C15.13 9.85999 18.18 17.95 24.23 23.74C24.51 24.01 24.8 24.27 25.09 24.52C25.63 15.87 31.87 7.81999 39.32 3.74999C39.97 3.38999 40.64 3.63 41.05 4.2C43.25 7.3 45.91 9.53001 49.03 11.67ZM45.75 41.84C45.75 41.21 45.73 40.58 45.71 39.96C37.16 39.88 28.16 33.17 22.34 27.74C16.26 22.07 8.76 13.61 8.95 4.64001C7.7 5.14001 6.46997 5.67 5.23997 6.2C5.33997 6.25 5.41996 6.35999 5.40996 6.52999C5.08996 17.29 8.07997 27.82 16.36 35.16C24.22 42.15 34.13 45.45 44.47 46.47C45.27 46.55 45.29 47.8 44.47 47.74C22.42 46.13 1.63997 30.52 4.60997 6.52999C4.61997 6.49999 4.63 6.48 4.64 6.45C3.8 6.81 2.96999 7.16998 2.12999 7.51998C-1.20001 32.42 22.95 48.43 45.45 48.89C45.59 47.02 45.71 45.14 45.74 43.27C28.34 42.99 0.649957 26.12 7.40996 5.85C7.58996 5.31 8.37999 5.52998 8.25999 6.07998C3.56999 27.34 28.69 38.83 45.75 41.84ZM45.22 12.09C45.27 12.06 45.33 12.05 45.38 12.03C44.79 11.58 44.21 11.1 43.64 10.62C37.92 15.72 32.18 20.51 30.31 28.37C31.54 29.13 32.8 29.81 34.11 30.43C35.4 23.5 38.96 15.71 45.22 12.09ZM45.61 38.36C45.23 35.04 42.36 35.73 39.5 34.92C34.69 33.54 30.03 31.48 26.06 28.39C18.01 22.13 13.59 13.39 11.99 3.51C11.37 3.72 10.74 3.94999 10.12 4.17999C10.93 13.07 17.06 20.8 23.48 26.6C29.77 32.28 37.11 37.24 45.61 38.36ZM38 32.06C38.28 25 41.01 18.47 45.89 13.44C40.14 18.1 37.41 24 34.91 30.81C35.92 31.26 36.96 31.68 38 32.06ZM42.33 9.42999C41.38 8.51999 40.48 7.54998 39.64 6.48998C33.12 10.41 28 17.28 26.62 24.77C26.56 25.11 26.3 25.29 26.01 25.32C27.13 26.25 28.29 27.08 29.48 27.85C30.71 20.42 36.09 13.6 42.33 9.42999ZM31.78 49.93C31.8 49.75 31.86 49.61 31.94 49.49C31.15 49.28 30.37 49.04 29.59 48.79C28.65 50.6 27.85 52.06 28.7 54.28C28.77 54.46 28.73 54.62 28.63 54.75C29.55 54.73 30.46 54.73 31.36 54.8C31.34 53.17 31.62 51.54 31.78 49.93ZM27.65 54.79C27.63 54.77 27.62 54.76 27.6 54.74C26.51 52.67 26.6 50.14 27.83 48.18C27.15 47.94 26.47 47.68 25.8 47.4C25.13 48.75 23.93 49.74 23.31 51.16C22.75 52.44 22.54 53.71 22.32 55.07C24.09 55.03 25.87 54.87 27.65 54.79ZM21.54 55.09C21.53 55.06 21.52 55.03 21.51 55C21.23 52.46 22.36 48.49 24.6 46.88C22.7 46.03 20.85 45.08 19.07 44.01C18.5 45.98 18.02 48.06 17.83 50.07C17.58 52.65 17.32 54.94 20.41 55.07C20.79 55.08 21.16 55.09 21.54 55.09Z" fill="#1D1D1B"/>
<path d="M8.071 5.614C8.212 5.702 8.30703 5.86397 8.26003 6.07997C3.57003 27.34 28.69 38.83 45.75 41.84C45.75 41.21 45.73 40.58 45.71 39.96C37.16 39.88 28.16 33.17 22.34 27.74C16.26 22.07 8.76003 13.61 8.95003 4.64C8.66203 4.755 8.38202 4.88098 8.09602 4.99898C8.09302 5.20498 8.086 5.41 8.071 5.614Z" fill="#F6F6F6"/>
<path d="M39.5 34.92C42.36 35.73 45.23 35.04 45.61 38.36C37.11 37.24 29.77 32.28 23.48 26.6C17.06 20.8 10.93 13.07 10.12 4.17998C10.74 3.94998 11.37 3.71999 11.99 3.50999C13.59 13.39 18.01 22.13 26.06 28.39C30.03 31.48 34.69 33.54 39.5 34.92Z" fill="#FF4121"/>
<path d="M45.89 13.44C41.01 18.47 38.28 25 38 32.06C36.96 31.68 35.92 31.26 34.91 30.81C37.41 24 40.14 18.1 45.89 13.44Z" fill="#FF4121"/>
<path d="M39.64 6.48997C40.48 7.54997 41.38 8.51998 42.33 9.42998C36.09 13.6 30.71 20.42 29.48 27.85C28.29 27.08 27.13 26.25 26.01 25.32C26.3 25.29 26.56 25.11 26.62 24.77C28 17.28 33.12 10.41 39.64 6.48997Z" fill="#FF4121"/>
<path d="M31.94 49.49C31.86 49.61 31.8 49.75 31.78 49.93C31.62 51.54 31.34 53.17 31.36 54.8C30.46 54.73 29.55 54.73 28.63 54.75C28.73 54.62 28.77 54.46 28.7 54.28C27.85 52.06 28.65 50.6 29.59 48.79C30.37 49.04 31.15 49.28 31.94 49.49Z" fill="#FF4121"/>
<path d="M21.51 55C21.52 55.03 21.53 55.06 21.54 55.09C21.16 55.09 20.79 55.08 20.41 55.07C17.32 54.94 17.58 52.65 17.83 50.07C18.02 48.06 18.5 45.98 19.07 44.01C20.85 45.08 22.7 46.03 24.6 46.88C22.36 48.49 21.23 52.46 21.51 55Z" fill="#FF4121"/>
</svg>