<svg width="47" height="57" viewBox="0 0 47 57" fill="none" xmlns="http://www.w3.org/2000/svg">
<path d="M43.43 5.57999C44.65 7.39999 43.73 10.15 43.07 12.05C40.02 9.41999 34.58 10.57 31.26 11.92C30.26 12.32 30.32 13.87 31.52 13.88C35.05 13.91 37.87 15.26 40.79 17.01C40.06 18.31 39.28 19.59 38.53 20.88C35.88 19.73 32.92 18.82 29.99 18.37C32.68 17.08 35.71 17.01 38.21 19.16C39.08 19.92 40.34 18.7 39.49 17.87C35.61 14.13 30.21 15.33 26.3 18.37C25.57 18.94 26.22 20.08 27.01 20.09C27.18 20.09 27.33 20.11 27.49 20.12C25.99 21.35 25 22.76 24.37 24.52C23.71 23.33 22.77 22.38 21.73 21.51C21.86 21.45 21.99 21.36 22.1 21.19C25.91 15.07 30.1 6.22 37.28 3.53C39.47 2.71 42.15 3.66999 43.43 5.57999Z" fill="#FBBE3A"/>
<path d="M42.37 13.86C42.08 14.52 41.77 15.17 41.43 15.81C39.77 14.37 37.87 13.3 35.81 12.65C36.29 12.56 36.78 12.5 37.29 12.47C39.28 12.34 40.7 13.17 42.37 13.86Z" fill="#FBBE3A"/>
<path d="M27.49 20.12C27.33 20.11 27.18 20.09 27.01 20.09C26.22 20.08 25.57 18.94 26.3 18.37C30.21 15.33 35.61 14.13 39.49 17.87C40.34 18.7 39.08 19.92 38.21 19.16C35.71 17.01 32.68 17.08 29.99 18.37C32.92 18.82 35.88 19.73 38.53 20.88C39.28 19.59 40.06 18.31 40.79 17.01C37.87 15.26 35.05 13.91 31.52 13.88C30.32 13.87 30.26 12.32 31.26 11.92C34.58 10.57 40.02 9.41998 43.07 12.05C43.73 10.15 44.65 7.39998 43.43 5.57998C42.15 3.66998 39.47 2.70999 37.28 3.52999C30.1 6.21999 25.91 15.07 22.1 21.19C21.99 21.36 21.86 21.45 21.73 21.51C22.77 22.38 23.71 23.33 24.37 24.52C25 22.76 25.99 21.35 27.49 20.12ZM40.88 0.939997C51.86 4.58 43.78 17.22 40.07 23.6C40.11 30.01 40.19 36.47 39.65 42.86C39.37 46.21 38.91 50.33 36.32 52.81C31.54 57.38 21.31 57.25 15.31 55.96C0.219986 52.7 3.15999 31.77 2.84999 20.21C2.83999 19.79 3.25999 19.65 3.55999 19.79C3.63999 19.72 3.73999 19.68 3.84999 19.66C1.96999 16.19 0.419982 12.4 0.149982 8.52999C-0.100018 4.93999 1.42997 0.429998 5.85997 0.659998C13.69 1.08 19.24 12.44 21 19.66C24.26 12.99 31.84 -2.06 40.88 0.939997ZM41.43 15.81C41.77 15.17 42.08 14.52 42.37 13.86C40.7 13.17 39.28 12.34 37.29 12.47C36.78 12.5 36.29 12.56 35.81 12.65C37.87 13.3 39.77 14.37 41.43 15.81ZM37.94 21.9C37.99 21.81 38.04 21.73 38.09 21.64C35.02 21.64 31.97 20.61 28.88 20.23C28.94 20.32 29 20.41 29.03 20.53C29.46 22.22 30.29 24.96 32.58 24.7C34.29 24.51 35.7 23.34 36.89 22.19C37.22 21.88 37.6 21.81 37.94 21.9ZM37.4 37.94C37.55 33.52 37.59 29.1 37.62 24.67C35.88 26.09 33.59 27.35 31.37 26.66C29.28 26 28.16 24.33 27.58 22.38C26.6 23.27 25.88 24.33 25.29 25.59C25.21 25.77 25.07 25.85 24.92 25.88C24.91 26.44 24.11 26.81 23.69 26.35C22.27 24.8 21 23.37 19.34 22.14C18.46 23.19 17.4 24.08 16.63 25.23C16.22 25.83 15.23 25.96 14.86 25.23C14.4 24.34 13.55 23.71 12.85 22.96C11.96 23.84 10.99 24.63 10.34 25.75C10.03 26.29 9.33 26.33 8.89 25.93C7.27 24.49 5.59999 23.13 4.21999 21.48C6.54999 31.15 2.27 49.85 14.01 53.23C18.92 54.64 30.89 55.65 34.65 51.14C37.61 47.61 37.26 42.28 37.4 37.94ZM18.25 20.26C18.36 20.12 18.5 19.99 18.66 19.9C18.44 19.21 18.2 18.53 17.95 17.85C15.49 18.56 12.81 18.49 10.36 19.46C9.45997 19.82 8.98 18.7 9.26 18.02C10.41 15.31 12.91 13.45 15.7 12.72C15.63 12.58 15.57 12.44 15.49 12.31C14.96 11.31 14.34 10.13 13.62 8.94C10.96 9.89 8.86999 11.48 6.77999 13.5C6.17999 14.07 5.01 13.51 5.32 12.65C6.36 9.73999 7.76 6.88 10.42 5.13C10.51 5.07 10.59 5.05999 10.68 5.05999C9.72998 4.13999 8.66999 3.41999 7.49999 3.08999C-2.21001 0.339991 5.06999 18.07 6.65999 22.1C7.46999 22.77 8.32999 23.38 9.21999 23.96C10.03 22.79 11.16 22.04 12.04 20.82C12.45 20.24 13.43 20.07 13.81 20.82C14.29 21.76 15.08 22.36 15.76 23.06C16.59 22.13 17.53 21.29 18.25 20.26ZM17.26 16.08C16.95 15.32 16.61 14.57 16.25 13.82C14.63 14.52 13.27 15.53 12.23 16.88C13.87 16.47 15.61 16.19 17.26 16.08ZM12.67 7.47C12.2 6.8 11.7 6.14999 11.16 5.55999C11.16 5.67999 11.12 5.79999 11.02 5.89999C9.69998 7.14999 8.5 8.6 7.76 10.26C9.24 9.06 10.88 8.05 12.67 7.47Z" fill="#1D1D1B"/>
<path d="M38.09 21.64C38.04 21.73 37.99 21.81 37.94 21.9C37.6 21.81 37.22 21.88 36.89 22.19C35.7 23.34 34.29 24.51 32.58 24.7C30.29 24.96 29.46 22.22 29.03 20.53C29 20.41 28.94 20.32 28.88 20.23C31.97 20.61 35.02 21.64 38.09 21.64Z" fill="#FBBE3A"/>
<path d="M37.62 24.67C37.59 29.1 37.55 33.52 37.4 37.94C37.26 42.28 37.61 47.61 34.65 51.14C30.89 55.65 18.92 54.64 14.01 53.23C2.27001 49.85 6.55 31.15 4.22 21.48C5.6 23.13 7.27001 24.49 8.89001 25.93C9.33001 26.33 10.03 26.29 10.34 25.75C10.99 24.63 11.96 23.84 12.85 22.96C13.55 23.71 14.4 24.34 14.86 25.23C15.23 25.96 16.22 25.83 16.63 25.23C17.4 24.08 18.46 23.19 19.34 22.14C21 23.37 22.27 24.8 23.69 26.35C24.11 26.81 24.91 26.44 24.92 25.88C25.07 25.85 25.21 25.77 25.29 25.59C25.88 24.33 26.6 23.27 27.58 22.38C28.16 24.33 29.28 26 31.37 26.66C33.59 27.35 35.88 26.09 37.62 24.67Z" fill="#FCDA7A"/>
<path d="M18.66 19.9C18.5 19.99 18.36 20.12 18.25 20.26C17.53 21.29 16.59 22.13 15.76 23.06C15.08 22.36 14.29 21.76 13.81 20.82C13.43 20.07 12.45 20.24 12.04 20.82C11.16 22.04 10.03 22.79 9.21999 23.96C8.32999 23.38 7.46999 22.77 6.65999 22.1C5.06999 18.07 -2.21001 0.34 7.49999 3.09C8.66999 3.42 9.72998 4.14 10.68 5.06C10.59 5.06 10.51 5.07001 10.42 5.13001C7.76 6.88001 6.35999 9.74 5.31999 12.65C5.00999 13.51 6.17999 14.07 6.77999 13.5C8.86999 11.48 10.96 9.89001 13.62 8.94001C14.34 10.13 14.96 11.31 15.49 12.31C15.57 12.44 15.63 12.58 15.7 12.72C12.91 13.45 10.41 15.31 9.26 18.02C8.98 18.7 9.45997 19.82 10.36 19.46C12.81 18.49 15.49 18.56 17.95 17.85C18.2 18.53 18.44 19.21 18.66 19.9Z" fill="#FBBE3A"/>
<path d="M16.25 13.82C16.61 14.57 16.95 15.32 17.26 16.08C15.61 16.19 13.87 16.47 12.23 16.88C13.27 15.53 14.63 14.52 16.25 13.82Z" fill="#FBBE3A"/>
<path d="M11.16 5.56C11.7 6.15 12.2 6.8 12.67 7.47C10.88 8.05 9.24001 9.06001 7.76001 10.26C8.50001 8.60001 9.69999 7.14999 11.02 5.89999C11.12 5.79999 11.16 5.68 11.16 5.56Z" fill="#FBBE3A"/>
</svg>
