<svg xmlns="http://www.w3.org/2000/svg" width="58" height="73" viewBox="0 0 58 73" fill="none">
<path d="M7.09399 20.107L11.469 59.988H26.16V22.984C15.824 22.984 7.40899 21.705 7.09399 20.107Z" fill="#889C29"/>
<path d="M45.236 20.014C45.236 21.654 36.695 22.984 26.16 22.984C15.624 22.984 7.08398 21.654 7.08398 20.014C7.08398 18.374 15.625 17.044 26.16 17.044C36.695 17.044 45.236 18.374 45.236 20.014Z" fill="#49151A"/>
<path d="M13.1619 15.08C13.0289 15.08 12.8959 15.03 12.7949 14.928C12.7619 14.895 11.9779 14.108 11.4309 12.893C10.6879 11.242 10.7379 9.59403 11.5729 8.12603C11.7159 7.87603 12.0339 7.78802 12.2839 7.93102C12.5339 8.07402 12.6219 8.39202 12.4789 8.64202C11.8099 9.81602 11.7729 11.093 12.3689 12.436C12.8329 13.483 13.5229 14.182 13.5299 14.189C13.7329 14.393 13.7339 14.723 13.5299 14.926C13.4289 15.029 13.2959 15.08 13.1619 15.08Z" fill="#49151A"/>
<path d="M12.1519 13.501C11.0619 14.692 7.51593 15.317 6.10793 12.613C6.10293 12.603 6.09792 12.593 6.09192 12.583C9.33992 9.79301 12.1519 13.501 12.1519 13.501Z" fill="#889C29"/>
<path d="M14.9009 11.859C14.4019 12.205 14.0179 12.699 13.8259 13.276C13.7099 13.624 13.4349 14.048 13.0449 14.442C12.6549 14.836 12.2329 15.115 11.8859 15.234C11.3119 15.432 10.8209 15.82 10.4799 16.323C8.90089 18.645 8.60489 21.066 11.3639 23.798C13.6279 26.04 16.5439 27.101 19.1659 26.895C20.5009 26.79 21.6559 25.965 22.2599 24.77C22.3869 24.518 22.5559 24.281 22.7649 24.069C22.9749 23.857 23.2099 23.687 23.4609 23.557C24.6509 22.942 25.4649 21.779 25.5569 20.443C25.7379 17.819 24.6489 14.913 22.3849 12.671C19.6259 9.93904 17.2079 10.259 14.9009 11.859Z" fill="#BD1E2C"/>
<path d="M14.9009 11.859C14.4019 12.205 14.0179 12.699 13.8259 13.276C13.7149 13.607 13.4599 14.009 13.0979 14.387L22.8199 24.016C23.0149 23.829 23.2309 23.676 23.4609 23.558C24.6509 22.943 25.4649 21.78 25.5569 20.444C25.7379 17.82 24.6489 14.914 22.3849 12.672C19.6259 9.93899 17.2079 10.259 14.9009 11.859Z" fill="#8C231F"/>
<path d="M12.1519 13.501C11.0619 14.692 7.51591 15.317 6.10791 12.613L12.1519 13.501Z" fill="#6F811B"/>
<path d="M35.856 11.074C35.838 11.074 35.821 11.073 35.803 11.071C35.517 11.042 35.308 10.787 35.337 10.501C35.342 10.454 35.458 9.35003 36.055 8.15903C36.867 6.54103 38.177 5.54002 39.843 5.26202C40.127 5.21502 40.396 5.40702 40.443 5.69102C40.49 5.97502 40.298 6.24403 40.014 6.29103C38.681 6.51303 37.667 7.29004 37.001 8.60003C36.481 9.62104 36.375 10.597 36.374 10.607C36.346 10.874 36.12 11.074 35.856 11.074Z" fill="#49151A"/>
<path d="M36.039 9.10202C34.428 9.00802 31.704 6.65101 32.915 3.85301C32.92 3.84301 32.924 3.83202 32.928 3.82202C37.141 4.58102 36.039 9.10202 36.039 9.10202Z" fill="#889C29"/>
<path d="M39.047 10.199C38.463 10.03 37.838 10.045 37.269 10.259C36.926 10.388 36.423 10.4431 35.871 10.3891C35.32 10.3351 34.837 10.184 34.525 9.99005C34.009 9.66905 33.398 9.53404 32.793 9.58604C29.995 9.82604 27.93 11.1241 27.551 14.9881C27.24 18.159 28.257 21.091 30.071 22.995C30.995 23.965 32.364 24.34 33.672 24.054C33.948 23.994 34.238 23.975 34.535 24.004C34.831 24.033 35.112 24.108 35.371 24.221C36.599 24.756 38.015 24.654 39.109 23.882C41.259 22.366 42.826 19.688 43.138 16.517C43.518 12.653 41.744 10.978 39.047 10.199Z" fill="#BD1E2C"/>
<path d="M39.0471 10.199C38.4631 10.03 37.8381 10.045 37.2691 10.259C36.9421 10.382 36.4691 10.437 35.9481 10.395L34.6121 24.013C34.8801 24.047 35.1351 24.118 35.3721 24.221C36.6001 24.756 38.0161 24.654 39.1101 23.882C41.2601 22.366 42.8271 19.688 43.1391 16.517C43.5181 12.653 41.7441 10.978 39.0471 10.199Z" fill="#8C231F"/>
<path d="M36.039 9.10204C34.428 9.00804 31.704 6.65103 32.915 3.85303L36.039 9.10204Z" fill="#6F811B"/>
<path d="M30.111 16.501C30.033 16.501 29.9541 16.483 29.8801 16.447C29.6221 16.319 29.516 16.006 29.644 15.748C30.267 14.49 32.192 12.258 35.015 12.817C35.297 12.873 35.4811 13.147 35.4251 13.43C35.3691 13.713 35.095 13.896 34.812 13.841C32.057 13.297 30.592 16.183 30.577 16.212C30.488 16.394 30.303 16.501 30.111 16.501Z" fill="#49151A"/>
<path d="M30.709 14.849C29.42 14.276 27.919 11.509 29.772 9.59399C29.779 9.58699 29.786 9.58 29.793 9.573C33.004 11.491 30.709 14.849 30.709 14.849Z" fill="#889C29"/>
<path d="M32.831 16.673C32.406 16.355 31.89 16.174 31.359 16.174C31.038 16.174 30.61 16.063 30.176 15.849C29.742 15.635 29.393 15.362 29.198 15.108C28.875 14.687 28.417 14.388 27.906 14.244C25.544 13.579 23.455 14.004 21.955 17.047C20.723 19.544 20.652 22.255 21.549 24.372C22.006 25.45 23.01 26.179 24.167 26.347C24.411 26.383 24.654 26.457 24.888 26.572C25.122 26.687 25.328 26.835 25.505 27.007C26.344 27.823 27.534 28.176 28.666 27.882C30.891 27.305 32.998 25.598 34.23 23.1C35.731 20.057 34.797 18.141 32.831 16.673Z" fill="#889C29"/>
<path d="M32.831 16.673C32.406 16.355 31.89 16.174 31.359 16.174C31.053 16.174 30.65 16.073 30.237 15.878L24.948 26.603C25.157 26.713 25.344 26.85 25.505 27.007C26.344 27.823 27.534 28.176 28.666 27.882C30.891 27.305 32.998 25.598 34.23 23.1C35.731 20.057 34.797 18.141 32.831 16.673Z" fill="#6F811B"/>
<path d="M30.709 14.849C29.42 14.276 27.919 11.509 29.772 9.59399L30.709 14.849Z" fill="#6F811B"/>
<path d="M7.09399 20.107L11.469 59.988C11.469 59.988 14.208 62.379 26.16 62.379C26.16 52.777 26.16 22.984 26.16 22.984C15.824 22.984 7.40899 21.705 7.09399 20.107Z" fill="#A7A9AC"/>
<path d="M45.2259 20.107L40.8509 59.988C40.8509 59.988 38.1119 62.379 26.1599 62.379C26.1599 52.777 26.1599 22.984 26.1599 22.984C36.4959 22.984 44.9099 21.705 45.2259 20.107Z" fill="#939598"/>
<path d="M31.358 35.095H20.962C12.44 35.095 5.50696 28.162 5.50696 19.64C5.50696 19.404 5.69796 19.213 5.93396 19.213H8.20795C8.44395 19.213 8.63495 19.404 8.63495 19.64C8.63495 19.876 8.44395 20.067 8.20795 20.067H6.36696C6.59296 27.922 13.053 34.242 20.962 34.242H31.358C39.267 34.242 45.727 27.922 45.953 20.067H44.106C43.87 20.067 43.679 19.876 43.679 19.64C43.679 19.404 43.87 19.213 44.106 19.213H46.386C46.622 19.213 46.813 19.404 46.813 19.64C46.812 28.162 39.879 35.095 31.358 35.095Z" fill="#49151A"/>
<path d="M21.364 35.924H26.16V33.552H21.364C20.709 33.552 20.178 34.083 20.178 34.738C20.178 35.393 20.709 35.924 21.364 35.924Z" fill="#FFC239"/>
<path d="M30.9549 35.924H26.1589V33.552H30.9549C31.6099 33.552 32.1409 34.083 32.1409 34.738C32.1409 35.393 31.6099 35.924 30.9549 35.924Z" fill="#FCAB16"/>
<path d="M7.08301 52.889H7.08101C6.79401 52.888 6.56101 52.655 6.56201 52.367C6.56501 50.923 7.32502 47.989 10.183 47.219C10.461 47.144 10.747 47.309 10.822 47.587C10.897 47.865 10.732 48.151 10.454 48.226C9.29501 48.538 8.46602 49.313 7.98902 50.529C7.61502 51.482 7.60501 52.361 7.60501 52.37C7.60301 52.657 7.37001 52.889 7.08301 52.889Z" fill="#49151A"/>
<path d="M7.12 51.05C5.666 51.107 3.01401 49.232 3.85401 46.614C3.85701 46.604 3.86001 46.595 3.86301 46.585C7.71101 46.895 7.12 51.05 7.12 51.05Z" fill="#889C29"/>
<path d="M9.91597 51.769C9.37697 51.669 8.81697 51.737 8.32597 51.979C8.02997 52.125 7.58296 52.218 7.08296 52.218C6.58296 52.218 6.13697 52.125 5.83997 51.979C5.34897 51.737 4.78897 51.669 4.24997 51.769C1.76097 52.231 0.0219727 53.578 0.0219727 57.079C0.0219727 59.952 1.19297 62.493 2.98897 64.043C3.90297 64.832 5.16496 65.048 6.31396 64.676C6.55596 64.597 6.81497 64.555 7.08397 64.555C7.35297 64.555 7.61097 64.597 7.85397 64.676C9.00297 65.048 10.264 64.832 11.179 64.043C12.975 62.494 14.146 59.952 14.146 57.079C14.145 53.578 12.406 52.231 9.91597 51.769Z" fill="#BD1E2C"/>
<path d="M9.91595 51.769C9.37695 51.669 8.81696 51.737 8.32596 51.979C8.04296 52.118 7.62395 52.209 7.15295 52.218V64.556C7.39695 64.563 7.63195 64.604 7.85295 64.676C9.00195 65.048 10.2629 64.832 11.1779 64.043C12.9739 62.494 14.145 59.952 14.145 57.079C14.145 53.578 12.406 52.231 9.91595 51.769Z" fill="#8C231F"/>
<path d="M7.12 51.05C5.666 51.107 3.01401 49.232 3.85401 46.614L7.12 51.05Z" fill="#6F811B"/>
<path d="M20.3499 6.65001C20.1099 6.65001 19.8939 6.48402 19.8409 6.24002C19.5429 4.86802 19.6539 1.92301 22.2079 0.597014C22.4639 0.464014 22.7779 0.564022 22.9109 0.820022C23.0439 1.07602 22.9439 1.39001 22.6879 1.52301C21.6609 2.05601 21.0389 2.95802 20.8409 4.20302C20.6849 5.18002 20.8579 6.01202 20.8599 6.02002C20.9199 6.30102 20.7409 6.57802 20.4599 6.63902C20.4239 6.64702 20.3869 6.65001 20.3499 6.65001Z" fill="#49151A"/>
<path d="M20.113 4.87401C18.748 5.23001 15.849 4.00602 16.101 1.35302C16.102 1.34302 16.103 1.33303 16.104 1.32403C19.81 0.818027 20.113 4.87401 20.113 4.87401Z" fill="#889C29"/>
<path d="M22.909 4.97399C22.378 4.99099 21.862 5.172 21.447 5.503C21.197 5.703 20.793 5.884 20.32 5.988C19.847 6.092 19.405 6.09599 19.094 6.01899C18.579 5.89099 18.034 5.94398 17.545 6.14998C15.284 7.10398 13.918 8.73999 14.644 12.054C15.24 14.774 16.877 16.937 18.898 18.031C19.927 18.588 21.167 18.531 22.177 17.94C22.39 17.815 22.626 17.721 22.881 17.666C23.135 17.61 23.389 17.597 23.635 17.621C24.8 17.735 25.949 17.268 26.651 16.332C28.029 14.492 28.611 11.843 28.014 9.12299C27.287 5.80899 25.361 4.89499 22.909 4.97399Z" fill="#BD1E2C"/>
<path d="M22.909 4.97399C22.378 4.99099 21.862 5.172 21.447 5.503C21.208 5.694 20.83 5.86699 20.386 5.97199L22.947 17.653C23.179 17.609 23.41 17.599 23.635 17.621C24.8 17.735 25.949 17.268 26.651 16.332C28.03 14.492 28.611 11.843 28.014 9.12299C27.287 5.80899 25.361 4.89499 22.909 4.97399Z" fill="#8C231F"/>
<path d="M20.113 4.87402C18.748 5.23002 15.849 4.00603 16.101 1.35303L20.113 4.87402Z" fill="#6F811B"/>
<path d="M41.043 67.576L39.761 63.601L57.729 57.806C54.453 63.544 41.043 67.576 41.043 67.576Z" fill="#FFC239"/>
<path d="M41.043 67.576L40.572 66.117C43.832 65.277 46.958 64.003 49.845 62.265C51.33 61.372 53.125 60.302 54.373 58.889L57.729 57.807C54.453 63.544 41.043 67.576 41.043 67.576Z" fill="#FCAB16"/>
<path d="M23.2361 71.117C22.8911 70.048 23.4781 68.902 24.5471 68.557L39.7751 63.646L41.0241 67.517L25.7961 72.428C24.7271 72.773 23.5811 72.186 23.2361 71.117Z" fill="#F8AB24"/>
<path d="M41.023 67.5161L25.794 72.427C24.726 72.771 23.58 72.184 23.236 71.116C23.009 70.414 23.184 69.681 23.631 69.16L23.633 69.159C23.868 68.886 24.178 68.673 24.546 68.555L39.775 63.644L41.023 67.5161Z" fill="#672122"/>
<path d="M23.236 71.1161V71.1171C23.58 72.1851 24.726 72.7721 25.794 72.4281L41.023 67.5171L40.399 65.5811L23.236 71.1161Z" fill="#49151A"/>
</svg>