<svg width="56" height="61" viewBox="0 0 56 61" fill="none" xmlns="http://www.w3.org/2000/svg">
<path d="M48.16 35.78C50.24 39.47 60.19 56.99 52.32 59.81C48.01 61.36 42.03 56.57 38.9 54.28C32.96 49.91 27.34 45.02 22.15 39.77C18.26 35.84 14.31 31.4 13.81 25.61C13.59 23.07 14.06 20.84 15.11 19.07C12.36 19.86 7.94999 20.52 6.80999 17.61C5.96999 15.46 8.11999 14.38 10.08 13.79C6.87999 12.8 3.11999 11.67 1.53999 8.70999C0.46999 6.70999 0.119989 2.39 2.74999 1.22C7.57999 -0.939998 12.68 5.41001 16.27 8.51001C17.2 5.32001 19.51 1.83999 23.12 4.23999C26.41 6.41999 25.78 10.82 24.25 14C34.77 13.33 43.85 28.13 48.16 35.78ZM52.45 57.15C53.97 54.05 52 49.28 50.85 46.36C48.97 41.61 46.57 37.03 43.76 32.76C39.89 26.87 32.43 15.58 24.08 15.92C24.01 16.05 23.89 16.16 23.7 16.2C19.72 17.05 15.95 19.08 16.02 23.73C16.06 26.84 16.98 29.95 18.76 32.53C19.41 33.46 20.11 34.35 20.85 35.22C20.89 33.4 21.12 31.66 21.88 29.92C22.18 29.22 23.26 29.83 22.91 30.53C22.01 32.34 21.79 34.24 21.71 36.21C22.63 37.23 23.58 38.21 24.56 39.16C25.26 34.88 27.19 31 29.94 27.62C30.34 27.13 31.03 27.83 30.63 28.32C27.95 31.66 26.01 35.49 25.08 39.67C25.96 40.52 26.85 41.36 27.74 42.19C27.75 42.2 27.78 42.23 27.8 42.24C28.26 39.8 29.56 37.68 31.63 36.08C32.12 35.7 32.81 36.34 32.32 36.77C30.41 38.51 29.06 40.54 28.62 43C30.31 44.56 33.79 47.69 37.6 50.7C37.69 47.84 39.11 44.99 41.84 43.83C42.49 43.56 43.01 44.38 42.4 44.8C40.33 46.2 38.94 48.58 38.78 51.08C38.77 51.25 38.69 51.38 38.59 51.48C44.57 56.11 51.01 60.1 52.45 57.15ZM21.43 14.44C22.95 12.29 25.24 8.09 22.65 5.75C19.63 3.03 17.96 7.92999 17.54 10.15C17.45 10.63 16.75 10.93 16.35 10.63C13.28 8.36001 10.85 5.30999 7.40999 3.48999C6.51999 3.02999 4.63999 1.94999 3.60999 2.70999C1.62999 4.16999 2.28999 7.64999 3.91999 9.01999C6.29999 11.04 9.44999 12.41 12.41 13.31C12.95 13.48 12.99 14.3 12.41 14.45C11.34 14.65 10.32 15 9.33999 15.49C8.85999 17.02 9.33999 17.7 10.76 17.52C12.56 17.68 14.22 17.46 15.97 17C16.28 16.92 16.52 16.99 16.7 17.14C17.89 16.09 19.41 15.38 21.23 15.08C21.22 14.88 21.28 14.66 21.43 14.44Z" fill="#1D1D1B"/>
<path d="M50.85 46.36C52 49.28 53.97 54.05 52.45 57.15C51.01 60.1 44.57 56.11 38.59 51.48C38.69 51.38 38.77 51.25 38.78 51.08C38.94 48.58 40.33 46.2 42.4 44.8C43.01 44.38 42.49 43.56 41.84 43.83C39.11 44.99 37.69 47.84 37.6 50.7C33.79 47.69 30.31 44.56 28.62 43C29.06 40.54 30.41 38.51 32.32 36.77C32.81 36.34 32.12 35.7 31.63 36.08C29.56 37.68 28.26 39.8 27.8 42.24C27.78 42.23 27.75 42.2 27.74 42.19C26.85 41.36 25.96 40.52 25.08 39.67C26.01 35.49 27.95 31.66 30.63 28.32C31.03 27.83 30.34 27.13 29.94 27.62C27.19 31 25.26 34.88 24.56 39.16C23.58 38.21 22.63 37.23 21.71 36.21C21.79 34.24 22.01 32.34 22.91 30.53C23.26 29.83 22.18 29.22 21.88 29.92C21.12 31.66 20.89 33.4 20.85 35.22C20.11 34.35 19.41 33.46 18.76 32.53C16.98 29.95 16.06 26.84 16.02 23.73C15.95 19.08 19.72 17.05 23.7 16.2C23.89 16.16 24.01 16.05 24.08 15.92C32.43 15.58 39.89 26.87 43.76 32.76C46.57 37.03 48.97 41.61 50.85 46.36ZM40.83 37.67C41.68 37.1 40.86 35.72 40.03 36.3C36.57 38.76 33.57 42.2 33.1 46.57C33.03 47.21 34.07 47.33 34.21 46.72C35.13 42.82 37.53 39.88 40.83 37.67Z" fill="#EC7724"/>
<path d="M40.03 36.3C40.86 35.72 41.68 37.1 40.83 37.67C37.53 39.88 35.13 42.82 34.21 46.72C34.07 47.33 33.03 47.21 33.1 46.57C33.57 42.2 36.57 38.76 40.03 36.3Z" fill="#1D1D1B"/>
<path d="M22.65 5.75C25.24 8.09 22.95 12.29 21.43 14.44C21.28 14.66 21.22 14.88 21.23 15.08C19.41 15.38 17.89 16.09 16.7 17.14C16.52 16.99 16.28 16.92 15.97 17C14.22 17.46 12.56 17.68 10.76 17.52C9.34 17.7 8.86 17.02 9.34 15.49C10.32 15 11.34 14.65 12.41 14.45C12.99 14.3 12.95 13.48 12.41 13.31C9.45 12.41 6.3 11.04 3.92 9.01999C2.29 7.64999 1.63 4.16999 3.61 2.70999C4.64 1.94999 6.52 3.02999 7.41 3.48999C10.85 5.30999 13.28 8.36001 16.35 10.63C16.75 10.93 17.45 10.63 17.54 10.15C17.96 7.93 19.63 3.03 22.65 5.75Z" fill="#99B815"/>
</svg>
