<svg xmlns="http://www.w3.org/2000/svg" width="82" height="82" viewBox="0 0 82 82" fill="none">
<path d="M70.1381 29.9368C70.1381 30.4323 69.7197 30.834 69.2037 30.834C68.6876 30.834 68.2693 30.4323 68.2693 29.9368C68.2693 29.4415 68.6876 29.0398 69.2037 29.0398C69.7197 29.0398 70.1381 29.4415 70.1381 29.9368Z" fill="#A8A8A8"/>
<path d="M62.3876 52.2065C62.3876 65.5893 53.0641 77.1162 39.9856 80.6326C20.1534 85.9752 0.841187 71.6511 0.841187 52.2065C0.841187 35.8857 14.6193 22.6583 31.613 22.6583C48.6096 22.6583 62.3876 35.8859 62.3876 52.2065Z" fill="#F44921"/>
<path d="M25.2568 36.9834C25.1937 39.4468 25.282 43.3576 25.282 43.3576C25.282 43.3576 37.7996 43.3397 37.8141 43.3366L37.7954 36.9836H25.2568V36.9834Z" fill="#EDA580"/>
<path d="M43.747 30.0531C43.1691 30.0531 42.6963 29.6415 42.6963 29.1377V26.1628C42.6963 25.6593 43.1691 25.2474 43.747 25.2474C44.3251 25.2474 44.7979 25.6595 44.7979 26.1628V29.1377C44.7979 29.6415 44.3253 30.0531 43.747 30.0531Z" fill="#FCBD9A"/>
<path d="M43.0933 28.8421V26.4583C43.0933 25.7402 44.2252 25.7388 44.2252 26.4583V28.8421C44.2252 29.5645 43.0933 29.5588 43.0933 28.8421Z" fill="#E08D68"/>
<path d="M18.6525 29.748C19.2193 29.748 19.6833 29.3362 19.6833 28.8327V25.8575C19.6833 25.354 19.2193 24.9421 18.6525 24.9421C18.0856 24.9421 17.6219 25.354 17.6219 25.8575V28.8327C17.6219 29.3362 18.0856 29.748 18.6525 29.748Z" fill="#FCBD9A"/>
<path d="M19.2959 28.6133V26.2293C19.2959 25.5112 18.1639 25.5098 18.1639 26.2293V28.6133C18.1637 29.3355 19.2959 29.3298 19.2959 28.6133Z" fill="#E08D68"/>
<path d="M46.3543 78.148C35.8395 83.6977 23.891 82.2299 16.236 77.8005L17.0818 71.832H45.3696L46.3543 78.148Z" fill="#2D2F3D"/>
<path d="M41.7891 16.3286H20.8164L19.3405 31.169C19.3405 34.9608 24.0176 38.0948 27.9662 38.0948H30.0847C30.3309 38.5759 30.8422 38.9119 31.4355 38.9119H31.7533C32.3468 38.9119 32.858 38.5759 33.1043 38.0948H34.6394C38.5882 38.0948 43.0602 35.0211 43.0602 31.2293L41.7891 16.3286Z" fill="#FCBD9A"/>
<path d="M62.1317 47.5944L61.9639 47.4853L61.2452 47.0162L63.8577 45.1809C63.8736 45.2153 64.7577 44.217 65.2978 43.6018C65.5336 43.3337 65.9392 43.2757 66.2469 43.4654C66.5693 43.6647 66.6756 44.07 66.4896 44.3921L65.5557 46.008C64.5766 47.1052 63.64 48.5797 62.1317 47.5944Z" fill="#EDA580"/>
<path d="M73.7782 43.2871C73.5017 43.0018 73.0369 42.986 72.7398 43.2513L72.3978 43.5571C72.1384 43.4497 71.8268 43.4914 71.6067 43.6879L71.2467 44.0097C71.0141 43.9548 70.7584 44.009 70.5699 44.1775L68.5667 45.9682H62.8949C61.5411 45.9682 60.7881 47.5117 60.6651 48.3567L51.4022 60.475C54.3946 65.4842 56.1951 63.6789 56.6984 62.9416C56.6942 63.0133 63.7834 50.3048 64.5853 48.8672H68.6546L72.1237 46.6298L73.7414 44.2847C74.0381 44.0187 74.0548 43.5722 73.7782 43.2871Z" fill="#FCBD9A"/>
<path d="M75.7118 42.4973H62.8683V43.4127H75.7118V42.4973Z" fill="#554F5B"/>
<path d="M55.074 55.8079C53.8592 52.6798 53.0693 48.511 51.6537 45.5104C50.061 42.242 47.9645 42.6873 38.1745 41.2849V38.8102H33.2626L31.6071 41.2755L30.031 38.8102H24.8556V41.2634C14.6391 42.7829 13.8402 41.8284 11.9722 45.2814C9.53731 49.9196 6.35995 53.7521 4.49829 57.9968C4.50712 58.0359 9.82537 61.1908 9.82537 61.1908C11.6085 59.6037 15.1348 56.3962 16.8191 54.0104C15.4182 57.2591 14.7103 63.4518 17.0406 71.8257L31.6613 71.8346L45.3699 71.8257C49.6662 67.2368 48.4916 61.4267 47.3302 55.4069C52.8104 63.1856 53.5569 63.0939 53.5569 63.0939C53.5537 63.1469 55.074 55.8079 55.074 55.8079Z" fill="#CEE6EF"/>
<path d="M27.592 50.2526C27.592 50.8143 27.1177 51.2696 26.5327 51.2696C25.9477 51.2696 25.4737 50.8141 25.4737 50.2526C25.4737 49.6907 25.9477 49.2355 26.5327 49.2355C27.1179 49.2355 27.592 49.6907 27.592 50.2526Z" fill="#4956CE"/>
<path d="M27.592 57.5759C27.592 58.1376 27.1177 58.593 26.5327 58.593C25.9477 58.593 25.4737 58.1376 25.4737 57.5759C25.4737 57.0142 25.9477 56.559 26.5327 56.559C27.1179 56.559 27.592 57.0142 27.592 57.5759Z" fill="#4956CE"/>
<path d="M27.592 64.2889C27.592 64.8506 27.1177 65.3061 26.5327 65.3061C25.9477 65.3061 25.4737 64.8506 25.4737 64.2889C25.4737 63.7272 25.9477 63.2717 26.5327 63.2717C27.1179 63.2717 27.592 63.7272 27.592 64.2889Z" fill="#4956CE"/>
<path d="M37.9578 50.2526C37.9578 50.8143 37.4836 51.2696 36.8988 51.2696C36.3139 51.2696 35.8395 50.8141 35.8395 50.2526C35.8395 49.6907 36.3139 49.2355 36.8988 49.2355C37.4838 49.2355 37.9578 49.6907 37.9578 50.2526Z" fill="#4956CE"/>
<path d="M37.9578 57.5759C37.9578 58.1376 37.4836 58.593 36.8988 58.593C36.3139 58.593 35.8395 58.1376 35.8395 57.5759C35.8395 57.0142 36.3139 56.559 36.8988 56.559C37.4838 56.559 37.9578 57.0142 37.9578 57.5759Z" fill="#4956CE"/>
<path d="M37.9578 64.2889C37.9578 64.8506 37.4836 65.3061 36.8988 65.3061C36.3139 65.3061 35.8395 64.8506 35.8395 64.2889C35.8395 63.7272 36.3139 63.2717 36.8988 63.2717C37.4838 63.2717 37.9578 63.7272 37.9578 64.2889Z" fill="#4956CE"/>
<path d="M81.0207 41.6071L75.7034 42.5227H62.9015L57.3867 41.6071V40.6665H81.0207V41.6071Z" fill="#837E89"/>
<path d="M22.2843 25.1705L22.2838 25.1698C22.2838 22.3596 28.2295 22.7795 28.4788 23.905L28.4499 24.7379C26.2334 24.3696 24.1994 23.962 22.2843 25.1705Z" fill="#4C1F0D"/>
<path d="M39.6316 25.1023C39.6316 25.1019 39.632 25.1016 39.632 25.1016C39.3489 22.2914 33.6385 22.8022 33.4086 23.9744L33.39 24.7652C35.6077 24.3474 37.6992 23.9381 39.6316 25.1023Z" fill="#4C1F0D"/>
<path opacity="0.23" d="M26.5573 28.9142C26.5573 30.1163 25.5331 31.0906 24.2696 31.0906C23.0064 31.0906 21.982 30.1163 21.982 28.9142C21.982 27.7121 23.0062 26.7378 24.2696 26.7378C25.5328 26.7376 26.5573 27.7121 26.5573 28.9142Z" fill="#FF817B"/>
<path opacity="0.23" d="M39.8298 28.9142C39.8298 30.1163 38.8056 31.0906 37.5425 31.0906C36.279 31.0906 35.2548 30.1163 35.2548 28.9142C35.2548 27.7121 36.279 26.7378 37.5425 26.7378C38.8056 26.7376 39.8298 27.7121 39.8298 28.9142Z" fill="#FF817B"/>
<path d="M29.5611 29.7914L29.9279 29.4795C30.7975 30.2212 32.0691 30.1114 32.5998 29.4309L33.0329 29.6767C32.3277 30.58 30.6761 30.7424 29.5611 29.7914Z" fill="#E08D68"/>
<path d="M42.2794 15.6835C43.0524 10.0416 36.839 9.79824 29.1715 10.0383C24.8114 10.175 18.9612 11.8057 18.8041 21.163C18.6586 25.6511 19.623 28.3272 19.623 28.3272L21.545 21.6333C21.7577 21.6152 35.8373 21.6941 40.9289 17.4759C40.5004 17.5503 42.7567 27.9571 42.7562 28.0985C44.676 23.9603 43.9924 19.2465 42.2794 15.6835Z" fill="#4C1F0D"/>
<path d="M31.8291 35.1249C27.668 35.2799 27.4104 32.4021 27.7282 32.4787C30.0523 33.038 32.4578 33.0043 34.9309 32.4787C35.2487 32.4111 34.805 35.0139 31.8291 35.1249Z" fill="#F1F2F2"/>
<path d="M31.5096 35.2837C29.1217 35.2837 28.1483 34.2576 27.7804 33.6459C27.4737 33.1358 27.4114 32.6297 27.5289 32.4353C27.5893 32.3349 27.6675 32.3187 27.7669 32.3307C29.9866 32.8653 32.3795 32.8651 34.8968 32.3297C35.0958 32.3085 35.1733 32.4506 35.1773 32.6417C35.189 33.2383 34.4532 35.2837 31.5096 35.2837ZM27.791 32.6504C27.748 33.2265 28.5097 35.0985 31.823 34.9722C34.2026 34.8836 34.871 33.1405 34.861 32.6471C33.6284 32.9058 32.3964 33.038 31.2176 33.038C30.0472 33.0382 28.8944 32.9079 27.791 32.6504Z" fill="#C1535C"/>
<path d="M43.9077 21.9645L18.7114 21.9769L19.421 11.1067L42.899 10.8777L43.9077 21.9645Z" fill="#A7D1D8"/>
<path d="M37.5162 0.980962C30.945 -0.277002 24.7444 1.87065 22.645 5.8632C17.9755 5.20347 13.665 8.03772 13.741 11.736C13.8441 16.7565 21.4395 19.2232 26.1816 15.9915C34.0358 21.7078 47.1153 19.7995 48.7983 12.5451C49.9515 7.57214 44.9003 2.39467 37.5162 0.980962Z" fill="#CEE6EF"/>
<path d="M26.6448 32.4023C29.4129 31.6076 29.7606 32.132 31.2039 32.4023V32.0908C31.2039 31.0866 30.3311 30.3842 29.304 30.1964C26.5479 29.692 26.0608 32.689 24.4161 30.8133C24.5432 31.8736 24.7954 32.8189 26.6448 32.4023Z" fill="#4C1F0D"/>
<path d="M37.9828 26.1721C36.752 25.0691 34.7694 25.1205 33.8117 26.136L34.1312 26.341C34.4063 26.0493 34.9088 25.8186 35.4299 25.7395C34.8266 26.1629 35.1897 27.0309 35.8677 27.0309C36.6166 27.0309 36.8448 26.1725 36.3432 25.7694C36.8394 25.8719 37.3402 26.1002 37.7075 26.3966L37.9828 26.1721Z" fill="#15151E"/>
<path d="M28.4495 26.1721C27.2187 25.0691 25.2364 25.1205 24.2784 26.136L24.5982 26.341C24.8732 26.0493 25.3757 25.8186 25.8969 25.7395C25.2935 26.1629 25.6567 27.0309 26.3347 27.0309C27.0833 27.0309 27.3118 26.1725 26.8102 25.7694C27.3064 25.8719 27.8072 26.1002 28.1745 26.3966L28.4495 26.1721Z" fill="#15151E"/>
<path d="M4.49806 57.9967L9.82514 61.1907L15.5968 70.1779C15.8631 69.599 15.8761 69.5794 16.4105 69.2887L17.2713 70.5172L23.5593 74.3882C24.3499 74.8768 23.5806 76.0248 22.7898 75.5359L19.355 73.412L19.2439 73.5779L23.2668 76.0653C24.0574 76.5542 23.2882 77.7019 22.4971 77.2128L18.4744 74.7256L18.3632 74.8912L21.7948 77.013C22.5854 77.5019 21.8164 78.6493 21.0253 78.1607L17.5935 76.0387L17.4867 76.1977L20.2011 77.876C20.9985 78.3692 20.2227 79.527 19.425 79.0336L13.9926 75.6143C13.4118 75.2552 13.2003 74.4369 13.2717 73.8196C13.2717 73.8196 7.41704 67.6252 3.14212 62.6992C2.46464 61.9344 3.16273 59.9594 4.49806 57.9967Z" fill="#F7C6AA"/>
<path d="M36.0027 32.4023C33.2343 31.6076 32.8869 32.132 31.4436 32.4023V32.0908C31.4436 31.0866 32.3164 30.3842 33.3436 30.1964C36.0996 29.692 36.5867 32.689 38.2314 30.8133C38.1038 31.8736 37.8521 32.8189 36.0027 32.4023Z" fill="#4C1F0D"/>
<path d="M80.0217 40.6661H58.386C58.5544 35.0655 63.3289 30.572 69.2039 30.572C75.0774 30.572 79.8537 35.0655 80.0217 40.6661Z" fill="#C6C6C6"/>
<path d="M69.2039 30.572V40.6661H58.386C58.5544 35.0655 63.3289 30.572 69.2039 30.572Z" fill="#A8A8A8"/>
</svg>