<svg xmlns="http://www.w3.org/2000/svg" width="50" height="48" viewBox="0 0 50 48" fill="none">
<path d="M49.88 44.59C49.9 45.06 49.52 45.56 49.06 45.67C38.34 48.03 27.12 47.63 16.5 45.06C16.23 44.99 16.13 44.73 16.16 44.49C16.13 44.45 16.09 44.41 16.07 44.35C15.15 42.21 12.5 42.5 11.95 44.85C11.85 45.28 11.43 45.58 11 45.58C8.05998 45.6 5.15998 45.66 2.24998 46.15C1.43998 46.29 0.839994 45.69 0.979994 44.87C3.29999 31.07 6.87999 18.07 3.09999 4.17003C2.93999 3.58003 3.74999 3.17001 4.09999 3.59001C4.27999 3.45001 4.50997 3.37001 4.79997 3.40001C8.17997 3.85001 11.55 3.8 14.94 4.05C15.35 4.09 15.51 4.43002 15.41 4.73002C15.46 4.79002 15.51 4.87001 15.54 4.97001C16.95 10.08 22.58 9.56002 22.49 4.01002C22.48 3.43002 23.08 2.97002 23.64 3.13002C30.78 5.25002 39.32 4.93 45.53 0.490002C46.18 0.0300021 46.82 0.790015 46.72 1.41002C45.69 7.93002 48.36 14.74 46.56 21.09C46.4 21.63 45.74 21.66 45.45 21.31C44.78 21.94 43.93 22.47 43.72 23.39C43.42 24.69 45.66 24.91 46.5 25.01C47.03 25.07 47.48 25.41 47.48 25.99C47.48 26.82 47.55 27.63 47.64 28.45C47.67 28.54 47.68 28.63 47.66 28.73C47.66 28.73 47.66 28.73 47.66 28.74C47.59 29.24 46.97 29.74 46.47 29.32C46.35 29.46 46.17 29.56 45.94 29.59C40.02 30.24 42.36 37.19 47.35 35.7C47.89 35.54 48.49 35.88 48.63 36.42C49.31 39.12 49.77 41.81 49.88 44.59ZM45.63 44.07C48.72 43.5 47.54 40.46 46.85 37.88C40.04 38.57 37.72 28.27 45.82 28.03C45.71 27.63 45.63 27.23 45.58 26.82C43.95 26.49 41.84 25.71 41.86 23.8C41.88 22.11 43.54 20.04 45.19 19.68C45.21 19.67 45.24 19.67 45.26 19.67C45.04 14.2 43.83 8.37 44.73 2.96C38.69 6.61 30.95 6.99 24.2 5.18C23.14 11.54 13.65 12.42 14.31 5.33C11.32 6.33 8.11997 6.28001 5.01997 5.78001C9.42997 17.89 5.51999 31.74 3.22999 44.03C6.08999 43.94 9.82997 44.28 10.83 41.86C11.3 40.73 12.09 40.09 13.19 39.67C15.65 38.73 17.23 42.24 17.28 44.02C17.28 44.07 17.27 44.11 17.26 44.15C23.16 44.7 29.19 45.09 35.11 44.95C38.62 44.86 42.17 44.7 45.63 44.07Z" fill="#1D1D1B"/>
<path d="M46.85 37.88C47.54 40.46 48.72 43.5 45.63 44.07C42.17 44.7 38.62 44.86 35.11 44.95C29.19 45.09 23.16 44.7 17.26 44.15C17.27 44.11 17.28 44.07 17.28 44.02C17.23 42.24 15.65 38.73 13.19 39.67C12.09 40.09 11.3 40.73 10.83 41.86C9.82996 44.28 6.08998 43.94 3.22998 44.03C5.51998 31.74 9.42996 17.89 5.01996 5.78C8.11996 6.28 11.32 6.32999 14.31 5.32999C13.65 12.42 23.14 11.54 24.2 5.17999C30.95 6.98999 38.69 6.60999 44.73 2.95999C43.83 8.36999 45.04 14.2 45.26 19.67C45.24 19.67 45.21 19.67 45.19 19.68C43.54 20.04 41.88 22.11 41.86 23.8C41.84 25.71 43.95 26.49 45.58 26.82C45.63 27.23 45.71 27.63 45.82 28.03C37.72 28.27 40.04 38.57 46.85 37.88ZM37.69 34.93C38 32.45 35.34 31.51 33.32 31.78C32.97 31.83 32.6 31.93 32.26 32.08C32.56 31.84 32.87 31.62 33.19 31.43C33.6 31.18 33.33 30.51 32.86 30.65C30.96 31.23 29.45 32.53 29.13 34.57C28.87 36.18 29.46 37.86 30.68 38.94C33.55 41.49 37.32 37.98 37.69 34.93ZM36.68 18.78C37.21 16.39 35.96 13.34 33.71 12.55C33.77 12.44 33.75 12.29 33.6 12.26C27.2 11.27 21.61 23.04 29.17 24.53C32.91 25.27 35.91 22.18 36.68 18.78ZM16.73 32.38C17.99 31.35 18.75 29.52 18.59 27.91C18.39 25.79 16.53 24.72 14.65 24.28C14.63 24.1 14.36 23.97 14.2 24.11C14.17 24.13 14.15 24.15 14.13 24.17C14.09 24.17 14.05 24.16 14.01 24.15C13.66 24.09 13.16 24.24 13.1 24.66C13.07 24.88 13.07 25.08 13.06 25.28C11.47 27.3 11.6 29.54 12.97 32.09C13.83 33.7 15.5 33.39 16.73 32.38Z" fill="#FBBE3A"/>
<path d="M33.32 31.78C35.34 31.51 38 32.45 37.69 34.93C37.32 37.98 33.55 41.49 30.68 38.94C29.46 37.86 28.87 36.18 29.13 34.57C29.45 32.53 30.96 31.23 32.86 30.65C33.33 30.51 33.6 31.18 33.19 31.43C32.87 31.62 32.56 31.84 32.26 32.08C32.6 31.93 32.97 31.83 33.32 31.78ZM35.42 36.5C35.88 35.82 36.48 34.89 36.14 34.04C35.7 32.93 33.68 32.8 32.77 33.27C31.02 34.17 34.36 36 35.35 36.6C35.37 36.56 35.4 36.53 35.42 36.5ZM32.2 38.12C33.07 38.54 33.86 38.18 34.5 37.6C33.62 37.17 32.76 36.59 32.08 35.93C31.44 35.32 30.84 34.47 30.97 33.59C30.72 34.07 30.56 34.59 30.58 35.17C30.62 36.3 31.12 37.6 32.2 38.12Z" fill="#1D1D1B"/>
<path d="M33.71 12.55C35.96 13.34 37.21 16.39 36.68 18.78C35.91 22.18 32.91 25.27 29.17 24.53C21.61 23.04 27.2 11.27 33.6 12.26C33.75 12.29 33.77 12.44 33.71 12.55ZM34.93 18.3C35.12 17.15 35.05 15.68 34.13 14.84C33.72 14.47 33.27 14.23 32.8 14.04C32.78 14.07 32.76 14.1 32.72 14.12C31.27 15.09 29.64 16.75 29.65 18.64C29.66 20.7 31.37 20.94 32.62 22.01C33.83 21.19 34.68 19.84 34.93 18.3ZM31.35 13.51C31.26 13.47 31.16 13.43 31.07 13.39C31.06 13.39 31.06 13.38 31.05 13.37C29.36 14.24 28.1 15.82 27.52 17.75C26.91 19.79 26.96 22.82 29.81 22.87C30.06 22.87 30.29 22.84 30.52 22.81C29.01 22.02 27.82 20.22 27.94 18.64C28.1 16.42 29.55 14.68 31.35 13.51Z" fill="#1D1D1B"/>
<path d="M34.5 37.6C33.86 38.18 33.07 38.54 32.2 38.12C31.12 37.6 30.62 36.3 30.58 35.17C30.56 34.59 30.72 34.07 30.97 33.59C30.84 34.47 31.44 35.32 32.08 35.93C32.76 36.59 33.62 37.17 34.5 37.6Z" fill="#FBBE3A"/>
<path d="M31.07 13.39C31.16 13.43 31.26 13.47 31.35 13.51C29.55 14.68 28.1 16.42 27.94 18.64C27.82 20.22 29.0099 22.02 30.5199 22.81C30.2899 22.84 30.06 22.87 29.81 22.87C26.96 22.82 26.9099 19.79 27.5199 17.75C28.0999 15.82 29.3599 14.24 31.0499 13.37C31.0599 13.38 31.06 13.39 31.07 13.39Z" fill="#FBBE3A"/>
<path d="M18.59 27.91C18.75 29.52 17.99 31.35 16.73 32.38C15.5 33.39 13.83 33.7 12.97 32.09C11.6 29.54 11.47 27.3 13.06 25.28C13.07 25.08 13.07 24.88 13.1 24.66C13.16 24.24 13.66 24.09 14.01 24.15C14.05 24.16 14.09 24.17 14.13 24.17C14.15 24.15 14.17 24.13 14.2 24.11C14.36 23.97 14.63 24.1 14.65 24.28C16.53 24.72 18.39 25.79 18.59 27.91ZM17.04 29.16C17.17 28.67 17.19 28.16 17.03 27.67C16.65 26.52 15.57 26.02 14.4599 25.75C14.42 26.69 14.6 27.61 15.48 28.18C15.99 28.52 16.54 28.81 17.04 29.16ZM16.31 30.73C16.4 30.59 16.49 30.45 16.57 30.3C14.8 29.79 13.69 28.7 13.26 27.21C12.99 28.56 13.26 29.92 14.15 31.4C14.75 32.42 15.85 31.42 16.31 30.73Z" fill="#1D1D1B"/>
<path d="M16.57 30.3C16.49 30.45 16.4 30.59 16.31 30.73C15.85 31.42 14.75 32.42 14.15 31.4C13.26 29.92 12.99 28.56 13.26 27.21C13.69 28.7 14.8 29.79 16.57 30.3Z" fill="#FBBE3A"/>
</svg>