<svg xmlns="http://www.w3.org/2000/svg" width="53" height="54" viewBox="0 0 53 54" fill="none">
<path d="M50.93 26.09C51.96 27.96 53.04 30.52 51.53 32.16C51.16 32.56 50.7 32.77 50.2 32.86C49.11 37.86 46.78 42.45 43.11 45.66C43.35 46.29 43.43 46.99 43.31 47.73C42.92 50.06 40.7 51.53 38.7 52.39C36.46 53.36 33.55 54.45 31.17 53.35C30.06 52.83 29.41 51.88 29.16 50.8C20.82 51.07 12.1 47.46 7.36996 40.8C7.24996 40.77 7.11996 40.74 6.98996 40.7C3.22996 39.34 0.849976 35.67 0.849976 31.69C0.859976 29.49 1.66997 27.42 3.18997 26.4C3.30997 22.2 4.53998 18.06 7.06998 14.64C9.85998 10.87 13.4 8.20999 17.37 6.29999C17.66 3.63999 20.73 1.96999 23.58 1.38999C25.55 0.0999855 27.85 -0.370017 29.9 1.44998C30.28 1.78998 30.59 2.17998 30.85 2.59998C35.75 2.18998 39.81 3.65999 42.95 6.31999C43.71 6.13999 44.49 6.03998 45.25 6.08998C47.24 6.22998 49.07 7.34999 49.36 9.45998C49.57 10.99 49.18 12.49 48.4 13.79C50.06 17.51 50.92 21.79 50.93 26.09ZM47.97 24.79C48.07 24.66 48.18 24.55 48.31 24.47C48.18 22.32 47.8 20.19 47.15 18.17C46.89 17.37 46.6 16.62 46.28 15.9C45.34 16.36 44.26 16.46 43.25 15.94C41 14.78 40.53 11.55 40.3 9.31999C40.28 9.12999 40.34 8.97998 40.42 8.84998C40.39 8.75998 40.35 8.67998 40.33 8.58998C40.31 8.52998 40.31 8.48999 40.3 8.43999C37.86 6.77999 34.96 5.81999 31.65 5.54999C31.63 6.99999 31.04 8.43998 29.84 9.41998C28.19 10.78 25.91 11.15 23.82 10.95C21.96 10.76 18.93 10.39 17.8 8.54999C14.37 10.36 11.27 12.63 9.18997 15.88C7.29997 18.81 6.11996 22.26 5.76996 25.77C5.92996 25.78 6.08998 25.8 6.25998 25.83C6.44998 25.82 6.64998 25.86 6.84998 25.97C6.89998 25.98 6.95998 25.99 7.00998 26.01C7.37998 26.12 7.54996 26.42 7.57996 26.73C9.50996 29.29 10.71 32.63 11.01 35.78C11.14 37.16 10.88 38.94 10.02 40C14.54 45.16 22.08 48.35 29.24 48.15C30.3 44.1 34.93 41.75 38.92 42.23C39.26 42.27 39.49 42.45 39.63 42.68C40.11 42.81 40.59 43 41.08 43.3C41.18 43.36 41.27 43.43 41.36 43.49C41.68 43.19 42 42.88 42.3 42.55C44.92 39.71 46.68 36.17 47.6 32.41C47.38 32.3 47.16 32.18 46.96 32.05C46.66 31.95 46.4 31.75 46.23 31.49C45.08 30.5 44.21 29.09 44.44 27.55C44.72 25.75 46.35 25.07 47.97 24.79Z" fill="#1D1D1B"/>
<path d="M48.31 24.47C48.18 24.55 48.07 24.66 47.97 24.79C46.35 25.07 44.72 25.75 44.44 27.55C44.21 29.09 45.08 30.5 46.23 31.49C46.4 31.75 46.66 31.95 46.96 32.05C47.16 32.18 47.38 32.3 47.6 32.41C46.68 36.17 44.92 39.71 42.3 42.55C42 42.88 41.68 43.19 41.36 43.49C41.27 43.43 41.18 43.36 41.08 43.3C40.59 43 40.11 42.81 39.63 42.68C39.49 42.45 39.26 42.27 38.92 42.23C34.93 41.75 30.3 44.1 29.24 48.15C22.08 48.35 14.54 45.16 10.02 40C10.88 38.94 11.14 37.16 11.01 35.78C10.71 32.63 9.50996 29.29 7.57996 26.73C7.54996 26.42 7.37998 26.12 7.00998 26.01C6.95998 25.99 6.89998 25.98 6.84998 25.97C6.64998 25.86 6.44998 25.82 6.25998 25.83C6.08998 25.8 5.92996 25.78 5.76996 25.77C6.11996 22.26 7.29997 18.81 9.18997 15.88C11.27 12.63 14.37 10.36 17.8 8.54999C18.93 10.39 21.96 10.76 23.82 10.95C25.91 11.15 28.19 10.78 29.84 9.41998C31.04 8.43998 31.63 6.99999 31.65 5.54999C34.96 5.81999 37.86 6.77999 40.3 8.43999C40.31 8.48999 40.31 8.52998 40.33 8.58998C40.35 8.67998 40.39 8.75998 40.42 8.84998C40.34 8.97998 40.28 9.12998 40.3 9.31998C40.53 11.55 41 14.78 43.25 15.94C44.26 16.46 45.34 16.36 46.28 15.9C46.6 16.62 46.89 17.37 47.15 18.17C47.8 20.19 48.18 22.32 48.31 24.47ZM38.32 27.44C40.65 26.25 39.9 23.31 39.03 21.43C37.87 18.89 35.37 16.35 32.51 15.93C31.7 15.81 30.79 16.26 30.83 17.21C30.83 17.29 30.84 17.36 30.85 17.44C29.82 19.37 30.33 22.2 31.16 24.03C32.26 26.47 35.57 28.84 38.32 27.44ZM26.48 40.32C27.03 36.16 24.04 33.07 20.09 32.35C19.13 32.18 18.36 32.91 18.55 33.89C18.6 34.14 18.65 34.38 18.7 34.63C18.31 34.6 17.89 34.93 18.01 35.42C18.9 38.9 21.83 41.23 25.4 41.41C26.04 41.44 26.41 40.88 26.48 40.32ZM19.56 26.04C21.98 23.51 24.26 19.93 21.98 16.57C21.56 15.96 20.9 15.83 20.35 16.11C20.1 15.85 19.71 15.72 19.34 15.93C15.24 18.28 13.71 23.18 17.97 26.24C18.43 26.58 19.18 26.43 19.56 26.04Z" fill="#683C11"/>
<path d="M39.03 21.43C39.9 23.31 40.65 26.25 38.32 27.44C35.57 28.84 32.26 26.47 31.16 24.03C30.33 22.2 29.82 19.37 30.85 17.44C30.84 17.36 30.8299 17.29 30.8299 17.21C30.7899 16.26 31.7 15.81 32.51 15.93C35.37 16.35 37.87 18.89 39.03 21.43Z" fill="#1D1D1B"/>
<path d="M20.09 32.35C24.04 33.07 27.03 36.16 26.48 40.32C26.41 40.88 26.0399 41.44 25.3999 41.41C21.8299 41.23 18.9 38.9 18.01 35.42C17.89 34.93 18.31 34.6 18.7 34.63C18.65 34.38 18.5999 34.14 18.5499 33.89C18.3599 32.91 19.13 32.18 20.09 32.35Z" fill="#1D1D1B"/>
<path d="M21.98 16.57C24.26 19.93 21.98 23.51 19.56 26.04C19.18 26.43 18.43 26.58 17.97 26.24C13.71 23.18 15.24 18.28 19.34 15.93C19.71 15.72 20.1 15.85 20.35 16.11C20.9 15.83 21.56 15.96 21.98 16.57Z" fill="#1D1D1B"/>
</svg>