<svg xmlns="http://www.w3.org/2000/svg" width="58" height="56" viewBox="0 0 58 56" fill="none">
<path d="M57 36.34C57.63 36.67 57.75 37.47 57.45 38.06C55.31 42.25 50.88 43.89 46.42 43.85C46.37 48.64 44.18 52.87 39.54 54.88C38.84 55.18 38.24 55.03 37.78 54.42C35.07 50.71 34.9 46.22 36.74 42.18C25.02 40.79 14.53 40.32 6.49999 30.4C0.359989 22.81 -2.24002 11.25 5.67998 4.03002C12.69 -2.36998 23.65 2.48996 30.07 7.15996C39.3 13.87 41.9 23.99 44.48 34.48C48.94 33.47 52.95 34.21 57 36.34ZM54.55 37.93C51.42 36.51 48.35 36.08 44.86 36.93C44.23 37.08 43.75 36.78 43.5 36.35C42.96 36.42 42.39 36.18 42.23 35.49C39.96 26.27 38 16.82 30.36 10.36C28.83 9.06997 26.93 7.67 24.83 6.45C25.4 16.64 15.23 24.22 5.64 24.07C5.54 24.07 5.47 24.04 5.39 24.02C7.01 27.11 9.24999 29.91 11.66 31.97C19.33 38.54 28.38 37.65 37.43 40.53C37.6 40.59 37.73 40.7 37.82 40.82C38.12 40.88 38.38 41.16 38.3 41.52C37.46 45.19 37.44 48.87 39.33 52.1C42.81 50.09 44.1 46.61 43.8 42.5C43.75 41.84 44.42 41.15 45.09 41.2C48.67 41.52 52.37 40.82 54.55 37.93ZM22.56 5.85997C22.57 5.64997 22.63 5.46999 22.72 5.31999C17.8 2.91999 12.2 1.82002 7.89998 5.03002C1.68998 9.68002 1.98998 16.91 4.95998 23.17C5.03998 22.88 5.26 22.63 5.64 22.6C14.5 21.93 22.11 14.86 22.56 5.85997Z" fill="#1D1D1B"/>
<path d="M44.86 36.93C48.35 36.08 51.42 36.51 54.55 37.93C52.37 40.82 48.67 41.52 45.09 41.2C44.42 41.15 43.75 41.84 43.8 42.5C44.1 46.61 42.81 50.09 39.33 52.1C37.44 48.87 37.46 45.19 38.3 41.52C38.38 41.16 38.12 40.88 37.82 40.82C37.73 40.7 37.6 40.59 37.43 40.53C28.38 37.65 19.33 38.54 11.66 31.97C9.25 29.91 7.01001 27.11 5.39001 24.02C5.47001 24.04 5.54001 24.07 5.64001 24.07C15.23 24.22 25.4 16.64 24.83 6.45001C26.93 7.67001 28.83 9.06999 30.36 10.36C38 16.82 39.96 26.27 42.23 35.49C42.39 36.18 42.96 36.42 43.5 36.35C43.75 36.78 44.23 37.08 44.86 36.93Z" fill="#C6C6C6"/>
<path d="M22.72 5.32002C22.63 5.47002 22.57 5.64999 22.56 5.85999C22.11 14.86 14.5 21.93 5.64002 22.6C5.26002 22.63 5.04 22.88 4.96 23.17C1.99 16.91 1.69 9.68004 7.9 5.03004C12.2 1.82004 17.8 2.92002 22.72 5.32002ZM15.53 8.27003C15.59 7.83003 15.47 7.37001 15.12 7.06001C14.81 6.71001 14.47 6.40003 14.13 6.08003C13.87 5.83003 13.53 5.68999 13.19 5.66999C13.18 5.65999 13.18 5.66003 13.17 5.65003C12.1 4.74003 10.72 6.12002 11.63 7.20002L11.64 7.21003C11.67 7.55003 11.81 7.88998 12.06 8.15998C12.37 8.49998 12.69 8.83002 13.03 9.14002C13.34 9.49002 13.81 9.61 14.25 9.55C14.56 9.52 14.87 9.39002 15.12 9.14002C15.37 8.89002 15.5 8.59003 15.53 8.27003Z" fill="#EDEDED"/>
<path d="M15.12 7.05999C15.47 7.36999 15.59 7.83001 15.53 8.27001C15.5 8.59001 15.37 8.89 15.12 9.14C14.87 9.39 14.56 9.51998 14.25 9.54998C13.81 9.60998 13.34 9.49 13.03 9.14C12.69 8.83 12.37 8.49996 12.06 8.15996C11.81 7.88996 11.67 7.55001 11.64 7.21001L11.63 7.2C10.72 6.12 12.1 4.74001 13.17 5.65001C13.18 5.66001 13.18 5.65997 13.19 5.66997C13.53 5.68997 13.87 5.83001 14.13 6.08001C14.47 6.40001 14.81 6.70999 15.12 7.05999Z" fill="#1D1D1B"/>
</svg>