<svg xmlns="http://www.w3.org/2000/svg" width="50" height="49" viewBox="0 0 50 49" fill="none">
<path d="M39.15 38.63C38.27 40.16 37.97 41.91 38.41 43.57C37.16 44.5 35.49 45.3 34.21 44.68C32.99 44.09 32.35 42.67 32.14 41.29C31.96 40.07 32.28 38.55 33.4 37.85C34.09 37.42 35 37.38 35.79 37.49C36.43 37.57 37.05 37.76 37.65 37.97C38.14 38.14 38.64 38.45 39.15 38.63Z" fill="#82368C"/>
<path d="M37.43 36.37C36.98 36.22 36.52 36.09 36.04 36C34.92 35.81 33.81 35.88 32.76 36.35C32.57 36.44 32.4 36.54 32.23 36.65C32.31 36.53 32.31 36.38 32.18 36.26C30.56 34.8 24.33 29.933 28.707 23.061C29.227 22.231 40.043 22.314 40.9731 22.094C42.123 21.834 45.452 24.741 45.808 26.827C44.628 28.708 36.17 34.65 37.43 36.37Z" fill="#82368C"/>
<path d="M30.2 30.08C30.18 30.11 30.15 30.14 30.12 30.18C29.44 31.13 29.07 32.43 29.14 33.63C27.4 33.17 25.25 33.77 23.89 34.98C21.45 34.61 20.35 32.68 21.34 30.36C21.76 29.38 22.5 28.58 23.37 27.99C24.4 27.29 25.5 27.28 26.62 26.98C26.66 27.32 26.74 27.67 26.89 27.99C27.53 29.4 28.8 29.91 30.2 30.08Z" fill="#82368C"/>
<path d="M31.83 36.84C31.9 36.85 31.96 36.84 32.02 36.82C30.81 37.79 30.3 39.47 30.35 40.99C30.37 41.44 30.43 41.9 30.53 42.35C27.97 44.24 25.19 43.31 24.23 40.24C23.86 39.05 23.97 37.75 24.62 36.68C25.62 35.02 27.64 35.2 29.27 34.84C29.31 34.83 29.34 34.81 29.37 34.79C29.73 35.82 30.51 36.62 31.83 36.84Z" fill="#82368C"/>
<path d="M22.69 41.28C22.66 41.31 22.62 41.34 22.59 41.39C21.67 42.96 20.13 44.9 18.06 44.44C16.61 44.12 15.5 42.43 14.97 41.16C14.37 39.74 14.19 38.03 14.9 36.62C15.28 35.87 15.92 35.37 16.66 35C17.79 34.43 19.08 34.7 20.2 34.28C20.9 35.09 21.97 35.62 23.21 35.73C22.17 37.16 22.06 39.04 22.51 40.72C22.56 40.91 22.63 41.1 22.69 41.28Z" fill="#82368C"/>
<path d="M15.42 24.6C15.26 27.59 17.44 29.52 20.09 29.32C19.91 29.65 19.76 29.98 19.64 30.3C19.3 31.25 19.2599 32.12 19.4699 32.88C17.7299 32.6 15.71 33.47 14.42 34.7C12.52 33.62 11.17 32.33 10.96 29.88C10.69 26.69 12.8 25.27 15.3 24.02C15.41 23.97 15.48 23.89 15.52 23.81C15.47 24.07 15.43 24.33 15.42 24.6Z" fill="#82368C"/>
<path d="M17.42 18.68C17.81 19.03 18.16 19.44 18.53 19.84C17.07 20.5 15.97 21.9 15.58 23.55C15.55 23.27 15.33 23 15.02 22.98C13.81 22.91 12.81 23.22 12 23.78C11.02 22.02 10.79 20.16 12.51 18.58C13.34 17.82 14.52 17.55 15.6 17.75C16.05 17.83 16.43 17.99 16.78 18.2C16.86 18.34 16.95 18.47 17.04 18.6C17.13 18.72 17.3 18.74 17.42 18.68Z" fill="#82368C"/>
<path d="M26.14 25.61C24.19 25.28 22.21 26.53 20.9 28.14C18.66 28.29 17.01 26.97 17.02 24.6C17.03 21.74 19.35 20.82 21.78 20.64C22.33 20.6 22.44 19.87 21.91 19.69C21.17 19.44 20.46 19.38 19.78 19.47C19.22 18.33 18.26 17.47 17.14 16.98C16.96 15.49 17.62 14.28 19.54 14.09C20.58 14 21.63 14.27 22.55 14.72C23.34 15.11 23.88 16.02 24.59 16.45C24.02 16.9 23.52 17.44 23.15 18.04C21.27 21.09 22.38 25.05 26.14 25.61Z" fill="#82368C"/>
<path d="M31.7 15.25C31.46 15.57 31.29 15.91 31.2 16.25C29.65 14.76 27.4 14.85 25.58 15.82C25.39 15.05 24.61 14.41 23.85 13.94C23.36 11.33 24.6201 9.50999 27.5301 10.26C30.1501 10.93 31.36 12.87 31.7 15.25Z" fill="#82368C"/>
<path d="M41.19 16.74C42.22 18.37 40.95 20.08 40.09 21.52C39.4 21.55 38.72 21.69 38.07 21.93C37.49 22.14 36.92 22.44 36.4 22.81C36.37 22.72 36.34 22.63 36.29 22.56C35.2 21.2 32.74 21.12 31.18 21.44C29.59 21.76 28.22 22.83 27.34 24.17C27.04 24.63 26.81 25.18 26.7 25.75C26.55 25.7 26.41 25.66 26.26 25.63C26.71 25.63 26.87 25.02 26.4 24.85C23.71 23.81 23.09 21.22 24.49 18.82C25.06 17.85 25.99 17.05 27.07 16.7C28.67 16.19 29.73 17.22 31.07 17.84C31.12 17.87 31.18 17.88 31.23 17.89C31.49 18.84 32.1 19.75 32.78 20.43C33.09 20.74 33.61 20.34 33.39 19.97C32.81 19 32.27 17.88 32.55 16.88C32.81 16.87 33.06 16.72 33.16 16.4C33.22 16.19 33.27 15.98 33.3 15.77C34.37 14.88 36.05 14.77 37.35 14.86C38.76 14.95 40.41 15.48 41.19 16.74Z" fill="#82368C"/>
<path d="M47.93 30C49.63 31.99 47.09 35.16 45.93 36.69C45.93 36.7 45.93 36.71 45.92 36.72C43.93 35.81 41.43 35.91 39.85 37.45C39.73 37.36 39.6 37.28 39.46 37.2C38.19 35.52 36.8 33.35 37.9 31.36C38.86 29.64 41 28.92 42.83 28.65C44.53 28.39 46.73 28.6 47.93 30Z" fill="#82368C"/>
<path d="M46.61 38.97C48.71 41 47.53 44.11 45.66 45.85C44.07 47.33 41.79 46.14 40.69 44.69C39.25 42.77 39.34 40.39 40.45 38.38C42.51 37.14 44.76 37.18 46.61 38.97Z" fill="#82368C"/>
<path d="M26.26 25.63C26.41 25.66 26.55 25.7 26.7 25.75C26.81 25.18 27.04 24.63 27.34 24.17C28.22 22.83 29.59 21.76 31.18 21.44C32.74 21.12 35.2 21.2 36.29 22.56C36.34 22.63 36.37 22.72 36.4 22.81C36.92 22.44 37.49 22.14 38.07 21.93C38.72 21.69 39.4 21.55 40.09 21.52C40.95 20.08 42.22 18.37 41.19 16.74C40.41 15.48 38.76 14.95 37.35 14.86C36.05 14.77 34.37 14.88 33.3 15.77C33.27 15.98 33.22 16.19 33.16 16.4C33.06 16.72 32.81 16.87 32.55 16.88C32.27 17.88 32.81 19 33.39 19.97C33.61 20.34 33.09 20.74 32.78 20.43C32.1 19.75 31.49 18.84 31.23 17.89C31.18 17.88 31.12 17.87 31.07 17.84C29.73 17.22 28.67 16.19 27.07 16.7C25.99 17.05 25.06 17.85 24.49 18.82C23.09 21.22 23.71 23.81 26.4 24.85C26.87 25.02 26.71 25.63 26.26 25.63ZM26.14 25.61C22.38 25.05 21.27 21.09 23.15 18.04C23.52 17.44 24.02 16.9 24.59 16.45C23.88 16.02 23.34 15.11 22.55 14.72C21.63 14.27 20.58 14 19.54 14.09C17.62 14.28 16.96 15.49 17.14 16.98C18.26 17.47 19.22 18.33 19.78 19.47C20.46 19.38 21.17 19.44 21.91 19.69C22.44 19.87 22.33 20.6 21.78 20.64C19.35 20.82 17.03 21.74 17.02 24.6C17.01 26.97 18.66 28.29 20.9 28.14C22.21 26.53 24.19 25.28 26.14 25.61ZM49.25 29.42C50.86 32.08 48.89 35.4 47.19 37.5C47.44 37.7 47.68 37.92 47.89 38.16C48.93 39.36 49.58 40.89 49.31 42.51C49.05 44.07 48.09 46.02 46.83 47.02C44.44 48.92 41.46 48.17 39.6 45.91C39.23 45.45 38.95 44.97 38.73 44.47C38.61 44.62 38.5 44.78 38.36 44.92C36.89 46.36 34.67 47.2 32.82 45.91C31.89 45.27 31.23 44.33 30.83 43.28C28.17 45.72 24.62 45.07 23.04 42.09C21.96 43.97 20.29 45.89 17.91 45.57C15.8 45.3 14.29 43.64 13.5 41.77C12.74 39.92 12.51 37.54 13.58 35.75C9.1 35.21 8.16998 27.55 11.31 24.35C9.28998 22.48 9.69001 19.11 11.96 17.44C13.21 16.52 14.74 16.3 16.15 16.64C16.03 16.04 16.05 15.46 16.22 14.93C16.09 14.95 15.96 14.93 15.84 14.83C10.65 10.6 -3.15001 10.38 1.31999 0.559983C1.47999 0.219983 1.93996 0.0799833 2.28996 0.169983C8.65996 1.93998 16.06 6.79998 19.07 12.87C20.27 12.72 21.49 12.86 22.61 13.32C22.34 12.05 22.37 10.66 23.31 9.72998C24.39 8.65998 25.97 8.42998 27.42 8.70998C29.99 9.21998 32.71 11.38 33.26 14.04C34.51 13.42 36.02 13.23 37.35 13.34C39.29 13.51 41.63 14.22 42.58 16.1C43.46 17.84 42.98 20.04 41.9 21.68C44.09 22.18 45.94 23.77 46.05 26.36C46.08 26.93 45.19 27.21 44.94 26.66C44.29 25.27 43.88 23.65 42.21 23.14C41.74 23 41.26 22.96 40.78 22.97C40.55 23.12 40.31 23.13 40.11 23.03C39.66 23.1 39.22 23.2 38.8 23.36C37.74 23.75 36.55 24.44 36.01 25.49C35.64 26.2 35.94 26.96 35.54 27.62C35.49 27.69 35.4 27.76 35.31 27.75C33.98 27.61 34.15 25.84 34.56 24.94C34.8 24.4 35.15 23.92 35.56 23.51C34.3 23.27 33.22 22.56 31.83 22.84C30.69 23.07 29.65 23.62 28.92 24.54C27.25 26.66 28.55 28.64 30.87 29.35C32.75 27.69 35.69 27.63 37.55 29.43C38.99 28.01 41.09 27.29 43.08 27.13C45.23 26.96 48.02 27.4 49.25 29.42ZM45.93 36.69C47.09 35.16 49.63 31.99 47.93 30C46.73 28.6 44.53 28.39 42.83 28.65C41 28.92 38.86 29.64 37.9 31.36C36.8 33.35 38.19 35.52 39.46 37.2C39.6 37.28 39.73 37.36 39.85 37.45C41.43 35.91 43.93 35.81 45.92 36.72C45.93 36.71 45.93 36.7 45.93 36.69ZM45.66 45.85C47.53 44.11 48.71 41 46.61 38.97C44.76 37.18 42.51 37.14 40.45 38.38C39.34 40.39 39.25 42.77 40.69 44.69C41.79 46.14 44.07 47.33 45.66 45.85ZM38.41 43.57C37.97 41.91 38.27 40.16 39.15 38.63C38.64 38.45 38.14 38.14 37.65 37.97C37.05 37.76 36.43 37.57 35.79 37.49C35 37.38 34.09 37.42 33.4 37.85C32.28 38.55 31.96 40.07 32.14 41.29C32.35 42.67 32.99 44.09 34.21 44.68C35.49 45.3 37.16 44.5 38.41 43.57ZM36.04 36C36.52 36.09 36.98 36.22 37.43 36.37C36.17 34.65 35.52 32.34 36.7 30.46C35.76 29.89 34.77 29.29 33.62 29.55C32.69 29.77 31.86 30.31 31.34 31.14C30.16 33.03 30.56 34.8 32.18 36.26C32.31 36.38 32.31 36.53 32.23 36.65C32.4 36.54 32.57 36.44 32.76 36.35C33.81 35.88 34.92 35.81 36.04 36ZM32.02 36.82C31.96 36.84 31.9 36.85 31.83 36.84C30.51 36.62 29.73 35.82 29.37 34.79C29.34 34.81 29.31 34.83 29.27 34.84C27.64 35.2 25.62 35.02 24.62 36.68C23.97 37.75 23.86 39.05 24.23 40.24C25.19 43.31 27.97 44.24 30.53 42.35C30.43 41.9 30.37 41.44 30.35 40.99C30.3 39.47 30.81 37.79 32.02 36.82ZM31.2 16.25C31.29 15.91 31.46 15.57 31.7 15.25C31.36 12.87 30.15 10.93 27.53 10.26C24.62 9.50998 23.36 11.33 23.85 13.94C24.61 14.41 25.39 15.05 25.58 15.82C27.4 14.85 29.65 14.76 31.2 16.25ZM30.12 30.18C30.15 30.14 30.18 30.11 30.2 30.08C28.8 29.91 27.53 29.4 26.89 27.99C26.74 27.67 26.66 27.32 26.62 26.98C25.5 27.28 24.4 27.29 23.37 27.99C22.5 28.58 21.76 29.38 21.34 30.36C20.35 32.68 21.45 34.61 23.89 34.98C25.25 33.77 27.4 33.17 29.14 33.63C29.07 32.43 29.44 31.13 30.12 30.18ZM22.59 41.39C22.62 41.34 22.66 41.31 22.69 41.28C22.63 41.1 22.56 40.91 22.51 40.72C22.06 39.04 22.17 37.16 23.21 35.73C21.97 35.62 20.9 35.09 20.2 34.28C19.08 34.7 17.79 34.43 16.66 35C15.92 35.37 15.28 35.87 14.9 36.62C14.19 38.03 14.37 39.74 14.97 41.16C15.5 42.43 16.61 44.12 18.06 44.44C20.13 44.9 21.67 42.96 22.59 41.39ZM20.09 29.32C17.44 29.52 15.26 27.59 15.42 24.6C15.43 24.33 15.47 24.07 15.52 23.81C15.48 23.89 15.41 23.97 15.3 24.02C12.8 25.27 10.69 26.69 10.96 29.88C11.17 32.33 12.52 33.62 14.42 34.7C15.71 33.47 17.73 32.6 19.47 32.88C19.26 32.12 19.3 31.25 19.64 30.3C19.76 29.98 19.91 29.65 20.09 29.32ZM18.53 19.84C18.16 19.44 17.81 19.03 17.42 18.68C17.3 18.74 17.13 18.72 17.04 18.6C16.95 18.47 16.86 18.34 16.78 18.2C16.43 17.99 16.05 17.83 15.6 17.75C14.52 17.55 13.34 17.82 12.51 18.58C10.79 20.16 11.02 22.02 12 23.78C12.81 23.22 13.81 22.91 15.02 22.98C15.33 23 15.55 23.27 15.58 23.55C15.97 21.9 17.07 20.5 18.53 19.84ZM16.5 14.28C16.72 13.93 17.03 13.62 17.43 13.38C14.68 8.24999 8.30001 3.61999 2.65001 2.03999C1.01001 9.22999 12.55 10.05 16.45 14.22C16.47 14.24 16.48 14.26 16.5 14.28Z" fill="#1D1D1B"/>
<path d="M17.43 13.38C17.03 13.62 16.72 13.93 16.5 14.28C16.48 14.26 16.47 14.24 16.45 14.22C12.55 10.05 1.01005 9.22998 2.65005 2.03998C8.30005 3.61998 14.68 8.24998 17.43 13.38Z" fill="#99B815"/>
</svg>