<svg width="56" height="53" viewBox="0 0 56 53" fill="none" xmlns="http://www.w3.org/2000/svg">
<path d="M37.97 17.29C37.97 17.28 37.97 17.28 37.97 17.27L37.96 17.26C37.97 17.28 37.97 17.28 37.97 17.29C37.97 17.33 37.95 17.31 37.94 17.29C37.92 17.28 37.92 17.28 37.9 17.28C37.88 17.28 37.87 17.27 37.86 17.27C37.85 17.27 37.84 17.27 37.82 17.27C37.61 17.26 37.4 17.27 37.26 17.3C36.59 17.42 35.86 17.76 35.19 17.6L35.18 17.59C34.88 17.62 34.59 17.48 34.54 17.08C34.4 16.1 34.22 14.94 33.5 14.2C33.06 13.74 32.65 13.64 32.14 13.84C30.42 14.5 31.24 17 31.56 18.34C31.62 18.56 31.58 18.76 31.51 18.92C31.63 19.03 31.63 19.24 31.52 19.35C30.16 20.75 27.65 21.15 25.85 21.69C22.93 22.56 20.01 23.54 17.22 24.79C12.18 27.06 4.7 30.63 3.34 36.62C1.15 46.28 12.42 50.95 20.25 49.11C30.82 46.62 31.45 37.74 34.1 28.96C34.27 28.41 34.67 28.15 35.09 28.12C35.11 27.68 35.48 27.25 36.01 27.43C37.82 28.04 40.09 28.01 41.72 26.88C41.97 26.72 42.21 26.51 42.34 26.24C42.42 26.09 42.41 26.04 42.35 25.89C42.02 25.07 40.55 24.78 39.86 24.42C39.46 24.21 39.35 23.87 39.43 23.56C39.21 23.39 39.07 23.1 39.23 22.77C39.56 22.06 40.38 21.33 40.28 20.49C40.26 20.36 40.24 20.17 40.14 20.09C40.09 20.06 40.07 20.05 40.04 20.03C39.97 20.06 39.89 20.09 39.85 20.12C39.47 20.33 39.06 20.48 38.62 20.44C38.47 20.43 38.34 20.36 38.23 20.27C37.8 20.38 37.27 20.04 37.47 19.53C37.69 18.95 37.96 18.29 37.99 17.67C37.99 17.57 37.99 17.47 37.99 17.37C37.98 17.35 37.98 17.32 37.97 17.29ZM37.98 17.3C37.98 17.3 37.99 17.31 38 17.32C38 17.32 38 17.32 38 17.31C37.98 17.3 37.98 17.3 37.98 17.3ZM53.01 6.28996C54.85 7.90996 55.27 10.72 55.03 13.04C54.82 15.05 54.22 17.88 52.29 18.98C49.94 20.31 48.18 17.95 47.28 16C46.48 16.85 45.4 17.5 44.56 18.31C43.6 19.23 42.71 20.2099 41.84 21.2199C41.78 21.2899 41.7 21.33 41.63 21.36C41.57 21.54 41.49 21.72 41.38 21.89C41.17 22.21 40.93 22.51 40.7 22.8C42.09 23.05 43.82 23.97 44.32 25.34C44.7 26.4 44.2 27.5499 43.35 28.2199C41.46 29.6899 38.66 30.17 36.4 29.29C36.41 29.38 36.4 29.49 36.38 29.59C34.53 40.04 31.46 49.7 19.75 51.71C11.25 53.17 2.59002 49.43 0.640022 40.5C-0.929978 33.37 5.91002 27.7199 11.42 24.7199C15.24 22.6399 19.29 20.96 23.47 19.74C25.18 19.24 27.62 18.35 29.69 18.46C28.61 16.21 29.04 12.65 31.72 11.89C34.07 11.23 35.47 13.02 35.88 15.03C36.94 14.26 37.94 13.4299 38.84 12.4699C39.3 11.9799 39.71 11.45 40.15 10.95C38 10.9 35.71 10.31 34.97 8.10996C34.27 6.04996 35.49 3.81997 36.97 2.42997C38.44 1.04997 40.65 -0.140049 42.69 0.659951C44.86 1.49995 45.59 3.89997 45.82 6.11997C48.16 5.05997 50.95 4.46996 53.01 6.28996ZM52.79 12.55C52.88 10.97 52.74 8.94997 51.43 7.86997C49.74 6.48997 46.96 7.91998 45.38 8.80998C44.65 9.20998 43.73 8.69996 43.73 7.85996C43.72 6.40996 43.77 3.13 41.86 2.65C40.64 2.34 39.29 3.24999 38.45 4.13999C37.63 5.00999 36.76 6.44 37.11 7.52C37.65 9.18 40.6 9.30996 42.01 9.35996C42.43 9.36996 42.66 9.64999 42.71 9.94999C42.75 10.07 42.75 10.19 42.71 10.31C42.7 10.32 42.7 10.32 42.7 10.33C42.68 10.37 42.66 10.4 42.65 10.44C42.06 11.85 40.85 12.96 39.7 13.94C39.04 14.49 38.36 15 37.63 15.45C38.18 15.44 38.81 15.55 39.19 15.96C39.91 16.72 39.74 17.7 39.35 18.61C39.56 18.5 39.81 18.39 40.04 18.42C40.7 18.48 41.46 18.91 41.66 19.58C42.31 18.69 43 17.82 43.78 17.03C44.68 16.12 45.68 14.96 46.89 14.51C47.01 14.46 47.12 14.47 47.23 14.5C47.73 13.92 48.84 13.76 49.23 14.59C49.58 15.34 50.15 16.55 50.7 16.9C50.97 17.06 51.01 17.09 51.27 16.85C52.24 15.92 52.71 14.06 52.79 12.55Z" fill="#1D1D1B"/>
<path d="M51.43 7.87001C52.74 8.95001 52.88 10.97 52.79 12.55C52.71 14.06 52.24 15.92 51.27 16.85C51.01 17.09 50.97 17.06 50.7 16.9C50.15 16.55 49.58 15.34 49.23 14.59C48.84 13.76 47.73 13.92 47.23 14.5C47.12 14.47 47.01 14.46 46.89 14.51C45.68 14.96 44.68 16.12 43.78 17.03C43 17.82 42.31 18.69 41.66 19.58C41.46 18.91 40.7 18.48 40.04 18.42C39.81 18.39 39.56 18.5 39.35 18.61C39.74 17.7 39.91 16.72 39.19 15.96C38.81 15.55 38.18 15.44 37.63 15.45C38.36 15 39.04 14.49 39.7 13.94C40.85 12.96 42.06 11.85 42.65 10.44C42.66 10.4 42.68 10.37 42.7 10.33C42.7 10.32 42.7 10.32 42.71 10.31C42.75 10.19 42.75 10.07 42.71 9.95003C42.66 9.65003 42.43 9.37 42.01 9.36C40.6 9.31 37.65 9.18004 37.11 7.52004C36.76 6.44004 37.63 5.01003 38.45 4.14003C39.29 3.25003 40.64 2.34004 41.86 2.65004C43.77 3.13004 43.72 6.41 43.73 7.86C43.73 8.7 44.65 9.21001 45.38 8.81001C46.96 7.92001 49.74 6.49001 51.43 7.87001Z" fill="#F6F6F6"/>
<path d="M42.35 25.89C42.41 26.04 42.42 26.09 42.34 26.24C42.21 26.51 41.97 26.72 41.72 26.88C40.09 28.01 37.82 28.04 36.01 27.43C35.48 27.25 35.11 27.68 35.09 28.12C34.67 28.15 34.27 28.41 34.1 28.96C31.45 37.74 30.82 46.62 20.25 49.11C12.42 50.95 1.14998 46.28 3.33999 36.62C4.69999 30.63 12.18 27.06 17.22 24.79C20.01 23.54 22.93 22.56 25.85 21.69C27.65 21.15 30.16 20.75 31.52 19.35C31.63 19.24 31.63 19.03 31.51 18.92C31.58 18.76 31.62 18.56 31.56 18.34C31.24 17 30.42 14.5 32.14 13.84C32.65 13.64 33.06 13.74 33.5 14.2C34.22 14.94 34.4 16.1 34.54 17.08C34.59 17.48 34.88 17.62 35.18 17.59L35.19 17.6C35.86 17.76 36.59 17.42 37.26 17.3C37.4 17.27 37.61 17.26 37.82 17.27C37.84 17.27 37.85 17.27 37.86 17.27C37.87 17.27 37.88 17.28 37.9 17.28C37.92 17.28 37.92 17.28 37.94 17.29C37.95 17.31 37.97 17.33 37.97 17.29C37.98 17.32 37.98 17.35 37.99 17.37C37.99 17.47 37.99 17.57 37.99 17.67C37.96 18.29 37.69 18.95 37.47 19.53C37.27 20.04 37.8 20.38 38.23 20.27C38.34 20.36 38.47 20.43 38.62 20.44C39.06 20.48 39.47 20.33 39.85 20.12C39.89 20.09 39.97 20.06 40.04 20.03C40.07 20.05 40.09 20.06 40.14 20.09C40.24 20.17 40.26 20.36 40.28 20.49C40.38 21.33 39.56 22.06 39.23 22.77C39.07 23.1 39.21 23.39 39.43 23.56C39.35 23.87 39.46 24.21 39.86 24.42C40.55 24.78 42.02 25.07 42.35 25.89Z" fill="#683C11"/>
</svg>
