<svg width="56" height="49" viewBox="0 0 56 49" fill="none" xmlns="http://www.w3.org/2000/svg">
<path d="M55.38 27.44C57.53 46.43 36.01 51.52 21.43 47.14C13.35 44.72 6.45999 40.21 3.04999 32.26C-0.0900087 24.97 0.249992 16.16 2.51999 8.7C2.54999 8.59 2.62999 8.5 2.70999 8.44C3.60999 6.39 5.12999 4.56 7.43999 3.13C12.68 -0.109996 19.07 -0.900008 24.3 2.67999C29.09 5.95999 31.31 11.78 36.36 14.72C36.52 14.51 36.73 14.34 37.02 14.23C43.3 11.89 51.79 13.21 54.67 20.1C55.66 22.47 55.82 24.95 55.34 27.32C55.35 27.36 55.37 27.4 55.38 27.44ZM52.33 27.04C54.13 18.09 45.08 14.34 37.78 16.98C37.05 17.24 36.51 16.92 36.24 16.4C36.18 16.4 36.12 16.41 36.06 16.39C28.25 14.12 25.68 2.25 16.64 2.88C3.51999 3.79 2.04998 16.53 8.47998 25.71C14.52 34.32 26.46 38.01 36.69 37.23C42.89 36.76 50.91 34.09 52.33 27.04ZM52.66 33.11C51.44 34.71 49.89 36.08 48.1 37.08C37.25 43.17 18.8 40.74 9.89998 31.84C7.21998 29.16 4.60999 25.2 3.07999 20.98C3.17999 24.22 3.62999 27.41 4.80999 30.45C7.57999 37.57 13.56 42.27 20.82 44.38C32.88 47.88 49.37 45.99 52.66 33.11Z" fill="#1D1D1B"/>
<path d="M37.78 16.98C45.08 14.34 54.13 18.09 52.33 27.04C50.91 34.09 42.89 36.76 36.69 37.23C26.46 38.01 14.52 34.32 8.47999 25.71C2.04999 16.53 3.51999 3.79002 16.64 2.88002C25.68 2.25002 28.25 14.12 36.06 16.39C36.12 16.41 36.18 16.4 36.24 16.4C36.51 16.92 37.05 17.24 37.78 16.98ZM18.57 23.59C22.45 24.16 25.78 20.81 25.02 16.86C24.49 14.08 22.54 11.96 20.23 10.46C18.95 9.64002 17.06 8.83002 15.34 8.85002C15.35 8.51002 15.11 8.18001 14.72 8.34001C11.04 9.82001 8.81999 13.02 10.33 16.96C11.59 20.28 15.05 23.07 18.57 23.59Z" fill="#FF4121"/>
<path d="M48.1 37.08C49.89 36.08 51.44 34.71 52.66 33.11C49.37 45.99 32.88 47.88 20.82 44.38C13.56 42.27 7.57998 37.57 4.80998 30.45C3.62998 27.41 3.17999 24.22 3.07999 20.98C4.60999 25.2 7.21998 29.16 9.89998 31.84C18.8 40.74 37.25 43.17 48.1 37.08Z" fill="#F6F6F6"/>
<path d="M25.02 16.86C25.78 20.81 22.45 24.16 18.57 23.59C15.05 23.07 11.59 20.28 10.33 16.96C8.81999 13.02 11.04 9.82 14.72 8.34C15.11 8.18 15.35 8.51001 15.34 8.85001C17.06 8.83001 18.95 9.64001 20.23 10.46C22.54 11.96 24.49 14.08 25.02 16.86ZM18.04 21.2C20.5 21.87 23.17 20.56 22.85 17.61C22.39 13.25 17.54 10.97 13.73 10.69C13.68 10.68 13.63 10.67 13.58 10.65C12.14 12.22 11.36 14.24 12.46 16.39C13.57 18.59 15.62 20.54 18.04 21.2Z" fill="#1D1D1B"/>
<path d="M22.85 17.61C23.17 20.56 20.5 21.87 18.04 21.2C15.62 20.54 13.57 18.59 12.46 16.39C11.36 14.24 12.14 12.22 13.58 10.65C13.63 10.67 13.68 10.68 13.73 10.69C17.54 10.97 22.39 13.25 22.85 17.61ZM19.59 18.64C19.81 17.28 19.86 15.91 18.88 14.83C18.14 14.02 16.67 13.41 15.63 13.15C14.95 12.98 14.27 13.88 14.8 14.41C14.69 15.51 14.53 16.63 14.99 17.68C15.6 19.07 17.51 19.22 18.8 19.25C19.14 19.25 19.54 18.99 19.59 18.64Z" fill="#F6F6F6"/>
<path d="M18.88 14.83C19.86 15.91 19.81 17.28 19.59 18.64C19.54 18.99 19.14 19.25 18.8 19.25C17.51 19.22 15.6 19.07 14.99 17.68C14.53 16.63 14.69 15.51 14.8 14.41C14.27 13.88 14.95 12.98 15.63 13.15C16.67 13.41 18.14 14.02 18.88 14.83ZM18.08 17.6C18.12 16.9 18.02 16.18 17.37 15.79C16.95 15.53 16.49 15.34 16.04 15.14C16.06 15.73 16.1 16.32 16.31 16.85C16.55 17.46 17.37 17.58 18.08 17.6Z" fill="#1D1D1B"/>
</svg>
