<svg xmlns="http://www.w3.org/2000/svg" width="56" height="53" viewBox="0 0 56 53" fill="none">
<path d="M55.45 11.69C55.9 14.59 56.31 21.58 53.78 24.44C54.68 25.43 55.2699 26.73 55.4299 28.35C56.6999 41.28 44.39 45.03 34.45 48.13C34.16 48.23 33.9 48.2 33.69 48.09C33.68 49.1 33.47 50.17 33.47 51.01C33.48 51.47 33.16 51.84 32.73 51.98C30.81 52.6 28.7999 52.1 26.8299 52.08C26.1999 52.07 25.8299 51.59 25.7699 51.01C25.6799 50.25 25.5699 49.4 25.6799 48.61C25.0099 48.56 24.34 48.5 23.69 48.42C22.7 48.45 21.72 48.3 20.81 47.92C12.34 46.08 6.21997 40.98 2.94997 32.01C2.00997 29.44 -0.160057 25.04 1.29994 22.26C1.90994 21.08 2.86995 20.7 3.92995 20.72C1.54995 17.26 0.35995 12.27 0.86995 8.29998C1.42995 3.91998 4.45995 3.90999 6.98995 6.58999C6.11995 0.529989 13.28 -0.549993 16.78 3.39001C19.38 0.890007 22.1699 0.419982 23.9599 4.01998C23.9799 3.97998 23.98 3.93999 24.01 3.89999C26.51 0.0499866 30.9599 -1.20001 33.3299 2.77999C35.9999 0.729991 38.68 0.459986 40.29 3.64999C43.09 2.77999 45.0699 3.45 45.8999 6.23C50.6799 3.43 54.63 6.45999 55.45 11.69ZM53.0499 19.68C53.4399 17.75 53.64 15.76 53.48 13.8C53.1 9.24998 51.16 5.74999 46.2 7.77999C46.17 7.78999 46.15 7.79 46.13 7.79C45.94 8.38 45.1399 8.67999 44.7699 7.99999C43.4299 5.57999 43.07 4.49 40.04 5.68999C39.54 5.87999 39.07 5.47 38.91 5.04C36.88 2.94 35.14 2.89001 33.69 4.89001C33.13 5.39001 32.4 5.13 32.14 4.48C30.27 -0.0799966 26.93 2.48 25.04 4.7C24.82 4.96 24.5099 4.94 24.2699 4.79C24.3399 5.52 23.15 5.92 22.75 5.2C20.96 1.98 19.03 3.49999 17.34 5.43999C16.93 5.90999 16.1999 5.73 15.8999 5.26C13.5499 1.63 7.97996 2.04998 8.24996 7.04998C8.26996 7.40998 7.96997 7.60998 7.66997 7.60998C7.65997 8.06998 7.13996 8.41999 6.68996 8.02999C5.86996 7.33999 3.48994 4.92998 3.01994 7.10998C2.69994 8.60998 2.78995 10.24 3.02995 11.74C3.51995 14.85 4.16995 18.26 5.70995 21.06C6.06995 21.18 6.41994 21.32 6.76994 21.47C6.82994 17.85 8.91996 16.42 12.29 18.15C14.08 14.15 17.6 13.04 21.07 15.8C24.15 12.17 26.93 13.51 28.84 16.55C29.9 12.92 33.46 11.07 35.28 15.16C38.85 13.5 41.15 15.38 41.82 19.04C43.08 18.6 44.2899 18.46 45.6499 19.08C47.4999 19.93 46.52 21.94 48.69 22.14C49.8 22.24 50.82 22.51 51.73 22.94C52.18 21.87 52.8099 20.83 53.0499 19.68ZM51.7099 35.92C54.1199 30.69 54.09 23.72 46.56 24.51C46.1 24.56 45.57 24.14 45.48 23.69C45.02 21.28 43.68 20.54 41.47 21.52C40.71 21.86 39.8699 21.46 39.8299 20.58C39.6899 17.57 38.1199 15.77 35.2399 17.52C34.6699 17.87 33.9 17.54 33.73 16.91C31.35 15.1 30.05 15.41 29.82 17.85C29.8 17.99 29.77 18.13 29.75 18.27C31 21.05 31.6299 24.53 31.3699 27.11C32.16 26.83 33.02 26.72 33.94 26.85C36.8 27.27 37.9199 29.67 37.5499 32.13C39.0399 31.41 40.88 30.98 41.89 32.49C42.84 33.9 42.3 35.46 41.47 36.8C42.95 37.12 44.57 37.73 44.85 39.23C45.14 40.7 43.6899 41.94 42.6799 42.73C42.2499 43.07 41.8 43.39 41.35 43.69C45.68 42.19 49.7899 40.09 51.7099 35.92ZM42.89 40.07C43.59 38.83 40.25 38.54 39.54 38.42C38.73 38.3 38.71 37.3 39.1 36.79C39.37 36.46 41.7299 33.28 39.5799 33.31C38.5799 33.32 37.85 33.58 36.97 33.99C36.61 34.51 35.68 34.18 35.7 33.54C35.76 31.6 36.0899 28.33 33.0799 28.73C30.5899 29.06 29.01 30.95 28.28 33.22C27.97 34.17 26.44 34.04 26.48 32.98C26.49 32.74 26.11 26.27 23.89 28.92C22.92 30.07 22.7499 31.23 22.5499 32.63C22.4499 33.39 21.3899 33.36 21.0499 32.83C20.0499 30.33 18.7099 30.51 17.0199 33.34C17.1499 33.72 17.28 34.09 17.42 34.47C17.62 35.04 17.0099 35.52 16.4899 35.4C12.8899 34.55 14.1099 36.94 16.3599 37.74C16.7699 37.89 16.9899 38.18 17.0199 38.61C17.3699 43.2 21.2199 47.44 26.0499 46.29C26.8799 46.09 27.26 46.97 26.89 47.52C27.07 47.57 27.2299 47.68 27.3299 47.89C27.3699 47.98 27.41 48.07 27.45 48.16C27.69 48.66 27.75 49.35 27.81 50.01C29.05 50.13 30.3099 50.33 31.5499 50.17C31.6099 49.63 31.67 49.09 31.72 48.55C31.78 47.84 31.64 47.2 31.64 46.5C31.64 45.81 32.49 45.43 33 45.88C33.44 45.24 34.44 45.01 35.1 44.71C36.45 44.1 37.8 43.48 39.1 42.76C40.3 42.09 42.17 41.33 42.89 40.07ZM29.23 27.63C30.21 23.52 27.24 10.99 21.88 17.88C21.55 18.29 20.85 18.21 20.51 17.88C16.7 15.38 14.3999 15.98 13.6099 19.69C13.4299 20.22 12.8 20.55 12.29 20.23C10.21 18.9 8.38994 20.53 8.51994 22.83C8.55994 23.51 7.77995 23.84 7.23995 23.56C-1.23005 19.13 4.94995 32.44 6.80995 35.55C9.46995 39.98 13.0299 42.75 17.1799 44.68C16.6899 43.98 16.26 43.24 15.97 42.41C15.54 41.18 15.71 39.58 14.48 38.96C13.38 38.42 10.15 36.51 11.47 34.71C12.5 33.31 14.07 33.34 15.6 33.64C14.65 29.23 18.31 27.71 21.29 30.57C21.81 28.55 22.9 26.58 25.25 26.8C26.83 26.95 27.62 28.27 28 29.76C28.38 29.23 28.83 28.74 29.32 28.32C29.22 28.13 29.17 27.9 29.23 27.63Z" fill="#1D1D1B"/>
<path d="M53.48 13.8C53.64 15.76 53.44 17.75 53.05 19.68C52.81 20.83 52.18 21.87 51.73 22.94C50.82 22.51 49.8 22.24 48.69 22.14C46.52 21.94 47.5 19.93 45.65 19.08C44.29 18.46 43.08 18.6 41.82 19.04C41.15 15.38 38.85 13.5 35.28 15.16C33.46 11.07 29.9 12.92 28.84 16.55C26.93 13.51 24.15 12.17 21.07 15.8C17.6 13.04 14.08 14.15 12.29 18.15C8.91999 16.42 6.82997 17.85 6.76997 21.47C6.41997 21.32 6.06997 21.18 5.70997 21.06C4.16997 18.26 3.51998 14.85 3.02998 11.74C2.78998 10.24 2.69997 8.60999 3.01997 7.10999C3.48997 4.92999 5.86998 7.34 6.68998 8.03C7.13998 8.42 7.66 8.06999 7.67 7.60999C7.97 7.60999 8.26998 7.40999 8.24998 7.04999C7.97998 2.04999 13.55 1.63001 15.9 5.26001C16.2 5.73001 16.93 5.91001 17.34 5.44001C19.03 3.50001 20.96 1.98002 22.75 5.20002C23.15 5.92002 24.34 5.52001 24.27 4.79001C24.51 4.94001 24.82 4.96002 25.04 4.70002C26.93 2.48002 30.27 -0.0799854 32.14 4.48001C32.4 5.13001 33.13 5.39002 33.69 4.89002C35.14 2.89002 36.88 2.94001 38.91 5.04001C39.07 5.47001 39.54 5.88001 40.04 5.69001C43.07 4.49001 43.43 5.58 44.77 8C45.14 8.68 45.94 8.38001 46.13 7.79001C46.15 7.79001 46.17 7.79 46.2 7.78C51.16 5.75 53.1 9.24999 53.48 13.8Z" fill="#99B815"/>
<path d="M46.56 24.51C54.09 23.72 54.12 30.69 51.71 35.92C49.79 40.09 45.68 42.19 41.35 43.69C41.8 43.39 42.25 43.07 42.68 42.73C43.69 41.94 45.14 40.7 44.85 39.23C44.57 37.73 42.95 37.12 41.47 36.8C42.3 35.46 42.84 33.9 41.89 32.49C40.88 30.98 39.04 31.41 37.55 32.13C37.92 29.67 36.8 27.27 33.94 26.85C33.02 26.72 32.16 26.83 31.37 27.11C31.63 24.53 31 21.05 29.75 18.27C29.77 18.13 29.8 17.99 29.82 17.85C30.05 15.41 31.35 15.1 33.73 16.91C33.9 17.54 34.67 17.87 35.24 17.52C38.12 15.77 39.69 17.57 39.83 20.58C39.87 21.46 40.71 21.86 41.47 21.52C43.68 20.54 45.02 21.28 45.48 23.69C45.57 24.14 46.1 24.56 46.56 24.51Z" fill="#99B815"/>
<path d="M39.54 38.42C40.25 38.54 43.59 38.83 42.89 40.07C42.17 41.33 40.3 42.09 39.1 42.76C37.8 43.48 36.45 44.1 35.1 44.71C34.44 45.01 33.44 45.24 33 45.88C32.49 45.43 31.64 45.81 31.64 46.5C31.64 47.2 31.78 47.84 31.72 48.55C31.67 49.09 31.6099 49.63 31.5499 50.17C30.3099 50.33 29.05 50.13 27.81 50.01C27.75 49.35 27.69 48.66 27.45 48.16C27.41 48.07 27.3699 47.98 27.3299 47.89C27.2299 47.68 27.07 47.57 26.89 47.52C27.26 46.97 26.8799 46.09 26.0499 46.29C21.2199 47.44 17.3699 43.2 17.0199 38.61C16.9899 38.18 16.7699 37.89 16.3599 37.74C14.1099 36.94 12.89 34.55 16.4899 35.4C17.0099 35.52 17.62 35.04 17.42 34.47C17.28 34.09 17.1499 33.72 17.0199 33.34C18.7099 30.51 20.0499 30.33 21.0499 32.83C21.3899 33.36 22.4499 33.39 22.5499 32.63C22.7499 31.23 22.92 30.07 23.89 28.92C26.11 26.27 26.49 32.74 26.48 32.98C26.44 34.04 27.97 34.17 28.28 33.22C29.01 30.95 30.5899 29.06 33.0799 28.73C36.0899 28.33 35.76 31.6 35.7 33.54C35.68 34.18 36.61 34.51 36.97 33.99C37.85 33.58 38.5799 33.32 39.5799 33.31C41.7299 33.28 39.37 36.46 39.1 36.79C38.71 37.3 38.73 38.3 39.54 38.42Z" fill="#99B815"/>
<path d="M21.88 17.88C27.24 10.99 30.21 23.52 29.23 27.63C29.17 27.9 29.22 28.13 29.32 28.32C28.83 28.74 28.38 29.23 28 29.76C27.62 28.27 26.83 26.95 25.25 26.8C22.9 26.58 21.81 28.55 21.29 30.57C18.31 27.71 14.65 29.23 15.6 33.64C14.07 33.34 12.5 33.31 11.47 34.71C10.15 36.51 13.38 38.42 14.48 38.96C15.71 39.58 15.54 41.18 15.97 42.41C16.26 43.24 16.69 43.98 17.18 44.68C13.03 42.75 9.46996 39.98 6.80996 35.55C4.94996 32.44 -1.23005 19.13 7.23995 23.56C7.77995 23.84 8.55995 23.51 8.51995 22.83C8.38995 20.53 10.21 18.9 12.29 20.23C12.8 20.55 13.4299 20.22 13.6099 19.69C14.3999 15.98 16.7 15.38 20.51 17.88C20.85 18.21 21.55 18.29 21.88 17.88Z" fill="#99B815"/>
</svg>