<svg xmlns="http://www.w3.org/2000/svg" width="56" height="59" viewBox="0 0 56 59" fill="none">
<path d="M54.42 27.32C57.03 32.98 54.53 35.93 50.48 37.05C48.81 43.49 47.6 50.02 45.15 56.23C44.88 56.9 44.2 57.09 43.66 56.91C43.55 56.98 43.43 57.04 43.27 57.08C33.94 59.32 20.26 60.33 11.68 55.29C11.56 55.21 11.48 55.11 11.45 55C11.34 54.93 11.25 54.84 11.19 54.7C9.91 51.69 9.04 48.68 8.07 45.56C7.49 43.69 6.96998 41.74 6.04998 39.99C5.63998 39.21 5.00997 37.59 4.28997 36.76C3.46997 36.7 2.64 36.63 1.82 36.55C1.42 36.5 1.06001 36.3 0.950009 35.89C8.58307e-06 32.31 0.210016 27.71 4.52002 26.78C4.74002 26.74 4.89998 26.83 4.97998 26.97C7.83998 26.39 10.82 26.14 13.82 26.01C11.51 24.27 9.42001 21.92 8.95001 18.99C8.74001 17.63 8.85998 16.13 9.41998 14.83C6.15998 15.75 3.43997 14.36 1.78997 11.19C1.55997 10.74 1.85 10.19 2.38 10.17C3.56 10.15 4.77 9.90001 5.94 10.02C4.96 6.90001 4.00999 0.679984 8.61999 0.929984C13.31 1.17998 14.26 7.88996 13.71 11.47C16.88 10.94 20.01 13.43 22.07 16.31C21.84 13.74 21.59 11.16 21.31 8.59997C21.26 8.21997 21.58 7.94001 21.89 7.83001C24.66 6.77001 26.87 6.8 29.65 7.82C29.99 7.94 30.24 8.20997 30.24 8.59997C30.24 9.25997 30.24 9.92997 30.23 10.6C30.42 9.10997 30.8 7.07998 32.44 6.54998C34.57 5.84998 36.17 7.42996 38.25 6.40996C42.17 4.48996 45.16 6.97002 45.91 10.59C47.28 10.61 48.55 10.79 49.27 12.15C49.65 12.89 49.63 14.02 49.56 14.8C49.52 15.22 51.86 16.14 52.23 16.42C55.19 18.58 53.95 23.1 51.4 25.07C52.24 25.29 53.08 25.54 53.88 25.87C54.4 26.08 54.55 26.74 54.29 27.13C54.34 27.19 54.39 27.24 54.42 27.32ZM47.51 35.59C52.86 35.39 53.72 32.99 52.82 27.99C52.78 27.78 52.83 27.57 52.93 27.4C45.32 27.13 37.58 27.15 29.99 26.51C29.95 26.51 29.92 26.49 29.88 26.48C29.82 28.78 29.76 31.09 29.74 33.39C29.74 33.96 29.19 34.39 28.63 34.24C27.59 34.08 26.54 33.93 25.49 33.77C25.17 33.77 24.94 33.63 24.79 33.43C24.79 33.61 24.79 33.78 24.79 33.96C24.79 34.43 24.01 34.57 23.94 34.07C23.64 31.9 23.38 29.73 23.14 27.55C17.06 29.15 10.3 27.86 4.07 28.35C4.04 28.35 4.00998 28.34 3.97998 28.34C2.42998 29.92 1.70998 31.96 2.35998 34.27C2.66998 35.38 6.60999 35.1 7.36999 35.13C10.96 35.27 14.56 35.34 18.16 35.27C24.31 35.16 30.7 34.2 36.83 34.73C40.36 35.04 43.95 35.72 47.51 35.59ZM49.77 24.43C52.25 21.46 53.56 17.63 48.36 16.75C48.02 16.69 47.7 16.27 47.73 15.92C47.95 13.83 47.6 12.26 45.21 12.24C44.75 12.24 44.4 11.87 44.39 11.41C44.23 6.77996 40.2 6.69998 37.1 8.60998C36.9 8.73998 36.62 8.72998 36.42 8.60998C33.91 7.10998 31.63 8.37 30.9 10.95C30.82 11.26 30.35 11.27 30.23 11.02C30.22 12.28 30.21 13.53 30.18 14.78C30.66 13.72 31.41 12.8 32.52 12.26C34.63 11.22 35.88 13.19 36.49 15C37.45 13.86 38.75 12.69 40.13 13.15C41.67 13.67 42.37 15 42.87 16.43C44.95 15.54 47.23 15.87 48.28 18.24C49.29 20.52 48.08 22.91 46.26 24.34C47.4 24.39 48.52 24.52 49.62 24.7C49.65 24.61 49.7 24.51 49.77 24.43ZM44.23 23.66C45.61 22.76 47.38 21.26 46.84 19.35C46.24 17.24 44.47 17.4 42.81 18.33C42.35 18.59 41.73 18.36 41.6 17.83C41.39 17.05 40.61 13.63 38.83 14.83C37.93 15.43 37.34 16.13 36.68 16.97C36.37 17.36 35.62 17.15 35.53 16.67C35.19 14.76 33.8 11.81 31.82 14.28C30.79 15.56 30.37 17.11 30.33 18.74C30.32 18.89 30.21 19 30.09 19.04C30.03 21.25 29.96 23.45 29.9 25.65C29.93 25.64 29.96 25.63 29.99 25.63C34.25 25.19 39.12 24.37 43.85 24.3C43.86 24.07 43.97 23.84 44.23 23.66ZM49.38 37.31C47.7 37.63 45.83 37.68 43.98 37.51C31.2 36.38 18.46 37.68 5.66998 36.85C6.14998 37.13 6.60002 37.46 7.15002 38.16C8.11002 39.38 8.73997 40.93 9.28997 42.37C10.75 46.16 11.28 50.28 12.82 54.01C12.88 54.16 12.88 54.3 12.85 54.43C22.81 56.54 32.59 56.18 42.64 54.8C42.87 54.76 43.08 54.8 43.27 54.86C45.12 48.94 46.94 43.02 49.38 37.31ZM28.32 19.01C28.47 15.4 30.68 6.14 23.73 8.82C22.01 9.48 24.22 19.69 24.33 21.28C24.58 24.92 24.75 28.55 24.78 32.19C24.93 32 25.16 31.87 25.49 31.89C27.03 31.99 27.17 31.96 28.01 32.21C28.03 27.81 28.15 23.41 28.32 19.01ZM22.96 25.76C22.76 23.81 22.58 21.86 22.4 19.91C20.94 17.46 19.52 14.75 16.78 13.52C15.17 12.79 13.2 12.79 11.89 14.12C8.22001 17.82 12.03 23.19 15.15 25.7C15.24 25.77 15.28 25.86 15.3 25.95C17.88 25.87 20.46 25.85 22.96 25.76ZM12.6 11.78C12.52 11.68 12.46 11.56 12.45 11.41C12.39 9.08996 12.54 2.18999 8.61999 2.30999C4.80999 2.42999 6.71998 8.84999 7.47998 10.69C7.64998 11.11 7.13998 11.58 6.72998 11.44C5.68998 11.08 4.60997 11.24 3.53997 11.39C5.04997 13.5 7.19 14.42 9.88 13.98C10.16 13.54 10.5 13.14 10.91 12.8C11.46 12.34 12.03 12.01 12.6 11.78Z" fill="#1D1D1B"/>
<path d="M52.82 27.99C53.72 32.99 52.86 35.39 47.51 35.59C43.95 35.72 40.36 35.04 36.83 34.73C30.7 34.2 24.31 35.16 18.16 35.27C14.56 35.34 10.96 35.27 7.36998 35.13C6.60998 35.1 2.66997 35.38 2.35997 34.27C1.70997 31.96 2.42997 29.92 3.97997 28.34C4.00997 28.34 4.04 28.35 4.07 28.35C10.3 27.86 17.06 29.15 23.14 27.55C23.38 29.73 23.64 31.9 23.94 34.07C24.01 34.57 24.79 34.43 24.79 33.96C24.79 33.78 24.79 33.61 24.79 33.43C24.94 33.63 25.17 33.77 25.49 33.77C26.54 33.93 27.59 34.08 28.63 34.24C29.19 34.39 29.74 33.96 29.74 33.39C29.76 31.09 29.82 28.78 29.88 26.48C29.92 26.49 29.95 26.51 29.99 26.51C37.58 27.15 45.32 27.13 52.93 27.4C52.83 27.57 52.78 27.78 52.82 27.99Z" fill="#FBBE3A"/>
<path d="M48.36 16.75C53.56 17.63 52.25 21.46 49.77 24.43C49.7 24.51 49.65 24.61 49.62 24.7C48.52 24.52 47.4 24.39 46.26 24.34C48.08 22.91 49.29 20.52 48.28 18.24C47.23 15.87 44.95 15.54 42.87 16.43C42.37 15 41.67 13.67 40.13 13.15C38.75 12.69 37.45 13.86 36.49 15C35.88 13.19 34.63 11.22 32.52 12.26C31.41 12.8 30.66 13.72 30.18 14.78C30.21 13.53 30.22 12.28 30.23 11.02C30.35 11.27 30.82 11.26 30.9 10.95C31.63 8.37002 33.91 7.11 36.42 8.61C36.62 8.73 36.9 8.74 37.1 8.61C40.2 6.7 44.23 6.77999 44.39 11.41C44.4 11.87 44.75 12.24 45.21 12.24C47.6 12.26 47.95 13.83 47.73 15.92C47.7 16.27 48.02 16.69 48.36 16.75Z" fill="#99B815"/>
<path d="M46.84 19.35C47.38 21.26 45.61 22.76 44.23 23.66C43.97 23.84 43.86 24.07 43.85 24.3C39.12 24.37 34.25 25.19 29.99 25.63C29.96 25.63 29.93 25.64 29.9 25.65C29.96 23.45 30.03 21.25 30.09 19.04C30.21 19 30.32 18.89 30.33 18.74C30.37 17.11 30.79 15.56 31.82 14.28C33.8 11.81 35.19 14.76 35.53 16.67C35.62 17.15 36.37 17.36 36.68 16.97C37.34 16.13 37.93 15.43 38.83 14.83C40.61 13.63 41.39 17.05 41.6 17.83C41.73 18.36 42.35 18.59 42.81 18.33C44.47 17.4 46.24 17.24 46.84 19.35Z" fill="#99B815"/>
<path d="M43.98 37.51C45.83 37.68 47.7 37.63 49.38 37.31C46.94 43.02 45.12 48.94 43.27 54.86C43.08 54.8 42.87 54.76 42.64 54.8C32.59 56.18 22.81 56.54 12.85 54.43C12.88 54.3 12.88 54.16 12.82 54.01C11.28 50.28 10.75 46.16 9.28998 42.37C8.73998 40.93 8.11002 39.38 7.15002 38.16C6.60002 37.46 6.14998 37.13 5.66998 36.85C18.46 37.68 31.2 36.38 43.98 37.51ZM43.35 39.42C43.78 38.88 43.08 38.13 42.57 38.64C41.64 39.56 40.71 40.53 39.77 41.51C38.74 40.64 37.63 39.84 36.52 39.03C35.93 38.6 35.15 39.6 35.73 40.05C36.77 40.86 37.79 41.68 38.78 42.54C37.53 43.82 36.26 45.09 34.93 46.28C34.75 46.13 34.57 45.98 34.4 45.82C33.3 44.85 32.21 43.87 31.12 42.89C31.39 42.68 31.65 42.46 31.93 42.26C32.41 41.9 31.97 41.1 31.45 41.44C31.07 41.68 30.71 41.94 30.35 42.2C29.23 41.2 28.12 40.2 26.99 39.22C26.48 38.77 25.73 39.5 26.24 39.97C27.29 40.94 28.34 41.92 29.38 42.9C27.95 43.98 26.59 45.16 25.23 46.35C23.78 45.09 22.31 43.87 20.82 42.68C21.83 41.9 22.87 41.15 23.98 40.47C24.38 40.22 24.03 39.67 23.61 39.85C22.3 40.42 21.11 41.17 20 42.03C18.79 41.09 17.57 40.18 16.34 39.3C16.26 39.19 16.16 39.1 16.03 39.07C15.86 38.95 15.7 38.82 15.53 38.71C15.18 38.46 14.74 39.03 15.08 39.3C15.11 39.32 15.13 39.35 15.17 39.37C14.17 39.93 13.22 40.57 12.7 41.62C12.44 42.14 13.18 42.58 13.48 42.08C14.05 41.08 15.08 40.59 16.08 40.13C17.1 40.97 18.11 41.85 19.09 42.76C17.76 43.88 16.53 45.14 15.32 46.38C14.82 45.94 14.31 45.51 13.82 45.06C13.59 44.85 13.27 45.17 13.48 45.4C13.92 45.89 14.37 46.39 14.82 46.9C14.72 47 14.62 47.11 14.51 47.22C14.18 47.57 14.7 48.09 15.04 47.75C15.14 47.66 15.24 47.57 15.34 47.47C16.51 48.79 17.73 50.11 19.04 51.3C18.52 51.65 17.99 51.98 17.44 52.29C17.14 52.46 17.35 52.99 17.68 52.85C18.38 52.57 19.05 52.25 19.7 51.89C20.4 52.49 21.11 53.04 21.87 53.52C22.32 53.81 22.8 53.16 22.43 52.79C21.91 52.26 21.36 51.75 20.82 51.24C22.22 50.37 23.53 49.34 24.81 48.27C25.79 49.21 26.77 50.13 27.78 51.02C27.19 51.27 26.59 51.5 25.97 51.69C25.57 51.8 25.74 52.37 26.13 52.3C26.94 52.15 27.73 51.92 28.51 51.64C29.8 52.75 31.12 53.8 32.52 54.74C33.08 55.12 33.67 54.3 33.22 53.84C32.26 52.86 31.26 51.89 30.25 50.92C31.85 50.16 33.39 49.18 34.85 48.06C35.7 48.87 36.55 49.69 37.44 50.46C37.26 50.7 37.07 50.93 36.9 51.18C36.56 51.72 37.38 52.16 37.74 51.67C37.89 51.48 38.04 51.29 38.2 51.1C39.09 51.83 40.01 52.49 40.98 53.04C41.55 53.35 42.09 52.63 41.66 52.16C40.94 51.38 40.15 50.65 39.33 49.94C40.2 49.09 41.1 48.26 41.73 47.19C42.04 46.68 41.27 46.05 40.88 46.54C40.14 47.48 39.28 48.33 38.48 49.21C37.65 48.52 36.8 47.84 35.97 47.16C37.34 46.02 38.63 44.77 39.83 43.49C40.57 44.18 41.3 44.89 41.98 45.65C42.42 46.15 43.27 45.49 42.9 44.93C42.29 44 41.57 43.18 40.79 42.43C41.7 41.41 42.56 40.4 43.35 39.42Z" fill="#FBBE3A"/>
<path d="M42.57 38.64C43.08 38.13 43.7799 38.88 43.3499 39.42C42.5599 40.4 41.7 41.41 40.79 42.43C41.57 43.18 42.29 44 42.9 44.93C43.27 45.49 42.42 46.15 41.98 45.65C41.3 44.89 40.57 44.18 39.83 43.49C38.63 44.77 37.3399 46.02 35.9699 47.16C36.7999 47.84 37.65 48.52 38.48 49.21C39.28 48.33 40.14 47.48 40.88 46.54C41.27 46.05 42.04 46.68 41.73 47.19C41.1 48.26 40.2 49.09 39.33 49.94C40.15 50.65 40.9399 51.38 41.6599 52.16C42.0899 52.63 41.55 53.35 40.98 53.04C40.01 52.49 39.09 51.83 38.2 51.1C38.04 51.29 37.89 51.48 37.74 51.67C37.38 52.16 36.56 51.72 36.9 51.18C37.07 50.93 37.26 50.7 37.44 50.46C36.55 49.69 35.6999 48.87 34.8499 48.06C33.3899 49.18 31.85 50.16 30.25 50.92C31.26 51.89 32.2599 52.86 33.2199 53.84C33.6699 54.3 33.08 55.12 32.52 54.74C31.12 53.8 29.8 52.75 28.51 51.64C27.73 51.92 26.94 52.15 26.13 52.3C25.74 52.37 25.5699 51.8 25.9699 51.69C26.5899 51.5 27.19 51.27 27.78 51.02C26.77 50.13 25.79 49.21 24.81 48.27C23.53 49.34 22.22 50.37 20.82 51.24C21.36 51.75 21.91 52.26 22.43 52.79C22.8 53.16 22.32 53.81 21.87 53.52C21.11 53.04 20.4 52.49 19.7 51.89C19.05 52.25 18.38 52.57 17.68 52.85C17.35 52.99 17.14 52.46 17.44 52.29C17.99 51.98 18.52 51.65 19.04 51.3C17.73 50.11 16.51 48.79 15.34 47.47C15.24 47.57 15.14 47.66 15.04 47.75C14.7 48.09 14.18 47.57 14.51 47.22C14.62 47.11 14.72 47 14.82 46.9C14.37 46.39 13.92 45.89 13.48 45.4C13.27 45.17 13.59 44.85 13.82 45.06C14.31 45.51 14.82 45.94 15.32 46.38C16.53 45.14 17.76 43.88 19.09 42.76C18.11 41.85 17.1 40.97 16.08 40.13C15.08 40.59 14.05 41.08 13.48 42.08C13.18 42.58 12.44 42.14 12.7 41.62C13.22 40.57 14.17 39.93 15.17 39.37C15.13 39.35 15.11 39.32 15.08 39.3C14.74 39.03 15.18 38.46 15.53 38.71C15.7 38.82 15.86 38.95 16.03 39.07C16.16 39.1 16.26 39.19 16.34 39.3C17.57 40.18 18.79 41.0901 20 42.0301C21.11 41.1701 22.3 40.42 23.61 39.85C24.03 39.67 24.38 40.22 23.98 40.47C22.87 41.15 21.83 41.9 20.82 42.68C22.31 43.87 23.78 45.09 25.23 46.35C26.59 45.16 27.95 43.98 29.38 42.9C28.34 41.92 27.29 40.94 26.24 39.97C25.73 39.5 26.48 38.77 26.99 39.22C28.12 40.2 29.2299 41.2 30.3499 42.2C30.7099 41.94 31.07 41.68 31.45 41.44C31.97 41.1 32.41 41.9 31.93 42.26C31.65 42.46 31.39 42.68 31.12 42.89C32.21 43.87 33.3 44.85 34.4 45.82C34.57 45.98 34.75 46.1301 34.93 46.2801C36.26 45.0901 37.53 43.82 38.78 42.54C37.79 41.68 36.77 40.86 35.73 40.05C35.15 39.6 35.93 38.6001 36.52 39.0301C37.63 39.8401 38.74 40.64 39.77 41.51C40.71 40.53 41.64 39.56 42.57 38.64ZM33.9 47.15C33.76 47.01 33.62 46.88 33.48 46.75C32.38 45.71 31.28 44.67 30.17 43.64C28.81 44.76 27.48 45.96 26.14 47.14C27.28 48.14 28.4 49.17 29.5 50.2C31.06 49.36 32.51 48.3 33.9 47.15ZM23.96 47.45C22.58 46.12 21.21 44.77 19.82 43.45C18.48 44.55 17.19 45.71 15.92 46.92C17.32 48.13 18.7299 49.33 20.0999 50.57C21.4399 49.6 22.71 48.54 23.96 47.45Z" fill="#1D1D1B"/>
<path d="M33.48 46.75C33.62 46.88 33.76 47.01 33.9 47.15C32.51 48.3 31.06 49.36 29.5 50.2C28.4 49.17 27.28 48.14 26.14 47.14C27.48 45.96 28.81 44.76 30.17 43.64C31.28 44.67 32.38 45.71 33.48 46.75Z" fill="#FBBE3A"/>
<path d="M23.73 8.82001C30.68 6.14001 28.47 15.4 28.32 19.01C28.15 23.41 28.03 27.81 28.01 32.21C27.17 31.96 27.03 31.99 25.49 31.89C25.16 31.87 24.93 32 24.78 32.19C24.75 28.55 24.58 24.92 24.33 21.28C24.22 19.69 22.01 9.48001 23.73 8.82001Z" fill="#FBBE3A"/>
<path d="M22.4 19.91C22.58 21.86 22.76 23.81 22.96 25.76C20.46 25.85 17.88 25.87 15.3 25.95C15.28 25.86 15.24 25.77 15.15 25.7C12.03 23.19 8.22001 17.82 11.89 14.12C13.2 12.79 15.17 12.79 16.78 13.52C19.52 14.75 20.94 17.46 22.4 19.91ZM19.53 22.93C19.83 22.6 19.38 22.17 19.04 22.44C18.23 23.11 17.21 23.58 16.28 24.06C15.86 24.28 16.23 24.9 16.65 24.69C17.66 24.21 18.76 23.77 19.53 22.93ZM17.27 20.27C17.74 19.92 17.32 19.14 16.8 19.46C15.16 20.48 13.73 21.74 13.74 23.81C13.74 24.43 14.65 24.42 14.69 23.81C14.79 22.23 16.08 21.15 17.27 20.27ZM14.52 17.79C14.7 17.38 14.15 17.03 13.9 17.43C13.16 18.68 12.21 20.05 12.18 21.56C12.17 22 12.83 21.99 12.87 21.56C12.97 20.22 14 19 14.52 17.79Z" fill="#EC7724"/>
<path d="M19.82 43.45C21.21 44.77 22.58 46.12 23.96 47.45C22.71 48.54 21.44 49.6 20.1 50.57C18.73 49.33 17.32 48.13 15.92 46.92C17.19 45.71 18.48 44.55 19.82 43.45Z" fill="#FBBE3A"/>
<path d="M19.04 22.44C19.38 22.17 19.83 22.6 19.53 22.93C18.76 23.77 17.66 24.21 16.65 24.69C16.23 24.9 15.86 24.28 16.28 24.06C17.21 23.58 18.23 23.11 19.04 22.44Z" fill="#1D1D1B"/>
<path d="M16.8 19.46C17.32 19.14 17.74 19.92 17.27 20.27C16.08 21.15 14.79 22.23 14.69 23.81C14.65 24.42 13.74 24.43 13.74 23.81C13.73 21.74 15.16 20.48 16.8 19.46Z" fill="#1D1D1B"/>
<path d="M13.9 17.43C14.15 17.03 14.7 17.38 14.52 17.79C14 19 12.97 20.22 12.87 21.56C12.83 21.99 12.17 22 12.18 21.56C12.21 20.05 13.16 18.68 13.9 17.43Z" fill="#1D1D1B"/>
<path d="M12.45 11.41C12.46 11.56 12.52 11.68 12.6 11.78C12.03 12.01 11.46 12.34 10.91 12.8C10.5 13.14 10.16 13.54 9.88 13.98C7.19 14.42 5.04998 13.5 3.53998 11.39C4.60998 11.24 5.68998 11.08 6.72998 11.44C7.13998 11.58 7.64998 11.11 7.47998 10.69C6.71998 8.85002 4.81 2.43002 8.62 2.31002C12.54 2.19002 12.39 9.08999 12.45 11.41Z" fill="#99B815"/>
</svg>