<svg xmlns="http://www.w3.org/2000/svg" width="34" height="48" viewBox="0 0 34 48" fill="none">
<path d="M31.56 1.46997C34.9 5.54997 33.41 13.94 31.45 18.33C28.9 24.05 23.75 28.44 17.23 28.56C17.07 28.56 16.92 28.55 16.76 28.55C18.24 31.03 18.13 35.01 18.03 37.57C17.97 39.08 18.14 41.85 17.61 43.89C19.37 43.75 21.46 43.53 22.78 44.63C23.3 45.07 23.3 46.07 22.78 46.51C21.23 47.8 18.58 47.28 16.69 47.18C13.9 47.04 11.09 47.02 8.31998 46.66C6.90998 46.48 6.90998 44.66 8.31998 44.48C10.24 44.22 12.19 44.13 14.13 44.05C13.95 41.99 14.71 39.32 14.76 37.57C14.86 34.53 14.36 31.39 14.51 28.38C2.61998 26.64 -1.82005 12.07 2.22995 1.33001C2.49995 0.630014 3.39995 0.440026 3.91995 0.780026C3.98995 0.660026 4.08995 0.550016 4.22995 0.520016C5.97995 0.110016 7.89997 0.80999 9.68997 0.92999C12.52 1.11999 15.35 1.24002 18.18 1.27002C21.63 1.31002 26.8199 0.249977 30.2199 1.47998C30.5899 1.11998 31.16 0.979968 31.56 1.46997ZM29.44 15.26C30.13 12.78 30.55 10.22 30.39 7.64001C30.32 6.45001 30.05 5.26 29.92 4.07C28.16 4.57 26.14 4.30999 24.34 4.30999C21.45 4.30999 18.54 4.35998 15.65 4.16998C12.69 3.97998 6.63 4.24002 4.28 1.77002C3.47 10.54 3.53997 25.82 16.06 25.61C22.55 25.5 27.69 21.56 29.44 15.26Z" fill="#1D1D1B"/>
<path d="M30.39 7.64001C30.55 10.22 30.13 12.78 29.44 15.26C27.69 21.56 22.55 25.5 16.06 25.61C3.54 25.82 3.47004 10.54 4.28004 1.77002C6.63004 4.24002 12.69 3.97998 15.65 4.16998C18.54 4.35998 21.45 4.31 24.34 4.31C26.14 4.31 28.16 4.57001 29.92 4.07001C30.05 5.26001 30.32 6.45001 30.39 7.64001ZM28.02 12.32C28.05 11.49 27.38 11.17 26.77 11.29C26.54 11.06 26.21 10.9 25.79 10.88C19.69 10.7 14.1 9.75998 8.66999 6.97998C8.30999 6.53998 7.72999 6.33001 7.10999 6.70001C2.26999 9.59001 6.66002 17.6 9.26002 20.4C10.58 21.82 12.3 22.92 14.05 23.43C14.24 23.54 14.43 23.66 14.63 23.76C20.27 26.68 24.3 22.26 26.36 17.47C27.32 15.96 27.93 14.2 28.02 12.32Z" fill="#F6F6F6"/>
<path d="M26.77 11.29C27.38 11.17 28.05 11.49 28.02 12.32C27.93 14.2 27.32 15.96 26.36 17.47C24.3 22.26 20.27 26.68 14.63 23.76C14.43 23.66 14.24 23.54 14.05 23.43C12.3 22.92 10.58 21.82 9.26 20.4C6.66 17.6 2.26998 9.59003 7.10998 6.70003C7.72998 6.33003 8.30997 6.53999 8.66997 6.97999C14.1 9.75999 19.69 10.7 25.79 10.88C26.21 10.9 26.54 11.06 26.77 11.29Z" fill="#BE1622"/>
</svg>