<svg width="64" height="62" viewBox="0 0 64 62" fill="none" xmlns="http://www.w3.org/2000/svg">
<path d="M63.896 57.176C63.896 58.449 63.38 59.601 62.545 60.435C61.711 61.268 60.558 61.785 59.286 61.785H5.183C2.637 61.785 0.572998 59.722 0.572998 57.176C0.572998 56.593 0.681006 56.036 0.878006 55.523C1.11201 54.915 1.47 54.369 1.922 53.917C2.756 53.083 3.90901 52.566 5.18201 52.566H59.285C61.248 52.566 62.925 53.794 63.588 55.523C63.788 56.036 63.896 56.593 63.896 57.176Z" fill="#49151A"/>
<path d="M63.59 55.523C63.357 56.131 62.998 56.677 62.546 57.129C61.712 57.962 60.559 58.479 59.287 58.479H5.18404C3.22104 58.479 1.54403 57.252 0.879028 55.523C1.11303 54.915 1.47103 54.369 1.92303 53.917C2.75703 53.083 3.91003 52.566 5.18303 52.566H59.286C61.249 52.566 62.926 53.794 63.59 55.523Z" fill="#672122"/>
<path d="M25.7821 2.14801V8.56001C25.7821 11.349 25.0681 12.999 23.7081 15.434L20.106 21.011C19.584 21.946 19.3101 22.998 19.3101 24.068V50.307C19.3101 52.033 20.7101 53.433 22.4361 53.433H30.2701V2.14801H25.7821Z" fill="#AEEAFF"/>
<path d="M34.759 2.14801V8.56001C34.759 11.349 35.473 12.999 36.833 15.434L40.435 21.011C40.957 21.946 41.231 22.998 41.231 24.068V50.307C41.231 52.033 39.831 53.433 38.105 53.433H30.271V2.14801H34.759Z" fill="#83D2E5"/>
<path d="M30.2711 0.398987H24.6891L25.7821 2.14799H30.2711V0.398987Z" fill="#BD1E2C"/>
<path d="M35.852 0.398987H30.271V2.14799H34.759L35.852 0.398987Z" fill="#8C231F"/>
<path d="M30.2711 2.14801V50.837H23.0201C22.2061 50.837 21.5431 50.174 21.5431 49.36V25.073C21.5431 24.34 21.7281 23.613 22.0791 22.971L25.4111 17.811L25.4331 17.772C26.8551 15.225 27.5321 13.52 27.5321 10.719V2.14801H30.2711Z" fill="#CFF5FF"/>
<path d="M38.999 25.073V49.36C38.999 50.174 38.335 50.837 37.521 50.837H30.27V2.14801H33.008V10.719C33.008 13.52 33.685 15.225 35.107 17.772L35.129 17.811L38.461 22.971C38.813 23.613 38.999 24.34 38.999 25.073Z" fill="#BDE8F2"/>
<path d="M38.9991 25.724V49.36C38.9991 50.174 38.3351 50.837 37.5211 50.837H23.0201C22.2061 50.837 21.5431 50.174 21.5431 49.36V25.926C21.5431 25.926 24.9611 22.356 30.2711 26.836C33.5081 29.568 38.9991 25.724 38.9991 25.724Z" fill="#E3F7FC"/>
<path d="M30.2711 26.836C24.9611 22.356 21.5431 25.926 21.5431 25.926V49.36C21.5431 50.174 22.2061 50.837 23.0201 50.837H30.2711V26.836Z" fill="white"/>
<path d="M59.06 41.904C59.06 42.913 53.424 43.731 46.471 43.731C39.518 43.731 33.882 42.913 33.882 41.904C33.882 40.895 39.518 40.077 46.471 40.077C53.424 40.077 59.06 40.895 59.06 41.904Z" fill="#49151A"/>
<path d="M41.008 34.521C41.897 29.896 44.106 28.141 45.021 27.597C45.269 27.45 45.587 27.453 45.832 27.605C46.737 28.167 48.91 29.965 49.709 34.606C50.728 40.532 45.302 40.309 45.302 40.309C45.302 40.309 39.873 40.425 41.008 34.521Z" fill="#F66654"/>
<path d="M45.428 27.488C45.569 27.489 45.71 27.528 45.832 27.604C46.737 28.166 48.91 29.964 49.709 34.605C50.728 40.531 45.302 40.308 45.302 40.308L45.428 27.488Z" fill="#D4583F"/>
<path d="M48.8179 38.528C50.2659 34.046 52.6719 32.574 53.6469 32.146C53.9119 32.03 54.2259 32.072 54.4509 32.253C55.2799 32.921 57.2179 34.971 57.4429 39.676C57.7309 45.682 52.3729 44.798 52.3729 44.798C52.3729 44.798 46.9689 44.25 48.8179 38.528Z" fill="#F66654"/>
<path d="M54.0629 32.088C54.2029 32.107 54.338 32.1619 54.45 32.2529C55.279 32.9209 57.2169 34.971 57.4419 39.676C57.7299 45.682 52.3719 44.7979 52.3719 44.7979L54.0629 32.088Z" fill="#D4583F"/>
<path d="M36.321 42.265C35.227 37.684 36.517 35.175 37.128 34.303C37.294 34.066 37.584 33.938 37.87 33.976C38.926 34.115 41.647 34.86 44.285 38.761C47.653 43.742 42.616 45.772 42.616 45.772C42.616 45.772 37.717 48.114 36.321 42.265Z" fill="#F66654"/>
<path d="M37.454 34.037C37.583 33.98 37.727 33.958 37.87 33.977C38.926 34.116 41.647 34.861 44.285 38.762C47.653 43.743 42.617 45.773 42.617 45.773L37.454 34.037Z" fill="#D4583F"/>
<path d="M43.7919 37.155C47.3749 34.099 50.197 34.108 51.251 34.255C51.537 34.295 51.7829 34.496 51.8789 34.768C52.2349 35.772 52.8089 38.534 50.5329 42.657C47.6269 47.921 43.5289 44.357 43.5289 44.357C43.5289 44.357 39.2169 41.057 43.7919 37.155Z" fill="#F66654"/>
<path d="M51.6359 34.424C51.7449 34.513 51.8309 34.631 51.8789 34.768C52.2349 35.772 52.8089 38.5339 50.5329 42.6569C47.6269 47.9209 43.5299 44.358 43.5299 44.358L51.6359 34.424Z" fill="#D4583F"/>
<path d="M46.471 43.731C39.518 43.731 33.882 42.913 33.882 41.904V44.805C33.882 50.366 38.39 54.875 43.952 54.875H46.472L46.471 43.731Z" fill="#889C29"/>
<path d="M46.4709 43.731C53.4239 43.731 59.0599 42.913 59.0599 41.904V44.805C59.0599 50.366 54.5519 54.875 48.9899 54.875H46.4709V43.731Z" fill="#6F811B"/>
<path d="M7.97302 41.306V43.753C9.43902 43.753 10.627 44.941 10.627 46.407C10.627 47.873 9.43902 49.061 7.97302 49.061V56.692H28.549C29.709 56.692 30.649 55.752 30.649 54.591V41.306H7.97302Z" fill="#FFC239"/>
<path d="M13.287 54.081C14.0282 54.081 14.6291 53.4801 14.6291 52.739C14.6291 51.9978 14.0282 51.397 13.287 51.397C12.5459 51.397 11.9451 51.9978 11.9451 52.739C11.9451 53.4801 12.5459 54.081 13.287 54.081Z" fill="#FCAB16"/>
<path d="M17.55 45.438C17.55 46.37 16.795 47.125 15.863 47.125C14.931 47.125 14.176 46.37 14.176 45.438C14.176 44.506 14.931 43.751 15.863 43.751C16.794 43.751 17.55 44.506 17.55 45.438Z" fill="#FCAB16"/>
<path d="M26.4471 46.633C26.4471 47.293 25.9121 47.829 25.2511 47.829C24.5901 47.829 24.0551 47.294 24.0551 46.633C24.0551 45.973 24.5901 45.437 25.2511 45.437C25.9121 45.437 26.4471 45.973 26.4471 46.633Z" fill="#FCAB16"/>
<path d="M21.266 50.0369C21.266 50.6969 20.731 51.2329 20.07 51.2329C19.409 51.2329 18.874 50.6979 18.874 50.0369C18.874 49.3769 19.409 48.8409 20.07 48.8409C20.731 48.8409 21.266 49.3769 21.266 50.0369Z" fill="#FCAB16"/>
<path d="M27.4581 52.739C27.4581 53.584 26.7731 54.269 25.9281 54.269C25.0831 54.269 24.399 53.584 24.399 52.739C24.399 51.894 25.0841 51.209 25.9281 51.209C26.7721 51.209 27.4581 51.894 27.4581 52.739Z" fill="#FCAB16"/>
<path d="M7.97302 41.306L17.828 37.854C17.828 37.854 26.827 36.677 30.65 41.306C20.517 41.306 7.97302 41.306 7.97302 41.306Z" fill="#FCAB16"/>
</svg>
